; NON-PLATED HOLES START AT T1
; THROUGH (PLATED) HOLES START AT T100
M48
INCH
T100C0.052000
T101C0.040000
T102C0.031497
T103C0.035000
T104C0.015748
T105C0.038000
T106C0.036000
%
T100
X023120Y002275
X020120Y002275
T101
X029120Y005275
X013120Y004345
X029120Y008275
X029120Y006275
X016120Y004345
X013120Y002205
X029120Y004275
X016120Y003275
X029120Y009275
X029120Y007275
X016120Y002205
X013120Y003275
T102
X013120Y008260
X016120Y007275
X013120Y007275
X016120Y008260
T103
X005120Y009275
X001120Y008275
X005120Y005275
X010120Y009275
X001120Y009275
X008120Y001504
X007120Y005275
X008120Y005275
X008120Y003275
X005120Y007275
X005560Y003275
X007120Y009275
X008120Y009275
X001120Y005275
X010120Y005275
X005560Y001504
X005120Y008275
X011120Y005275
X001120Y007275
X005120Y006275
X011120Y009275
X001120Y006275
T104
X015720Y005607
X014040Y002247
X009000Y007767
X012600Y014967
X016920Y002967
X022920Y014007
X004440Y012567
X027720Y007287
X015720Y015447
X014520Y008967
X018600Y008967
X016440Y013047
X013080Y019527
X019800Y005367
X027960Y012087
X024120Y014007
X015960Y018567
T105
X021120Y013275
X021120Y016275
X002955Y002197
X020662Y020905
X028662Y012905
X021120Y011275
X029662Y012905
X021120Y014275
X001662Y019905
X021120Y012275
X003662Y002905
X019662Y020905
X021120Y015275
X021120Y018275
X021120Y017275
X002662Y019905
X010662Y020905
X009662Y020905
T106
X015120Y017275
X017120Y017275
X008120Y011275
X006120Y011275
X005120Y011275
X010120Y011275
X003120Y011275
X015120Y011275
X014120Y011275
X014120Y017275
X009120Y017275
X007120Y011275
X008120Y017275
X004120Y011275
X011120Y011275
X013120Y011275
X012120Y011275
X007120Y017275
X013120Y017275
X017120Y011275
X011120Y017275
X004120Y017275
X016120Y011275
X012120Y017275
X016120Y017275
X005120Y017275
X009120Y011275
X010120Y017275
X003120Y017275
X006120Y017275
T00
M30
