G04 MADE WITH FRITZING*
G04 WWW.FRITZING.ORG*
G04 DOUBLE SIDED*
G04 HOLES PLATED*
G04 CONTOUR ON CENTER OF CONTOUR VECTOR*
%ASAXBY*%
%FSLAX23Y23*%
%MOIN*%
%OFA0B0*%
%SFA1.0B1.0*%
%ADD10C,0.008*%
%LNCONTOUR*%
G90*
G70*
G54D10*
X367Y2205D02*
X368Y2205D01*
X369Y2205D01*
X370Y2205D01*
X371Y2205D01*
X372Y2205D01*
X373Y2205D01*
X374Y2205D01*
X375Y2205D01*
X376Y2205D01*
X377Y2205D01*
X378Y2205D01*
X379Y2205D01*
X380Y2205D01*
X381Y2205D01*
X382Y2205D01*
X383Y2205D01*
X384Y2205D01*
X385Y2205D01*
X386Y2205D01*
X387Y2205D01*
X388Y2205D01*
X389Y2205D01*
X390Y2205D01*
X391Y2205D01*
X392Y2205D01*
X393Y2205D01*
X394Y2205D01*
X395Y2205D01*
X396Y2205D01*
X397Y2205D01*
X398Y2205D01*
X399Y2205D01*
X400Y2205D01*
X401Y2205D01*
X402Y2205D01*
X403Y2205D01*
X404Y2205D01*
X405Y2205D01*
X406Y2205D01*
X407Y2205D01*
X408Y2205D01*
X409Y2205D01*
X410Y2205D01*
X411Y2205D01*
X412Y2205D01*
X413Y2205D01*
X414Y2205D01*
X415Y2205D01*
X416Y2205D01*
X417Y2205D01*
X418Y2205D01*
X419Y2205D01*
X420Y2205D01*
X421Y2205D01*
X422Y2205D01*
X423Y2205D01*
X424Y2205D01*
X425Y2205D01*
X426Y2205D01*
X427Y2205D01*
X428Y2205D01*
X429Y2205D01*
X430Y2205D01*
X431Y2205D01*
X432Y2205D01*
X433Y2205D01*
X434Y2205D01*
X435Y2205D01*
X436Y2205D01*
X437Y2205D01*
X438Y2205D01*
X439Y2205D01*
X440Y2205D01*
X441Y2205D01*
X442Y2205D01*
X443Y2205D01*
X444Y2205D01*
X445Y2205D01*
X446Y2205D01*
X447Y2205D01*
X448Y2205D01*
X449Y2205D01*
X450Y2205D01*
X451Y2205D01*
X452Y2205D01*
X453Y2205D01*
X454Y2205D01*
X455Y2205D01*
X456Y2205D01*
X457Y2205D01*
X458Y2205D01*
X459Y2205D01*
X460Y2205D01*
X461Y2205D01*
X462Y2205D01*
X463Y2205D01*
X464Y2205D01*
X465Y2205D01*
X466Y2205D01*
X467Y2205D01*
X468Y2205D01*
X469Y2205D01*
X470Y2205D01*
X471Y2205D01*
X472Y2205D01*
X473Y2205D01*
X474Y2205D01*
X475Y2205D01*
X476Y2205D01*
X477Y2205D01*
X478Y2205D01*
X479Y2205D01*
X480Y2205D01*
X481Y2205D01*
X482Y2205D01*
X483Y2205D01*
X484Y2205D01*
X485Y2205D01*
X486Y2205D01*
X487Y2205D01*
X488Y2205D01*
X489Y2205D01*
X490Y2205D01*
X491Y2205D01*
X492Y2205D01*
X493Y2205D01*
X494Y2205D01*
X495Y2205D01*
X496Y2205D01*
X497Y2205D01*
X498Y2205D01*
X499Y2205D01*
X500Y2205D01*
X501Y2205D01*
X502Y2205D01*
X503Y2205D01*
X504Y2205D01*
X505Y2205D01*
X506Y2205D01*
X507Y2205D01*
X508Y2205D01*
X509Y2205D01*
X510Y2205D01*
X511Y2205D01*
X512Y2205D01*
X513Y2205D01*
X514Y2205D01*
X515Y2205D01*
X516Y2205D01*
X517Y2205D01*
X518Y2205D01*
X519Y2205D01*
X520Y2205D01*
X521Y2205D01*
X522Y2205D01*
X523Y2205D01*
X524Y2205D01*
X525Y2205D01*
X526Y2205D01*
X527Y2205D01*
X528Y2205D01*
X529Y2205D01*
X530Y2205D01*
X531Y2205D01*
X532Y2205D01*
X533Y2205D01*
X534Y2205D01*
X535Y2205D01*
X536Y2205D01*
X537Y2205D01*
X538Y2205D01*
X539Y2205D01*
X540Y2205D01*
X541Y2205D01*
X542Y2205D01*
X543Y2205D01*
X544Y2205D01*
X545Y2205D01*
X546Y2205D01*
X547Y2205D01*
X548Y2205D01*
X549Y2205D01*
X550Y2205D01*
X551Y2205D01*
X552Y2205D01*
X553Y2205D01*
X554Y2205D01*
X555Y2205D01*
X556Y2205D01*
X557Y2205D01*
X558Y2205D01*
X559Y2205D01*
X560Y2205D01*
X561Y2205D01*
X562Y2205D01*
X563Y2205D01*
X564Y2205D01*
X565Y2205D01*
X566Y2205D01*
X567Y2205D01*
X568Y2205D01*
X569Y2205D01*
X570Y2205D01*
X571Y2205D01*
X572Y2205D01*
X573Y2205D01*
X574Y2205D01*
X575Y2205D01*
X576Y2205D01*
X577Y2205D01*
X578Y2205D01*
X579Y2205D01*
X580Y2205D01*
X581Y2205D01*
X582Y2205D01*
X583Y2205D01*
X584Y2205D01*
X585Y2205D01*
X586Y2205D01*
X587Y2205D01*
X588Y2205D01*
X589Y2205D01*
X590Y2205D01*
X591Y2205D01*
X592Y2205D01*
X593Y2205D01*
X594Y2205D01*
X595Y2205D01*
X596Y2205D01*
X597Y2205D01*
X598Y2205D01*
X599Y2205D01*
X600Y2205D01*
X601Y2205D01*
X602Y2205D01*
X603Y2205D01*
X604Y2205D01*
X605Y2205D01*
X606Y2205D01*
X607Y2205D01*
X608Y2205D01*
X609Y2205D01*
X610Y2205D01*
X611Y2205D01*
X612Y2205D01*
X613Y2205D01*
X614Y2205D01*
X615Y2205D01*
X616Y2205D01*
X617Y2205D01*
X618Y2205D01*
X619Y2205D01*
X620Y2205D01*
X621Y2205D01*
X622Y2205D01*
X623Y2205D01*
X624Y2205D01*
X625Y2205D01*
X626Y2205D01*
X627Y2205D01*
X628Y2205D01*
X629Y2205D01*
X630Y2205D01*
X631Y2205D01*
X632Y2205D01*
X633Y2205D01*
X634Y2205D01*
X635Y2205D01*
X636Y2205D01*
X637Y2205D01*
X638Y2205D01*
X639Y2205D01*
X640Y2205D01*
X641Y2205D01*
X642Y2205D01*
X643Y2205D01*
X644Y2205D01*
X645Y2205D01*
X646Y2205D01*
X647Y2205D01*
X648Y2205D01*
X649Y2205D01*
X650Y2205D01*
X651Y2205D01*
X652Y2205D01*
X653Y2205D01*
X654Y2205D01*
X655Y2205D01*
X656Y2205D01*
X657Y2205D01*
X658Y2205D01*
X659Y2205D01*
X660Y2205D01*
X661Y2205D01*
X662Y2205D01*
X663Y2205D01*
X664Y2205D01*
X665Y2205D01*
X666Y2205D01*
X667Y2205D01*
X668Y2205D01*
X669Y2205D01*
X670Y2205D01*
X671Y2205D01*
X672Y2205D01*
X673Y2205D01*
X674Y2205D01*
X675Y2205D01*
X676Y2205D01*
X677Y2205D01*
X678Y2205D01*
X679Y2205D01*
X680Y2205D01*
X681Y2205D01*
X682Y2205D01*
X683Y2205D01*
X684Y2205D01*
X685Y2205D01*
X686Y2205D01*
X687Y2205D01*
X688Y2205D01*
X689Y2205D01*
X690Y2205D01*
X691Y2205D01*
X692Y2205D01*
X693Y2205D01*
X694Y2205D01*
X695Y2205D01*
X696Y2205D01*
X697Y2205D01*
X698Y2205D01*
X699Y2205D01*
X700Y2205D01*
X701Y2205D01*
X702Y2205D01*
X703Y2205D01*
X704Y2205D01*
X705Y2205D01*
X706Y2205D01*
X707Y2205D01*
X708Y2205D01*
X709Y2205D01*
X710Y2205D01*
X711Y2205D01*
X712Y2205D01*
X713Y2205D01*
X714Y2205D01*
X715Y2205D01*
X716Y2205D01*
X717Y2205D01*
X718Y2205D01*
X719Y2205D01*
X720Y2205D01*
X721Y2205D01*
X722Y2205D01*
X723Y2205D01*
X724Y2205D01*
X725Y2205D01*
X726Y2205D01*
X727Y2205D01*
X728Y2205D01*
X729Y2205D01*
X730Y2205D01*
X731Y2205D01*
X732Y2205D01*
X733Y2205D01*
X734Y2205D01*
X735Y2205D01*
X736Y2205D01*
X737Y2205D01*
X738Y2205D01*
X739Y2205D01*
X740Y2205D01*
X741Y2205D01*
X742Y2205D01*
X743Y2205D01*
X744Y2205D01*
X745Y2205D01*
X746Y2205D01*
X747Y2205D01*
X748Y2205D01*
X749Y2205D01*
X750Y2205D01*
X751Y2205D01*
X752Y2205D01*
X753Y2205D01*
X754Y2205D01*
X755Y2205D01*
X756Y2205D01*
X757Y2205D01*
X758Y2205D01*
X759Y2205D01*
X760Y2205D01*
X761Y2205D01*
X762Y2205D01*
X763Y2205D01*
X764Y2205D01*
X765Y2205D01*
X766Y2205D01*
X767Y2205D01*
X768Y2205D01*
X769Y2205D01*
X770Y2205D01*
X771Y2205D01*
X772Y2205D01*
X773Y2205D01*
X774Y2205D01*
X775Y2205D01*
X776Y2205D01*
X777Y2205D01*
X778Y2205D01*
X779Y2205D01*
X780Y2205D01*
X781Y2205D01*
X782Y2205D01*
X783Y2205D01*
X784Y2205D01*
X785Y2205D01*
X786Y2205D01*
X787Y2205D01*
X788Y2205D01*
X789Y2205D01*
X790Y2205D01*
X791Y2205D01*
X792Y2205D01*
X793Y2205D01*
X794Y2205D01*
X795Y2205D01*
X796Y2205D01*
X797Y2205D01*
X798Y2205D01*
X799Y2205D01*
X800Y2205D01*
X801Y2205D01*
X802Y2205D01*
X803Y2205D01*
X804Y2205D01*
X805Y2205D01*
X806Y2205D01*
X807Y2205D01*
X808Y2205D01*
X809Y2205D01*
X810Y2205D01*
X811Y2205D01*
X812Y2205D01*
X813Y2205D01*
X814Y2205D01*
X815Y2205D01*
X816Y2205D01*
X817Y2205D01*
X818Y2205D01*
X819Y2205D01*
X820Y2205D01*
X821Y2205D01*
X822Y2205D01*
X823Y2205D01*
X824Y2205D01*
X825Y2205D01*
X826Y2205D01*
X827Y2205D01*
X828Y2205D01*
X829Y2205D01*
X830Y2205D01*
X831Y2205D01*
X832Y2205D01*
X833Y2205D01*
X834Y2205D01*
X835Y2205D01*
X836Y2205D01*
X837Y2205D01*
X838Y2205D01*
X839Y2205D01*
X840Y2205D01*
X841Y2205D01*
X842Y2205D01*
X843Y2205D01*
X844Y2205D01*
X845Y2205D01*
X846Y2205D01*
X847Y2205D01*
X848Y2205D01*
X849Y2205D01*
X850Y2205D01*
X851Y2205D01*
X852Y2205D01*
X853Y2205D01*
X854Y2205D01*
X855Y2205D01*
X856Y2205D01*
X857Y2205D01*
X858Y2205D01*
X859Y2205D01*
X860Y2205D01*
X861Y2205D01*
X862Y2205D01*
X863Y2205D01*
X864Y2205D01*
X865Y2205D01*
X866Y2205D01*
X867Y2205D01*
X868Y2205D01*
X869Y2205D01*
X870Y2205D01*
X871Y2205D01*
X872Y2205D01*
X873Y2205D01*
X874Y2205D01*
X875Y2205D01*
X876Y2205D01*
X877Y2205D01*
X878Y2205D01*
X879Y2205D01*
X880Y2205D01*
X881Y2205D01*
X882Y2205D01*
X883Y2205D01*
X884Y2205D01*
X885Y2205D01*
X886Y2205D01*
X887Y2205D01*
X888Y2205D01*
X889Y2205D01*
X890Y2205D01*
X891Y2205D01*
X892Y2205D01*
X893Y2205D01*
X894Y2205D01*
X895Y2205D01*
X896Y2205D01*
X897Y2205D01*
X898Y2205D01*
X899Y2205D01*
X900Y2205D01*
X901Y2205D01*
X902Y2205D01*
X903Y2205D01*
X904Y2205D01*
X905Y2205D01*
X906Y2205D01*
X907Y2205D01*
X908Y2205D01*
X909Y2205D01*
X910Y2205D01*
X911Y2205D01*
X912Y2205D01*
X913Y2205D01*
X914Y2205D01*
X915Y2205D01*
X916Y2205D01*
X917Y2205D01*
X918Y2205D01*
X919Y2205D01*
X920Y2205D01*
X921Y2205D01*
X922Y2205D01*
X923Y2205D01*
X924Y2205D01*
X925Y2205D01*
X926Y2205D01*
X927Y2205D01*
X928Y2205D01*
X929Y2205D01*
X930Y2205D01*
X931Y2205D01*
X932Y2205D01*
X933Y2205D01*
X934Y2205D01*
X935Y2205D01*
X936Y2205D01*
X937Y2205D01*
X938Y2205D01*
X939Y2205D01*
X940Y2205D01*
X941Y2205D01*
X942Y2205D01*
X943Y2205D01*
X944Y2205D01*
X945Y2205D01*
X946Y2205D01*
X947Y2205D01*
X948Y2205D01*
X949Y2205D01*
X950Y2205D01*
X951Y2205D01*
X952Y2205D01*
X953Y2205D01*
X954Y2205D01*
X955Y2205D01*
X956Y2205D01*
X957Y2205D01*
X958Y2205D01*
X959Y2205D01*
X960Y2205D01*
X961Y2205D01*
X962Y2205D01*
X963Y2205D01*
X964Y2205D01*
X965Y2205D01*
X966Y2205D01*
X967Y2205D01*
X968Y2205D01*
X969Y2205D01*
X970Y2205D01*
X971Y2205D01*
X972Y2205D01*
X973Y2205D01*
X974Y2205D01*
X975Y2205D01*
X976Y2205D01*
X977Y2205D01*
X978Y2205D01*
X979Y2205D01*
X980Y2205D01*
X981Y2205D01*
X982Y2205D01*
X983Y2205D01*
X984Y2205D01*
X985Y2205D01*
X986Y2205D01*
X987Y2205D01*
X988Y2205D01*
X989Y2205D01*
X990Y2205D01*
X991Y2205D01*
X992Y2205D01*
X993Y2205D01*
X994Y2205D01*
X995Y2205D01*
X996Y2205D01*
X997Y2205D01*
X998Y2205D01*
X999Y2205D01*
X1000Y2205D01*
X1001Y2205D01*
X1002Y2205D01*
X1003Y2205D01*
X1004Y2205D01*
X1005Y2205D01*
X1006Y2205D01*
X1007Y2205D01*
X1008Y2205D01*
X1009Y2205D01*
X1010Y2205D01*
X1011Y2205D01*
X1012Y2205D01*
X1013Y2205D01*
X1014Y2205D01*
X1015Y2205D01*
X1016Y2205D01*
X1017Y2205D01*
X1018Y2205D01*
X1019Y2205D01*
X1020Y2205D01*
X1021Y2205D01*
X1022Y2205D01*
X1023Y2205D01*
X1024Y2205D01*
X1025Y2205D01*
X1026Y2205D01*
X1027Y2205D01*
X1028Y2205D01*
X1029Y2205D01*
X1030Y2205D01*
X1031Y2205D01*
X1032Y2205D01*
X1033Y2205D01*
X1034Y2205D01*
X1035Y2205D01*
X1036Y2205D01*
X1037Y2205D01*
X1038Y2205D01*
X1039Y2205D01*
X1040Y2205D01*
X1041Y2205D01*
X1042Y2205D01*
X1043Y2205D01*
X1044Y2205D01*
X1045Y2205D01*
X1046Y2205D01*
X1047Y2205D01*
X1048Y2205D01*
X1049Y2205D01*
X1050Y2205D01*
X1051Y2205D01*
X1052Y2205D01*
X1053Y2205D01*
X1054Y2205D01*
X1055Y2205D01*
X1056Y2205D01*
X1057Y2205D01*
X1058Y2205D01*
X1059Y2205D01*
X1060Y2205D01*
X1061Y2205D01*
X1062Y2205D01*
X1063Y2205D01*
X1064Y2205D01*
X1065Y2205D01*
X1066Y2205D01*
X1067Y2205D01*
X1068Y2205D01*
X1069Y2205D01*
X1070Y2205D01*
X1071Y2205D01*
X1072Y2205D01*
X1073Y2205D01*
X1074Y2205D01*
X1075Y2205D01*
X1076Y2205D01*
X1077Y2205D01*
X1078Y2205D01*
X1079Y2205D01*
X1080Y2205D01*
X1081Y2205D01*
X1082Y2205D01*
X1083Y2205D01*
X1084Y2205D01*
X1085Y2205D01*
X1086Y2205D01*
X1087Y2205D01*
X1088Y2205D01*
X1089Y2205D01*
X1090Y2205D01*
X1091Y2205D01*
X1092Y2205D01*
X1093Y2205D01*
X1094Y2205D01*
X1095Y2205D01*
X1096Y2205D01*
X1097Y2205D01*
X1098Y2205D01*
X1099Y2205D01*
X1100Y2205D01*
X1101Y2205D01*
X1102Y2205D01*
X1103Y2205D01*
X1104Y2205D01*
X1105Y2205D01*
X1106Y2205D01*
X1107Y2205D01*
X1108Y2205D01*
X1109Y2205D01*
X1110Y2205D01*
X1111Y2205D01*
X1112Y2205D01*
X1113Y2205D01*
X1114Y2205D01*
X1115Y2205D01*
X1116Y2205D01*
X1117Y2205D01*
X1118Y2205D01*
X1119Y2205D01*
X1120Y2205D01*
X1121Y2205D01*
X1122Y2205D01*
X1123Y2205D01*
X1124Y2205D01*
X1125Y2205D01*
X1126Y2205D01*
X1127Y2205D01*
X1128Y2205D01*
X1129Y2205D01*
X1130Y2205D01*
X1131Y2205D01*
X1132Y2205D01*
X1133Y2205D01*
X1134Y2205D01*
X1135Y2205D01*
X1136Y2205D01*
X1137Y2205D01*
X1138Y2205D01*
X1139Y2205D01*
X1140Y2205D01*
X1141Y2205D01*
X1142Y2205D01*
X1143Y2205D01*
X1144Y2205D01*
X1145Y2205D01*
X1146Y2205D01*
X1147Y2205D01*
X1148Y2205D01*
X1149Y2205D01*
X1150Y2205D01*
X1151Y2205D01*
X1152Y2205D01*
X1153Y2205D01*
X1154Y2205D01*
X1155Y2205D01*
X1156Y2205D01*
X1157Y2205D01*
X1158Y2205D01*
X1159Y2205D01*
X1160Y2205D01*
X1161Y2205D01*
X1162Y2205D01*
X1163Y2205D01*
X1164Y2205D01*
X1165Y2205D01*
X1166Y2205D01*
X1167Y2205D01*
X1168Y2205D01*
X1169Y2205D01*
X1170Y2205D01*
X1171Y2205D01*
X1172Y2205D01*
X1173Y2205D01*
X1174Y2205D01*
X1175Y2205D01*
X1176Y2205D01*
X1177Y2205D01*
X1178Y2205D01*
X1179Y2205D01*
X1180Y2205D01*
X1181Y2205D01*
X1182Y2205D01*
X1183Y2205D01*
X1184Y2205D01*
X1185Y2205D01*
X1186Y2205D01*
X1187Y2205D01*
X1188Y2205D01*
X1189Y2205D01*
X1190Y2205D01*
X1191Y2205D01*
X1192Y2205D01*
X1193Y2205D01*
X1194Y2205D01*
X1195Y2205D01*
X1196Y2205D01*
X1197Y2205D01*
X1198Y2205D01*
X1199Y2205D01*
X1200Y2205D01*
X1201Y2205D01*
X1202Y2205D01*
X1203Y2205D01*
X1204Y2205D01*
X1205Y2205D01*
X1206Y2205D01*
X1207Y2205D01*
X1208Y2205D01*
X1209Y2205D01*
X1210Y2205D01*
X1211Y2205D01*
X1212Y2205D01*
X1213Y2205D01*
X1214Y2205D01*
X1215Y2205D01*
X1216Y2205D01*
X1217Y2205D01*
X1218Y2205D01*
X1219Y2205D01*
X1220Y2205D01*
X1221Y2205D01*
X1222Y2205D01*
X1223Y2205D01*
X1224Y2205D01*
X1225Y2205D01*
X1226Y2205D01*
X1227Y2205D01*
X1228Y2205D01*
X1229Y2205D01*
X1230Y2205D01*
X1231Y2205D01*
X1232Y2205D01*
X1233Y2205D01*
X1234Y2205D01*
X1235Y2205D01*
X1236Y2205D01*
X1237Y2205D01*
X1238Y2205D01*
X1239Y2205D01*
X1240Y2205D01*
X1241Y2205D01*
X1242Y2205D01*
X1243Y2205D01*
X1244Y2205D01*
X1245Y2205D01*
X1246Y2205D01*
X1247Y2205D01*
X1248Y2205D01*
X1249Y2205D01*
X1250Y2205D01*
X1251Y2205D01*
X1252Y2205D01*
X1253Y2205D01*
X1254Y2205D01*
X1255Y2205D01*
X1256Y2205D01*
X1257Y2205D01*
X1258Y2205D01*
X1259Y2205D01*
X1260Y2205D01*
X1261Y2205D01*
X1262Y2205D01*
X1263Y2205D01*
X1264Y2205D01*
X1265Y2205D01*
X1266Y2205D01*
X1267Y2205D01*
X1268Y2205D01*
X1269Y2205D01*
X1270Y2205D01*
X1271Y2205D01*
X1272Y2205D01*
X1273Y2205D01*
X1274Y2205D01*
X1275Y2205D01*
X1276Y2205D01*
X1277Y2205D01*
X1278Y2205D01*
X1279Y2205D01*
X1280Y2205D01*
X1281Y2205D01*
X1282Y2205D01*
X1283Y2205D01*
X1284Y2205D01*
X1285Y2205D01*
X1286Y2205D01*
X1287Y2205D01*
X1288Y2205D01*
X1289Y2205D01*
X1290Y2205D01*
X1291Y2205D01*
X1292Y2205D01*
X1293Y2205D01*
X1294Y2205D01*
X1295Y2205D01*
X1296Y2205D01*
X1297Y2205D01*
X1298Y2205D01*
X1299Y2205D01*
X1300Y2205D01*
X1301Y2205D01*
X1302Y2205D01*
X1303Y2205D01*
X1304Y2205D01*
X1305Y2205D01*
X1306Y2205D01*
X1307Y2205D01*
X1308Y2205D01*
X1309Y2205D01*
X1310Y2205D01*
X1311Y2205D01*
X1312Y2205D01*
X1313Y2205D01*
X1314Y2205D01*
X1315Y2205D01*
X1316Y2205D01*
X1317Y2205D01*
X1318Y2205D01*
X1319Y2205D01*
X1320Y2205D01*
X1321Y2205D01*
X1322Y2205D01*
X1323Y2205D01*
X1324Y2205D01*
X1325Y2205D01*
X1326Y2205D01*
X1327Y2205D01*
X1328Y2205D01*
X1329Y2205D01*
X1330Y2205D01*
X1331Y2205D01*
X1332Y2205D01*
X1333Y2205D01*
X1334Y2205D01*
X1335Y2205D01*
X1336Y2205D01*
X1337Y2205D01*
X1338Y2205D01*
X1339Y2205D01*
X1340Y2205D01*
X1341Y2205D01*
X1342Y2205D01*
X1343Y2205D01*
X1344Y2205D01*
X1345Y2205D01*
X1346Y2205D01*
X1347Y2205D01*
X1348Y2205D01*
X1349Y2205D01*
X1350Y2205D01*
X1351Y2205D01*
X1352Y2205D01*
X1353Y2205D01*
X1354Y2205D01*
X1355Y2205D01*
X1356Y2205D01*
X1357Y2205D01*
X1358Y2205D01*
X1359Y2205D01*
X1360Y2205D01*
X1361Y2205D01*
X1362Y2205D01*
X1363Y2205D01*
X1364Y2205D01*
X1365Y2205D01*
X1366Y2205D01*
X1367Y2205D01*
X1368Y2205D01*
X1369Y2205D01*
X1370Y2205D01*
X1371Y2205D01*
X1372Y2205D01*
X1373Y2205D01*
X1374Y2205D01*
X1375Y2205D01*
X1376Y2205D01*
X1377Y2205D01*
X1378Y2205D01*
X1379Y2205D01*
X1380Y2205D01*
X1381Y2205D01*
X1382Y2205D01*
X1383Y2205D01*
X1384Y2205D01*
X1385Y2205D01*
X1386Y2205D01*
X1387Y2205D01*
X1388Y2205D01*
X1389Y2205D01*
X1390Y2205D01*
X1391Y2205D01*
X1392Y2205D01*
X1393Y2205D01*
X1394Y2205D01*
X1395Y2205D01*
X1396Y2205D01*
X1397Y2205D01*
X1398Y2205D01*
X1399Y2205D01*
X1400Y2205D01*
X1401Y2205D01*
X1402Y2205D01*
X1403Y2205D01*
X1404Y2205D01*
X1405Y2205D01*
X1406Y2205D01*
X1407Y2205D01*
X1408Y2205D01*
X1409Y2205D01*
X1410Y2205D01*
X1411Y2205D01*
X1412Y2205D01*
X1413Y2205D01*
X1414Y2205D01*
X1415Y2205D01*
X1416Y2205D01*
X1417Y2205D01*
X1418Y2205D01*
X1419Y2205D01*
X1420Y2205D01*
X1421Y2205D01*
X1422Y2205D01*
X1423Y2205D01*
X1424Y2205D01*
X1425Y2205D01*
X1426Y2205D01*
X1427Y2205D01*
X1428Y2205D01*
X1429Y2205D01*
X1430Y2205D01*
X1431Y2205D01*
X1432Y2205D01*
X1433Y2205D01*
X1434Y2205D01*
X1435Y2205D01*
X1436Y2205D01*
X1437Y2205D01*
X1438Y2205D01*
X1439Y2205D01*
X1440Y2205D01*
X1441Y2205D01*
X1442Y2205D01*
X1443Y2205D01*
X1444Y2205D01*
X1445Y2205D01*
X1446Y2205D01*
X1447Y2205D01*
X1448Y2205D01*
X1449Y2205D01*
X1450Y2205D01*
X1451Y2205D01*
X1452Y2205D01*
X1453Y2205D01*
X1454Y2205D01*
X1455Y2205D01*
X1456Y2205D01*
X1457Y2205D01*
X1458Y2205D01*
X1459Y2205D01*
X1460Y2205D01*
X1461Y2205D01*
X1462Y2205D01*
X1463Y2205D01*
X1464Y2205D01*
X1465Y2205D01*
X1466Y2205D01*
X1467Y2205D01*
X1468Y2205D01*
X1469Y2205D01*
X1470Y2205D01*
X1471Y2205D01*
X1472Y2205D01*
X1473Y2205D01*
X1474Y2205D01*
X1475Y2205D01*
X1476Y2205D01*
X1477Y2205D01*
X1478Y2205D01*
X1479Y2205D01*
X1480Y2205D01*
X1481Y2205D01*
X1482Y2205D01*
X1483Y2205D01*
X1484Y2205D01*
X1485Y2205D01*
X1486Y2205D01*
X1487Y2205D01*
X1488Y2205D01*
X1489Y2205D01*
X1490Y2205D01*
X1491Y2205D01*
X1492Y2205D01*
X1493Y2205D01*
X1494Y2205D01*
X1495Y2205D01*
X1496Y2205D01*
X1497Y2205D01*
X1498Y2205D01*
X1499Y2205D01*
X1500Y2205D01*
X1501Y2205D01*
X1502Y2205D01*
X1503Y2205D01*
X1504Y2205D01*
X1505Y2205D01*
X1506Y2205D01*
X1507Y2205D01*
X1508Y2205D01*
X1509Y2205D01*
X1510Y2205D01*
X1511Y2205D01*
X1512Y2205D01*
X1513Y2205D01*
X1514Y2205D01*
X1515Y2205D01*
X1516Y2205D01*
X1517Y2205D01*
X1518Y2205D01*
X1519Y2205D01*
X1520Y2205D01*
X1521Y2205D01*
X1522Y2205D01*
X1523Y2205D01*
X1524Y2205D01*
X1525Y2205D01*
X1526Y2205D01*
X1527Y2205D01*
X1528Y2205D01*
X1529Y2205D01*
X1530Y2205D01*
X1531Y2205D01*
X1532Y2205D01*
X1533Y2205D01*
X1534Y2205D01*
X1535Y2205D01*
X1536Y2205D01*
X1537Y2205D01*
X1538Y2205D01*
X1539Y2205D01*
X1540Y2205D01*
X1541Y2205D01*
X1542Y2205D01*
X1543Y2205D01*
X1544Y2205D01*
X1545Y2205D01*
X1546Y2205D01*
X1547Y2205D01*
X1548Y2205D01*
X1549Y2205D01*
X1550Y2205D01*
X1551Y2205D01*
X1552Y2205D01*
X1553Y2205D01*
X1554Y2205D01*
X1555Y2205D01*
X1556Y2205D01*
X1557Y2205D01*
X1558Y2205D01*
X1559Y2205D01*
X1560Y2205D01*
X1561Y2205D01*
X1562Y2205D01*
X1563Y2205D01*
X1564Y2205D01*
X1565Y2205D01*
X1566Y2205D01*
X1567Y2205D01*
X1568Y2205D01*
X1569Y2205D01*
X1570Y2205D01*
X1571Y2205D01*
X1572Y2205D01*
X1573Y2205D01*
X1574Y2205D01*
X1575Y2205D01*
X1576Y2205D01*
X1577Y2205D01*
X1578Y2205D01*
X1579Y2205D01*
X1580Y2205D01*
X1581Y2205D01*
X1582Y2205D01*
X1583Y2205D01*
X1584Y2205D01*
X1585Y2205D01*
X1586Y2205D01*
X1587Y2205D01*
X1588Y2205D01*
X1589Y2205D01*
X1590Y2205D01*
X1591Y2205D01*
X1592Y2205D01*
X1593Y2205D01*
X1594Y2205D01*
X1595Y2205D01*
X1596Y2205D01*
X1597Y2205D01*
X1598Y2205D01*
X1599Y2205D01*
X1600Y2205D01*
X1601Y2205D01*
X1602Y2205D01*
X1603Y2205D01*
X1604Y2205D01*
X1605Y2205D01*
X1606Y2205D01*
X1607Y2205D01*
X1608Y2205D01*
X1609Y2205D01*
X1610Y2205D01*
X1611Y2205D01*
X1612Y2205D01*
X1613Y2205D01*
X1614Y2205D01*
X1615Y2205D01*
X1616Y2205D01*
X1617Y2205D01*
X1618Y2205D01*
X1619Y2205D01*
X1620Y2205D01*
X1621Y2205D01*
X1622Y2205D01*
X1623Y2205D01*
X1624Y2205D01*
X1625Y2205D01*
X1626Y2205D01*
X1627Y2205D01*
X1628Y2205D01*
X1629Y2205D01*
X1630Y2205D01*
X1631Y2205D01*
X1632Y2205D01*
X1633Y2205D01*
X1634Y2205D01*
X1635Y2205D01*
X1636Y2205D01*
X1637Y2205D01*
X1638Y2205D01*
X1639Y2205D01*
X1640Y2205D01*
X1641Y2205D01*
X1642Y2205D01*
X1643Y2205D01*
X1644Y2205D01*
X1645Y2205D01*
X1646Y2205D01*
X1647Y2205D01*
X1648Y2205D01*
X1649Y2205D01*
X1650Y2205D01*
X1651Y2205D01*
X1652Y2205D01*
X1653Y2205D01*
X1654Y2205D01*
X1655Y2205D01*
X1656Y2205D01*
X1657Y2205D01*
X1658Y2205D01*
X1659Y2205D01*
X1660Y2205D01*
X1661Y2205D01*
X1662Y2205D01*
X1663Y2205D01*
X1664Y2205D01*
X1665Y2205D01*
X1666Y2205D01*
X1667Y2205D01*
X1668Y2205D01*
X1669Y2205D01*
X1670Y2205D01*
X1671Y2205D01*
X1672Y2205D01*
X1673Y2205D01*
X1674Y2205D01*
X1675Y2205D01*
X1676Y2205D01*
X1677Y2205D01*
X1678Y2205D01*
X1679Y2205D01*
X1680Y2205D01*
X1681Y2205D01*
X1682Y2205D01*
X1683Y2205D01*
X1684Y2205D01*
X1685Y2205D01*
X1686Y2205D01*
X1687Y2205D01*
X1688Y2205D01*
X1689Y2205D01*
X1690Y2205D01*
X1691Y2205D01*
X1692Y2205D01*
X1693Y2205D01*
X1694Y2205D01*
X1695Y2205D01*
X1696Y2205D01*
X1697Y2205D01*
X1698Y2205D01*
X1699Y2205D01*
X1700Y2205D01*
X1701Y2205D01*
X1702Y2205D01*
X1703Y2205D01*
X1704Y2205D01*
X1705Y2205D01*
X1706Y2205D01*
X1707Y2205D01*
X1708Y2205D01*
X1709Y2205D01*
X1710Y2205D01*
X1711Y2205D01*
X1712Y2205D01*
X1713Y2205D01*
X1714Y2205D01*
X1715Y2205D01*
X1716Y2205D01*
X1717Y2205D01*
X1718Y2205D01*
X1719Y2205D01*
X1720Y2205D01*
X1721Y2205D01*
X1722Y2205D01*
X1723Y2205D01*
X1724Y2205D01*
X1725Y2205D01*
X1726Y2205D01*
X1727Y2205D01*
X1728Y2205D01*
X1729Y2205D01*
X1730Y2205D01*
X1731Y2205D01*
X1732Y2205D01*
X1733Y2205D01*
X1734Y2205D01*
X1735Y2205D01*
X1736Y2205D01*
X1737Y2205D01*
X1738Y2205D01*
X1739Y2205D01*
X1740Y2205D01*
X1741Y2205D01*
X1742Y2205D01*
X1743Y2205D01*
X1744Y2205D01*
X1745Y2205D01*
X1746Y2205D01*
X1747Y2205D01*
X1748Y2205D01*
X1749Y2205D01*
X1750Y2205D01*
X1751Y2205D01*
X1752Y2205D01*
X1753Y2205D01*
X1754Y2205D01*
X1755Y2205D01*
X1756Y2205D01*
X1757Y2205D01*
X1758Y2205D01*
X1759Y2205D01*
X1760Y2205D01*
X1761Y2205D01*
X1762Y2205D01*
X1763Y2205D01*
X1764Y2205D01*
X1765Y2205D01*
X1766Y2205D01*
X1767Y2205D01*
X1768Y2205D01*
X1769Y2205D01*
X1770Y2205D01*
X1771Y2205D01*
X1772Y2205D01*
X1773Y2205D01*
X1774Y2205D01*
X1775Y2205D01*
X1776Y2205D01*
X1777Y2205D01*
X1778Y2205D01*
X1779Y2205D01*
X1780Y2205D01*
X1781Y2205D01*
X1782Y2205D01*
X1783Y2205D01*
X1784Y2205D01*
X1785Y2205D01*
X1786Y2205D01*
X1787Y2205D01*
X1788Y2205D01*
X1789Y2205D01*
X1790Y2205D01*
X1791Y2205D01*
X1792Y2205D01*
X1793Y2205D01*
X1794Y2205D01*
X1795Y2205D01*
X1796Y2205D01*
X1797Y2205D01*
X1798Y2205D01*
X1799Y2205D01*
X1800Y2205D01*
X1801Y2205D01*
X1802Y2205D01*
X1803Y2205D01*
X1804Y2205D01*
X1805Y2205D01*
X1806Y2205D01*
X1807Y2205D01*
X1808Y2205D01*
X1809Y2205D01*
X1810Y2205D01*
X1811Y2205D01*
X1812Y2205D01*
X1813Y2205D01*
X1814Y2205D01*
X1815Y2205D01*
X1816Y2205D01*
X1817Y2205D01*
X1818Y2205D01*
X1819Y2205D01*
X1820Y2205D01*
X1821Y2205D01*
X1822Y2205D01*
X1823Y2205D01*
X1824Y2205D01*
X1825Y2205D01*
X1826Y2205D01*
X1827Y2205D01*
X1828Y2205D01*
X1829Y2205D01*
X1830Y2205D01*
X1831Y2205D01*
X1832Y2205D01*
X1833Y2205D01*
X1834Y2205D01*
X1835Y2205D01*
X1836Y2205D01*
X1837Y2205D01*
X1838Y2205D01*
X1839Y2205D01*
X1840Y2205D01*
X1841Y2205D01*
X1842Y2205D01*
X1843Y2205D01*
X1844Y2205D01*
X1845Y2205D01*
X1846Y2205D01*
X1847Y2205D01*
X1848Y2205D01*
X1849Y2205D01*
X1850Y2205D01*
X1851Y2205D01*
X1852Y2205D01*
X1853Y2205D01*
X1854Y2205D01*
X1855Y2205D01*
X1856Y2205D01*
X1857Y2205D01*
X1858Y2205D01*
X1859Y2205D01*
X1860Y2205D01*
X1861Y2205D01*
X1862Y2205D01*
X1863Y2205D01*
X1864Y2205D01*
X1865Y2205D01*
X1866Y2205D01*
X1867Y2205D01*
X1868Y2205D01*
X1869Y2205D01*
X1870Y2205D01*
X1871Y2205D01*
X1872Y2205D01*
X1873Y2205D01*
X1874Y2205D01*
X1875Y2205D01*
X1876Y2205D01*
X1877Y2205D01*
X1878Y2205D01*
X1879Y2205D01*
X1880Y2205D01*
X1881Y2205D01*
X1882Y2205D01*
X1883Y2205D01*
X1884Y2205D01*
X1885Y2205D01*
X1886Y2205D01*
X1887Y2205D01*
X1888Y2205D01*
X1889Y2205D01*
X1890Y2205D01*
X1891Y2205D01*
X1892Y2205D01*
X1893Y2205D01*
X1894Y2205D01*
X1895Y2205D01*
X1896Y2205D01*
X1897Y2205D01*
X1898Y2205D01*
X1899Y2205D01*
X1900Y2205D01*
X1901Y2205D01*
X1902Y2205D01*
X1903Y2205D01*
X1904Y2205D01*
X1905Y2205D01*
X1906Y2205D01*
X1907Y2205D01*
X1908Y2205D01*
X1909Y2205D01*
X1910Y2205D01*
X1911Y2205D01*
X1912Y2205D01*
X1913Y2205D01*
X1914Y2205D01*
X1915Y2205D01*
X1916Y2205D01*
X1917Y2205D01*
X1918Y2205D01*
X1919Y2205D01*
X1920Y2205D01*
X1921Y2205D01*
X1922Y2205D01*
X1923Y2205D01*
X1924Y2205D01*
X1925Y2205D01*
X1926Y2205D01*
X1927Y2205D01*
X1928Y2205D01*
X1929Y2205D01*
X1930Y2205D01*
X1931Y2205D01*
X1932Y2205D01*
X1933Y2205D01*
X1934Y2205D01*
X1935Y2205D01*
X1936Y2205D01*
X1937Y2205D01*
X1938Y2205D01*
X1939Y2205D01*
X1940Y2205D01*
X1941Y2205D01*
X1942Y2205D01*
X1943Y2205D01*
X1944Y2205D01*
X1945Y2205D01*
X1946Y2205D01*
X1947Y2205D01*
X1948Y2205D01*
X1949Y2205D01*
X1950Y2205D01*
X1951Y2205D01*
X1952Y2205D01*
X1953Y2205D01*
X1954Y2205D01*
X1955Y2205D01*
X1956Y2205D01*
X1957Y2205D01*
X1958Y2205D01*
X1959Y2205D01*
X1960Y2205D01*
X1961Y2205D01*
X1962Y2205D01*
X1963Y2205D01*
X1964Y2205D01*
X1965Y2205D01*
X1966Y2205D01*
X1967Y2205D01*
X1968Y2205D01*
X1969Y2205D01*
X1970Y2205D01*
X1971Y2205D01*
X1972Y2205D01*
X1973Y2205D01*
X1974Y2205D01*
X1975Y2205D01*
X1976Y2205D01*
X1977Y2205D01*
X1978Y2205D01*
X1979Y2205D01*
X1980Y2205D01*
X1981Y2205D01*
X1982Y2205D01*
X1983Y2205D01*
X1984Y2205D01*
X1985Y2205D01*
X1986Y2205D01*
X1987Y2205D01*
X1988Y2205D01*
X1989Y2205D01*
X1990Y2205D01*
X1991Y2205D01*
X1992Y2205D01*
X1993Y2205D01*
X1994Y2205D01*
X1995Y2205D01*
X1996Y2205D01*
X1997Y2205D01*
X1998Y2205D01*
X1999Y2205D01*
X2000Y2205D01*
X2001Y2205D01*
X2002Y2205D01*
X2003Y2205D01*
X2004Y2205D01*
X2005Y2205D01*
X2006Y2205D01*
X2007Y2205D01*
X2008Y2205D01*
X2009Y2205D01*
X2010Y2205D01*
X2011Y2205D01*
X2012Y2205D01*
X2013Y2205D01*
X2014Y2205D01*
X2015Y2205D01*
X2016Y2205D01*
X2017Y2205D01*
X2018Y2205D01*
X2019Y2205D01*
X2020Y2205D01*
X2021Y2205D01*
X2022Y2205D01*
X2023Y2205D01*
X2024Y2205D01*
X2025Y2205D01*
X2026Y2205D01*
X2027Y2205D01*
X2028Y2205D01*
X2029Y2205D01*
X2030Y2205D01*
X2031Y2205D01*
X2032Y2205D01*
X2033Y2205D01*
X2034Y2205D01*
X2035Y2205D01*
X2036Y2205D01*
X2037Y2205D01*
X2038Y2205D01*
X2039Y2205D01*
X2040Y2205D01*
X2041Y2205D01*
X2042Y2205D01*
X2043Y2205D01*
X2044Y2205D01*
X2045Y2205D01*
X2046Y2205D01*
X2047Y2205D01*
X2048Y2205D01*
X2049Y2205D01*
X2050Y2205D01*
X2051Y2205D01*
X2052Y2205D01*
X2053Y2205D01*
X2054Y2205D01*
X2055Y2205D01*
X2056Y2205D01*
X2057Y2205D01*
X2058Y2205D01*
X2059Y2205D01*
X2060Y2205D01*
X2061Y2205D01*
X2062Y2205D01*
X2063Y2205D01*
X2064Y2205D01*
X2065Y2205D01*
X2066Y2205D01*
X2067Y2205D01*
X2068Y2205D01*
X2069Y2205D01*
X2070Y2205D01*
X2071Y2205D01*
X2072Y2205D01*
X2073Y2205D01*
X2074Y2205D01*
X2075Y2205D01*
X2076Y2205D01*
X2077Y2205D01*
X2078Y2205D01*
X2079Y2205D01*
X2080Y2205D01*
X2081Y2205D01*
X2082Y2205D01*
X2083Y2205D01*
X2084Y2205D01*
X2085Y2205D01*
X2086Y2205D01*
X2087Y2205D01*
X2088Y2205D01*
X2089Y2205D01*
X2090Y2205D01*
X2091Y2205D01*
X2092Y2205D01*
X2093Y2205D01*
X2094Y2205D01*
X2095Y2205D01*
X2096Y2205D01*
X2097Y2205D01*
X2098Y2205D01*
X2099Y2205D01*
X2100Y2205D01*
X2101Y2205D01*
X2102Y2205D01*
X2103Y2205D01*
X2104Y2205D01*
X2105Y2205D01*
X2106Y2205D01*
X2107Y2205D01*
X2108Y2205D01*
X2109Y2205D01*
X2110Y2205D01*
X2111Y2205D01*
X2112Y2205D01*
X2113Y2205D01*
X2114Y2205D01*
X2115Y2205D01*
X2116Y2205D01*
X2117Y2205D01*
X2118Y2205D01*
X2119Y2205D01*
X2120Y2205D01*
X2121Y2205D01*
X2122Y2205D01*
X2123Y2205D01*
X2124Y2205D01*
X2125Y2205D01*
X2126Y2205D01*
X2127Y2205D01*
X2128Y2205D01*
X2129Y2205D01*
X2130Y2205D01*
X2131Y2205D01*
X2132Y2205D01*
X2133Y2205D01*
X2134Y2205D01*
X2135Y2205D01*
X2136Y2205D01*
X2137Y2205D01*
X2138Y2205D01*
X2139Y2205D01*
X2140Y2205D01*
X2141Y2205D01*
X2142Y2205D01*
X2143Y2205D01*
X2144Y2205D01*
X2145Y2205D01*
X2146Y2205D01*
X2147Y2205D01*
X2148Y2205D01*
X2149Y2205D01*
X2150Y2205D01*
X2151Y2205D01*
X2152Y2205D01*
X2153Y2205D01*
X2154Y2205D01*
X2155Y2205D01*
X2156Y2205D01*
X2157Y2205D01*
X2158Y2205D01*
X2159Y2205D01*
X2160Y2205D01*
X2161Y2205D01*
X2162Y2205D01*
X2163Y2205D01*
X2164Y2205D01*
X2165Y2205D01*
X2166Y2205D01*
X2167Y2205D01*
X2168Y2205D01*
X2169Y2205D01*
X2170Y2205D01*
X2171Y2205D01*
X2172Y2205D01*
X2173Y2205D01*
X2174Y2205D01*
X2175Y2205D01*
X2176Y2205D01*
X2177Y2205D01*
X2178Y2205D01*
X2179Y2205D01*
X2180Y2205D01*
X2181Y2205D01*
X2182Y2205D01*
X2183Y2205D01*
X2184Y2205D01*
X2185Y2205D01*
X2186Y2205D01*
X2187Y2205D01*
X2188Y2205D01*
X2189Y2205D01*
X2190Y2205D01*
X2191Y2205D01*
X2192Y2205D01*
X2193Y2205D01*
X2194Y2205D01*
X2195Y2205D01*
X2196Y2205D01*
X2197Y2205D01*
X2198Y2205D01*
X2199Y2205D01*
X2200Y2205D01*
X2201Y2205D01*
X2202Y2205D01*
X2203Y2205D01*
X2204Y2205D01*
X2205Y2205D01*
X2206Y2205D01*
X2207Y2205D01*
X2208Y2205D01*
X2209Y2205D01*
X2210Y2205D01*
X2211Y2205D01*
X2212Y2205D01*
X2213Y2205D01*
X2214Y2205D01*
X2215Y2205D01*
X2216Y2205D01*
X2217Y2205D01*
X2218Y2205D01*
X2219Y2205D01*
X2220Y2205D01*
X2221Y2205D01*
X2222Y2205D01*
X2223Y2205D01*
X2224Y2205D01*
X2225Y2205D01*
X2226Y2205D01*
X2227Y2205D01*
X2228Y2205D01*
X2229Y2205D01*
X2230Y2205D01*
X2231Y2205D01*
X2232Y2205D01*
X2233Y2205D01*
X2234Y2205D01*
X2235Y2205D01*
X2236Y2205D01*
X2237Y2205D01*
X2238Y2205D01*
X2239Y2205D01*
X2240Y2205D01*
X2241Y2205D01*
X2242Y2205D01*
X2243Y2205D01*
X2244Y2205D01*
X2245Y2205D01*
X2246Y2205D01*
X2247Y2205D01*
X2248Y2205D01*
X2249Y2205D01*
X2250Y2205D01*
X2251Y2205D01*
X2252Y2205D01*
X2253Y2205D01*
X2254Y2205D01*
X2255Y2205D01*
X2256Y2205D01*
X2257Y2205D01*
X2258Y2205D01*
X2259Y2205D01*
X2260Y2205D01*
X2261Y2205D01*
X2262Y2205D01*
X2263Y2205D01*
X2264Y2205D01*
X2265Y2205D01*
X2266Y2205D01*
X2267Y2205D01*
X2268Y2205D01*
X2269Y2205D01*
X2270Y2205D01*
X2271Y2205D01*
X2272Y2205D01*
X2273Y2205D01*
X2274Y2205D01*
X2275Y2205D01*
X2276Y2205D01*
X2277Y2205D01*
X2278Y2205D01*
X2279Y2205D01*
X2280Y2205D01*
X2281Y2205D01*
X2282Y2205D01*
X2283Y2205D01*
X2284Y2205D01*
X2285Y2205D01*
X2286Y2205D01*
X2287Y2205D01*
X2288Y2205D01*
X2289Y2205D01*
X2290Y2205D01*
X2291Y2205D01*
X2292Y2205D01*
X2293Y2205D01*
X2294Y2205D01*
X2295Y2205D01*
X2296Y2205D01*
X2297Y2205D01*
X2298Y2205D01*
X2299Y2205D01*
X2300Y2205D01*
X2301Y2205D01*
X2302Y2205D01*
X2303Y2205D01*
X2304Y2205D01*
X2305Y2205D01*
X2306Y2205D01*
X2307Y2205D01*
X2308Y2205D01*
X2309Y2205D01*
X2310Y2205D01*
X2311Y2205D01*
X2312Y2205D01*
X2313Y2205D01*
X2314Y2205D01*
X2315Y2205D01*
X2316Y2205D01*
X2317Y2205D01*
X2318Y2205D01*
X2319Y2205D01*
X2320Y2205D01*
X2321Y2205D01*
X2322Y2205D01*
X2323Y2205D01*
X2324Y2205D01*
X2325Y2205D01*
X2326Y2205D01*
X2327Y2205D01*
X2328Y2205D01*
X2329Y2205D01*
X2330Y2205D01*
X2331Y2205D01*
X2332Y2205D01*
X2333Y2205D01*
X2334Y2205D01*
X2335Y2205D01*
X2336Y2205D01*
X2337Y2205D01*
X2338Y2205D01*
X2339Y2205D01*
X2340Y2205D01*
X2341Y2205D01*
X2342Y2205D01*
X2343Y2205D01*
X2344Y2205D01*
X2345Y2205D01*
X2346Y2205D01*
X2347Y2205D01*
X2348Y2205D01*
X2349Y2205D01*
X2350Y2205D01*
X2351Y2205D01*
X2352Y2205D01*
X2353Y2205D01*
X2354Y2205D01*
X2355Y2205D01*
X2356Y2205D01*
X2357Y2205D01*
X2358Y2205D01*
X2359Y2205D01*
X2360Y2205D01*
X2361Y2205D01*
X2362Y2205D01*
X2363Y2205D01*
X2364Y2205D01*
X2365Y2205D01*
X2366Y2205D01*
X2367Y2205D01*
X2368Y2205D01*
X2369Y2205D01*
X2370Y2205D01*
X2371Y2205D01*
X2372Y2205D01*
X2373Y2205D01*
X2374Y2205D01*
X2375Y2205D01*
X2376Y2205D01*
X2377Y2205D01*
X2378Y2205D01*
X2379Y2205D01*
X2380Y2205D01*
X2381Y2205D01*
X2382Y2205D01*
X2383Y2205D01*
X2384Y2205D01*
X2385Y2205D01*
X2386Y2205D01*
X2387Y2205D01*
X2388Y2205D01*
X2389Y2205D01*
X2390Y2205D01*
X2391Y2205D01*
X2392Y2205D01*
X2393Y2205D01*
X2394Y2205D01*
X2395Y2205D01*
X2396Y2205D01*
X2397Y2205D01*
X2398Y2205D01*
X2399Y2205D01*
X2400Y2205D01*
X2401Y2205D01*
X2402Y2205D01*
X2403Y2205D01*
X2404Y2205D01*
X2405Y2205D01*
X2406Y2205D01*
X2407Y2205D01*
X2408Y2205D01*
X2409Y2205D01*
X2410Y2205D01*
X2411Y2205D01*
X2412Y2205D01*
X2413Y2205D01*
X2414Y2205D01*
X2415Y2205D01*
X2416Y2205D01*
X2417Y2205D01*
X2418Y2205D01*
X2419Y2205D01*
X2420Y2205D01*
X2421Y2205D01*
X2422Y2205D01*
X2423Y2205D01*
X2424Y2205D01*
X2425Y2205D01*
X2426Y2205D01*
X2427Y2205D01*
X2428Y2205D01*
X2429Y2205D01*
X2430Y2205D01*
X2431Y2205D01*
X2432Y2205D01*
X2433Y2205D01*
X2434Y2205D01*
X2435Y2205D01*
X2436Y2205D01*
X2437Y2205D01*
X2438Y2205D01*
X2439Y2205D01*
X2440Y2205D01*
X2441Y2205D01*
X2442Y2205D01*
X2443Y2205D01*
X2444Y2205D01*
X2445Y2205D01*
X2446Y2205D01*
X2447Y2205D01*
X2448Y2205D01*
X2449Y2205D01*
X2450Y2205D01*
X2451Y2205D01*
X2452Y2205D01*
X2453Y2205D01*
X2454Y2205D01*
X2455Y2205D01*
X2456Y2205D01*
X2457Y2205D01*
X2458Y2205D01*
X2459Y2205D01*
X2460Y2205D01*
X2461Y2205D01*
X2462Y2205D01*
X2463Y2205D01*
X2464Y2205D01*
X2465Y2205D01*
X2466Y2205D01*
X2467Y2205D01*
X2468Y2205D01*
X2469Y2205D01*
X2470Y2205D01*
X2471Y2205D01*
X2472Y2205D01*
X2473Y2205D01*
X2474Y2205D01*
X2475Y2205D01*
X2476Y2205D01*
X2477Y2205D01*
X2478Y2205D01*
X2479Y2205D01*
X2480Y2205D01*
X2481Y2205D01*
X2482Y2205D01*
X2483Y2205D01*
X2484Y2205D01*
X2485Y2205D01*
X2486Y2205D01*
X2487Y2205D01*
X2488Y2205D01*
X2489Y2205D01*
X2490Y2205D01*
X2491Y2205D01*
X2492Y2205D01*
X2493Y2205D01*
X2494Y2205D01*
X2495Y2205D01*
X2496Y2205D01*
X2497Y2205D01*
X2498Y2205D01*
X2499Y2205D01*
X2500Y2205D01*
X2501Y2205D01*
X2502Y2205D01*
X2503Y2205D01*
X2504Y2205D01*
X2505Y2205D01*
X2506Y2205D01*
X2507Y2205D01*
X2508Y2205D01*
X2509Y2205D01*
X2510Y2205D01*
X2511Y2205D01*
X2512Y2205D01*
X2513Y2205D01*
X2514Y2205D01*
X2515Y2205D01*
X2516Y2205D01*
X2517Y2205D01*
X2518Y2205D01*
X2519Y2205D01*
X2520Y2205D01*
X2521Y2205D01*
X2522Y2205D01*
X2523Y2205D01*
X2524Y2205D01*
X2525Y2205D01*
X2526Y2205D01*
X2527Y2205D01*
X2528Y2205D01*
X2529Y2205D01*
X2530Y2205D01*
X2531Y2205D01*
X2532Y2205D01*
X2533Y2205D01*
X2534Y2205D01*
X2535Y2205D01*
X2536Y2205D01*
X2537Y2205D01*
X2538Y2205D01*
X2539Y2205D01*
X2540Y2205D01*
X2541Y2205D01*
X2542Y2205D01*
X2543Y2205D01*
X2544Y2205D01*
X2545Y2205D01*
X2546Y2205D01*
X2547Y2205D01*
X2548Y2205D01*
X2549Y2205D01*
X2550Y2205D01*
X2551Y2205D01*
X2552Y2205D01*
X2553Y2205D01*
X2554Y2205D01*
X2555Y2205D01*
X2556Y2205D01*
X2557Y2205D01*
X2558Y2205D01*
X2559Y2205D01*
X2560Y2205D01*
X2561Y2205D01*
X2562Y2205D01*
X2563Y2205D01*
X2564Y2205D01*
X2565Y2205D01*
X2566Y2205D01*
X2567Y2205D01*
X2568Y2205D01*
X2569Y2205D01*
X2570Y2205D01*
X2571Y2205D01*
X2572Y2205D01*
X2573Y2205D01*
X2574Y2205D01*
X2575Y2205D01*
X2576Y2205D01*
X2577Y2205D01*
X2578Y2205D01*
X2579Y2205D01*
X2580Y2205D01*
X2581Y2205D01*
X2582Y2205D01*
X2583Y2205D01*
X2584Y2205D01*
X2585Y2205D01*
X2586Y2205D01*
X2587Y2205D01*
X2588Y2205D01*
X2589Y2205D01*
X2590Y2205D01*
X2591Y2205D01*
X2592Y2205D01*
X2593Y2205D01*
X2594Y2205D01*
X2595Y2205D01*
X2596Y2205D01*
X2597Y2205D01*
X2598Y2205D01*
X2599Y2205D01*
X2600Y2205D01*
X2601Y2205D01*
X2602Y2205D01*
X2603Y2205D01*
X2604Y2205D01*
X2605Y2205D01*
X2606Y2205D01*
X2607Y2205D01*
X2608Y2205D01*
X2609Y2205D01*
X2610Y2205D01*
X2611Y2205D01*
X2612Y2205D01*
X2613Y2205D01*
X2614Y2205D01*
X2615Y2205D01*
X2616Y2205D01*
X2617Y2205D01*
X2618Y2205D01*
X2619Y2205D01*
X2620Y2205D01*
X2621Y2205D01*
X2622Y2205D01*
X2623Y2205D01*
X2624Y2205D01*
X2625Y2205D01*
X2626Y2205D01*
X2627Y2205D01*
X2628Y2205D01*
X2629Y2205D01*
X2630Y2205D01*
X2631Y2205D01*
X2632Y2205D01*
X2633Y2205D01*
X2634Y2205D01*
X2635Y2205D01*
X2636Y2205D01*
X2637Y2205D01*
X2638Y2205D01*
X2639Y2205D01*
X2640Y2205D01*
X2641Y2205D01*
X2642Y2205D01*
X2643Y2205D01*
X2644Y2205D01*
X2645Y2205D01*
X2646Y2205D01*
X2647Y2205D01*
X2648Y2205D01*
X2649Y2205D01*
X2650Y2205D01*
X2651Y2205D01*
X2652Y2205D01*
X2653Y2205D01*
X2654Y2205D01*
X2655Y2205D01*
X2656Y2205D01*
X2657Y2205D01*
X2658Y2205D01*
X2659Y2205D01*
X2660Y2205D01*
X2661Y2205D01*
X2662Y2205D01*
X2663Y2205D01*
X2664Y2205D01*
X2665Y2205D01*
X2666Y2205D01*
X2667Y2205D01*
X2668Y2205D01*
X2669Y2205D01*
X2670Y2205D01*
X2671Y2205D01*
X2672Y2205D01*
X2673Y2205D01*
X2674Y2205D01*
X2675Y2205D01*
X2676Y2205D01*
X2677Y2205D01*
X2678Y2205D01*
X2679Y2205D01*
X2680Y2205D01*
X2681Y2205D01*
X2682Y2205D01*
X2683Y2205D01*
X2684Y2205D01*
X2685Y2205D01*
X2686Y2205D01*
X2687Y2205D01*
X2688Y2205D01*
X2689Y2205D01*
X2690Y2205D01*
X2691Y2205D01*
X2692Y2205D01*
X2693Y2205D01*
X2694Y2205D01*
X2695Y2205D01*
X2696Y2205D01*
X2697Y2205D01*
X2698Y2205D01*
X2699Y2205D01*
X2700Y2205D01*
X2701Y2205D01*
X2702Y2205D01*
X2703Y2204D01*
X2704Y2204D01*
X2705Y2204D01*
X2706Y2204D01*
X2707Y2204D01*
X2708Y2204D01*
X2709Y2204D01*
X2710Y2204D01*
X2711Y2204D01*
X2712Y2204D01*
X2713Y2204D01*
X2714Y2204D01*
X2715Y2204D01*
X2716Y2204D01*
X2717Y2203D01*
X2718Y2203D01*
X2719Y2203D01*
X2720Y2203D01*
X2721Y2203D01*
X2722Y2203D01*
X2723Y2203D01*
X2724Y2203D01*
X2725Y2203D01*
X2726Y2203D01*
X2727Y2202D01*
X2728Y2202D01*
X2729Y2202D01*
X2730Y2202D01*
X2731Y2202D01*
X2732Y2202D01*
X2733Y2202D01*
X2734Y2202D01*
X2735Y2201D01*
X2736Y2201D01*
X2737Y2201D01*
X2738Y2201D01*
X2739Y2201D01*
X2740Y2201D01*
X2741Y2201D01*
X2742Y2200D01*
X2743Y2200D01*
X2744Y2200D01*
X2745Y2200D01*
X2746Y2200D01*
X2747Y2200D01*
X2748Y2199D01*
X2749Y2199D01*
X2750Y2199D01*
X2751Y2199D01*
X2752Y2199D01*
X2753Y2199D01*
X2754Y2198D01*
X2755Y2198D01*
X2756Y2198D01*
X2757Y2198D01*
X2758Y2198D01*
X2759Y2197D01*
X2760Y2197D01*
X2761Y2197D01*
X2762Y2197D01*
X2763Y2197D01*
X2764Y2196D01*
X2765Y2196D01*
X2766Y2196D01*
X2767Y2196D01*
X2768Y2195D01*
X2769Y2195D01*
X2770Y2195D01*
X2771Y2195D01*
X2772Y2195D01*
X2773Y2194D01*
X2774Y2194D01*
X2775Y2194D01*
X2776Y2194D01*
X2777Y2193D01*
X2778Y2193D01*
X2779Y2193D01*
X2780Y2193D01*
X2781Y2192D01*
X2782Y2192D01*
X2783Y2192D01*
X2784Y2191D01*
X2785Y2191D01*
X2786Y2191D01*
X2787Y2191D01*
X2788Y2190D01*
X2789Y2190D01*
X2790Y2190D01*
X2791Y2189D01*
X2792Y2189D01*
X2793Y2189D01*
X2794Y2189D01*
X2795Y2188D01*
X2796Y2188D01*
X2797Y2188D01*
X2798Y2187D01*
X2799Y2187D01*
X2800Y2187D01*
X2801Y2186D01*
X2802Y2186D01*
X2803Y2186D01*
X2804Y2185D01*
X2805Y2185D01*
X2806Y2185D01*
X2807Y2184D01*
X2808Y2184D01*
X2809Y2184D01*
X2810Y2183D01*
X2811Y2183D01*
X2812Y2183D01*
X2813Y2182D01*
X2814Y2182D01*
X2815Y2182D01*
X2816Y2181D01*
X2817Y2181D01*
X2818Y2180D01*
X2819Y2180D01*
X2820Y2180D01*
X2821Y2179D01*
X2822Y2179D01*
X2823Y2178D01*
X2824Y2178D01*
X2825Y2178D01*
X2826Y2177D01*
X2827Y2177D01*
X2828Y2177D01*
X2829Y2176D01*
X2830Y2176D01*
X2831Y2175D01*
X2832Y2175D01*
X2833Y2175D01*
X2834Y2174D01*
X2835Y2174D01*
X2836Y2173D01*
X2837Y2173D01*
X2838Y2172D01*
X2839Y2172D01*
X2840Y2171D01*
X2841Y2171D01*
X2842Y2170D01*
X2843Y2170D01*
X2844Y2170D01*
X2845Y2169D01*
X2846Y2169D01*
X2847Y2168D01*
X2848Y2168D01*
X2849Y2167D01*
X2850Y2167D01*
X2851Y2166D01*
X2852Y2166D01*
X2853Y2165D01*
X2854Y2165D01*
X2855Y2164D01*
X2856Y2164D01*
X2857Y2163D01*
X2858Y2163D01*
X2859Y2162D01*
X2860Y2162D01*
X2861Y2161D01*
X2862Y2161D01*
X2863Y2160D01*
X2864Y2160D01*
X2865Y2159D01*
X2866Y2159D01*
X2867Y2158D01*
X2868Y2158D01*
X2869Y2157D01*
X2870Y2156D01*
X2871Y2156D01*
X2872Y2155D01*
X2873Y2155D01*
X2874Y2154D01*
X2875Y2154D01*
X2876Y2153D01*
X2877Y2152D01*
X2878Y2152D01*
X2879Y2151D01*
X2880Y2151D01*
X2881Y2150D01*
X2882Y2149D01*
X2883Y2149D01*
X2884Y2148D01*
X2885Y2148D01*
X2886Y2147D01*
X2887Y2146D01*
X2888Y2146D01*
X2889Y2145D01*
X2890Y2144D01*
X2891Y2144D01*
X2892Y2143D01*
X2893Y2142D01*
X2894Y2142D01*
X2895Y2141D01*
X2896Y2141D01*
X2897Y2140D01*
X2898Y2139D01*
X2899Y2139D01*
X2900Y2138D01*
X2901Y2137D01*
X2902Y2136D01*
X2903Y2136D01*
X2904Y2135D01*
X2905Y2134D01*
X2906Y2134D01*
X2907Y2133D01*
X2908Y2132D01*
X2909Y2131D01*
X2910Y2131D01*
X2911Y2130D01*
X2912Y2129D01*
X2913Y2129D01*
X2914Y2128D01*
X2915Y2127D01*
X2916Y2126D01*
X2917Y2126D01*
X2918Y2125D01*
X2919Y2124D01*
X2920Y2123D01*
X2921Y2122D01*
X2922Y2122D01*
X2923Y2121D01*
X2924Y2120D01*
X2925Y2119D01*
X2926Y2118D01*
X2927Y2118D01*
X2928Y2117D01*
X2929Y2116D01*
X2930Y2115D01*
X2931Y2114D01*
X2932Y2113D01*
X2933Y2113D01*
X2934Y2112D01*
X2935Y2111D01*
X2936Y2110D01*
X2937Y2109D01*
X2938Y2108D01*
X2939Y2107D01*
X2940Y2107D01*
X2941Y2106D01*
X2942Y2105D01*
X2943Y2104D01*
X2944Y2103D01*
X2945Y2102D01*
X2946Y2101D01*
X2947Y2100D01*
X2948Y2099D01*
X2949Y2098D01*
X2950Y2097D01*
X2951Y2096D01*
X2952Y2095D01*
X2953Y2094D01*
X2954Y2093D01*
X2955Y2092D01*
X2956Y2091D01*
X2957Y2090D01*
X2958Y2089D01*
X2959Y2088D01*
X2960Y2087D01*
X2961Y2086D01*
X2962Y2085D01*
X2963Y2084D01*
X2964Y2083D01*
X2965Y2082D01*
X2966Y2081D01*
X2967Y2080D01*
X2968Y2079D01*
X2969Y2078D01*
X2970Y2077D01*
X2970Y2076D01*
X2971Y2075D01*
X2972Y2074D01*
X2973Y2073D01*
X2974Y2072D01*
X2975Y2071D01*
X2976Y2070D01*
X2977Y2069D01*
X2977Y2068D01*
X2978Y2067D01*
X2979Y2066D01*
X2980Y2065D01*
X2981Y2064D01*
X2982Y2063D01*
X2982Y2062D01*
X2983Y2061D01*
X2984Y2060D01*
X2985Y2059D01*
X2986Y2058D01*
X2986Y2057D01*
X2987Y2056D01*
X2988Y2055D01*
X2989Y2054D01*
X2989Y2053D01*
X2990Y2052D01*
X2991Y2051D01*
X2992Y2050D01*
X2993Y2049D01*
X2993Y2048D01*
X2994Y2047D01*
X2995Y2046D01*
X2995Y2045D01*
X2996Y2044D01*
X2997Y2043D01*
X2997Y2042D01*
X2998Y2041D01*
X2999Y2040D01*
X3000Y2039D01*
X3000Y2038D01*
X3001Y2037D01*
X3002Y2036D01*
X3002Y2035D01*
X3003Y2034D01*
X3004Y2033D01*
X3004Y2032D01*
X3005Y2031D01*
X3006Y2030D01*
X3006Y2029D01*
X3007Y2028D01*
X3008Y2027D01*
X3008Y2026D01*
X3009Y2025D01*
X3009Y2024D01*
X3010Y2023D01*
X3011Y2022D01*
X3011Y2021D01*
X3012Y2020D01*
X3013Y2019D01*
X3013Y2018D01*
X3014Y2017D01*
X3014Y2016D01*
X3015Y2015D01*
X3016Y2014D01*
X3016Y2013D01*
X3017Y2012D01*
X3017Y2011D01*
X3018Y2010D01*
X3018Y2009D01*
X3019Y2008D01*
X3020Y2007D01*
X3020Y2006D01*
X3021Y2005D01*
X3021Y2004D01*
X3022Y2003D01*
X3022Y2002D01*
X3023Y2001D01*
X3023Y2000D01*
X3024Y1999D01*
X3024Y1998D01*
X3025Y1997D01*
X3025Y1996D01*
X3026Y1995D01*
X3026Y1994D01*
X3027Y1993D01*
X3027Y1992D01*
X3028Y1991D01*
X3029Y1990D01*
X3029Y1989D01*
X3030Y1988D01*
X3030Y1987D01*
X3031Y1986D01*
X3031Y1984D01*
X3032Y1983D01*
X3032Y1982D01*
X3033Y1981D01*
X3033Y1980D01*
X3034Y1979D01*
X3034Y1978D01*
X3035Y1977D01*
X3035Y1976D01*
X3036Y1975D01*
X3036Y1973D01*
X3037Y1972D01*
X3037Y1971D01*
X3038Y1970D01*
X3038Y1969D01*
X3039Y1968D01*
X3039Y1966D01*
X3040Y1965D01*
X3040Y1964D01*
X3041Y1963D01*
X3041Y1961D01*
X3042Y1960D01*
X3042Y1959D01*
X3043Y1958D01*
X3043Y1956D01*
X3044Y1955D01*
X3044Y1954D01*
X3045Y1953D01*
X3045Y1951D01*
X3046Y1950D01*
X3046Y1948D01*
X3047Y1947D01*
X3047Y1945D01*
X3048Y1944D01*
X3048Y1942D01*
X3049Y1941D01*
X3049Y1939D01*
X3050Y1938D01*
X3050Y1936D01*
X3051Y1935D01*
X3051Y1933D01*
X3052Y1932D01*
X3052Y1930D01*
X3053Y1929D01*
X3053Y1927D01*
X3054Y1926D01*
X3054Y1923D01*
X3055Y1922D01*
X3055Y1919D01*
X3056Y1918D01*
X3056Y1916D01*
X3057Y1915D01*
X3057Y1912D01*
X3058Y1911D01*
X3058Y1908D01*
X3059Y1907D01*
X3059Y1903D01*
X3060Y1902D01*
X3060Y1899D01*
X3061Y1898D01*
X3061Y1894D01*
X3062Y1893D01*
X3062Y1889D01*
X3063Y1888D01*
X3063Y1883D01*
X3064Y1882D01*
X3064Y1877D01*
X3065Y1876D01*
X3065Y1870D01*
X3066Y1869D01*
X3066Y1862D01*
X3067Y1861D01*
X3067Y1852D01*
X3068Y1851D01*
X3068Y1838D01*
X3069Y1837D01*
X3069Y370D01*
X3068Y369D01*
X3068Y356D01*
X3067Y355D01*
X3067Y346D01*
X3066Y345D01*
X3066Y338D01*
X3065Y337D01*
X3065Y331D01*
X3064Y330D01*
X3064Y325D01*
X3063Y324D01*
X3063Y319D01*
X3062Y318D01*
X3062Y314D01*
X3061Y313D01*
X3061Y309D01*
X3060Y308D01*
X3060Y305D01*
X3059Y304D01*
X3059Y300D01*
X3058Y299D01*
X3058Y296D01*
X3057Y295D01*
X3057Y292D01*
X3056Y291D01*
X3056Y289D01*
X3055Y288D01*
X3055Y285D01*
X3054Y284D01*
X3054Y281D01*
X3053Y280D01*
X3053Y278D01*
X3052Y277D01*
X3052Y275D01*
X3051Y274D01*
X3051Y272D01*
X3050Y271D01*
X3050Y269D01*
X3049Y268D01*
X3049Y266D01*
X3048Y265D01*
X3048Y263D01*
X3047Y262D01*
X3047Y260D01*
X3046Y259D01*
X3046Y257D01*
X3045Y256D01*
X3045Y254D01*
X3044Y253D01*
X3044Y252D01*
X3043Y251D01*
X3043Y249D01*
X3042Y248D01*
X3042Y247D01*
X3041Y246D01*
X3041Y244D01*
X3040Y243D01*
X3040Y242D01*
X3039Y241D01*
X3039Y239D01*
X3038Y238D01*
X3038Y237D01*
X3037Y236D01*
X3037Y235D01*
X3036Y234D01*
X3036Y232D01*
X3035Y231D01*
X3035Y230D01*
X3034Y229D01*
X3034Y228D01*
X3033Y227D01*
X3033Y226D01*
X3032Y225D01*
X3032Y224D01*
X3031Y223D01*
X3031Y221D01*
X3030Y220D01*
X3030Y219D01*
X3029Y218D01*
X3029Y217D01*
X3028Y216D01*
X3027Y215D01*
X3027Y214D01*
X3026Y213D01*
X3026Y212D01*
X3025Y211D01*
X3025Y210D01*
X3024Y209D01*
X3024Y208D01*
X3023Y207D01*
X3023Y206D01*
X3022Y205D01*
X3022Y204D01*
X3021Y203D01*
X3021Y202D01*
X3020Y201D01*
X3020Y200D01*
X3019Y199D01*
X3018Y198D01*
X3018Y197D01*
X3017Y196D01*
X3017Y195D01*
X3016Y194D01*
X3016Y193D01*
X3015Y192D01*
X3014Y191D01*
X3014Y190D01*
X3013Y189D01*
X3013Y188D01*
X3012Y187D01*
X3011Y186D01*
X3011Y185D01*
X3010Y184D01*
X3009Y183D01*
X3009Y182D01*
X3008Y181D01*
X3008Y180D01*
X3007Y179D01*
X3006Y178D01*
X3006Y177D01*
X3005Y176D01*
X3004Y175D01*
X3004Y174D01*
X3003Y173D01*
X3002Y172D01*
X3002Y171D01*
X3001Y170D01*
X3000Y169D01*
X3000Y168D01*
X2999Y167D01*
X2998Y166D01*
X2997Y165D01*
X2997Y164D01*
X2996Y163D01*
X2995Y162D01*
X2995Y161D01*
X2994Y160D01*
X2993Y159D01*
X2993Y158D01*
X2992Y157D01*
X2991Y156D01*
X2990Y155D01*
X2989Y154D01*
X2989Y153D01*
X2988Y152D01*
X2987Y151D01*
X2986Y150D01*
X2986Y149D01*
X2985Y148D01*
X2984Y147D01*
X2983Y146D01*
X2982Y145D01*
X2982Y144D01*
X2981Y143D01*
X2980Y142D01*
X2979Y141D01*
X2978Y140D01*
X2977Y139D01*
X2977Y138D01*
X2976Y137D01*
X2975Y136D01*
X2974Y135D01*
X2973Y134D01*
X2972Y133D01*
X2971Y132D01*
X2970Y131D01*
X2970Y130D01*
X2969Y129D01*
X2968Y128D01*
X2967Y127D01*
X2966Y126D01*
X2965Y125D01*
X2964Y124D01*
X2963Y123D01*
X2962Y122D01*
X2961Y121D01*
X2960Y120D01*
X2959Y119D01*
X2958Y118D01*
X2957Y117D01*
X2956Y116D01*
X2955Y115D01*
X2954Y114D01*
X2953Y113D01*
X2952Y112D01*
X2951Y111D01*
X2950Y110D01*
X2949Y109D01*
X2948Y108D01*
X2947Y107D01*
X2946Y106D01*
X2945Y105D01*
X2944Y104D01*
X2943Y103D01*
X2942Y102D01*
X2941Y101D01*
X2940Y100D01*
X2939Y100D01*
X2938Y99D01*
X2937Y98D01*
X2936Y97D01*
X2935Y96D01*
X2934Y95D01*
X2933Y94D01*
X2932Y94D01*
X2931Y93D01*
X2930Y92D01*
X2929Y91D01*
X2928Y90D01*
X2927Y89D01*
X2926Y89D01*
X2925Y88D01*
X2924Y87D01*
X2923Y86D01*
X2922Y85D01*
X2921Y85D01*
X2920Y84D01*
X2919Y83D01*
X2918Y82D01*
X2917Y81D01*
X2916Y81D01*
X2915Y80D01*
X2914Y79D01*
X2913Y78D01*
X2912Y78D01*
X2911Y77D01*
X2910Y76D01*
X2909Y76D01*
X2908Y75D01*
X2907Y74D01*
X2906Y73D01*
X2905Y73D01*
X2904Y72D01*
X2903Y71D01*
X2902Y71D01*
X2901Y70D01*
X2900Y69D01*
X2899Y68D01*
X2898Y68D01*
X2897Y67D01*
X2896Y66D01*
X2895Y66D01*
X2894Y65D01*
X2893Y65D01*
X2892Y64D01*
X2891Y63D01*
X2890Y63D01*
X2889Y62D01*
X2888Y61D01*
X2887Y61D01*
X2886Y60D01*
X2885Y59D01*
X2884Y59D01*
X2883Y58D01*
X2882Y58D01*
X2881Y57D01*
X2880Y56D01*
X2879Y56D01*
X2878Y55D01*
X2877Y55D01*
X2876Y54D01*
X2875Y53D01*
X2874Y53D01*
X2873Y52D01*
X2872Y52D01*
X2871Y51D01*
X2870Y51D01*
X2869Y50D01*
X2868Y49D01*
X2867Y49D01*
X2866Y48D01*
X2865Y48D01*
X2864Y47D01*
X2863Y47D01*
X2862Y46D01*
X2861Y46D01*
X2860Y45D01*
X2859Y45D01*
X2858Y44D01*
X2857Y44D01*
X2856Y43D01*
X2855Y43D01*
X2854Y42D01*
X2853Y42D01*
X2852Y41D01*
X2851Y41D01*
X2850Y40D01*
X2849Y40D01*
X2848Y39D01*
X2847Y39D01*
X2846Y38D01*
X2845Y38D01*
X2844Y37D01*
X2843Y37D01*
X2842Y37D01*
X2841Y36D01*
X2840Y36D01*
X2839Y35D01*
X2838Y35D01*
X2837Y34D01*
X2836Y34D01*
X2835Y33D01*
X2834Y33D01*
X2833Y32D01*
X2832Y32D01*
X2831Y32D01*
X2830Y31D01*
X2829Y31D01*
X2828Y31D01*
X2827Y30D01*
X2826Y30D01*
X2825Y29D01*
X2824Y29D01*
X2823Y29D01*
X2822Y28D01*
X2821Y28D01*
X2820Y27D01*
X2819Y27D01*
X2818Y27D01*
X2817Y26D01*
X2816Y26D01*
X2815Y25D01*
X2814Y25D01*
X2813Y25D01*
X2812Y24D01*
X2811Y24D01*
X2810Y24D01*
X2809Y23D01*
X2808Y23D01*
X2807Y23D01*
X2806Y22D01*
X2805Y22D01*
X2804Y22D01*
X2803Y21D01*
X2802Y21D01*
X2801Y21D01*
X2800Y20D01*
X2799Y20D01*
X2798Y20D01*
X2797Y19D01*
X2796Y19D01*
X2795Y19D01*
X2794Y18D01*
X2793Y18D01*
X2792Y18D01*
X2791Y18D01*
X2790Y17D01*
X2789Y17D01*
X2788Y17D01*
X2787Y16D01*
X2786Y16D01*
X2785Y16D01*
X2784Y16D01*
X2783Y15D01*
X2782Y15D01*
X2781Y15D01*
X2780Y14D01*
X2779Y14D01*
X2778Y14D01*
X2777Y14D01*
X2776Y13D01*
X2775Y13D01*
X2774Y13D01*
X2773Y13D01*
X2772Y12D01*
X2771Y12D01*
X2770Y12D01*
X2769Y12D01*
X2768Y12D01*
X2767Y11D01*
X2766Y11D01*
X2765Y11D01*
X2764Y11D01*
X2763Y10D01*
X2762Y10D01*
X2761Y10D01*
X2760Y10D01*
X2759Y10D01*
X2758Y9D01*
X2757Y9D01*
X2756Y9D01*
X2755Y9D01*
X2754Y9D01*
X2753Y8D01*
X2752Y8D01*
X2751Y8D01*
X2750Y8D01*
X2749Y8D01*
X2748Y8D01*
X2747Y7D01*
X2746Y7D01*
X2745Y7D01*
X2744Y7D01*
X2743Y7D01*
X2742Y7D01*
X2741Y6D01*
X2740Y6D01*
X2739Y6D01*
X2738Y6D01*
X2737Y6D01*
X2736Y6D01*
X2735Y6D01*
X2734Y5D01*
X2733Y5D01*
X2732Y5D01*
X2731Y5D01*
X2730Y5D01*
X2729Y5D01*
X2728Y5D01*
X2727Y5D01*
X2726Y4D01*
X2725Y4D01*
X2724Y4D01*
X2723Y4D01*
X2722Y4D01*
X2721Y4D01*
X2720Y4D01*
X2719Y4D01*
X2718Y4D01*
X2717Y4D01*
X2716Y3D01*
X2715Y3D01*
X2714Y3D01*
X2713Y3D01*
X2712Y3D01*
X2711Y3D01*
X2710Y3D01*
X2709Y3D01*
X2708Y3D01*
X2707Y3D01*
X2706Y3D01*
X2705Y3D01*
X2704Y3D01*
X2703Y3D01*
X2702Y2D01*
X2701Y2D01*
X2700Y2D01*
X2699Y2D01*
X2698Y2D01*
X2697Y2D01*
X2696Y2D01*
X2695Y2D01*
X2694Y2D01*
X2693Y2D01*
X2692Y2D01*
X2691Y2D01*
X2690Y2D01*
X2689Y2D01*
X2688Y2D01*
X2687Y2D01*
X2686Y2D01*
X2685Y2D01*
X2684Y2D01*
X2683Y2D01*
X2682Y2D01*
X2681Y2D01*
X2680Y2D01*
X2679Y2D01*
X2678Y2D01*
X2677Y2D01*
X2676Y2D01*
X2675Y2D01*
X2674Y2D01*
X2673Y2D01*
X2672Y2D01*
X2671Y2D01*
X2670Y2D01*
X2669Y2D01*
X2668Y2D01*
X2667Y2D01*
X2666Y2D01*
X2665Y2D01*
X2664Y2D01*
X2663Y2D01*
X2662Y2D01*
X2661Y2D01*
X2660Y2D01*
X2659Y2D01*
X2658Y2D01*
X2657Y2D01*
X2656Y2D01*
X2655Y2D01*
X2654Y2D01*
X2653Y2D01*
X2652Y2D01*
X2651Y2D01*
X2650Y2D01*
X2649Y2D01*
X2648Y2D01*
X2647Y2D01*
X2646Y2D01*
X2645Y2D01*
X2644Y2D01*
X2643Y2D01*
X2642Y2D01*
X2641Y2D01*
X2640Y2D01*
X2639Y2D01*
X2638Y2D01*
X2637Y2D01*
X2636Y2D01*
X2635Y2D01*
X2634Y2D01*
X2633Y2D01*
X2632Y2D01*
X2631Y2D01*
X2630Y2D01*
X2629Y2D01*
X2628Y2D01*
X2627Y2D01*
X2626Y2D01*
X2625Y2D01*
X2624Y2D01*
X2623Y2D01*
X2622Y2D01*
X2621Y2D01*
X2620Y2D01*
X2619Y2D01*
X2618Y2D01*
X2617Y2D01*
X2616Y2D01*
X2615Y2D01*
X2614Y2D01*
X2613Y2D01*
X2612Y2D01*
X2611Y2D01*
X2610Y2D01*
X2609Y2D01*
X2608Y2D01*
X2607Y2D01*
X2606Y2D01*
X2605Y2D01*
X2604Y2D01*
X2603Y2D01*
X2602Y2D01*
X2601Y2D01*
X2600Y2D01*
X2599Y2D01*
X2598Y2D01*
X2597Y2D01*
X2596Y2D01*
X2595Y2D01*
X2594Y2D01*
X2593Y2D01*
X2592Y2D01*
X2591Y2D01*
X2590Y2D01*
X2589Y2D01*
X2588Y2D01*
X2587Y2D01*
X2586Y2D01*
X2585Y2D01*
X2584Y2D01*
X2583Y2D01*
X2582Y2D01*
X2581Y2D01*
X2580Y2D01*
X2579Y2D01*
X2578Y2D01*
X2577Y2D01*
X2576Y2D01*
X2575Y2D01*
X2574Y2D01*
X2573Y2D01*
X2572Y2D01*
X2571Y2D01*
X2570Y2D01*
X2569Y2D01*
X2568Y2D01*
X2567Y2D01*
X2566Y2D01*
X2565Y2D01*
X2564Y2D01*
X2563Y2D01*
X2562Y2D01*
X2561Y2D01*
X2560Y2D01*
X2559Y2D01*
X2558Y2D01*
X2557Y2D01*
X2556Y2D01*
X2555Y2D01*
X2554Y2D01*
X2553Y2D01*
X2552Y2D01*
X2551Y2D01*
X2550Y2D01*
X2549Y2D01*
X2548Y2D01*
X2547Y2D01*
X2546Y2D01*
X2545Y2D01*
X2544Y2D01*
X2543Y2D01*
X2542Y2D01*
X2541Y2D01*
X2540Y2D01*
X2539Y2D01*
X2538Y2D01*
X2537Y2D01*
X2536Y2D01*
X2535Y2D01*
X2534Y2D01*
X2533Y2D01*
X2532Y2D01*
X2531Y2D01*
X2530Y2D01*
X2529Y2D01*
X2528Y2D01*
X2527Y2D01*
X2526Y2D01*
X2525Y2D01*
X2524Y2D01*
X2523Y2D01*
X2522Y2D01*
X2521Y2D01*
X2520Y2D01*
X2519Y2D01*
X2518Y2D01*
X2517Y2D01*
X2516Y2D01*
X2515Y2D01*
X2514Y2D01*
X2513Y2D01*
X2512Y2D01*
X2511Y2D01*
X2510Y2D01*
X2509Y2D01*
X2508Y2D01*
X2507Y2D01*
X2506Y2D01*
X2505Y2D01*
X2504Y2D01*
X2503Y2D01*
X2502Y2D01*
X2501Y2D01*
X2500Y2D01*
X2499Y2D01*
X2498Y2D01*
X2497Y2D01*
X2496Y2D01*
X2495Y2D01*
X2494Y2D01*
X2493Y2D01*
X2492Y2D01*
X2491Y2D01*
X2490Y2D01*
X2489Y2D01*
X2488Y2D01*
X2487Y2D01*
X2486Y2D01*
X2485Y2D01*
X2484Y2D01*
X2483Y2D01*
X2482Y2D01*
X2481Y2D01*
X2480Y2D01*
X2479Y2D01*
X2478Y2D01*
X2477Y2D01*
X2476Y2D01*
X2475Y2D01*
X2474Y2D01*
X2473Y2D01*
X2472Y2D01*
X2471Y2D01*
X2470Y2D01*
X2469Y2D01*
X2468Y2D01*
X2467Y2D01*
X2466Y2D01*
X2465Y2D01*
X2464Y2D01*
X2463Y2D01*
X2462Y2D01*
X2461Y2D01*
X2460Y2D01*
X2459Y2D01*
X2458Y2D01*
X2457Y2D01*
X2456Y2D01*
X2455Y2D01*
X2454Y2D01*
X2453Y2D01*
X2452Y2D01*
X2451Y2D01*
X2450Y2D01*
X2449Y2D01*
X2448Y2D01*
X2447Y2D01*
X2446Y2D01*
X2445Y2D01*
X2444Y2D01*
X2443Y2D01*
X2442Y2D01*
X2441Y2D01*
X2440Y2D01*
X2439Y2D01*
X2438Y2D01*
X2437Y2D01*
X2436Y2D01*
X2435Y2D01*
X2434Y2D01*
X2433Y2D01*
X2432Y2D01*
X2431Y2D01*
X2430Y2D01*
X2429Y2D01*
X2428Y2D01*
X2427Y2D01*
X2426Y2D01*
X2425Y2D01*
X2424Y2D01*
X2423Y2D01*
X2422Y2D01*
X2421Y2D01*
X2420Y2D01*
X2419Y2D01*
X2418Y2D01*
X2417Y2D01*
X2416Y2D01*
X2415Y2D01*
X2414Y2D01*
X2413Y2D01*
X2412Y2D01*
X2411Y2D01*
X2410Y2D01*
X2409Y2D01*
X2408Y2D01*
X2407Y2D01*
X2406Y2D01*
X2405Y2D01*
X2404Y2D01*
X2403Y2D01*
X2402Y2D01*
X2401Y2D01*
X2400Y2D01*
X2399Y2D01*
X2398Y2D01*
X2397Y2D01*
X2396Y2D01*
X2395Y2D01*
X2394Y2D01*
X2393Y2D01*
X2392Y2D01*
X2391Y2D01*
X2390Y2D01*
X2389Y2D01*
X2388Y2D01*
X2387Y2D01*
X2386Y2D01*
X2385Y2D01*
X2384Y2D01*
X2383Y2D01*
X2382Y2D01*
X2381Y2D01*
X2380Y2D01*
X2379Y2D01*
X2378Y2D01*
X2377Y2D01*
X2376Y2D01*
X2375Y2D01*
X2374Y2D01*
X2373Y2D01*
X2372Y2D01*
X2371Y2D01*
X2370Y2D01*
X2369Y2D01*
X2368Y2D01*
X2367Y2D01*
X2366Y2D01*
X2365Y2D01*
X2364Y2D01*
X2363Y2D01*
X2362Y2D01*
X2361Y2D01*
X2360Y2D01*
X2359Y2D01*
X2358Y2D01*
X2357Y2D01*
X2356Y2D01*
X2355Y2D01*
X2354Y2D01*
X2353Y2D01*
X2352Y2D01*
X2351Y2D01*
X2350Y2D01*
X2349Y2D01*
X2348Y2D01*
X2347Y2D01*
X2346Y2D01*
X2345Y2D01*
X2344Y2D01*
X2343Y2D01*
X2342Y2D01*
X2341Y2D01*
X2340Y2D01*
X2339Y2D01*
X2338Y2D01*
X2337Y2D01*
X2336Y2D01*
X2335Y2D01*
X2334Y2D01*
X2333Y2D01*
X2332Y2D01*
X2331Y2D01*
X2330Y2D01*
X2329Y2D01*
X2328Y2D01*
X2327Y2D01*
X2326Y2D01*
X2325Y2D01*
X2324Y2D01*
X2323Y2D01*
X2322Y2D01*
X2321Y2D01*
X2320Y2D01*
X2319Y2D01*
X2318Y2D01*
X2317Y2D01*
X2316Y2D01*
X2315Y2D01*
X2314Y2D01*
X2313Y2D01*
X2312Y2D01*
X2311Y2D01*
X2310Y2D01*
X2309Y2D01*
X2308Y2D01*
X2307Y2D01*
X2306Y2D01*
X2305Y2D01*
X2304Y2D01*
X2303Y2D01*
X2302Y2D01*
X2301Y2D01*
X2300Y2D01*
X2299Y2D01*
X2298Y2D01*
X2297Y2D01*
X2296Y2D01*
X2295Y2D01*
X2294Y2D01*
X2293Y2D01*
X2292Y2D01*
X2291Y2D01*
X2290Y2D01*
X2289Y2D01*
X2288Y2D01*
X2287Y2D01*
X2286Y2D01*
X2285Y2D01*
X2284Y2D01*
X2283Y2D01*
X2282Y2D01*
X2281Y2D01*
X2280Y2D01*
X2279Y2D01*
X2278Y2D01*
X2277Y2D01*
X2276Y2D01*
X2275Y2D01*
X2274Y2D01*
X2273Y2D01*
X2272Y2D01*
X2271Y2D01*
X2270Y2D01*
X2269Y2D01*
X2268Y2D01*
X2267Y2D01*
X2266Y2D01*
X2265Y2D01*
X2264Y2D01*
X2263Y2D01*
X2262Y2D01*
X2261Y2D01*
X2260Y2D01*
X2259Y2D01*
X2258Y2D01*
X2257Y2D01*
X2256Y2D01*
X2255Y2D01*
X2254Y2D01*
X2253Y2D01*
X2252Y2D01*
X2251Y2D01*
X2250Y2D01*
X2249Y2D01*
X2248Y2D01*
X2247Y2D01*
X2246Y2D01*
X2245Y2D01*
X2244Y2D01*
X2243Y2D01*
X2242Y2D01*
X2241Y2D01*
X2240Y2D01*
X2239Y2D01*
X2238Y2D01*
X2237Y2D01*
X2236Y2D01*
X2235Y2D01*
X2234Y2D01*
X2233Y2D01*
X2232Y2D01*
X2231Y2D01*
X2230Y2D01*
X2229Y2D01*
X2228Y2D01*
X2227Y2D01*
X2226Y2D01*
X2225Y2D01*
X2224Y2D01*
X2223Y2D01*
X2222Y2D01*
X2221Y2D01*
X2220Y2D01*
X2219Y2D01*
X2218Y2D01*
X2217Y2D01*
X2216Y2D01*
X2215Y2D01*
X2214Y2D01*
X2213Y2D01*
X2212Y2D01*
X2211Y2D01*
X2210Y2D01*
X2209Y2D01*
X2208Y2D01*
X2207Y2D01*
X2206Y2D01*
X2205Y2D01*
X2204Y2D01*
X2203Y2D01*
X2202Y2D01*
X2201Y2D01*
X2200Y2D01*
X2199Y2D01*
X2198Y2D01*
X2197Y2D01*
X2196Y2D01*
X2195Y2D01*
X2194Y2D01*
X2193Y2D01*
X2192Y2D01*
X2191Y2D01*
X2190Y2D01*
X2189Y2D01*
X2188Y2D01*
X2187Y2D01*
X2186Y2D01*
X2185Y2D01*
X2184Y2D01*
X2183Y2D01*
X2182Y2D01*
X2181Y2D01*
X2180Y2D01*
X2179Y2D01*
X2178Y2D01*
X2177Y2D01*
X2176Y2D01*
X2175Y2D01*
X2174Y2D01*
X2173Y2D01*
X2172Y2D01*
X2171Y2D01*
X2170Y2D01*
X2169Y2D01*
X2168Y2D01*
X2167Y2D01*
X2166Y2D01*
X2165Y2D01*
X2164Y2D01*
X2163Y2D01*
X2162Y2D01*
X2161Y2D01*
X2160Y2D01*
X2159Y2D01*
X2158Y2D01*
X2157Y2D01*
X2156Y2D01*
X2155Y2D01*
X2154Y2D01*
X2153Y2D01*
X2152Y2D01*
X2151Y2D01*
X2150Y2D01*
X2149Y2D01*
X2148Y2D01*
X2147Y2D01*
X2146Y2D01*
X2145Y2D01*
X2144Y2D01*
X2143Y2D01*
X2142Y2D01*
X2141Y2D01*
X2140Y2D01*
X2139Y2D01*
X2138Y2D01*
X2137Y2D01*
X2136Y2D01*
X2135Y2D01*
X2134Y2D01*
X2133Y2D01*
X2132Y2D01*
X2131Y2D01*
X2130Y2D01*
X2129Y2D01*
X2128Y2D01*
X2127Y2D01*
X2126Y2D01*
X2125Y2D01*
X2124Y2D01*
X2123Y2D01*
X2122Y2D01*
X2121Y2D01*
X2120Y2D01*
X2119Y2D01*
X2118Y2D01*
X2117Y2D01*
X2116Y2D01*
X2115Y2D01*
X2114Y2D01*
X2113Y2D01*
X2112Y2D01*
X2111Y2D01*
X2110Y2D01*
X2109Y2D01*
X2108Y2D01*
X2107Y2D01*
X2106Y2D01*
X2105Y2D01*
X2104Y2D01*
X2103Y2D01*
X2102Y2D01*
X2101Y2D01*
X2100Y2D01*
X2099Y2D01*
X2098Y2D01*
X2097Y2D01*
X2096Y2D01*
X2095Y2D01*
X2094Y2D01*
X2093Y2D01*
X2092Y2D01*
X2091Y2D01*
X2090Y2D01*
X2089Y2D01*
X2088Y2D01*
X2087Y2D01*
X2086Y2D01*
X2085Y2D01*
X2084Y2D01*
X2083Y2D01*
X2082Y2D01*
X2081Y2D01*
X2080Y2D01*
X2079Y2D01*
X2078Y2D01*
X2077Y2D01*
X2076Y2D01*
X2075Y2D01*
X2074Y2D01*
X2073Y2D01*
X2072Y2D01*
X2071Y2D01*
X2070Y2D01*
X2069Y2D01*
X2068Y2D01*
X2067Y2D01*
X2066Y2D01*
X2065Y2D01*
X2064Y2D01*
X2063Y2D01*
X2062Y2D01*
X2061Y2D01*
X2060Y2D01*
X2059Y2D01*
X2058Y2D01*
X2057Y2D01*
X2056Y2D01*
X2055Y2D01*
X2054Y2D01*
X2053Y2D01*
X2052Y2D01*
X2051Y2D01*
X2050Y2D01*
X2049Y2D01*
X2048Y2D01*
X2047Y2D01*
X2046Y2D01*
X2045Y2D01*
X2044Y2D01*
X2043Y2D01*
X2042Y2D01*
X2041Y2D01*
X2040Y2D01*
X2039Y2D01*
X2038Y2D01*
X2037Y2D01*
X2036Y2D01*
X2035Y2D01*
X2034Y2D01*
X2033Y2D01*
X2032Y2D01*
X2031Y2D01*
X2030Y2D01*
X2029Y2D01*
X2028Y2D01*
X2027Y2D01*
X2026Y2D01*
X2025Y2D01*
X2024Y2D01*
X2023Y2D01*
X2022Y2D01*
X2021Y2D01*
X2020Y2D01*
X2019Y2D01*
X2018Y2D01*
X2017Y2D01*
X2016Y2D01*
X2015Y2D01*
X2014Y2D01*
X2013Y2D01*
X2012Y2D01*
X2011Y2D01*
X2010Y2D01*
X2009Y2D01*
X2008Y2D01*
X2007Y2D01*
X2006Y2D01*
X2005Y2D01*
X2004Y2D01*
X2003Y2D01*
X2002Y2D01*
X2001Y2D01*
X2000Y2D01*
X1999Y2D01*
X1998Y2D01*
X1997Y2D01*
X1996Y2D01*
X1995Y2D01*
X1994Y2D01*
X1993Y2D01*
X1992Y2D01*
X1991Y2D01*
X1990Y2D01*
X1989Y2D01*
X1988Y2D01*
X1987Y2D01*
X1986Y2D01*
X1985Y2D01*
X1984Y2D01*
X1983Y2D01*
X1982Y2D01*
X1981Y2D01*
X1980Y2D01*
X1979Y2D01*
X1978Y2D01*
X1977Y2D01*
X1976Y2D01*
X1975Y2D01*
X1974Y2D01*
X1973Y2D01*
X1972Y2D01*
X1971Y2D01*
X1970Y2D01*
X1969Y2D01*
X1968Y2D01*
X1967Y2D01*
X1966Y2D01*
X1965Y2D01*
X1964Y2D01*
X1963Y2D01*
X1962Y2D01*
X1961Y2D01*
X1960Y2D01*
X1959Y2D01*
X1958Y2D01*
X1957Y2D01*
X1956Y2D01*
X1955Y2D01*
X1954Y2D01*
X1953Y2D01*
X1952Y2D01*
X1951Y2D01*
X1950Y2D01*
X1949Y2D01*
X1948Y2D01*
X1947Y2D01*
X1946Y2D01*
X1945Y2D01*
X1944Y2D01*
X1943Y2D01*
X1942Y2D01*
X1941Y2D01*
X1940Y2D01*
X1939Y2D01*
X1938Y2D01*
X1937Y2D01*
X1936Y2D01*
X1935Y2D01*
X1934Y2D01*
X1933Y2D01*
X1932Y2D01*
X1931Y2D01*
X1930Y2D01*
X1929Y2D01*
X1928Y2D01*
X1927Y2D01*
X1926Y2D01*
X1925Y2D01*
X1924Y2D01*
X1923Y2D01*
X1922Y2D01*
X1921Y2D01*
X1920Y2D01*
X1919Y2D01*
X1918Y2D01*
X1917Y2D01*
X1916Y2D01*
X1915Y2D01*
X1914Y2D01*
X1913Y2D01*
X1912Y2D01*
X1911Y2D01*
X1910Y2D01*
X1909Y2D01*
X1908Y2D01*
X1907Y2D01*
X1906Y2D01*
X1905Y2D01*
X1904Y2D01*
X1903Y2D01*
X1902Y2D01*
X1901Y2D01*
X1900Y2D01*
X1899Y2D01*
X1898Y2D01*
X1897Y2D01*
X1896Y2D01*
X1895Y2D01*
X1894Y2D01*
X1893Y2D01*
X1892Y2D01*
X1891Y2D01*
X1890Y2D01*
X1889Y2D01*
X1888Y2D01*
X1887Y2D01*
X1886Y2D01*
X1885Y2D01*
X1884Y2D01*
X1883Y2D01*
X1882Y2D01*
X1881Y2D01*
X1880Y2D01*
X1879Y2D01*
X1878Y2D01*
X1877Y2D01*
X1876Y2D01*
X1875Y2D01*
X1874Y2D01*
X1873Y2D01*
X1872Y2D01*
X1871Y2D01*
X1870Y2D01*
X1869Y2D01*
X1868Y2D01*
X1867Y2D01*
X1866Y2D01*
X1865Y2D01*
X1864Y2D01*
X1863Y2D01*
X1862Y2D01*
X1861Y2D01*
X1860Y2D01*
X1859Y2D01*
X1858Y2D01*
X1857Y2D01*
X1856Y2D01*
X1855Y2D01*
X1854Y2D01*
X1853Y2D01*
X1852Y2D01*
X1851Y2D01*
X1850Y2D01*
X1849Y2D01*
X1848Y2D01*
X1847Y2D01*
X1846Y2D01*
X1845Y2D01*
X1844Y2D01*
X1843Y2D01*
X1842Y2D01*
X1841Y2D01*
X1840Y2D01*
X1839Y2D01*
X1838Y2D01*
X1837Y2D01*
X1836Y2D01*
X1835Y2D01*
X1834Y2D01*
X1833Y2D01*
X1832Y2D01*
X1831Y2D01*
X1830Y2D01*
X1829Y2D01*
X1828Y2D01*
X1827Y2D01*
X1826Y2D01*
X1825Y2D01*
X1824Y2D01*
X1823Y2D01*
X1822Y2D01*
X1821Y2D01*
X1820Y2D01*
X1819Y2D01*
X1818Y2D01*
X1817Y2D01*
X1816Y2D01*
X1815Y2D01*
X1814Y2D01*
X1813Y2D01*
X1812Y2D01*
X1811Y2D01*
X1810Y2D01*
X1809Y2D01*
X1808Y2D01*
X1807Y2D01*
X1806Y2D01*
X1805Y2D01*
X1804Y2D01*
X1803Y2D01*
X1802Y2D01*
X1801Y2D01*
X1800Y2D01*
X1799Y2D01*
X1798Y2D01*
X1797Y2D01*
X1796Y2D01*
X1795Y2D01*
X1794Y2D01*
X1793Y2D01*
X1792Y2D01*
X1791Y2D01*
X1790Y2D01*
X1789Y2D01*
X1788Y2D01*
X1787Y2D01*
X1786Y2D01*
X1785Y2D01*
X1784Y2D01*
X1783Y2D01*
X1782Y2D01*
X1781Y2D01*
X1780Y2D01*
X1779Y2D01*
X1778Y2D01*
X1777Y2D01*
X1776Y2D01*
X1775Y2D01*
X1774Y2D01*
X1773Y2D01*
X1772Y2D01*
X1771Y2D01*
X1770Y2D01*
X1769Y2D01*
X1768Y2D01*
X1767Y2D01*
X1766Y2D01*
X1765Y2D01*
X1764Y2D01*
X1763Y2D01*
X1762Y2D01*
X1761Y2D01*
X1760Y2D01*
X1759Y2D01*
X1758Y2D01*
X1757Y2D01*
X1756Y2D01*
X1755Y2D01*
X1754Y2D01*
X1753Y2D01*
X1752Y2D01*
X1751Y2D01*
X1750Y2D01*
X1749Y2D01*
X1748Y2D01*
X1747Y2D01*
X1746Y2D01*
X1745Y2D01*
X1744Y2D01*
X1743Y2D01*
X1742Y2D01*
X1741Y2D01*
X1740Y2D01*
X1739Y2D01*
X1738Y2D01*
X1737Y2D01*
X1736Y2D01*
X1735Y2D01*
X1734Y2D01*
X1733Y2D01*
X1732Y2D01*
X1731Y2D01*
X1730Y2D01*
X1729Y2D01*
X1728Y2D01*
X1727Y2D01*
X1726Y2D01*
X1725Y2D01*
X1724Y2D01*
X1723Y2D01*
X1722Y2D01*
X1721Y2D01*
X1720Y2D01*
X1719Y2D01*
X1718Y2D01*
X1717Y2D01*
X1716Y2D01*
X1715Y2D01*
X1714Y2D01*
X1713Y2D01*
X1712Y2D01*
X1711Y2D01*
X1710Y2D01*
X1709Y2D01*
X1708Y2D01*
X1707Y2D01*
X1706Y2D01*
X1705Y2D01*
X1704Y2D01*
X1703Y2D01*
X1702Y2D01*
X1701Y2D01*
X1700Y2D01*
X1699Y2D01*
X1698Y2D01*
X1697Y2D01*
X1696Y2D01*
X1695Y2D01*
X1694Y2D01*
X1693Y2D01*
X1692Y2D01*
X1691Y2D01*
X1690Y2D01*
X1689Y2D01*
X1688Y2D01*
X1687Y2D01*
X1686Y2D01*
X1685Y2D01*
X1684Y2D01*
X1683Y2D01*
X1682Y2D01*
X1681Y2D01*
X1680Y2D01*
X1679Y2D01*
X1678Y2D01*
X1677Y2D01*
X1676Y2D01*
X1675Y2D01*
X1674Y2D01*
X1673Y2D01*
X1672Y2D01*
X1671Y2D01*
X1670Y2D01*
X1669Y2D01*
X1668Y2D01*
X1667Y2D01*
X1666Y2D01*
X1665Y2D01*
X1664Y2D01*
X1663Y2D01*
X1662Y2D01*
X1661Y2D01*
X1660Y2D01*
X1659Y2D01*
X1658Y2D01*
X1657Y2D01*
X1656Y2D01*
X1655Y2D01*
X1654Y2D01*
X1653Y2D01*
X1652Y2D01*
X1651Y2D01*
X1650Y2D01*
X1649Y2D01*
X1648Y2D01*
X1647Y2D01*
X1646Y2D01*
X1645Y2D01*
X1644Y2D01*
X1643Y2D01*
X1642Y2D01*
X1641Y2D01*
X1640Y2D01*
X1639Y2D01*
X1638Y2D01*
X1637Y2D01*
X1636Y2D01*
X1635Y2D01*
X1634Y2D01*
X1633Y2D01*
X1632Y2D01*
X1631Y2D01*
X1630Y2D01*
X1629Y2D01*
X1628Y2D01*
X1627Y2D01*
X1626Y2D01*
X1625Y2D01*
X1624Y2D01*
X1623Y2D01*
X1622Y2D01*
X1621Y2D01*
X1620Y2D01*
X1619Y2D01*
X1618Y2D01*
X1617Y2D01*
X1616Y2D01*
X1615Y2D01*
X1614Y2D01*
X1613Y2D01*
X1612Y2D01*
X1611Y2D01*
X1610Y2D01*
X1609Y2D01*
X1608Y2D01*
X1607Y2D01*
X1606Y2D01*
X1605Y2D01*
X1604Y2D01*
X1603Y2D01*
X1602Y2D01*
X1601Y2D01*
X1600Y2D01*
X1599Y2D01*
X1598Y2D01*
X1597Y2D01*
X1596Y2D01*
X1595Y2D01*
X1594Y2D01*
X1593Y2D01*
X1592Y2D01*
X1591Y2D01*
X1590Y2D01*
X1589Y2D01*
X1588Y2D01*
X1587Y2D01*
X1586Y2D01*
X1585Y2D01*
X1584Y2D01*
X1583Y2D01*
X1582Y2D01*
X1581Y2D01*
X1580Y2D01*
X1579Y2D01*
X1578Y2D01*
X1577Y2D01*
X1576Y2D01*
X1575Y2D01*
X1574Y2D01*
X1573Y2D01*
X1572Y2D01*
X1571Y2D01*
X1570Y2D01*
X1569Y2D01*
X1568Y2D01*
X1567Y2D01*
X1566Y2D01*
X1565Y2D01*
X1564Y2D01*
X1563Y2D01*
X1562Y2D01*
X1561Y2D01*
X1560Y2D01*
X1559Y2D01*
X1558Y2D01*
X1557Y2D01*
X1556Y2D01*
X1555Y2D01*
X1554Y2D01*
X1553Y2D01*
X1552Y2D01*
X1551Y2D01*
X1550Y2D01*
X1549Y2D01*
X1548Y2D01*
X1547Y2D01*
X1546Y2D01*
X1545Y2D01*
X1544Y2D01*
X1543Y2D01*
X1542Y2D01*
X1541Y2D01*
X1540Y2D01*
X1539Y2D01*
X1538Y2D01*
X1537Y2D01*
X1536Y2D01*
X1535Y2D01*
X1534Y2D01*
X1533Y2D01*
X1532Y2D01*
X1531Y2D01*
X1530Y2D01*
X1529Y2D01*
X1528Y2D01*
X1527Y2D01*
X1526Y2D01*
X1525Y2D01*
X1524Y2D01*
X1523Y2D01*
X1522Y2D01*
X1521Y2D01*
X1520Y2D01*
X1519Y2D01*
X1518Y2D01*
X1517Y2D01*
X1516Y2D01*
X1515Y2D01*
X1514Y2D01*
X1513Y2D01*
X1512Y2D01*
X1511Y2D01*
X1510Y2D01*
X1509Y2D01*
X1508Y2D01*
X1507Y2D01*
X1506Y2D01*
X1505Y2D01*
X1504Y2D01*
X1503Y2D01*
X1502Y2D01*
X1501Y2D01*
X1500Y2D01*
X1499Y2D01*
X1498Y2D01*
X1497Y2D01*
X1496Y2D01*
X1495Y2D01*
X1494Y2D01*
X1493Y2D01*
X1492Y2D01*
X1491Y2D01*
X1490Y2D01*
X1489Y2D01*
X1488Y2D01*
X1487Y2D01*
X1486Y2D01*
X1485Y2D01*
X1484Y2D01*
X1483Y2D01*
X1482Y2D01*
X1481Y2D01*
X1480Y2D01*
X1479Y2D01*
X1478Y2D01*
X1477Y2D01*
X1476Y2D01*
X1475Y2D01*
X1474Y2D01*
X1473Y2D01*
X1472Y2D01*
X1471Y2D01*
X1470Y2D01*
X1469Y2D01*
X1468Y2D01*
X1467Y2D01*
X1466Y2D01*
X1465Y2D01*
X1464Y2D01*
X1463Y2D01*
X1462Y2D01*
X1461Y2D01*
X1460Y2D01*
X1459Y2D01*
X1458Y2D01*
X1457Y2D01*
X1456Y2D01*
X1455Y2D01*
X1454Y2D01*
X1453Y2D01*
X1452Y2D01*
X1451Y2D01*
X1450Y2D01*
X1449Y2D01*
X1448Y2D01*
X1447Y2D01*
X1446Y2D01*
X1445Y2D01*
X1444Y2D01*
X1443Y2D01*
X1442Y2D01*
X1441Y2D01*
X1440Y2D01*
X1439Y2D01*
X1438Y2D01*
X1437Y2D01*
X1436Y2D01*
X1435Y2D01*
X1434Y2D01*
X1433Y2D01*
X1432Y2D01*
X1431Y2D01*
X1430Y2D01*
X1429Y2D01*
X1428Y2D01*
X1427Y2D01*
X1426Y2D01*
X1425Y2D01*
X1424Y2D01*
X1423Y2D01*
X1422Y2D01*
X1421Y2D01*
X1420Y2D01*
X1419Y2D01*
X1418Y2D01*
X1417Y2D01*
X1416Y2D01*
X1415Y2D01*
X1414Y2D01*
X1413Y2D01*
X1412Y2D01*
X1411Y2D01*
X1410Y2D01*
X1409Y2D01*
X1408Y2D01*
X1407Y2D01*
X1406Y2D01*
X1405Y2D01*
X1404Y2D01*
X1403Y2D01*
X1402Y2D01*
X1401Y2D01*
X1400Y2D01*
X1399Y2D01*
X1398Y2D01*
X1397Y2D01*
X1396Y2D01*
X1395Y2D01*
X1394Y2D01*
X1393Y2D01*
X1392Y2D01*
X1391Y2D01*
X1390Y2D01*
X1389Y2D01*
X1388Y2D01*
X1387Y2D01*
X1386Y2D01*
X1385Y2D01*
X1384Y2D01*
X1383Y2D01*
X1382Y2D01*
X1381Y2D01*
X1380Y2D01*
X1379Y2D01*
X1378Y2D01*
X1377Y2D01*
X1376Y2D01*
X1375Y2D01*
X1374Y2D01*
X1373Y2D01*
X1372Y2D01*
X1371Y2D01*
X1370Y2D01*
X1369Y2D01*
X1368Y2D01*
X1367Y2D01*
X1366Y2D01*
X1365Y2D01*
X1364Y2D01*
X1363Y2D01*
X1362Y2D01*
X1361Y2D01*
X1360Y2D01*
X1359Y2D01*
X1358Y2D01*
X1357Y2D01*
X1356Y2D01*
X1355Y2D01*
X1354Y2D01*
X1353Y2D01*
X1352Y2D01*
X1351Y2D01*
X1350Y2D01*
X1349Y2D01*
X1348Y2D01*
X1347Y2D01*
X1346Y2D01*
X1345Y2D01*
X1344Y2D01*
X1343Y2D01*
X1342Y2D01*
X1341Y2D01*
X1340Y2D01*
X1339Y2D01*
X1338Y2D01*
X1337Y2D01*
X1336Y2D01*
X1335Y2D01*
X1334Y2D01*
X1333Y2D01*
X1332Y2D01*
X1331Y2D01*
X1330Y2D01*
X1329Y2D01*
X1328Y2D01*
X1327Y2D01*
X1326Y2D01*
X1325Y2D01*
X1324Y2D01*
X1323Y2D01*
X1322Y2D01*
X1321Y2D01*
X1320Y2D01*
X1319Y2D01*
X1318Y2D01*
X1317Y2D01*
X1316Y2D01*
X1315Y2D01*
X1314Y2D01*
X1313Y2D01*
X1312Y2D01*
X1311Y2D01*
X1310Y2D01*
X1309Y2D01*
X1308Y2D01*
X1307Y2D01*
X1306Y2D01*
X1305Y2D01*
X1304Y2D01*
X1303Y2D01*
X1302Y2D01*
X1301Y2D01*
X1300Y2D01*
X1299Y2D01*
X1298Y2D01*
X1297Y2D01*
X1296Y2D01*
X1295Y2D01*
X1294Y2D01*
X1293Y2D01*
X1292Y2D01*
X1291Y2D01*
X1290Y2D01*
X1289Y2D01*
X1288Y2D01*
X1287Y2D01*
X1286Y2D01*
X1285Y2D01*
X1284Y2D01*
X1283Y2D01*
X1282Y2D01*
X1281Y2D01*
X1280Y2D01*
X1279Y2D01*
X1278Y2D01*
X1277Y2D01*
X1276Y2D01*
X1275Y2D01*
X1274Y2D01*
X1273Y2D01*
X1272Y2D01*
X1271Y2D01*
X1270Y2D01*
X1269Y2D01*
X1268Y2D01*
X1267Y2D01*
X1266Y2D01*
X1265Y2D01*
X1264Y2D01*
X1263Y2D01*
X1262Y2D01*
X1261Y2D01*
X1260Y2D01*
X1259Y2D01*
X1258Y2D01*
X1257Y2D01*
X1256Y2D01*
X1255Y2D01*
X1254Y2D01*
X1253Y2D01*
X1252Y2D01*
X1251Y2D01*
X1250Y2D01*
X1249Y2D01*
X1248Y2D01*
X1247Y2D01*
X1246Y2D01*
X1245Y2D01*
X1244Y2D01*
X1243Y2D01*
X1242Y2D01*
X1241Y2D01*
X1240Y2D01*
X1239Y2D01*
X1238Y2D01*
X1237Y2D01*
X1236Y2D01*
X1235Y2D01*
X1234Y2D01*
X1233Y2D01*
X1232Y2D01*
X1231Y2D01*
X1230Y2D01*
X1229Y2D01*
X1228Y2D01*
X1227Y2D01*
X1226Y2D01*
X1225Y2D01*
X1224Y2D01*
X1223Y2D01*
X1222Y2D01*
X1221Y2D01*
X1220Y2D01*
X1219Y2D01*
X1218Y2D01*
X1217Y2D01*
X1216Y2D01*
X1215Y2D01*
X1214Y2D01*
X1213Y2D01*
X1212Y2D01*
X1211Y2D01*
X1210Y2D01*
X1209Y2D01*
X1208Y2D01*
X1207Y2D01*
X1206Y2D01*
X1205Y2D01*
X1204Y2D01*
X1203Y2D01*
X1202Y2D01*
X1201Y2D01*
X1200Y2D01*
X1199Y2D01*
X1198Y2D01*
X1197Y2D01*
X1196Y2D01*
X1195Y2D01*
X1194Y2D01*
X1193Y2D01*
X1192Y2D01*
X1191Y2D01*
X1190Y2D01*
X1189Y2D01*
X1188Y2D01*
X1187Y2D01*
X1186Y2D01*
X1185Y2D01*
X1184Y2D01*
X1183Y2D01*
X1182Y2D01*
X1181Y2D01*
X1180Y2D01*
X1179Y2D01*
X1178Y2D01*
X1177Y2D01*
X1176Y2D01*
X1175Y2D01*
X1174Y2D01*
X1173Y2D01*
X1172Y2D01*
X1171Y2D01*
X1170Y2D01*
X1169Y2D01*
X1168Y2D01*
X1167Y2D01*
X1166Y2D01*
X1165Y2D01*
X1164Y2D01*
X1163Y2D01*
X1162Y2D01*
X1161Y2D01*
X1160Y2D01*
X1159Y2D01*
X1158Y2D01*
X1157Y2D01*
X1156Y2D01*
X1155Y2D01*
X1154Y2D01*
X1153Y2D01*
X1152Y2D01*
X1151Y2D01*
X1150Y2D01*
X1149Y2D01*
X1148Y2D01*
X1147Y2D01*
X1146Y2D01*
X1145Y2D01*
X1144Y2D01*
X1143Y2D01*
X1142Y2D01*
X1141Y2D01*
X1140Y2D01*
X1139Y2D01*
X1138Y2D01*
X1137Y2D01*
X1136Y2D01*
X1135Y2D01*
X1134Y2D01*
X1133Y2D01*
X1132Y2D01*
X1131Y2D01*
X1130Y2D01*
X1129Y2D01*
X1128Y2D01*
X1127Y2D01*
X1126Y2D01*
X1125Y2D01*
X1124Y2D01*
X1123Y2D01*
X1122Y2D01*
X1121Y2D01*
X1120Y2D01*
X1119Y2D01*
X1118Y2D01*
X1117Y2D01*
X1116Y2D01*
X1115Y2D01*
X1114Y2D01*
X1113Y2D01*
X1112Y2D01*
X1111Y2D01*
X1110Y2D01*
X1109Y2D01*
X1108Y2D01*
X1107Y2D01*
X1106Y2D01*
X1105Y2D01*
X1104Y2D01*
X1103Y2D01*
X1102Y2D01*
X1101Y2D01*
X1100Y2D01*
X1099Y2D01*
X1098Y2D01*
X1097Y2D01*
X1096Y2D01*
X1095Y2D01*
X1094Y2D01*
X1093Y2D01*
X1092Y2D01*
X1091Y2D01*
X1090Y2D01*
X1089Y2D01*
X1088Y2D01*
X1087Y2D01*
X1086Y2D01*
X1085Y2D01*
X1084Y2D01*
X1083Y2D01*
X1082Y2D01*
X1081Y2D01*
X1080Y2D01*
X1079Y2D01*
X1078Y2D01*
X1077Y2D01*
X1076Y2D01*
X1075Y2D01*
X1074Y2D01*
X1073Y2D01*
X1072Y2D01*
X1071Y2D01*
X1070Y2D01*
X1069Y2D01*
X1068Y2D01*
X1067Y2D01*
X1066Y2D01*
X1065Y2D01*
X1064Y2D01*
X1063Y2D01*
X1062Y2D01*
X1061Y2D01*
X1060Y2D01*
X1059Y2D01*
X1058Y2D01*
X1057Y2D01*
X1056Y2D01*
X1055Y2D01*
X1054Y2D01*
X1053Y2D01*
X1052Y2D01*
X1051Y2D01*
X1050Y2D01*
X1049Y2D01*
X1048Y2D01*
X1047Y2D01*
X1046Y2D01*
X1045Y2D01*
X1044Y2D01*
X1043Y2D01*
X1042Y2D01*
X1041Y2D01*
X1040Y2D01*
X1039Y2D01*
X1038Y2D01*
X1037Y2D01*
X1036Y2D01*
X1035Y2D01*
X1034Y2D01*
X1033Y2D01*
X1032Y2D01*
X1031Y2D01*
X1030Y2D01*
X1029Y2D01*
X1028Y2D01*
X1027Y2D01*
X1026Y2D01*
X1025Y2D01*
X1024Y2D01*
X1023Y2D01*
X1022Y2D01*
X1021Y2D01*
X1020Y2D01*
X1019Y2D01*
X1018Y2D01*
X1017Y2D01*
X1016Y2D01*
X1015Y2D01*
X1014Y2D01*
X1013Y2D01*
X1012Y2D01*
X1011Y2D01*
X1010Y2D01*
X1009Y2D01*
X1008Y2D01*
X1007Y2D01*
X1006Y2D01*
X1005Y2D01*
X1004Y2D01*
X1003Y2D01*
X1002Y2D01*
X1001Y2D01*
X1000Y2D01*
X999Y2D01*
X998Y2D01*
X997Y2D01*
X996Y2D01*
X995Y2D01*
X994Y2D01*
X993Y2D01*
X992Y2D01*
X991Y2D01*
X990Y2D01*
X989Y2D01*
X988Y2D01*
X987Y2D01*
X986Y2D01*
X985Y2D01*
X984Y2D01*
X983Y2D01*
X982Y2D01*
X981Y2D01*
X980Y2D01*
X979Y2D01*
X978Y2D01*
X977Y2D01*
X976Y2D01*
X975Y2D01*
X974Y2D01*
X973Y2D01*
X972Y2D01*
X971Y2D01*
X970Y2D01*
X969Y2D01*
X968Y2D01*
X967Y2D01*
X966Y2D01*
X965Y2D01*
X964Y2D01*
X963Y2D01*
X962Y2D01*
X961Y2D01*
X960Y2D01*
X959Y2D01*
X958Y2D01*
X957Y2D01*
X956Y2D01*
X955Y2D01*
X954Y2D01*
X953Y2D01*
X952Y2D01*
X951Y2D01*
X950Y2D01*
X949Y2D01*
X948Y2D01*
X947Y2D01*
X946Y2D01*
X945Y2D01*
X944Y2D01*
X943Y2D01*
X942Y2D01*
X941Y2D01*
X940Y2D01*
X939Y2D01*
X938Y2D01*
X937Y2D01*
X936Y2D01*
X935Y2D01*
X934Y2D01*
X933Y2D01*
X932Y2D01*
X931Y2D01*
X930Y2D01*
X929Y2D01*
X928Y2D01*
X927Y2D01*
X926Y2D01*
X925Y2D01*
X924Y2D01*
X923Y2D01*
X922Y2D01*
X921Y2D01*
X920Y2D01*
X919Y2D01*
X918Y2D01*
X917Y2D01*
X916Y2D01*
X915Y2D01*
X914Y2D01*
X913Y2D01*
X912Y2D01*
X911Y2D01*
X910Y2D01*
X909Y2D01*
X908Y2D01*
X907Y2D01*
X906Y2D01*
X905Y2D01*
X904Y2D01*
X903Y2D01*
X902Y2D01*
X901Y2D01*
X900Y2D01*
X899Y2D01*
X898Y2D01*
X897Y2D01*
X896Y2D01*
X895Y2D01*
X894Y2D01*
X893Y2D01*
X892Y2D01*
X891Y2D01*
X890Y2D01*
X889Y2D01*
X888Y2D01*
X887Y2D01*
X886Y2D01*
X885Y2D01*
X884Y2D01*
X883Y2D01*
X882Y2D01*
X881Y2D01*
X880Y2D01*
X879Y2D01*
X878Y2D01*
X877Y2D01*
X876Y2D01*
X875Y2D01*
X874Y2D01*
X873Y2D01*
X872Y2D01*
X871Y2D01*
X870Y2D01*
X869Y2D01*
X868Y2D01*
X867Y2D01*
X866Y2D01*
X865Y2D01*
X864Y2D01*
X863Y2D01*
X862Y2D01*
X861Y2D01*
X860Y2D01*
X859Y2D01*
X858Y2D01*
X857Y2D01*
X856Y2D01*
X855Y2D01*
X854Y2D01*
X853Y2D01*
X852Y2D01*
X851Y2D01*
X850Y2D01*
X849Y2D01*
X848Y2D01*
X847Y2D01*
X846Y2D01*
X845Y2D01*
X844Y2D01*
X843Y2D01*
X842Y2D01*
X841Y2D01*
X840Y2D01*
X839Y2D01*
X838Y2D01*
X837Y2D01*
X836Y2D01*
X835Y2D01*
X834Y2D01*
X833Y2D01*
X832Y2D01*
X831Y2D01*
X830Y2D01*
X829Y2D01*
X828Y2D01*
X827Y2D01*
X826Y2D01*
X825Y2D01*
X824Y2D01*
X823Y2D01*
X822Y2D01*
X821Y2D01*
X820Y2D01*
X819Y2D01*
X818Y2D01*
X817Y2D01*
X816Y2D01*
X815Y2D01*
X814Y2D01*
X813Y2D01*
X812Y2D01*
X811Y2D01*
X810Y2D01*
X809Y2D01*
X808Y2D01*
X807Y2D01*
X806Y2D01*
X805Y2D01*
X804Y2D01*
X803Y2D01*
X802Y2D01*
X801Y2D01*
X800Y2D01*
X799Y2D01*
X798Y2D01*
X797Y2D01*
X796Y2D01*
X795Y2D01*
X794Y2D01*
X793Y2D01*
X792Y2D01*
X791Y2D01*
X790Y2D01*
X789Y2D01*
X788Y2D01*
X787Y2D01*
X786Y2D01*
X785Y2D01*
X784Y2D01*
X783Y2D01*
X782Y2D01*
X781Y2D01*
X780Y2D01*
X779Y2D01*
X778Y2D01*
X777Y2D01*
X776Y2D01*
X775Y2D01*
X774Y2D01*
X773Y2D01*
X772Y2D01*
X771Y2D01*
X770Y2D01*
X769Y2D01*
X768Y2D01*
X767Y2D01*
X766Y2D01*
X765Y2D01*
X764Y2D01*
X763Y2D01*
X762Y2D01*
X761Y2D01*
X760Y2D01*
X759Y2D01*
X758Y2D01*
X757Y2D01*
X756Y2D01*
X755Y2D01*
X754Y2D01*
X753Y2D01*
X752Y2D01*
X751Y2D01*
X750Y2D01*
X749Y2D01*
X748Y2D01*
X747Y2D01*
X746Y2D01*
X745Y2D01*
X744Y2D01*
X743Y2D01*
X742Y2D01*
X741Y2D01*
X740Y2D01*
X739Y2D01*
X738Y2D01*
X737Y2D01*
X736Y2D01*
X735Y2D01*
X734Y2D01*
X733Y2D01*
X732Y2D01*
X731Y2D01*
X730Y2D01*
X729Y2D01*
X728Y2D01*
X727Y2D01*
X726Y2D01*
X725Y2D01*
X724Y2D01*
X723Y2D01*
X722Y2D01*
X721Y2D01*
X720Y2D01*
X719Y2D01*
X718Y2D01*
X717Y2D01*
X716Y2D01*
X715Y2D01*
X714Y2D01*
X713Y2D01*
X712Y2D01*
X711Y2D01*
X710Y2D01*
X709Y2D01*
X708Y2D01*
X707Y2D01*
X706Y2D01*
X705Y2D01*
X704Y2D01*
X703Y2D01*
X702Y2D01*
X701Y2D01*
X700Y2D01*
X699Y2D01*
X698Y2D01*
X697Y2D01*
X696Y2D01*
X695Y2D01*
X694Y2D01*
X693Y2D01*
X692Y2D01*
X691Y2D01*
X690Y2D01*
X689Y2D01*
X688Y2D01*
X687Y2D01*
X686Y2D01*
X685Y2D01*
X684Y2D01*
X683Y2D01*
X682Y2D01*
X681Y2D01*
X680Y2D01*
X679Y2D01*
X678Y2D01*
X677Y2D01*
X676Y2D01*
X675Y2D01*
X674Y2D01*
X673Y2D01*
X672Y2D01*
X671Y2D01*
X670Y2D01*
X669Y2D01*
X668Y2D01*
X667Y2D01*
X666Y2D01*
X665Y2D01*
X664Y2D01*
X663Y2D01*
X662Y2D01*
X661Y2D01*
X660Y2D01*
X659Y2D01*
X658Y2D01*
X657Y2D01*
X656Y2D01*
X655Y2D01*
X654Y2D01*
X653Y2D01*
X652Y2D01*
X651Y2D01*
X650Y2D01*
X649Y2D01*
X648Y2D01*
X647Y2D01*
X646Y2D01*
X645Y2D01*
X644Y2D01*
X643Y2D01*
X642Y2D01*
X641Y2D01*
X640Y2D01*
X639Y2D01*
X638Y2D01*
X637Y2D01*
X636Y2D01*
X635Y2D01*
X634Y2D01*
X633Y2D01*
X632Y2D01*
X631Y2D01*
X630Y2D01*
X629Y2D01*
X628Y2D01*
X627Y2D01*
X626Y2D01*
X625Y2D01*
X624Y2D01*
X623Y2D01*
X622Y2D01*
X621Y2D01*
X620Y2D01*
X619Y2D01*
X618Y2D01*
X617Y2D01*
X616Y2D01*
X615Y2D01*
X614Y2D01*
X613Y2D01*
X612Y2D01*
X611Y2D01*
X610Y2D01*
X609Y2D01*
X608Y2D01*
X607Y2D01*
X606Y2D01*
X605Y2D01*
X604Y2D01*
X603Y2D01*
X602Y2D01*
X601Y2D01*
X600Y2D01*
X599Y2D01*
X598Y2D01*
X597Y2D01*
X596Y2D01*
X595Y2D01*
X594Y2D01*
X593Y2D01*
X592Y2D01*
X591Y2D01*
X590Y2D01*
X589Y2D01*
X588Y2D01*
X587Y2D01*
X586Y2D01*
X585Y2D01*
X584Y2D01*
X583Y2D01*
X582Y2D01*
X581Y2D01*
X580Y2D01*
X579Y2D01*
X578Y2D01*
X577Y2D01*
X576Y2D01*
X575Y2D01*
X574Y2D01*
X573Y2D01*
X572Y2D01*
X571Y2D01*
X570Y2D01*
X569Y2D01*
X568Y2D01*
X567Y2D01*
X566Y2D01*
X565Y2D01*
X564Y2D01*
X563Y2D01*
X562Y2D01*
X561Y2D01*
X560Y2D01*
X559Y2D01*
X558Y2D01*
X557Y2D01*
X556Y2D01*
X555Y2D01*
X554Y2D01*
X553Y2D01*
X552Y2D01*
X551Y2D01*
X550Y2D01*
X549Y2D01*
X548Y2D01*
X547Y2D01*
X546Y2D01*
X545Y2D01*
X544Y2D01*
X543Y2D01*
X542Y2D01*
X541Y2D01*
X540Y2D01*
X539Y2D01*
X538Y2D01*
X537Y2D01*
X536Y2D01*
X535Y2D01*
X534Y2D01*
X533Y2D01*
X532Y2D01*
X531Y2D01*
X530Y2D01*
X529Y2D01*
X528Y2D01*
X527Y2D01*
X526Y2D01*
X525Y2D01*
X524Y2D01*
X523Y2D01*
X522Y2D01*
X521Y2D01*
X520Y2D01*
X519Y2D01*
X518Y2D01*
X517Y2D01*
X516Y2D01*
X515Y2D01*
X514Y2D01*
X513Y2D01*
X512Y2D01*
X511Y2D01*
X510Y2D01*
X509Y2D01*
X508Y2D01*
X507Y2D01*
X506Y2D01*
X505Y2D01*
X504Y2D01*
X503Y2D01*
X502Y2D01*
X501Y2D01*
X500Y2D01*
X499Y2D01*
X498Y2D01*
X497Y2D01*
X496Y2D01*
X495Y2D01*
X494Y2D01*
X493Y2D01*
X492Y2D01*
X491Y2D01*
X490Y2D01*
X489Y2D01*
X488Y2D01*
X487Y2D01*
X486Y2D01*
X485Y2D01*
X484Y2D01*
X483Y2D01*
X482Y2D01*
X481Y2D01*
X480Y2D01*
X479Y2D01*
X478Y2D01*
X477Y2D01*
X476Y2D01*
X475Y2D01*
X474Y2D01*
X473Y2D01*
X472Y2D01*
X471Y2D01*
X470Y2D01*
X469Y2D01*
X468Y2D01*
X467Y2D01*
X466Y2D01*
X465Y2D01*
X464Y2D01*
X463Y2D01*
X462Y2D01*
X461Y2D01*
X460Y2D01*
X459Y2D01*
X458Y2D01*
X457Y2D01*
X456Y2D01*
X455Y2D01*
X454Y2D01*
X453Y2D01*
X452Y2D01*
X451Y2D01*
X450Y2D01*
X449Y2D01*
X448Y2D01*
X447Y2D01*
X446Y2D01*
X445Y2D01*
X444Y2D01*
X443Y2D01*
X442Y2D01*
X441Y2D01*
X440Y2D01*
X439Y2D01*
X438Y2D01*
X437Y2D01*
X436Y2D01*
X435Y2D01*
X434Y2D01*
X433Y2D01*
X432Y2D01*
X431Y2D01*
X430Y2D01*
X429Y2D01*
X428Y2D01*
X427Y2D01*
X426Y2D01*
X425Y2D01*
X424Y2D01*
X423Y2D01*
X422Y2D01*
X421Y2D01*
X420Y2D01*
X419Y2D01*
X418Y2D01*
X417Y2D01*
X416Y2D01*
X415Y2D01*
X414Y2D01*
X413Y2D01*
X412Y2D01*
X411Y2D01*
X410Y2D01*
X409Y2D01*
X408Y2D01*
X407Y2D01*
X406Y2D01*
X405Y2D01*
X404Y2D01*
X403Y2D01*
X402Y2D01*
X401Y2D01*
X400Y2D01*
X399Y2D01*
X398Y2D01*
X397Y2D01*
X396Y2D01*
X395Y2D01*
X394Y2D01*
X393Y2D01*
X392Y2D01*
X391Y2D01*
X390Y2D01*
X389Y2D01*
X388Y2D01*
X387Y2D01*
X386Y2D01*
X385Y2D01*
X384Y2D01*
X383Y2D01*
X382Y2D01*
X381Y2D01*
X380Y2D01*
X379Y2D01*
X378Y2D01*
X377Y2D01*
X376Y2D01*
X375Y2D01*
X374Y2D01*
X373Y2D01*
X372Y2D01*
X371Y2D01*
X370Y2D01*
X369Y2D01*
X368Y2D01*
X367Y2D01*
X366Y3D01*
X365Y3D01*
X364Y3D01*
X363Y3D01*
X362Y3D01*
X361Y3D01*
X360Y3D01*
X359Y3D01*
X358Y3D01*
X357Y3D01*
X356Y3D01*
X355Y3D01*
X354Y3D01*
X353Y3D01*
X352Y4D01*
X351Y4D01*
X350Y4D01*
X349Y4D01*
X348Y4D01*
X347Y4D01*
X346Y4D01*
X345Y4D01*
X344Y4D01*
X343Y4D01*
X342Y5D01*
X341Y5D01*
X340Y5D01*
X339Y5D01*
X338Y5D01*
X337Y5D01*
X336Y5D01*
X335Y5D01*
X334Y6D01*
X333Y6D01*
X332Y6D01*
X331Y6D01*
X330Y6D01*
X329Y6D01*
X328Y6D01*
X327Y7D01*
X326Y7D01*
X325Y7D01*
X324Y7D01*
X323Y7D01*
X322Y7D01*
X321Y8D01*
X320Y8D01*
X319Y8D01*
X318Y8D01*
X317Y8D01*
X316Y8D01*
X315Y9D01*
X314Y9D01*
X313Y9D01*
X312Y9D01*
X311Y9D01*
X310Y10D01*
X309Y10D01*
X308Y10D01*
X307Y10D01*
X306Y10D01*
X305Y11D01*
X304Y11D01*
X303Y11D01*
X302Y11D01*
X301Y12D01*
X300Y12D01*
X299Y12D01*
X298Y12D01*
X297Y12D01*
X296Y13D01*
X295Y13D01*
X294Y13D01*
X293Y13D01*
X292Y14D01*
X291Y14D01*
X290Y14D01*
X289Y14D01*
X288Y15D01*
X287Y15D01*
X286Y15D01*
X285Y16D01*
X284Y16D01*
X283Y16D01*
X282Y16D01*
X281Y17D01*
X280Y17D01*
X279Y17D01*
X278Y18D01*
X277Y18D01*
X276Y18D01*
X275Y18D01*
X274Y19D01*
X273Y19D01*
X272Y19D01*
X271Y20D01*
X270Y20D01*
X269Y20D01*
X268Y21D01*
X267Y21D01*
X266Y21D01*
X265Y22D01*
X264Y22D01*
X263Y22D01*
X262Y23D01*
X261Y23D01*
X260Y23D01*
X259Y24D01*
X258Y24D01*
X257Y24D01*
X256Y25D01*
X255Y25D01*
X254Y25D01*
X253Y26D01*
X252Y26D01*
X251Y27D01*
X250Y27D01*
X249Y27D01*
X248Y28D01*
X247Y28D01*
X246Y29D01*
X245Y29D01*
X244Y29D01*
X243Y30D01*
X242Y30D01*
X241Y31D01*
X240Y31D01*
X239Y31D01*
X238Y32D01*
X237Y32D01*
X236Y32D01*
X235Y33D01*
X234Y33D01*
X233Y34D01*
X232Y34D01*
X231Y35D01*
X230Y35D01*
X229Y36D01*
X228Y36D01*
X227Y37D01*
X226Y37D01*
X225Y37D01*
X224Y38D01*
X223Y38D01*
X222Y39D01*
X221Y39D01*
X220Y40D01*
X219Y40D01*
X218Y41D01*
X217Y41D01*
X216Y42D01*
X215Y42D01*
X214Y43D01*
X213Y43D01*
X212Y44D01*
X211Y44D01*
X210Y45D01*
X209Y45D01*
X208Y46D01*
X207Y46D01*
X206Y47D01*
X205Y47D01*
X204Y48D01*
X203Y48D01*
X202Y49D01*
X201Y49D01*
X200Y50D01*
X199Y51D01*
X198Y51D01*
X197Y52D01*
X196Y52D01*
X195Y53D01*
X194Y53D01*
X193Y54D01*
X192Y55D01*
X191Y55D01*
X190Y56D01*
X189Y56D01*
X188Y57D01*
X187Y58D01*
X186Y58D01*
X185Y59D01*
X184Y59D01*
X183Y60D01*
X182Y61D01*
X181Y61D01*
X180Y62D01*
X179Y63D01*
X178Y63D01*
X177Y64D01*
X176Y65D01*
X175Y65D01*
X174Y66D01*
X173Y66D01*
X172Y67D01*
X171Y68D01*
X170Y68D01*
X169Y69D01*
X168Y70D01*
X167Y71D01*
X166Y71D01*
X165Y72D01*
X164Y73D01*
X163Y73D01*
X162Y74D01*
X161Y75D01*
X160Y76D01*
X159Y76D01*
X158Y77D01*
X157Y78D01*
X156Y78D01*
X155Y79D01*
X154Y80D01*
X153Y81D01*
X152Y81D01*
X151Y82D01*
X150Y83D01*
X149Y84D01*
X148Y85D01*
X147Y85D01*
X146Y86D01*
X145Y87D01*
X144Y88D01*
X143Y89D01*
X142Y89D01*
X141Y90D01*
X140Y91D01*
X139Y92D01*
X138Y93D01*
X137Y94D01*
X136Y94D01*
X135Y95D01*
X134Y96D01*
X133Y97D01*
X132Y98D01*
X131Y99D01*
X130Y100D01*
X129Y100D01*
X128Y101D01*
X127Y102D01*
X126Y103D01*
X125Y104D01*
X124Y105D01*
X123Y106D01*
X122Y107D01*
X121Y108D01*
X120Y109D01*
X119Y110D01*
X118Y111D01*
X117Y112D01*
X116Y113D01*
X115Y114D01*
X114Y115D01*
X113Y116D01*
X112Y117D01*
X111Y118D01*
X110Y119D01*
X109Y120D01*
X108Y121D01*
X107Y122D01*
X106Y123D01*
X105Y124D01*
X104Y125D01*
X103Y126D01*
X102Y127D01*
X101Y128D01*
X100Y129D01*
X99Y130D01*
X99Y131D01*
X98Y132D01*
X97Y133D01*
X96Y134D01*
X95Y135D01*
X94Y136D01*
X93Y137D01*
X92Y138D01*
X92Y139D01*
X91Y140D01*
X90Y141D01*
X89Y142D01*
X88Y143D01*
X87Y144D01*
X87Y145D01*
X86Y146D01*
X85Y147D01*
X84Y148D01*
X83Y149D01*
X83Y150D01*
X82Y151D01*
X81Y152D01*
X80Y153D01*
X80Y154D01*
X79Y155D01*
X78Y156D01*
X77Y157D01*
X76Y158D01*
X76Y159D01*
X75Y160D01*
X74Y161D01*
X74Y162D01*
X73Y163D01*
X72Y164D01*
X72Y165D01*
X71Y166D01*
X70Y167D01*
X69Y168D01*
X69Y169D01*
X68Y170D01*
X67Y171D01*
X67Y172D01*
X66Y173D01*
X65Y174D01*
X65Y175D01*
X64Y176D01*
X63Y177D01*
X63Y178D01*
X62Y179D01*
X61Y180D01*
X61Y181D01*
X60Y182D01*
X60Y183D01*
X59Y184D01*
X58Y185D01*
X58Y186D01*
X57Y187D01*
X56Y188D01*
X56Y189D01*
X55Y190D01*
X55Y191D01*
X54Y192D01*
X53Y193D01*
X53Y194D01*
X52Y195D01*
X52Y196D01*
X51Y197D01*
X51Y198D01*
X50Y199D01*
X49Y200D01*
X49Y201D01*
X48Y202D01*
X48Y203D01*
X47Y204D01*
X47Y205D01*
X46Y206D01*
X46Y207D01*
X45Y208D01*
X45Y209D01*
X44Y210D01*
X44Y211D01*
X43Y212D01*
X43Y213D01*
X42Y214D01*
X42Y215D01*
X41Y216D01*
X40Y217D01*
X40Y218D01*
X39Y219D01*
X39Y220D01*
X38Y221D01*
X38Y223D01*
X37Y224D01*
X37Y225D01*
X36Y226D01*
X36Y227D01*
X35Y228D01*
X35Y229D01*
X34Y230D01*
X34Y231D01*
X33Y232D01*
X33Y234D01*
X32Y235D01*
X32Y236D01*
X31Y237D01*
X31Y238D01*
X30Y239D01*
X30Y241D01*
X29Y242D01*
X29Y243D01*
X28Y244D01*
X28Y246D01*
X27Y247D01*
X27Y248D01*
X26Y249D01*
X26Y251D01*
X25Y252D01*
X25Y253D01*
X24Y254D01*
X24Y256D01*
X23Y257D01*
X23Y259D01*
X22Y260D01*
X22Y262D01*
X21Y263D01*
X21Y265D01*
X20Y266D01*
X20Y268D01*
X19Y269D01*
X19Y271D01*
X18Y272D01*
X18Y274D01*
X17Y275D01*
X17Y277D01*
X16Y278D01*
X16Y280D01*
X15Y281D01*
X15Y284D01*
X14Y285D01*
X14Y288D01*
X13Y289D01*
X13Y291D01*
X12Y292D01*
X12Y295D01*
X11Y296D01*
X11Y299D01*
X10Y300D01*
X10Y304D01*
X9Y305D01*
X9Y308D01*
X8Y309D01*
X8Y313D01*
X7Y314D01*
X7Y318D01*
X6Y319D01*
X6Y324D01*
X5Y325D01*
X5Y330D01*
X4Y331D01*
X4Y337D01*
X3Y338D01*
X3Y345D01*
X2Y346D01*
X2Y355D01*
X1Y356D01*
X1Y369D01*
X0Y370D01*
X0Y1837D01*
X1Y1838D01*
X1Y1851D01*
X2Y1852D01*
X2Y1861D01*
X3Y1862D01*
X3Y1869D01*
X4Y1870D01*
X4Y1876D01*
X5Y1877D01*
X5Y1882D01*
X6Y1883D01*
X6Y1888D01*
X7Y1889D01*
X7Y1893D01*
X8Y1894D01*
X8Y1898D01*
X9Y1899D01*
X9Y1902D01*
X10Y1903D01*
X10Y1907D01*
X11Y1908D01*
X11Y1911D01*
X12Y1912D01*
X12Y1915D01*
X13Y1916D01*
X13Y1918D01*
X14Y1919D01*
X14Y1922D01*
X15Y1923D01*
X15Y1926D01*
X16Y1927D01*
X16Y1929D01*
X17Y1930D01*
X17Y1932D01*
X18Y1933D01*
X18Y1935D01*
X19Y1936D01*
X19Y1938D01*
X20Y1939D01*
X20Y1941D01*
X21Y1942D01*
X21Y1944D01*
X22Y1945D01*
X22Y1947D01*
X23Y1948D01*
X23Y1950D01*
X24Y1951D01*
X24Y1953D01*
X25Y1954D01*
X25Y1955D01*
X26Y1956D01*
X26Y1958D01*
X27Y1959D01*
X27Y1960D01*
X28Y1961D01*
X28Y1963D01*
X29Y1964D01*
X29Y1965D01*
X30Y1966D01*
X30Y1968D01*
X31Y1969D01*
X31Y1970D01*
X32Y1971D01*
X32Y1972D01*
X33Y1973D01*
X33Y1975D01*
X34Y1976D01*
X34Y1977D01*
X35Y1978D01*
X35Y1979D01*
X36Y1980D01*
X36Y1981D01*
X37Y1982D01*
X37Y1983D01*
X38Y1984D01*
X38Y1986D01*
X39Y1987D01*
X39Y1988D01*
X40Y1989D01*
X40Y1990D01*
X41Y1991D01*
X42Y1992D01*
X42Y1993D01*
X43Y1994D01*
X43Y1995D01*
X44Y1996D01*
X44Y1997D01*
X45Y1998D01*
X45Y1999D01*
X46Y2000D01*
X46Y2001D01*
X47Y2002D01*
X47Y2003D01*
X48Y2004D01*
X48Y2005D01*
X49Y2006D01*
X49Y2007D01*
X50Y2008D01*
X51Y2009D01*
X51Y2010D01*
X52Y2011D01*
X52Y2012D01*
X53Y2013D01*
X53Y2014D01*
X54Y2015D01*
X55Y2016D01*
X55Y2017D01*
X56Y2018D01*
X56Y2019D01*
X57Y2020D01*
X58Y2021D01*
X58Y2022D01*
X59Y2023D01*
X60Y2024D01*
X60Y2025D01*
X61Y2026D01*
X61Y2027D01*
X62Y2028D01*
X63Y2029D01*
X63Y2030D01*
X64Y2031D01*
X65Y2032D01*
X65Y2033D01*
X66Y2034D01*
X67Y2035D01*
X67Y2036D01*
X68Y2037D01*
X69Y2038D01*
X69Y2039D01*
X70Y2040D01*
X71Y2041D01*
X72Y2042D01*
X72Y2043D01*
X73Y2044D01*
X74Y2045D01*
X74Y2046D01*
X75Y2047D01*
X76Y2048D01*
X76Y2049D01*
X77Y2050D01*
X78Y2051D01*
X79Y2052D01*
X80Y2053D01*
X80Y2054D01*
X81Y2055D01*
X82Y2056D01*
X83Y2057D01*
X83Y2058D01*
X84Y2059D01*
X85Y2060D01*
X86Y2061D01*
X87Y2062D01*
X87Y2063D01*
X88Y2064D01*
X89Y2065D01*
X90Y2066D01*
X91Y2067D01*
X92Y2068D01*
X92Y2069D01*
X93Y2070D01*
X94Y2071D01*
X95Y2072D01*
X96Y2073D01*
X97Y2074D01*
X98Y2075D01*
X99Y2076D01*
X99Y2077D01*
X100Y2078D01*
X101Y2079D01*
X102Y2080D01*
X103Y2081D01*
X104Y2082D01*
X105Y2083D01*
X106Y2084D01*
X107Y2085D01*
X108Y2086D01*
X109Y2087D01*
X110Y2088D01*
X111Y2089D01*
X112Y2090D01*
X113Y2091D01*
X114Y2092D01*
X115Y2093D01*
X116Y2094D01*
X117Y2095D01*
X118Y2096D01*
X119Y2097D01*
X120Y2098D01*
X121Y2099D01*
X122Y2100D01*
X123Y2101D01*
X124Y2102D01*
X125Y2103D01*
X126Y2104D01*
X127Y2105D01*
X128Y2106D01*
X129Y2107D01*
X130Y2107D01*
X131Y2108D01*
X132Y2109D01*
X133Y2110D01*
X134Y2111D01*
X135Y2112D01*
X136Y2113D01*
X137Y2114D01*
X138Y2114D01*
X139Y2115D01*
X140Y2116D01*
X141Y2117D01*
X142Y2118D01*
X143Y2118D01*
X144Y2119D01*
X145Y2120D01*
X146Y2121D01*
X147Y2122D01*
X148Y2122D01*
X149Y2123D01*
X150Y2124D01*
X151Y2125D01*
X152Y2126D01*
X153Y2126D01*
X154Y2127D01*
X155Y2128D01*
X156Y2129D01*
X157Y2129D01*
X158Y2130D01*
X159Y2131D01*
X160Y2132D01*
X161Y2132D01*
X162Y2133D01*
X163Y2134D01*
X164Y2134D01*
X165Y2135D01*
X166Y2136D01*
X167Y2136D01*
X168Y2137D01*
X169Y2138D01*
X170Y2139D01*
X171Y2139D01*
X172Y2140D01*
X173Y2141D01*
X174Y2141D01*
X175Y2142D01*
X176Y2142D01*
X177Y2143D01*
X178Y2144D01*
X179Y2144D01*
X180Y2145D01*
X181Y2146D01*
X182Y2146D01*
X183Y2147D01*
X184Y2148D01*
X185Y2148D01*
X186Y2149D01*
X187Y2149D01*
X188Y2150D01*
X189Y2151D01*
X190Y2151D01*
X191Y2152D01*
X192Y2152D01*
X193Y2153D01*
X194Y2154D01*
X195Y2154D01*
X196Y2155D01*
X197Y2155D01*
X198Y2156D01*
X199Y2156D01*
X200Y2157D01*
X201Y2158D01*
X202Y2158D01*
X203Y2159D01*
X204Y2159D01*
X205Y2160D01*
X206Y2160D01*
X207Y2161D01*
X208Y2161D01*
X209Y2162D01*
X210Y2162D01*
X211Y2163D01*
X212Y2163D01*
X213Y2164D01*
X214Y2164D01*
X215Y2165D01*
X216Y2165D01*
X217Y2166D01*
X218Y2166D01*
X219Y2167D01*
X220Y2167D01*
X221Y2168D01*
X222Y2168D01*
X223Y2169D01*
X224Y2169D01*
X225Y2170D01*
X226Y2170D01*
X227Y2170D01*
X228Y2171D01*
X229Y2171D01*
X230Y2172D01*
X231Y2172D01*
X232Y2173D01*
X233Y2173D01*
X234Y2174D01*
X235Y2174D01*
X236Y2175D01*
X237Y2175D01*
X238Y2175D01*
X239Y2176D01*
X240Y2176D01*
X241Y2177D01*
X242Y2177D01*
X243Y2177D01*
X244Y2178D01*
X245Y2178D01*
X246Y2178D01*
X247Y2179D01*
X248Y2179D01*
X249Y2180D01*
X250Y2180D01*
X251Y2180D01*
X252Y2181D01*
X253Y2181D01*
X254Y2182D01*
X255Y2182D01*
X256Y2182D01*
X257Y2183D01*
X258Y2183D01*
X259Y2183D01*
X260Y2184D01*
X261Y2184D01*
X262Y2184D01*
X263Y2185D01*
X264Y2185D01*
X265Y2185D01*
X266Y2186D01*
X267Y2186D01*
X268Y2186D01*
X269Y2187D01*
X270Y2187D01*
X271Y2187D01*
X272Y2188D01*
X273Y2188D01*
X274Y2188D01*
X275Y2189D01*
X276Y2189D01*
X277Y2189D01*
X278Y2189D01*
X279Y2190D01*
X280Y2190D01*
X281Y2190D01*
X282Y2191D01*
X283Y2191D01*
X284Y2191D01*
X285Y2191D01*
X286Y2192D01*
X287Y2192D01*
X288Y2192D01*
X289Y2193D01*
X290Y2193D01*
X291Y2193D01*
X292Y2193D01*
X293Y2194D01*
X294Y2194D01*
X295Y2194D01*
X296Y2194D01*
X297Y2195D01*
X298Y2195D01*
X299Y2195D01*
X300Y2195D01*
X301Y2195D01*
X302Y2196D01*
X303Y2196D01*
X304Y2196D01*
X305Y2196D01*
X306Y2197D01*
X307Y2197D01*
X308Y2197D01*
X309Y2197D01*
X310Y2197D01*
X311Y2198D01*
X312Y2198D01*
X313Y2198D01*
X314Y2198D01*
X315Y2198D01*
X316Y2199D01*
X317Y2199D01*
X318Y2199D01*
X319Y2199D01*
X320Y2199D01*
X321Y2199D01*
X322Y2200D01*
X323Y2200D01*
X324Y2200D01*
X325Y2200D01*
X326Y2200D01*
X327Y2200D01*
X328Y2201D01*
X329Y2201D01*
X330Y2201D01*
X331Y2201D01*
X332Y2201D01*
X333Y2201D01*
X334Y2201D01*
X335Y2202D01*
X336Y2202D01*
X337Y2202D01*
X338Y2202D01*
X339Y2202D01*
X340Y2202D01*
X341Y2202D01*
X342Y2202D01*
X343Y2203D01*
X344Y2203D01*
X345Y2203D01*
X346Y2203D01*
X347Y2203D01*
X348Y2203D01*
X349Y2203D01*
X350Y2203D01*
X351Y2203D01*
X352Y2203D01*
X353Y2204D01*
X354Y2204D01*
X355Y2204D01*
X356Y2204D01*
X357Y2204D01*
X358Y2204D01*
X359Y2204D01*
X360Y2204D01*
X361Y2204D01*
X362Y2204D01*
X363Y2204D01*
X364Y2204D01*
X365Y2204D01*
X366Y2204D01*
X367Y2205D01*
D02*
G04 End of contour*
M02*