G04 MADE WITH FRITZING*
G04 WWW.FRITZING.ORG*
G04 DOUBLE SIDED*
G04 HOLES PLATED*
G04 CONTOUR ON CENTER OF CONTOUR VECTOR*
%ASAXBY*%
%FSLAX23Y23*%
%MOIN*%
%OFA0B0*%
%SFA1.0B1.0*%
%ADD10C,0.070000*%
%ADD11C,0.074000*%
%ADD12C,0.075000*%
%ADD13C,0.062992*%
%ADD14C,0.092000*%
%ADD15C,0.078000*%
%ADD16C,0.039370*%
%ADD17R,0.070000X0.069972*%
%ADD18R,0.062992X0.062992*%
%ADD19R,0.092000X0.092000*%
%ADD20R,0.078000X0.078000*%
%ADD21C,0.024000*%
%ADD22C,0.020000*%
%LNCOPPER1*%
G90*
G70*
G54D10*
X1712Y1728D03*
X1612Y1728D03*
X1512Y1728D03*
X1412Y1728D03*
X1312Y1728D03*
X1212Y1728D03*
X1112Y1728D03*
X1012Y1728D03*
X912Y1728D03*
X812Y1728D03*
X712Y1728D03*
X612Y1728D03*
X512Y1728D03*
X412Y1728D03*
X312Y1728D03*
X1712Y1128D03*
X1612Y1128D03*
X1512Y1128D03*
X1412Y1128D03*
X1312Y1128D03*
X1212Y1128D03*
X1112Y1128D03*
X1012Y1128D03*
X912Y1128D03*
X812Y1128D03*
X712Y1128D03*
X612Y1128D03*
X512Y1128D03*
X412Y1128D03*
X312Y1128D03*
G54D11*
X1312Y221D03*
X1312Y328D03*
X1312Y435D03*
X1312Y221D03*
X1312Y328D03*
X1312Y435D03*
X1612Y221D03*
X1612Y328D03*
X1612Y435D03*
X1612Y221D03*
X1612Y328D03*
X1612Y435D03*
G54D12*
X112Y528D03*
X512Y528D03*
X112Y628D03*
X512Y628D03*
X112Y728D03*
X512Y728D03*
X112Y828D03*
X512Y828D03*
X112Y928D03*
X512Y928D03*
X812Y928D03*
X812Y528D03*
X712Y928D03*
X712Y528D03*
X1012Y528D03*
X1012Y928D03*
X1112Y528D03*
X1112Y928D03*
G54D13*
X1312Y728D03*
X1312Y826D03*
X1612Y728D03*
X1612Y826D03*
G54D12*
X556Y328D03*
X812Y328D03*
X556Y150D03*
X812Y150D03*
G54D14*
X2012Y228D03*
X2312Y228D03*
G54D15*
X2966Y1291D03*
X2866Y1291D03*
X2066Y2091D03*
X1966Y2091D03*
X1066Y2091D03*
X966Y2091D03*
X266Y1991D03*
X166Y1991D03*
X366Y291D03*
X296Y220D03*
X2112Y1828D03*
X2112Y1728D03*
X2112Y1628D03*
X2112Y1528D03*
X2112Y1428D03*
X2112Y1328D03*
X2112Y1228D03*
X2112Y1128D03*
G54D11*
X2912Y928D03*
X2912Y828D03*
X2912Y728D03*
X2912Y628D03*
X2912Y528D03*
X2912Y428D03*
G54D16*
X1572Y561D03*
X1596Y1857D03*
X2292Y1401D03*
X1980Y537D03*
X1692Y297D03*
X1860Y897D03*
X1452Y897D03*
X1644Y1305D03*
X1572Y1545D03*
X1260Y1497D03*
X444Y1257D03*
X1404Y225D03*
X1308Y1953D03*
X2772Y729D03*
X2796Y1209D03*
X2412Y1401D03*
X900Y777D03*
G54D17*
X1712Y1728D03*
G54D18*
X1312Y728D03*
X1612Y728D03*
G54D19*
X2012Y228D03*
G54D20*
X2966Y1291D03*
X2066Y2091D03*
X1066Y2091D03*
X266Y1991D03*
X2112Y1828D03*
G54D21*
X1133Y947D02*
X1236Y1041D01*
X1236Y1041D02*
X1764Y1041D01*
X1764Y1041D02*
X1776Y1161D01*
X1776Y1161D02*
X1764Y1185D01*
X1764Y1185D02*
X1188Y1185D01*
X1188Y1185D02*
X1211Y1699D01*
D02*
X1343Y324D02*
X1548Y297D01*
X1548Y297D02*
X1548Y153D01*
X1548Y153D02*
X1975Y222D01*
D02*
X731Y549D02*
X804Y633D01*
X804Y633D02*
X1380Y633D01*
X1380Y633D02*
X1380Y801D01*
X1380Y801D02*
X1585Y823D01*
D02*
X2083Y1518D02*
X1236Y1233D01*
X1236Y1233D02*
X1812Y1233D01*
X1812Y1233D02*
X1824Y993D01*
X1824Y993D02*
X1284Y957D01*
X1284Y957D02*
X1188Y861D01*
X1188Y861D02*
X948Y873D01*
X948Y873D02*
X948Y1065D01*
X948Y1065D02*
X991Y1107D01*
D02*
X898Y796D02*
X876Y993D01*
X876Y993D02*
X444Y993D01*
X444Y993D02*
X444Y969D01*
X444Y969D02*
X140Y931D01*
D02*
X1285Y725D02*
X756Y681D01*
X756Y681D02*
X636Y561D01*
X636Y561D02*
X636Y465D01*
X636Y465D02*
X996Y465D01*
X996Y465D02*
X1005Y500D01*
D02*
X1591Y711D02*
X1428Y585D01*
X1428Y585D02*
X1020Y585D01*
X1020Y585D02*
X1016Y556D01*
D02*
X1082Y2065D02*
X1092Y2049D01*
X1092Y2049D02*
X1391Y1748D01*
D02*
X2064Y2060D02*
X2052Y1905D01*
X2052Y1905D02*
X2052Y1761D01*
X2052Y1761D02*
X2086Y1742D01*
D02*
X2276Y235D02*
X2100Y273D01*
X2100Y273D02*
X1620Y705D01*
X1620Y705D02*
X1621Y702D01*
D02*
X2888Y708D02*
X2341Y251D01*
D02*
X2948Y1267D02*
X2940Y1257D01*
X2940Y1257D02*
X2940Y993D01*
X2940Y993D02*
X2988Y969D01*
X2988Y969D02*
X2988Y753D01*
X2988Y753D02*
X2942Y737D01*
D02*
X85Y737D02*
X36Y753D01*
X36Y753D02*
X48Y969D01*
X48Y969D02*
X84Y1005D01*
X84Y1005D02*
X804Y1065D01*
X804Y1065D02*
X808Y1099D01*
D02*
X939Y2079D02*
X252Y1785D01*
X252Y1785D02*
X252Y1641D01*
X252Y1641D02*
X300Y1641D01*
X300Y1641D02*
X791Y1148D01*
D02*
X1608Y1756D02*
X1598Y1838D01*
D02*
X1554Y556D02*
X1164Y465D01*
X1164Y465D02*
X1044Y417D01*
X1044Y417D02*
X588Y417D01*
X588Y417D02*
X588Y609D01*
X588Y609D02*
X702Y901D01*
D02*
X691Y1147D02*
X204Y1593D01*
X204Y1593D02*
X204Y1929D01*
X204Y1929D02*
X348Y1929D01*
X348Y1929D02*
X348Y2169D01*
X348Y2169D02*
X1140Y2169D01*
X1140Y2169D02*
X1296Y1968D01*
D02*
X1393Y209D02*
X1356Y153D01*
X1356Y153D02*
X852Y225D01*
X852Y225D02*
X444Y225D01*
X444Y225D02*
X444Y825D01*
X444Y825D02*
X137Y642D01*
D02*
X589Y1145D02*
X459Y1245D01*
D02*
X1279Y1500D02*
X1553Y1542D01*
D02*
X1663Y1305D02*
X1860Y1305D01*
X1860Y1305D02*
X2052Y1065D01*
X2052Y1065D02*
X2172Y1065D01*
X2172Y1065D02*
X2892Y1329D01*
X2892Y1329D02*
X2892Y1353D01*
X2892Y1353D02*
X3036Y1353D01*
X3036Y1353D02*
X3036Y705D01*
X3036Y705D02*
X2988Y393D01*
X2988Y393D02*
X2364Y153D01*
X2364Y153D02*
X852Y81D01*
X852Y81D02*
X492Y81D01*
X492Y81D02*
X132Y153D01*
X132Y153D02*
X114Y499D01*
D02*
X2883Y1315D02*
X2892Y1329D01*
D02*
X512Y856D02*
X512Y899D01*
D02*
X512Y756D02*
X512Y799D01*
D02*
X512Y656D02*
X512Y699D01*
D02*
X512Y556D02*
X512Y599D01*
D02*
X1471Y897D02*
X1841Y897D01*
D02*
X1637Y416D02*
X1668Y393D01*
X1668Y393D02*
X1687Y315D01*
D02*
X1974Y555D02*
X1860Y897D01*
D02*
X2120Y1799D02*
X2124Y1785D01*
X2124Y1785D02*
X2172Y1785D01*
X2172Y1785D02*
X2172Y1401D01*
X2172Y1401D02*
X2273Y1401D01*
D02*
X1321Y1700D02*
X1332Y1665D01*
X1332Y1665D02*
X1788Y1665D01*
X1788Y1665D02*
X1812Y2169D01*
X1812Y2169D02*
X2148Y2169D01*
X2148Y2169D02*
X2406Y1419D01*
D02*
X2795Y1190D02*
X2773Y748D01*
G54D22*
X407Y291D02*
X366Y249D01*
X325Y291D01*
X366Y332D01*
X407Y291D01*
D02*
G04 End of Copper1*
M02*