G04 MADE WITH FRITZING*
G04 WWW.FRITZING.ORG*
G04 DOUBLE SIDED*
G04 HOLES PLATED*
G04 CONTOUR ON CENTER OF CONTOUR VECTOR*
%ASAXBY*%
%FSLAX23Y23*%
%MOIN*%
%OFA0B0*%
%SFA1.0B1.0*%
%ADD10R,0.001000X0.001000*%
%LNSILK0*%
G90*
G70*
G54D10*
X367Y2205D02*
X2702Y2205D01*
X353Y2204D02*
X2716Y2204D01*
X343Y2203D02*
X2726Y2203D01*
X335Y2202D02*
X2734Y2202D01*
X328Y2201D02*
X2741Y2201D01*
X322Y2200D02*
X2747Y2200D01*
X316Y2199D02*
X2753Y2199D01*
X311Y2198D02*
X2758Y2198D01*
X306Y2197D02*
X366Y2197D01*
X2703Y2197D02*
X2763Y2197D01*
X302Y2196D02*
X352Y2196D01*
X2717Y2196D02*
X2767Y2196D01*
X297Y2195D02*
X342Y2195D01*
X2727Y2195D02*
X2772Y2195D01*
X293Y2194D02*
X334Y2194D01*
X2735Y2194D02*
X2776Y2194D01*
X289Y2193D02*
X327Y2193D01*
X2742Y2193D02*
X2780Y2193D01*
X286Y2192D02*
X321Y2192D01*
X2748Y2192D02*
X2783Y2192D01*
X282Y2191D02*
X316Y2191D01*
X2753Y2191D02*
X2787Y2191D01*
X279Y2190D02*
X310Y2190D01*
X2759Y2190D02*
X2790Y2190D01*
X275Y2189D02*
X306Y2189D01*
X2763Y2189D02*
X2794Y2189D01*
X272Y2188D02*
X301Y2188D01*
X2768Y2188D02*
X2797Y2188D01*
X269Y2187D02*
X297Y2187D01*
X2772Y2187D02*
X2800Y2187D01*
X266Y2186D02*
X293Y2186D01*
X2776Y2186D02*
X2803Y2186D01*
X263Y2185D02*
X289Y2185D01*
X2780Y2185D02*
X2806Y2185D01*
X260Y2184D02*
X285Y2184D01*
X2784Y2184D02*
X2809Y2184D01*
X257Y2183D02*
X282Y2183D01*
X2787Y2183D02*
X2812Y2183D01*
X254Y2182D02*
X278Y2182D01*
X2791Y2182D02*
X2815Y2182D01*
X252Y2181D02*
X275Y2181D01*
X2794Y2181D02*
X2817Y2181D01*
X249Y2180D02*
X272Y2180D01*
X2797Y2180D02*
X2820Y2180D01*
X247Y2179D02*
X269Y2179D01*
X2800Y2179D02*
X2822Y2179D01*
X244Y2178D02*
X266Y2178D01*
X2803Y2178D02*
X2825Y2178D01*
X241Y2177D02*
X263Y2177D01*
X2806Y2177D02*
X2828Y2177D01*
X239Y2176D02*
X260Y2176D01*
X2809Y2176D02*
X2830Y2176D01*
X236Y2175D02*
X257Y2175D01*
X2812Y2175D02*
X2833Y2175D01*
X234Y2174D02*
X254Y2174D01*
X2815Y2174D02*
X2835Y2174D01*
X232Y2173D02*
X252Y2173D01*
X2817Y2173D02*
X2837Y2173D01*
X230Y2172D02*
X249Y2172D01*
X2820Y2172D02*
X2839Y2172D01*
X228Y2171D02*
X247Y2171D01*
X2822Y2171D02*
X2841Y2171D01*
X225Y2170D02*
X244Y2170D01*
X2825Y2170D02*
X2844Y2170D01*
X223Y2169D02*
X242Y2169D01*
X2827Y2169D02*
X2846Y2169D01*
X221Y2168D02*
X239Y2168D01*
X2830Y2168D02*
X2848Y2168D01*
X219Y2167D02*
X237Y2167D01*
X2832Y2167D02*
X2850Y2167D01*
X217Y2166D02*
X235Y2166D01*
X2834Y2166D02*
X2852Y2166D01*
X215Y2165D02*
X232Y2165D01*
X2837Y2165D02*
X2854Y2165D01*
X213Y2164D02*
X230Y2164D01*
X2839Y2164D02*
X2856Y2164D01*
X211Y2163D02*
X228Y2163D01*
X2841Y2163D02*
X2858Y2163D01*
X209Y2162D02*
X226Y2162D01*
X2843Y2162D02*
X2860Y2162D01*
X207Y2161D02*
X224Y2161D01*
X2845Y2161D02*
X2862Y2161D01*
X205Y2160D02*
X221Y2160D01*
X2848Y2160D02*
X2864Y2160D01*
X203Y2159D02*
X219Y2159D01*
X2850Y2159D02*
X2866Y2159D01*
X201Y2158D02*
X217Y2158D01*
X2852Y2158D02*
X2868Y2158D01*
X200Y2157D02*
X216Y2157D01*
X2853Y2157D02*
X2869Y2157D01*
X198Y2156D02*
X214Y2156D01*
X2855Y2156D02*
X2871Y2156D01*
X196Y2155D02*
X212Y2155D01*
X2857Y2155D02*
X2873Y2155D01*
X194Y2154D02*
X210Y2154D01*
X2859Y2154D02*
X2875Y2154D01*
X193Y2153D02*
X208Y2153D01*
X2861Y2153D02*
X2876Y2153D01*
X191Y2152D02*
X206Y2152D01*
X2863Y2152D02*
X2878Y2152D01*
X189Y2151D02*
X204Y2151D01*
X2865Y2151D02*
X2880Y2151D01*
X188Y2150D02*
X202Y2150D01*
X2867Y2150D02*
X2881Y2150D01*
X186Y2149D02*
X201Y2149D01*
X2868Y2149D02*
X2883Y2149D01*
X184Y2148D02*
X199Y2148D01*
X2870Y2148D02*
X2885Y2148D01*
X183Y2147D02*
X197Y2147D01*
X2872Y2147D02*
X2886Y2147D01*
X181Y2146D02*
X195Y2146D01*
X2874Y2146D02*
X2888Y2146D01*
X180Y2145D02*
X194Y2145D01*
X2875Y2145D02*
X2889Y2145D01*
X178Y2144D02*
X192Y2144D01*
X2877Y2144D02*
X2891Y2144D01*
X177Y2143D02*
X190Y2143D01*
X2879Y2143D02*
X2892Y2143D01*
X175Y2142D02*
X189Y2142D01*
X2880Y2142D02*
X2894Y2142D01*
X173Y2141D02*
X187Y2141D01*
X2882Y2141D02*
X2896Y2141D01*
X172Y2140D02*
X185Y2140D01*
X2884Y2140D02*
X2897Y2140D01*
X170Y2139D02*
X184Y2139D01*
X2885Y2139D02*
X2899Y2139D01*
X169Y2138D02*
X182Y2138D01*
X2887Y2138D02*
X2900Y2138D01*
X168Y2137D02*
X181Y2137D01*
X2888Y2137D02*
X2901Y2137D01*
X166Y2136D02*
X179Y2136D01*
X2890Y2136D02*
X2903Y2136D01*
X165Y2135D02*
X178Y2135D01*
X2891Y2135D02*
X2904Y2135D01*
X163Y2134D02*
X176Y2134D01*
X2893Y2134D02*
X2906Y2134D01*
X162Y2133D02*
X175Y2133D01*
X2894Y2133D02*
X2907Y2133D01*
X160Y2132D02*
X173Y2132D01*
X2896Y2132D02*
X2908Y2132D01*
X159Y2131D02*
X172Y2131D01*
X2897Y2131D02*
X2910Y2131D01*
X158Y2130D02*
X170Y2130D01*
X2899Y2130D02*
X2911Y2130D01*
X156Y2129D02*
X169Y2129D01*
X2900Y2129D02*
X2913Y2129D01*
X155Y2128D02*
X168Y2128D01*
X2901Y2128D02*
X2914Y2128D01*
X154Y2127D02*
X166Y2127D01*
X2903Y2127D02*
X2915Y2127D01*
X152Y2126D02*
X165Y2126D01*
X2904Y2126D02*
X2917Y2126D01*
X151Y2125D02*
X163Y2125D01*
X2906Y2125D02*
X2918Y2125D01*
X150Y2124D02*
X162Y2124D01*
X2907Y2124D02*
X2919Y2124D01*
X149Y2123D02*
X161Y2123D01*
X2908Y2123D02*
X2920Y2123D01*
X147Y2122D02*
X159Y2122D01*
X2910Y2122D02*
X2922Y2122D01*
X146Y2121D02*
X158Y2121D01*
X2911Y2121D02*
X2923Y2121D01*
X145Y2120D02*
X157Y2120D01*
X2912Y2120D02*
X2924Y2120D01*
X144Y2119D02*
X155Y2119D01*
X2914Y2119D02*
X2925Y2119D01*
X142Y2118D02*
X154Y2118D01*
X2915Y2118D02*
X2927Y2118D01*
X141Y2117D02*
X153Y2117D01*
X2916Y2117D02*
X2928Y2117D01*
X140Y2116D02*
X152Y2116D01*
X2917Y2116D02*
X2929Y2116D01*
X139Y2115D02*
X150Y2115D01*
X2919Y2115D02*
X2930Y2115D01*
X137Y2114D02*
X149Y2114D01*
X2920Y2114D02*
X2931Y2114D01*
X136Y2113D02*
X148Y2113D01*
X2921Y2113D02*
X2933Y2113D01*
X135Y2112D02*
X146Y2112D01*
X2922Y2112D02*
X2934Y2112D01*
X134Y2111D02*
X145Y2111D01*
X2924Y2111D02*
X2935Y2111D01*
X133Y2110D02*
X144Y2110D01*
X2925Y2110D02*
X2936Y2110D01*
X132Y2109D02*
X143Y2109D01*
X2926Y2109D02*
X2937Y2109D01*
X131Y2108D02*
X142Y2108D01*
X2927Y2108D02*
X2938Y2108D01*
X129Y2107D02*
X141Y2107D01*
X2928Y2107D02*
X2940Y2107D01*
X128Y2106D02*
X139Y2106D01*
X2930Y2106D02*
X2941Y2106D01*
X127Y2105D02*
X138Y2105D01*
X2931Y2105D02*
X2942Y2105D01*
X126Y2104D02*
X137Y2104D01*
X2932Y2104D02*
X2943Y2104D01*
X125Y2103D02*
X136Y2103D01*
X2933Y2103D02*
X2944Y2103D01*
X124Y2102D02*
X135Y2102D01*
X2934Y2102D02*
X2945Y2102D01*
X123Y2101D02*
X134Y2101D01*
X2935Y2101D02*
X2946Y2101D01*
X122Y2100D02*
X133Y2100D01*
X2936Y2100D02*
X2947Y2100D01*
X121Y2099D02*
X131Y2099D01*
X2938Y2099D02*
X2948Y2099D01*
X120Y2098D02*
X130Y2098D01*
X2939Y2098D02*
X2949Y2098D01*
X119Y2097D02*
X129Y2097D01*
X2940Y2097D02*
X2950Y2097D01*
X118Y2096D02*
X128Y2096D01*
X2941Y2096D02*
X2951Y2096D01*
X117Y2095D02*
X127Y2095D01*
X2942Y2095D02*
X2952Y2095D01*
X116Y2094D02*
X126Y2094D01*
X2943Y2094D02*
X2953Y2094D01*
X115Y2093D02*
X125Y2093D01*
X2944Y2093D02*
X2954Y2093D01*
X114Y2092D02*
X124Y2092D01*
X2945Y2092D02*
X2955Y2092D01*
X113Y2091D02*
X123Y2091D01*
X2946Y2091D02*
X2956Y2091D01*
X112Y2090D02*
X122Y2090D01*
X2947Y2090D02*
X2957Y2090D01*
X111Y2089D02*
X121Y2089D01*
X2948Y2089D02*
X2958Y2089D01*
X110Y2088D02*
X120Y2088D01*
X2949Y2088D02*
X2959Y2088D01*
X109Y2087D02*
X119Y2087D01*
X2950Y2087D02*
X2960Y2087D01*
X108Y2086D02*
X118Y2086D01*
X2951Y2086D02*
X2961Y2086D01*
X107Y2085D02*
X117Y2085D01*
X2952Y2085D02*
X2962Y2085D01*
X106Y2084D02*
X116Y2084D01*
X2953Y2084D02*
X2963Y2084D01*
X105Y2083D02*
X115Y2083D01*
X2954Y2083D02*
X2964Y2083D01*
X104Y2082D02*
X114Y2082D01*
X2955Y2082D02*
X2965Y2082D01*
X103Y2081D02*
X113Y2081D01*
X2956Y2081D02*
X2966Y2081D01*
X102Y2080D02*
X112Y2080D01*
X2957Y2080D02*
X2967Y2080D01*
X101Y2079D02*
X111Y2079D01*
X2958Y2079D02*
X2968Y2079D01*
X100Y2078D02*
X110Y2078D01*
X2959Y2078D02*
X2969Y2078D01*
X99Y2077D02*
X109Y2077D01*
X2960Y2077D02*
X2970Y2077D01*
X99Y2076D02*
X108Y2076D01*
X2961Y2076D02*
X2970Y2076D01*
X98Y2075D02*
X107Y2075D01*
X2962Y2075D02*
X2971Y2075D01*
X97Y2074D02*
X106Y2074D01*
X2963Y2074D02*
X2972Y2074D01*
X96Y2073D02*
X105Y2073D01*
X2964Y2073D02*
X2973Y2073D01*
X95Y2072D02*
X105Y2072D01*
X2964Y2072D02*
X2974Y2072D01*
X94Y2071D02*
X104Y2071D01*
X2965Y2071D02*
X2975Y2071D01*
X93Y2070D02*
X103Y2070D01*
X2966Y2070D02*
X2976Y2070D01*
X92Y2069D02*
X102Y2069D01*
X2967Y2069D02*
X2977Y2069D01*
X92Y2068D02*
X101Y2068D01*
X2968Y2068D02*
X2977Y2068D01*
X91Y2067D02*
X100Y2067D01*
X2969Y2067D02*
X2978Y2067D01*
X90Y2066D02*
X99Y2066D01*
X2970Y2066D02*
X2979Y2066D01*
X89Y2065D02*
X99Y2065D01*
X2970Y2065D02*
X2980Y2065D01*
X88Y2064D02*
X98Y2064D01*
X2971Y2064D02*
X2981Y2064D01*
X87Y2063D02*
X97Y2063D01*
X2972Y2063D02*
X2982Y2063D01*
X87Y2062D02*
X96Y2062D01*
X2973Y2062D02*
X2982Y2062D01*
X86Y2061D02*
X95Y2061D01*
X2974Y2061D02*
X2983Y2061D01*
X85Y2060D02*
X94Y2060D01*
X2975Y2060D02*
X2984Y2060D01*
X84Y2059D02*
X93Y2059D01*
X2976Y2059D02*
X2985Y2059D01*
X83Y2058D02*
X93Y2058D01*
X2976Y2058D02*
X2986Y2058D01*
X83Y2057D02*
X92Y2057D01*
X2977Y2057D02*
X2986Y2057D01*
X82Y2056D02*
X91Y2056D01*
X2978Y2056D02*
X2987Y2056D01*
X81Y2055D02*
X90Y2055D01*
X2979Y2055D02*
X2988Y2055D01*
X80Y2054D02*
X89Y2054D01*
X2980Y2054D02*
X2989Y2054D01*
X80Y2053D02*
X89Y2053D01*
X2980Y2053D02*
X2989Y2053D01*
X79Y2052D02*
X88Y2052D01*
X2981Y2052D02*
X2990Y2052D01*
X78Y2051D02*
X87Y2051D01*
X2982Y2051D02*
X2991Y2051D01*
X77Y2050D02*
X86Y2050D01*
X2983Y2050D02*
X2992Y2050D01*
X76Y2049D02*
X86Y2049D01*
X2983Y2049D02*
X2993Y2049D01*
X76Y2048D02*
X85Y2048D01*
X2984Y2048D02*
X2993Y2048D01*
X75Y2047D02*
X84Y2047D01*
X2985Y2047D02*
X2994Y2047D01*
X74Y2046D02*
X83Y2046D01*
X2986Y2046D02*
X2995Y2046D01*
X74Y2045D02*
X82Y2045D01*
X2987Y2045D02*
X2995Y2045D01*
X73Y2044D02*
X82Y2044D01*
X2987Y2044D02*
X2996Y2044D01*
X72Y2043D02*
X81Y2043D01*
X2988Y2043D02*
X2997Y2043D01*
X72Y2042D02*
X80Y2042D01*
X2989Y2042D02*
X2997Y2042D01*
X71Y2041D02*
X80Y2041D01*
X2989Y2041D02*
X2998Y2041D01*
X70Y2040D02*
X79Y2040D01*
X2990Y2040D02*
X2999Y2040D01*
X69Y2039D02*
X78Y2039D01*
X2991Y2039D02*
X3000Y2039D01*
X69Y2038D02*
X77Y2038D01*
X2992Y2038D02*
X3000Y2038D01*
X68Y2037D02*
X77Y2037D01*
X2992Y2037D02*
X3001Y2037D01*
X67Y2036D02*
X76Y2036D01*
X2993Y2036D02*
X3002Y2036D01*
X67Y2035D02*
X75Y2035D01*
X2994Y2035D02*
X3002Y2035D01*
X66Y2034D02*
X75Y2034D01*
X2994Y2034D02*
X3003Y2034D01*
X65Y2033D02*
X74Y2033D01*
X2995Y2033D02*
X3004Y2033D01*
X65Y2032D02*
X73Y2032D01*
X2996Y2032D02*
X3004Y2032D01*
X64Y2031D02*
X72Y2031D01*
X2997Y2031D02*
X3005Y2031D01*
X63Y2030D02*
X72Y2030D01*
X2997Y2030D02*
X3006Y2030D01*
X63Y2029D02*
X71Y2029D01*
X2998Y2029D02*
X3006Y2029D01*
X62Y2028D02*
X70Y2028D01*
X2999Y2028D02*
X3007Y2028D01*
X61Y2027D02*
X70Y2027D01*
X2999Y2027D02*
X3008Y2027D01*
X61Y2026D02*
X69Y2026D01*
X3000Y2026D02*
X3008Y2026D01*
X60Y2025D02*
X69Y2025D01*
X3000Y2025D02*
X3009Y2025D01*
X60Y2024D02*
X68Y2024D01*
X3001Y2024D02*
X3009Y2024D01*
X59Y2023D02*
X67Y2023D01*
X3002Y2023D02*
X3010Y2023D01*
X58Y2022D02*
X67Y2022D01*
X3002Y2022D02*
X3011Y2022D01*
X58Y2021D02*
X66Y2021D01*
X3003Y2021D02*
X3011Y2021D01*
X57Y2020D02*
X65Y2020D01*
X3004Y2020D02*
X3012Y2020D01*
X56Y2019D02*
X65Y2019D01*
X3004Y2019D02*
X3013Y2019D01*
X56Y2018D02*
X64Y2018D01*
X3005Y2018D02*
X3013Y2018D01*
X55Y2017D02*
X63Y2017D01*
X3006Y2017D02*
X3014Y2017D01*
X55Y2016D02*
X63Y2016D01*
X3006Y2016D02*
X3014Y2016D01*
X54Y2015D02*
X62Y2015D01*
X3007Y2015D02*
X3015Y2015D01*
X53Y2014D02*
X62Y2014D01*
X3007Y2014D02*
X3016Y2014D01*
X53Y2013D02*
X61Y2013D01*
X3008Y2013D02*
X3016Y2013D01*
X52Y2012D02*
X60Y2012D01*
X3009Y2012D02*
X3017Y2012D01*
X52Y2011D02*
X60Y2011D01*
X3009Y2011D02*
X3017Y2011D01*
X51Y2010D02*
X59Y2010D01*
X3010Y2010D02*
X3018Y2010D01*
X51Y2009D02*
X59Y2009D01*
X3010Y2009D02*
X3018Y2009D01*
X50Y2008D02*
X58Y2008D01*
X3011Y2008D02*
X3019Y2008D01*
X49Y2007D02*
X58Y2007D01*
X3011Y2007D02*
X3020Y2007D01*
X49Y2006D02*
X57Y2006D01*
X3012Y2006D02*
X3020Y2006D01*
X48Y2005D02*
X56Y2005D01*
X3013Y2005D02*
X3021Y2005D01*
X48Y2004D02*
X56Y2004D01*
X3013Y2004D02*
X3021Y2004D01*
X47Y2003D02*
X55Y2003D01*
X3014Y2003D02*
X3022Y2003D01*
X47Y2002D02*
X55Y2002D01*
X3014Y2002D02*
X3022Y2002D01*
X46Y2001D02*
X54Y2001D01*
X3015Y2001D02*
X3023Y2001D01*
X46Y2000D02*
X54Y2000D01*
X3015Y2000D02*
X3023Y2000D01*
X45Y1999D02*
X53Y1999D01*
X3016Y1999D02*
X3024Y1999D01*
X45Y1998D02*
X52Y1998D01*
X3017Y1998D02*
X3024Y1998D01*
X44Y1997D02*
X52Y1997D01*
X3017Y1997D02*
X3025Y1997D01*
X44Y1996D02*
X51Y1996D01*
X3018Y1996D02*
X3025Y1996D01*
X43Y1995D02*
X51Y1995D01*
X3018Y1995D02*
X3026Y1995D01*
X43Y1994D02*
X50Y1994D01*
X3019Y1994D02*
X3026Y1994D01*
X42Y1993D02*
X50Y1993D01*
X3019Y1993D02*
X3027Y1993D01*
X42Y1992D02*
X49Y1992D01*
X3020Y1992D02*
X3027Y1992D01*
X41Y1991D02*
X49Y1991D01*
X3020Y1991D02*
X3028Y1991D01*
X40Y1990D02*
X48Y1990D01*
X3021Y1990D02*
X3029Y1990D01*
X40Y1989D02*
X48Y1989D01*
X3021Y1989D02*
X3029Y1989D01*
X39Y1988D02*
X47Y1988D01*
X3022Y1988D02*
X3030Y1988D01*
X39Y1987D02*
X47Y1987D01*
X3022Y1987D02*
X3030Y1987D01*
X38Y1986D02*
X46Y1986D01*
X3023Y1986D02*
X3031Y1986D01*
X38Y1985D02*
X46Y1985D01*
X3023Y1985D02*
X3031Y1985D01*
X38Y1984D02*
X45Y1984D01*
X3024Y1984D02*
X3031Y1984D01*
X37Y1983D02*
X45Y1983D01*
X3024Y1983D02*
X3032Y1983D01*
X37Y1982D02*
X44Y1982D01*
X3025Y1982D02*
X3032Y1982D01*
X36Y1981D02*
X44Y1981D01*
X3025Y1981D02*
X3033Y1981D01*
X36Y1980D02*
X43Y1980D01*
X3026Y1980D02*
X3033Y1980D01*
X35Y1979D02*
X43Y1979D01*
X3026Y1979D02*
X3034Y1979D01*
X35Y1978D02*
X42Y1978D01*
X3027Y1978D02*
X3034Y1978D01*
X34Y1977D02*
X42Y1977D01*
X3027Y1977D02*
X3035Y1977D01*
X34Y1976D02*
X42Y1976D01*
X3027Y1976D02*
X3035Y1976D01*
X33Y1975D02*
X41Y1975D01*
X3028Y1975D02*
X3036Y1975D01*
X33Y1974D02*
X41Y1974D01*
X3028Y1974D02*
X3036Y1974D01*
X33Y1973D02*
X40Y1973D01*
X3029Y1973D02*
X3036Y1973D01*
X32Y1972D02*
X40Y1972D01*
X3029Y1972D02*
X3037Y1972D01*
X32Y1971D02*
X39Y1971D01*
X3030Y1971D02*
X3037Y1971D01*
X31Y1970D02*
X39Y1970D01*
X3030Y1970D02*
X3038Y1970D01*
X31Y1969D02*
X38Y1969D01*
X3031Y1969D02*
X3038Y1969D01*
X30Y1968D02*
X38Y1968D01*
X3031Y1968D02*
X3039Y1968D01*
X30Y1967D02*
X37Y1967D01*
X3032Y1967D02*
X3039Y1967D01*
X30Y1966D02*
X37Y1966D01*
X3032Y1966D02*
X3039Y1966D01*
X29Y1965D02*
X37Y1965D01*
X3032Y1965D02*
X3040Y1965D01*
X29Y1964D02*
X36Y1964D01*
X3033Y1964D02*
X3040Y1964D01*
X28Y1963D02*
X36Y1963D01*
X3033Y1963D02*
X3041Y1963D01*
X28Y1962D02*
X35Y1962D01*
X3034Y1962D02*
X3041Y1962D01*
X28Y1961D02*
X35Y1961D01*
X3034Y1961D02*
X3041Y1961D01*
X27Y1960D02*
X35Y1960D01*
X3034Y1960D02*
X3042Y1960D01*
X27Y1959D02*
X34Y1959D01*
X3035Y1959D02*
X3042Y1959D01*
X26Y1958D02*
X34Y1958D01*
X3035Y1958D02*
X3043Y1958D01*
X26Y1957D02*
X33Y1957D01*
X3036Y1957D02*
X3043Y1957D01*
X26Y1956D02*
X33Y1956D01*
X3036Y1956D02*
X3043Y1956D01*
X25Y1955D02*
X33Y1955D01*
X3036Y1955D02*
X3044Y1955D01*
X25Y1954D02*
X32Y1954D01*
X3037Y1954D02*
X3044Y1954D01*
X24Y1953D02*
X32Y1953D01*
X3037Y1953D02*
X3045Y1953D01*
X24Y1952D02*
X31Y1952D01*
X3038Y1952D02*
X3045Y1952D01*
X24Y1951D02*
X31Y1951D01*
X3038Y1951D02*
X3045Y1951D01*
X23Y1950D02*
X31Y1950D01*
X3038Y1950D02*
X3046Y1950D01*
X23Y1949D02*
X30Y1949D01*
X3039Y1949D02*
X3046Y1949D01*
X23Y1948D02*
X30Y1948D01*
X3039Y1948D02*
X3046Y1948D01*
X22Y1947D02*
X30Y1947D01*
X3039Y1947D02*
X3047Y1947D01*
X22Y1946D02*
X29Y1946D01*
X3040Y1946D02*
X3047Y1946D01*
X22Y1945D02*
X29Y1945D01*
X3040Y1945D02*
X3047Y1945D01*
X21Y1944D02*
X29Y1944D01*
X3040Y1944D02*
X3048Y1944D01*
X21Y1943D02*
X28Y1943D01*
X3041Y1943D02*
X3048Y1943D01*
X21Y1942D02*
X28Y1942D01*
X3041Y1942D02*
X3048Y1942D01*
X20Y1941D02*
X28Y1941D01*
X3041Y1941D02*
X3049Y1941D01*
X20Y1940D02*
X27Y1940D01*
X3042Y1940D02*
X3049Y1940D01*
X20Y1939D02*
X27Y1939D01*
X3042Y1939D02*
X3049Y1939D01*
X19Y1938D02*
X27Y1938D01*
X3042Y1938D02*
X3050Y1938D01*
X19Y1937D02*
X26Y1937D01*
X3043Y1937D02*
X3050Y1937D01*
X19Y1936D02*
X26Y1936D01*
X3043Y1936D02*
X3050Y1936D01*
X18Y1935D02*
X26Y1935D01*
X3043Y1935D02*
X3051Y1935D01*
X18Y1934D02*
X25Y1934D01*
X3044Y1934D02*
X3051Y1934D01*
X18Y1933D02*
X25Y1933D01*
X3044Y1933D02*
X3051Y1933D01*
X17Y1932D02*
X25Y1932D01*
X3044Y1932D02*
X3052Y1932D01*
X17Y1931D02*
X24Y1931D01*
X3045Y1931D02*
X3052Y1931D01*
X17Y1930D02*
X24Y1930D01*
X3045Y1930D02*
X3052Y1930D01*
X16Y1929D02*
X24Y1929D01*
X3045Y1929D02*
X3053Y1929D01*
X16Y1928D02*
X23Y1928D01*
X3046Y1928D02*
X3053Y1928D01*
X16Y1927D02*
X23Y1927D01*
X3046Y1927D02*
X3053Y1927D01*
X15Y1926D02*
X23Y1926D01*
X3046Y1926D02*
X3054Y1926D01*
X15Y1925D02*
X22Y1925D01*
X3047Y1925D02*
X3054Y1925D01*
X15Y1924D02*
X22Y1924D01*
X3047Y1924D02*
X3054Y1924D01*
X15Y1923D02*
X22Y1923D01*
X3047Y1923D02*
X3054Y1923D01*
X14Y1922D02*
X21Y1922D01*
X3047Y1922D02*
X3055Y1922D01*
X14Y1921D02*
X21Y1921D01*
X3048Y1921D02*
X3055Y1921D01*
X14Y1920D02*
X21Y1920D01*
X3048Y1920D02*
X3055Y1920D01*
X14Y1919D02*
X21Y1919D01*
X3048Y1919D02*
X3055Y1919D01*
X13Y1918D02*
X20Y1918D01*
X3049Y1918D02*
X3056Y1918D01*
X13Y1917D02*
X20Y1917D01*
X3049Y1917D02*
X3056Y1917D01*
X13Y1916D02*
X20Y1916D01*
X3049Y1916D02*
X3056Y1916D01*
X12Y1915D02*
X20Y1915D01*
X3049Y1915D02*
X3057Y1915D01*
X12Y1914D02*
X19Y1914D01*
X3050Y1914D02*
X3057Y1914D01*
X12Y1913D02*
X19Y1913D01*
X3050Y1913D02*
X3057Y1913D01*
X12Y1912D02*
X19Y1912D01*
X3050Y1912D02*
X3057Y1912D01*
X11Y1911D02*
X19Y1911D01*
X3050Y1911D02*
X3058Y1911D01*
X11Y1910D02*
X18Y1910D01*
X3051Y1910D02*
X3058Y1910D01*
X11Y1909D02*
X18Y1909D01*
X3051Y1909D02*
X3058Y1909D01*
X11Y1908D02*
X18Y1908D01*
X3051Y1908D02*
X3058Y1908D01*
X10Y1907D02*
X18Y1907D01*
X3051Y1907D02*
X3059Y1907D01*
X10Y1906D02*
X17Y1906D01*
X3052Y1906D02*
X3059Y1906D01*
X10Y1905D02*
X17Y1905D01*
X3052Y1905D02*
X3059Y1905D01*
X10Y1904D02*
X17Y1904D01*
X3052Y1904D02*
X3059Y1904D01*
X10Y1903D02*
X17Y1903D01*
X3052Y1903D02*
X3059Y1903D01*
X9Y1902D02*
X16Y1902D01*
X3053Y1902D02*
X3060Y1902D01*
X9Y1901D02*
X16Y1901D01*
X3053Y1901D02*
X3060Y1901D01*
X9Y1900D02*
X16Y1900D01*
X3053Y1900D02*
X3060Y1900D01*
X9Y1899D02*
X16Y1899D01*
X3053Y1899D02*
X3060Y1899D01*
X8Y1898D02*
X16Y1898D01*
X3053Y1898D02*
X3061Y1898D01*
X8Y1897D02*
X15Y1897D01*
X3054Y1897D02*
X3061Y1897D01*
X8Y1896D02*
X15Y1896D01*
X3054Y1896D02*
X3061Y1896D01*
X8Y1895D02*
X15Y1895D01*
X3054Y1895D02*
X3061Y1895D01*
X8Y1894D02*
X15Y1894D01*
X3054Y1894D02*
X3061Y1894D01*
X7Y1893D02*
X14Y1893D01*
X3054Y1893D02*
X3062Y1893D01*
X7Y1892D02*
X14Y1892D01*
X3055Y1892D02*
X3062Y1892D01*
X7Y1891D02*
X14Y1891D01*
X3055Y1891D02*
X3062Y1891D01*
X7Y1890D02*
X14Y1890D01*
X3055Y1890D02*
X3062Y1890D01*
X7Y1889D02*
X14Y1889D01*
X3055Y1889D02*
X3062Y1889D01*
X6Y1888D02*
X14Y1888D01*
X3055Y1888D02*
X3063Y1888D01*
X6Y1887D02*
X13Y1887D01*
X3056Y1887D02*
X3063Y1887D01*
X6Y1886D02*
X13Y1886D01*
X3056Y1886D02*
X3063Y1886D01*
X6Y1885D02*
X13Y1885D01*
X3056Y1885D02*
X3063Y1885D01*
X6Y1884D02*
X13Y1884D01*
X3056Y1884D02*
X3063Y1884D01*
X6Y1883D02*
X13Y1883D01*
X3056Y1883D02*
X3063Y1883D01*
X5Y1882D02*
X12Y1882D01*
X3057Y1882D02*
X3064Y1882D01*
X5Y1881D02*
X12Y1881D01*
X3057Y1881D02*
X3064Y1881D01*
X5Y1880D02*
X12Y1880D01*
X3057Y1880D02*
X3064Y1880D01*
X5Y1879D02*
X12Y1879D01*
X3057Y1879D02*
X3064Y1879D01*
X5Y1878D02*
X12Y1878D01*
X3057Y1878D02*
X3064Y1878D01*
X5Y1877D02*
X12Y1877D01*
X3057Y1877D02*
X3064Y1877D01*
X4Y1876D02*
X11Y1876D01*
X3058Y1876D02*
X3065Y1876D01*
X4Y1875D02*
X11Y1875D01*
X3058Y1875D02*
X3065Y1875D01*
X4Y1874D02*
X11Y1874D01*
X3058Y1874D02*
X3065Y1874D01*
X4Y1873D02*
X11Y1873D01*
X3058Y1873D02*
X3065Y1873D01*
X4Y1872D02*
X11Y1872D01*
X3058Y1872D02*
X3065Y1872D01*
X4Y1871D02*
X11Y1871D01*
X3058Y1871D02*
X3065Y1871D01*
X4Y1870D02*
X11Y1870D01*
X3058Y1870D02*
X3065Y1870D01*
X3Y1869D02*
X10Y1869D01*
X3059Y1869D02*
X3066Y1869D01*
X3Y1868D02*
X10Y1868D01*
X3059Y1868D02*
X3066Y1868D01*
X3Y1867D02*
X10Y1867D01*
X3059Y1867D02*
X3066Y1867D01*
X3Y1866D02*
X10Y1866D01*
X3059Y1866D02*
X3066Y1866D01*
X3Y1865D02*
X10Y1865D01*
X3059Y1865D02*
X3066Y1865D01*
X3Y1864D02*
X10Y1864D01*
X3059Y1864D02*
X3066Y1864D01*
X3Y1863D02*
X10Y1863D01*
X3059Y1863D02*
X3066Y1863D01*
X3Y1862D02*
X10Y1862D01*
X3059Y1862D02*
X3066Y1862D01*
X2Y1861D02*
X9Y1861D01*
X3060Y1861D02*
X3067Y1861D01*
X2Y1860D02*
X9Y1860D01*
X3060Y1860D02*
X3067Y1860D01*
X2Y1859D02*
X9Y1859D01*
X3060Y1859D02*
X3067Y1859D01*
X2Y1858D02*
X9Y1858D01*
X3060Y1858D02*
X3067Y1858D01*
X2Y1857D02*
X9Y1857D01*
X3060Y1857D02*
X3067Y1857D01*
X2Y1856D02*
X9Y1856D01*
X3060Y1856D02*
X3067Y1856D01*
X2Y1855D02*
X9Y1855D01*
X3060Y1855D02*
X3067Y1855D01*
X2Y1854D02*
X9Y1854D01*
X3060Y1854D02*
X3067Y1854D01*
X2Y1853D02*
X9Y1853D01*
X3060Y1853D02*
X3067Y1853D01*
X2Y1852D02*
X9Y1852D01*
X3060Y1852D02*
X3067Y1852D01*
X1Y1851D02*
X8Y1851D01*
X3061Y1851D02*
X3068Y1851D01*
X1Y1850D02*
X8Y1850D01*
X3061Y1850D02*
X3068Y1850D01*
X1Y1849D02*
X8Y1849D01*
X3061Y1849D02*
X3068Y1849D01*
X1Y1848D02*
X8Y1848D01*
X3061Y1848D02*
X3068Y1848D01*
X1Y1847D02*
X8Y1847D01*
X3061Y1847D02*
X3068Y1847D01*
X1Y1846D02*
X8Y1846D01*
X3061Y1846D02*
X3068Y1846D01*
X1Y1845D02*
X8Y1845D01*
X3061Y1845D02*
X3068Y1845D01*
X1Y1844D02*
X8Y1844D01*
X3061Y1844D02*
X3068Y1844D01*
X1Y1843D02*
X8Y1843D01*
X3061Y1843D02*
X3068Y1843D01*
X1Y1842D02*
X8Y1842D01*
X3061Y1842D02*
X3068Y1842D01*
X1Y1841D02*
X8Y1841D01*
X3061Y1841D02*
X3068Y1841D01*
X1Y1840D02*
X8Y1840D01*
X3061Y1840D02*
X3068Y1840D01*
X1Y1839D02*
X8Y1839D01*
X3061Y1839D02*
X3068Y1839D01*
X1Y1838D02*
X8Y1838D01*
X3061Y1838D02*
X3068Y1838D01*
X0Y1837D02*
X8Y1837D01*
X3061Y1837D02*
X3069Y1837D01*
X0Y1836D02*
X7Y1836D01*
X3062Y1836D02*
X3069Y1836D01*
X0Y1835D02*
X7Y1835D01*
X3062Y1835D02*
X3069Y1835D01*
X0Y1834D02*
X7Y1834D01*
X3062Y1834D02*
X3069Y1834D01*
X0Y1833D02*
X7Y1833D01*
X3062Y1833D02*
X3069Y1833D01*
X0Y1832D02*
X7Y1832D01*
X3062Y1832D02*
X3069Y1832D01*
X0Y1831D02*
X7Y1831D01*
X3062Y1831D02*
X3069Y1831D01*
X0Y1830D02*
X7Y1830D01*
X3062Y1830D02*
X3069Y1830D01*
X0Y1829D02*
X7Y1829D01*
X3062Y1829D02*
X3069Y1829D01*
X0Y1828D02*
X7Y1828D01*
X3062Y1828D02*
X3069Y1828D01*
X0Y1827D02*
X7Y1827D01*
X3062Y1827D02*
X3069Y1827D01*
X0Y1826D02*
X7Y1826D01*
X3062Y1826D02*
X3069Y1826D01*
X0Y1825D02*
X7Y1825D01*
X3062Y1825D02*
X3069Y1825D01*
X0Y1824D02*
X7Y1824D01*
X3062Y1824D02*
X3069Y1824D01*
X0Y1823D02*
X7Y1823D01*
X3062Y1823D02*
X3069Y1823D01*
X0Y1822D02*
X7Y1822D01*
X3062Y1822D02*
X3069Y1822D01*
X0Y1821D02*
X7Y1821D01*
X3062Y1821D02*
X3069Y1821D01*
X0Y1820D02*
X7Y1820D01*
X3062Y1820D02*
X3069Y1820D01*
X0Y1819D02*
X7Y1819D01*
X3062Y1819D02*
X3069Y1819D01*
X0Y1818D02*
X7Y1818D01*
X3062Y1818D02*
X3069Y1818D01*
X0Y1817D02*
X7Y1817D01*
X3062Y1817D02*
X3069Y1817D01*
X0Y1816D02*
X7Y1816D01*
X3062Y1816D02*
X3069Y1816D01*
X0Y1815D02*
X7Y1815D01*
X3062Y1815D02*
X3069Y1815D01*
X0Y1814D02*
X7Y1814D01*
X3062Y1814D02*
X3069Y1814D01*
X0Y1813D02*
X7Y1813D01*
X3062Y1813D02*
X3069Y1813D01*
X0Y1812D02*
X7Y1812D01*
X3062Y1812D02*
X3069Y1812D01*
X0Y1811D02*
X7Y1811D01*
X3062Y1811D02*
X3069Y1811D01*
X0Y1810D02*
X7Y1810D01*
X3062Y1810D02*
X3069Y1810D01*
X0Y1809D02*
X7Y1809D01*
X3062Y1809D02*
X3069Y1809D01*
X0Y1808D02*
X7Y1808D01*
X3062Y1808D02*
X3069Y1808D01*
X0Y1807D02*
X7Y1807D01*
X3062Y1807D02*
X3069Y1807D01*
X0Y1806D02*
X7Y1806D01*
X3062Y1806D02*
X3069Y1806D01*
X0Y1805D02*
X7Y1805D01*
X3062Y1805D02*
X3069Y1805D01*
X0Y1804D02*
X7Y1804D01*
X3062Y1804D02*
X3069Y1804D01*
X0Y1803D02*
X7Y1803D01*
X3062Y1803D02*
X3069Y1803D01*
X0Y1802D02*
X7Y1802D01*
X3062Y1802D02*
X3069Y1802D01*
X0Y1801D02*
X7Y1801D01*
X3062Y1801D02*
X3069Y1801D01*
X0Y1800D02*
X7Y1800D01*
X3062Y1800D02*
X3069Y1800D01*
X0Y1799D02*
X7Y1799D01*
X3062Y1799D02*
X3069Y1799D01*
X0Y1798D02*
X7Y1798D01*
X3062Y1798D02*
X3069Y1798D01*
X0Y1797D02*
X7Y1797D01*
X3062Y1797D02*
X3069Y1797D01*
X0Y1796D02*
X7Y1796D01*
X3062Y1796D02*
X3069Y1796D01*
X0Y1795D02*
X7Y1795D01*
X3062Y1795D02*
X3069Y1795D01*
X0Y1794D02*
X7Y1794D01*
X3062Y1794D02*
X3069Y1794D01*
X0Y1793D02*
X7Y1793D01*
X3062Y1793D02*
X3069Y1793D01*
X0Y1792D02*
X7Y1792D01*
X3062Y1792D02*
X3069Y1792D01*
X0Y1791D02*
X7Y1791D01*
X3062Y1791D02*
X3069Y1791D01*
X0Y1790D02*
X7Y1790D01*
X3062Y1790D02*
X3069Y1790D01*
X0Y1789D02*
X7Y1789D01*
X3062Y1789D02*
X3069Y1789D01*
X0Y1788D02*
X7Y1788D01*
X3062Y1788D02*
X3069Y1788D01*
X0Y1787D02*
X7Y1787D01*
X3062Y1787D02*
X3069Y1787D01*
X0Y1786D02*
X7Y1786D01*
X3062Y1786D02*
X3069Y1786D01*
X0Y1785D02*
X7Y1785D01*
X3062Y1785D02*
X3069Y1785D01*
X0Y1784D02*
X7Y1784D01*
X3062Y1784D02*
X3069Y1784D01*
X0Y1783D02*
X7Y1783D01*
X3062Y1783D02*
X3069Y1783D01*
X0Y1782D02*
X7Y1782D01*
X3062Y1782D02*
X3069Y1782D01*
X0Y1781D02*
X7Y1781D01*
X3062Y1781D02*
X3069Y1781D01*
X0Y1780D02*
X7Y1780D01*
X3062Y1780D02*
X3069Y1780D01*
X0Y1779D02*
X7Y1779D01*
X3062Y1779D02*
X3069Y1779D01*
X0Y1778D02*
X7Y1778D01*
X3062Y1778D02*
X3069Y1778D01*
X0Y1777D02*
X7Y1777D01*
X3062Y1777D02*
X3069Y1777D01*
X0Y1776D02*
X7Y1776D01*
X3062Y1776D02*
X3069Y1776D01*
X0Y1775D02*
X7Y1775D01*
X3062Y1775D02*
X3069Y1775D01*
X0Y1774D02*
X7Y1774D01*
X3062Y1774D02*
X3069Y1774D01*
X0Y1773D02*
X7Y1773D01*
X3062Y1773D02*
X3069Y1773D01*
X0Y1772D02*
X7Y1772D01*
X3062Y1772D02*
X3069Y1772D01*
X0Y1771D02*
X7Y1771D01*
X3062Y1771D02*
X3069Y1771D01*
X0Y1770D02*
X7Y1770D01*
X3062Y1770D02*
X3069Y1770D01*
X0Y1769D02*
X7Y1769D01*
X3062Y1769D02*
X3069Y1769D01*
X0Y1768D02*
X7Y1768D01*
X3062Y1768D02*
X3069Y1768D01*
X0Y1767D02*
X7Y1767D01*
X3062Y1767D02*
X3069Y1767D01*
X0Y1766D02*
X7Y1766D01*
X3062Y1766D02*
X3069Y1766D01*
X0Y1765D02*
X7Y1765D01*
X3062Y1765D02*
X3069Y1765D01*
X0Y1764D02*
X7Y1764D01*
X3062Y1764D02*
X3069Y1764D01*
X0Y1763D02*
X7Y1763D01*
X3062Y1763D02*
X3069Y1763D01*
X0Y1762D02*
X7Y1762D01*
X3062Y1762D02*
X3069Y1762D01*
X0Y1761D02*
X7Y1761D01*
X3062Y1761D02*
X3069Y1761D01*
X0Y1760D02*
X7Y1760D01*
X3062Y1760D02*
X3069Y1760D01*
X0Y1759D02*
X7Y1759D01*
X3062Y1759D02*
X3069Y1759D01*
X0Y1758D02*
X7Y1758D01*
X3062Y1758D02*
X3069Y1758D01*
X0Y1757D02*
X7Y1757D01*
X3062Y1757D02*
X3069Y1757D01*
X0Y1756D02*
X7Y1756D01*
X3062Y1756D02*
X3069Y1756D01*
X0Y1755D02*
X7Y1755D01*
X3062Y1755D02*
X3069Y1755D01*
X0Y1754D02*
X7Y1754D01*
X3062Y1754D02*
X3069Y1754D01*
X0Y1753D02*
X7Y1753D01*
X3062Y1753D02*
X3069Y1753D01*
X0Y1752D02*
X7Y1752D01*
X3062Y1752D02*
X3069Y1752D01*
X0Y1751D02*
X7Y1751D01*
X3062Y1751D02*
X3069Y1751D01*
X0Y1750D02*
X7Y1750D01*
X3062Y1750D02*
X3069Y1750D01*
X0Y1749D02*
X7Y1749D01*
X3062Y1749D02*
X3069Y1749D01*
X0Y1748D02*
X7Y1748D01*
X3062Y1748D02*
X3069Y1748D01*
X0Y1747D02*
X7Y1747D01*
X3062Y1747D02*
X3069Y1747D01*
X0Y1746D02*
X7Y1746D01*
X3062Y1746D02*
X3069Y1746D01*
X0Y1745D02*
X7Y1745D01*
X3062Y1745D02*
X3069Y1745D01*
X0Y1744D02*
X7Y1744D01*
X3062Y1744D02*
X3069Y1744D01*
X0Y1743D02*
X7Y1743D01*
X3062Y1743D02*
X3069Y1743D01*
X0Y1742D02*
X7Y1742D01*
X3062Y1742D02*
X3069Y1742D01*
X0Y1741D02*
X7Y1741D01*
X3062Y1741D02*
X3069Y1741D01*
X0Y1740D02*
X7Y1740D01*
X3062Y1740D02*
X3069Y1740D01*
X0Y1739D02*
X7Y1739D01*
X3062Y1739D02*
X3069Y1739D01*
X0Y1738D02*
X7Y1738D01*
X3062Y1738D02*
X3069Y1738D01*
X0Y1737D02*
X7Y1737D01*
X3062Y1737D02*
X3069Y1737D01*
X0Y1736D02*
X7Y1736D01*
X3062Y1736D02*
X3069Y1736D01*
X0Y1735D02*
X7Y1735D01*
X3062Y1735D02*
X3069Y1735D01*
X0Y1734D02*
X7Y1734D01*
X3062Y1734D02*
X3069Y1734D01*
X0Y1733D02*
X7Y1733D01*
X3062Y1733D02*
X3069Y1733D01*
X0Y1732D02*
X7Y1732D01*
X3062Y1732D02*
X3069Y1732D01*
X0Y1731D02*
X7Y1731D01*
X3062Y1731D02*
X3069Y1731D01*
X0Y1730D02*
X7Y1730D01*
X3062Y1730D02*
X3069Y1730D01*
X0Y1729D02*
X7Y1729D01*
X3062Y1729D02*
X3069Y1729D01*
X0Y1728D02*
X7Y1728D01*
X3062Y1728D02*
X3069Y1728D01*
X0Y1727D02*
X7Y1727D01*
X3062Y1727D02*
X3069Y1727D01*
X0Y1726D02*
X7Y1726D01*
X3062Y1726D02*
X3069Y1726D01*
X0Y1725D02*
X7Y1725D01*
X3062Y1725D02*
X3069Y1725D01*
X0Y1724D02*
X7Y1724D01*
X3062Y1724D02*
X3069Y1724D01*
X0Y1723D02*
X7Y1723D01*
X3062Y1723D02*
X3069Y1723D01*
X0Y1722D02*
X7Y1722D01*
X3062Y1722D02*
X3069Y1722D01*
X0Y1721D02*
X7Y1721D01*
X3062Y1721D02*
X3069Y1721D01*
X0Y1720D02*
X7Y1720D01*
X3062Y1720D02*
X3069Y1720D01*
X0Y1719D02*
X7Y1719D01*
X3062Y1719D02*
X3069Y1719D01*
X0Y1718D02*
X7Y1718D01*
X3062Y1718D02*
X3069Y1718D01*
X0Y1717D02*
X7Y1717D01*
X3062Y1717D02*
X3069Y1717D01*
X0Y1716D02*
X7Y1716D01*
X3062Y1716D02*
X3069Y1716D01*
X0Y1715D02*
X7Y1715D01*
X3062Y1715D02*
X3069Y1715D01*
X0Y1714D02*
X7Y1714D01*
X3062Y1714D02*
X3069Y1714D01*
X0Y1713D02*
X7Y1713D01*
X3062Y1713D02*
X3069Y1713D01*
X0Y1712D02*
X7Y1712D01*
X3062Y1712D02*
X3069Y1712D01*
X0Y1711D02*
X7Y1711D01*
X3062Y1711D02*
X3069Y1711D01*
X0Y1710D02*
X7Y1710D01*
X3062Y1710D02*
X3069Y1710D01*
X0Y1709D02*
X7Y1709D01*
X3062Y1709D02*
X3069Y1709D01*
X0Y1708D02*
X7Y1708D01*
X3062Y1708D02*
X3069Y1708D01*
X0Y1707D02*
X7Y1707D01*
X3062Y1707D02*
X3069Y1707D01*
X0Y1706D02*
X7Y1706D01*
X3062Y1706D02*
X3069Y1706D01*
X0Y1705D02*
X7Y1705D01*
X3062Y1705D02*
X3069Y1705D01*
X0Y1704D02*
X7Y1704D01*
X3062Y1704D02*
X3069Y1704D01*
X0Y1703D02*
X7Y1703D01*
X3062Y1703D02*
X3069Y1703D01*
X0Y1702D02*
X7Y1702D01*
X3062Y1702D02*
X3069Y1702D01*
X0Y1701D02*
X7Y1701D01*
X3062Y1701D02*
X3069Y1701D01*
X0Y1700D02*
X7Y1700D01*
X3062Y1700D02*
X3069Y1700D01*
X0Y1699D02*
X7Y1699D01*
X3062Y1699D02*
X3069Y1699D01*
X0Y1698D02*
X7Y1698D01*
X3062Y1698D02*
X3069Y1698D01*
X0Y1697D02*
X7Y1697D01*
X3062Y1697D02*
X3069Y1697D01*
X0Y1696D02*
X7Y1696D01*
X3062Y1696D02*
X3069Y1696D01*
X0Y1695D02*
X7Y1695D01*
X3062Y1695D02*
X3069Y1695D01*
X0Y1694D02*
X7Y1694D01*
X3062Y1694D02*
X3069Y1694D01*
X0Y1693D02*
X7Y1693D01*
X3062Y1693D02*
X3069Y1693D01*
X0Y1692D02*
X7Y1692D01*
X3062Y1692D02*
X3069Y1692D01*
X0Y1691D02*
X7Y1691D01*
X3062Y1691D02*
X3069Y1691D01*
X0Y1690D02*
X7Y1690D01*
X3062Y1690D02*
X3069Y1690D01*
X0Y1689D02*
X7Y1689D01*
X3062Y1689D02*
X3069Y1689D01*
X0Y1688D02*
X7Y1688D01*
X3062Y1688D02*
X3069Y1688D01*
X0Y1687D02*
X7Y1687D01*
X3062Y1687D02*
X3069Y1687D01*
X0Y1686D02*
X7Y1686D01*
X3062Y1686D02*
X3069Y1686D01*
X0Y1685D02*
X7Y1685D01*
X3062Y1685D02*
X3069Y1685D01*
X0Y1684D02*
X7Y1684D01*
X3062Y1684D02*
X3069Y1684D01*
X0Y1683D02*
X7Y1683D01*
X3062Y1683D02*
X3069Y1683D01*
X0Y1682D02*
X7Y1682D01*
X3062Y1682D02*
X3069Y1682D01*
X0Y1681D02*
X7Y1681D01*
X3062Y1681D02*
X3069Y1681D01*
X0Y1680D02*
X7Y1680D01*
X3062Y1680D02*
X3069Y1680D01*
X0Y1679D02*
X7Y1679D01*
X3062Y1679D02*
X3069Y1679D01*
X0Y1678D02*
X7Y1678D01*
X3062Y1678D02*
X3069Y1678D01*
X0Y1677D02*
X7Y1677D01*
X3062Y1677D02*
X3069Y1677D01*
X0Y1676D02*
X7Y1676D01*
X3062Y1676D02*
X3069Y1676D01*
X0Y1675D02*
X7Y1675D01*
X3062Y1675D02*
X3069Y1675D01*
X0Y1674D02*
X7Y1674D01*
X3062Y1674D02*
X3069Y1674D01*
X0Y1673D02*
X7Y1673D01*
X3062Y1673D02*
X3069Y1673D01*
X0Y1672D02*
X7Y1672D01*
X3062Y1672D02*
X3069Y1672D01*
X0Y1671D02*
X7Y1671D01*
X3062Y1671D02*
X3069Y1671D01*
X0Y1670D02*
X7Y1670D01*
X3062Y1670D02*
X3069Y1670D01*
X0Y1669D02*
X7Y1669D01*
X3062Y1669D02*
X3069Y1669D01*
X0Y1668D02*
X7Y1668D01*
X3062Y1668D02*
X3069Y1668D01*
X0Y1667D02*
X7Y1667D01*
X3062Y1667D02*
X3069Y1667D01*
X0Y1666D02*
X7Y1666D01*
X3062Y1666D02*
X3069Y1666D01*
X0Y1665D02*
X7Y1665D01*
X3062Y1665D02*
X3069Y1665D01*
X0Y1664D02*
X7Y1664D01*
X3062Y1664D02*
X3069Y1664D01*
X0Y1663D02*
X7Y1663D01*
X3062Y1663D02*
X3069Y1663D01*
X0Y1662D02*
X7Y1662D01*
X3062Y1662D02*
X3069Y1662D01*
X0Y1661D02*
X7Y1661D01*
X3062Y1661D02*
X3069Y1661D01*
X0Y1660D02*
X7Y1660D01*
X3062Y1660D02*
X3069Y1660D01*
X0Y1659D02*
X7Y1659D01*
X3062Y1659D02*
X3069Y1659D01*
X0Y1658D02*
X7Y1658D01*
X3062Y1658D02*
X3069Y1658D01*
X0Y1657D02*
X7Y1657D01*
X3062Y1657D02*
X3069Y1657D01*
X0Y1656D02*
X7Y1656D01*
X3062Y1656D02*
X3069Y1656D01*
X0Y1655D02*
X7Y1655D01*
X3062Y1655D02*
X3069Y1655D01*
X0Y1654D02*
X7Y1654D01*
X3062Y1654D02*
X3069Y1654D01*
X0Y1653D02*
X7Y1653D01*
X3062Y1653D02*
X3069Y1653D01*
X0Y1652D02*
X7Y1652D01*
X3062Y1652D02*
X3069Y1652D01*
X0Y1651D02*
X7Y1651D01*
X3062Y1651D02*
X3069Y1651D01*
X0Y1650D02*
X7Y1650D01*
X3062Y1650D02*
X3069Y1650D01*
X0Y1649D02*
X7Y1649D01*
X3062Y1649D02*
X3069Y1649D01*
X0Y1648D02*
X7Y1648D01*
X3062Y1648D02*
X3069Y1648D01*
X0Y1647D02*
X7Y1647D01*
X3062Y1647D02*
X3069Y1647D01*
X0Y1646D02*
X7Y1646D01*
X3062Y1646D02*
X3069Y1646D01*
X0Y1645D02*
X7Y1645D01*
X3062Y1645D02*
X3069Y1645D01*
X0Y1644D02*
X7Y1644D01*
X3062Y1644D02*
X3069Y1644D01*
X0Y1643D02*
X7Y1643D01*
X3062Y1643D02*
X3069Y1643D01*
X0Y1642D02*
X7Y1642D01*
X3062Y1642D02*
X3069Y1642D01*
X0Y1641D02*
X7Y1641D01*
X3062Y1641D02*
X3069Y1641D01*
X0Y1640D02*
X7Y1640D01*
X3062Y1640D02*
X3069Y1640D01*
X0Y1639D02*
X7Y1639D01*
X3062Y1639D02*
X3069Y1639D01*
X0Y1638D02*
X7Y1638D01*
X3062Y1638D02*
X3069Y1638D01*
X0Y1637D02*
X7Y1637D01*
X3062Y1637D02*
X3069Y1637D01*
X0Y1636D02*
X7Y1636D01*
X3062Y1636D02*
X3069Y1636D01*
X0Y1635D02*
X7Y1635D01*
X3062Y1635D02*
X3069Y1635D01*
X0Y1634D02*
X7Y1634D01*
X3062Y1634D02*
X3069Y1634D01*
X0Y1633D02*
X7Y1633D01*
X3062Y1633D02*
X3069Y1633D01*
X0Y1632D02*
X7Y1632D01*
X3062Y1632D02*
X3069Y1632D01*
X0Y1631D02*
X7Y1631D01*
X3062Y1631D02*
X3069Y1631D01*
X0Y1630D02*
X7Y1630D01*
X3062Y1630D02*
X3069Y1630D01*
X0Y1629D02*
X7Y1629D01*
X3062Y1629D02*
X3069Y1629D01*
X0Y1628D02*
X7Y1628D01*
X3062Y1628D02*
X3069Y1628D01*
X0Y1627D02*
X7Y1627D01*
X3062Y1627D02*
X3069Y1627D01*
X0Y1626D02*
X7Y1626D01*
X3062Y1626D02*
X3069Y1626D01*
X0Y1625D02*
X7Y1625D01*
X3062Y1625D02*
X3069Y1625D01*
X0Y1624D02*
X7Y1624D01*
X3062Y1624D02*
X3069Y1624D01*
X0Y1623D02*
X7Y1623D01*
X3062Y1623D02*
X3069Y1623D01*
X0Y1622D02*
X7Y1622D01*
X3062Y1622D02*
X3069Y1622D01*
X0Y1621D02*
X7Y1621D01*
X3062Y1621D02*
X3069Y1621D01*
X0Y1620D02*
X7Y1620D01*
X3062Y1620D02*
X3069Y1620D01*
X0Y1619D02*
X7Y1619D01*
X3062Y1619D02*
X3069Y1619D01*
X0Y1618D02*
X7Y1618D01*
X3062Y1618D02*
X3069Y1618D01*
X0Y1617D02*
X7Y1617D01*
X3062Y1617D02*
X3069Y1617D01*
X0Y1616D02*
X7Y1616D01*
X3062Y1616D02*
X3069Y1616D01*
X0Y1615D02*
X7Y1615D01*
X3062Y1615D02*
X3069Y1615D01*
X0Y1614D02*
X7Y1614D01*
X3062Y1614D02*
X3069Y1614D01*
X0Y1613D02*
X7Y1613D01*
X3062Y1613D02*
X3069Y1613D01*
X0Y1612D02*
X7Y1612D01*
X3062Y1612D02*
X3069Y1612D01*
X0Y1611D02*
X7Y1611D01*
X3062Y1611D02*
X3069Y1611D01*
X0Y1610D02*
X7Y1610D01*
X3062Y1610D02*
X3069Y1610D01*
X0Y1609D02*
X7Y1609D01*
X3062Y1609D02*
X3069Y1609D01*
X0Y1608D02*
X7Y1608D01*
X3062Y1608D02*
X3069Y1608D01*
X0Y1607D02*
X7Y1607D01*
X3062Y1607D02*
X3069Y1607D01*
X0Y1606D02*
X7Y1606D01*
X3062Y1606D02*
X3069Y1606D01*
X0Y1605D02*
X7Y1605D01*
X3062Y1605D02*
X3069Y1605D01*
X0Y1604D02*
X7Y1604D01*
X3062Y1604D02*
X3069Y1604D01*
X0Y1603D02*
X7Y1603D01*
X3062Y1603D02*
X3069Y1603D01*
X0Y1602D02*
X7Y1602D01*
X3062Y1602D02*
X3069Y1602D01*
X0Y1601D02*
X7Y1601D01*
X3062Y1601D02*
X3069Y1601D01*
X0Y1600D02*
X7Y1600D01*
X3062Y1600D02*
X3069Y1600D01*
X0Y1599D02*
X7Y1599D01*
X3062Y1599D02*
X3069Y1599D01*
X0Y1598D02*
X7Y1598D01*
X3062Y1598D02*
X3069Y1598D01*
X0Y1597D02*
X7Y1597D01*
X3062Y1597D02*
X3069Y1597D01*
X0Y1596D02*
X7Y1596D01*
X3062Y1596D02*
X3069Y1596D01*
X0Y1595D02*
X7Y1595D01*
X3062Y1595D02*
X3069Y1595D01*
X0Y1594D02*
X7Y1594D01*
X3062Y1594D02*
X3069Y1594D01*
X0Y1593D02*
X7Y1593D01*
X3062Y1593D02*
X3069Y1593D01*
X0Y1592D02*
X7Y1592D01*
X3062Y1592D02*
X3069Y1592D01*
X0Y1591D02*
X7Y1591D01*
X3062Y1591D02*
X3069Y1591D01*
X0Y1590D02*
X7Y1590D01*
X3062Y1590D02*
X3069Y1590D01*
X0Y1589D02*
X7Y1589D01*
X3062Y1589D02*
X3069Y1589D01*
X0Y1588D02*
X7Y1588D01*
X3062Y1588D02*
X3069Y1588D01*
X0Y1587D02*
X7Y1587D01*
X3062Y1587D02*
X3069Y1587D01*
X0Y1586D02*
X7Y1586D01*
X3062Y1586D02*
X3069Y1586D01*
X0Y1585D02*
X7Y1585D01*
X3062Y1585D02*
X3069Y1585D01*
X0Y1584D02*
X7Y1584D01*
X3062Y1584D02*
X3069Y1584D01*
X0Y1583D02*
X7Y1583D01*
X3062Y1583D02*
X3069Y1583D01*
X0Y1582D02*
X7Y1582D01*
X3062Y1582D02*
X3069Y1582D01*
X0Y1581D02*
X7Y1581D01*
X3062Y1581D02*
X3069Y1581D01*
X0Y1580D02*
X7Y1580D01*
X3062Y1580D02*
X3069Y1580D01*
X0Y1579D02*
X7Y1579D01*
X3062Y1579D02*
X3069Y1579D01*
X0Y1578D02*
X7Y1578D01*
X3062Y1578D02*
X3069Y1578D01*
X0Y1577D02*
X7Y1577D01*
X3062Y1577D02*
X3069Y1577D01*
X0Y1576D02*
X7Y1576D01*
X3062Y1576D02*
X3069Y1576D01*
X0Y1575D02*
X7Y1575D01*
X3062Y1575D02*
X3069Y1575D01*
X0Y1574D02*
X7Y1574D01*
X3062Y1574D02*
X3069Y1574D01*
X0Y1573D02*
X7Y1573D01*
X3062Y1573D02*
X3069Y1573D01*
X0Y1572D02*
X7Y1572D01*
X3062Y1572D02*
X3069Y1572D01*
X0Y1571D02*
X7Y1571D01*
X3062Y1571D02*
X3069Y1571D01*
X0Y1570D02*
X7Y1570D01*
X3062Y1570D02*
X3069Y1570D01*
X0Y1569D02*
X7Y1569D01*
X3062Y1569D02*
X3069Y1569D01*
X0Y1568D02*
X7Y1568D01*
X3062Y1568D02*
X3069Y1568D01*
X0Y1567D02*
X7Y1567D01*
X3062Y1567D02*
X3069Y1567D01*
X0Y1566D02*
X7Y1566D01*
X3062Y1566D02*
X3069Y1566D01*
X0Y1565D02*
X7Y1565D01*
X3062Y1565D02*
X3069Y1565D01*
X0Y1564D02*
X7Y1564D01*
X3062Y1564D02*
X3069Y1564D01*
X0Y1563D02*
X7Y1563D01*
X3062Y1563D02*
X3069Y1563D01*
X0Y1562D02*
X7Y1562D01*
X3062Y1562D02*
X3069Y1562D01*
X0Y1561D02*
X7Y1561D01*
X3062Y1561D02*
X3069Y1561D01*
X0Y1560D02*
X7Y1560D01*
X3062Y1560D02*
X3069Y1560D01*
X0Y1559D02*
X7Y1559D01*
X3062Y1559D02*
X3069Y1559D01*
X0Y1558D02*
X7Y1558D01*
X3062Y1558D02*
X3069Y1558D01*
X0Y1557D02*
X7Y1557D01*
X3062Y1557D02*
X3069Y1557D01*
X0Y1556D02*
X7Y1556D01*
X3062Y1556D02*
X3069Y1556D01*
X0Y1555D02*
X7Y1555D01*
X3062Y1555D02*
X3069Y1555D01*
X0Y1554D02*
X7Y1554D01*
X3062Y1554D02*
X3069Y1554D01*
X0Y1553D02*
X7Y1553D01*
X3062Y1553D02*
X3069Y1553D01*
X0Y1552D02*
X7Y1552D01*
X3062Y1552D02*
X3069Y1552D01*
X0Y1551D02*
X7Y1551D01*
X3062Y1551D02*
X3069Y1551D01*
X0Y1550D02*
X7Y1550D01*
X3062Y1550D02*
X3069Y1550D01*
X0Y1549D02*
X7Y1549D01*
X3062Y1549D02*
X3069Y1549D01*
X0Y1548D02*
X7Y1548D01*
X3062Y1548D02*
X3069Y1548D01*
X0Y1547D02*
X7Y1547D01*
X3062Y1547D02*
X3069Y1547D01*
X0Y1546D02*
X7Y1546D01*
X3062Y1546D02*
X3069Y1546D01*
X0Y1545D02*
X7Y1545D01*
X3062Y1545D02*
X3069Y1545D01*
X0Y1544D02*
X7Y1544D01*
X3062Y1544D02*
X3069Y1544D01*
X0Y1543D02*
X7Y1543D01*
X3062Y1543D02*
X3069Y1543D01*
X0Y1542D02*
X7Y1542D01*
X3062Y1542D02*
X3069Y1542D01*
X0Y1541D02*
X7Y1541D01*
X3062Y1541D02*
X3069Y1541D01*
X0Y1540D02*
X7Y1540D01*
X3062Y1540D02*
X3069Y1540D01*
X0Y1539D02*
X7Y1539D01*
X3062Y1539D02*
X3069Y1539D01*
X0Y1538D02*
X7Y1538D01*
X3062Y1538D02*
X3069Y1538D01*
X0Y1537D02*
X7Y1537D01*
X3062Y1537D02*
X3069Y1537D01*
X0Y1536D02*
X7Y1536D01*
X3062Y1536D02*
X3069Y1536D01*
X0Y1535D02*
X7Y1535D01*
X3062Y1535D02*
X3069Y1535D01*
X0Y1534D02*
X7Y1534D01*
X3062Y1534D02*
X3069Y1534D01*
X0Y1533D02*
X7Y1533D01*
X3062Y1533D02*
X3069Y1533D01*
X0Y1532D02*
X7Y1532D01*
X3062Y1532D02*
X3069Y1532D01*
X0Y1531D02*
X7Y1531D01*
X3062Y1531D02*
X3069Y1531D01*
X0Y1530D02*
X7Y1530D01*
X3062Y1530D02*
X3069Y1530D01*
X0Y1529D02*
X7Y1529D01*
X3062Y1529D02*
X3069Y1529D01*
X0Y1528D02*
X7Y1528D01*
X3062Y1528D02*
X3069Y1528D01*
X0Y1527D02*
X7Y1527D01*
X3062Y1527D02*
X3069Y1527D01*
X0Y1526D02*
X7Y1526D01*
X3062Y1526D02*
X3069Y1526D01*
X0Y1525D02*
X7Y1525D01*
X3062Y1525D02*
X3069Y1525D01*
X0Y1524D02*
X7Y1524D01*
X3062Y1524D02*
X3069Y1524D01*
X0Y1523D02*
X7Y1523D01*
X3062Y1523D02*
X3069Y1523D01*
X0Y1522D02*
X7Y1522D01*
X3062Y1522D02*
X3069Y1522D01*
X0Y1521D02*
X7Y1521D01*
X3062Y1521D02*
X3069Y1521D01*
X0Y1520D02*
X7Y1520D01*
X3062Y1520D02*
X3069Y1520D01*
X0Y1519D02*
X7Y1519D01*
X3062Y1519D02*
X3069Y1519D01*
X0Y1518D02*
X7Y1518D01*
X3062Y1518D02*
X3069Y1518D01*
X0Y1517D02*
X7Y1517D01*
X3062Y1517D02*
X3069Y1517D01*
X0Y1516D02*
X7Y1516D01*
X3062Y1516D02*
X3069Y1516D01*
X0Y1515D02*
X7Y1515D01*
X3062Y1515D02*
X3069Y1515D01*
X0Y1514D02*
X7Y1514D01*
X3062Y1514D02*
X3069Y1514D01*
X0Y1513D02*
X7Y1513D01*
X3062Y1513D02*
X3069Y1513D01*
X0Y1512D02*
X7Y1512D01*
X3062Y1512D02*
X3069Y1512D01*
X0Y1511D02*
X7Y1511D01*
X3062Y1511D02*
X3069Y1511D01*
X0Y1510D02*
X7Y1510D01*
X3062Y1510D02*
X3069Y1510D01*
X0Y1509D02*
X7Y1509D01*
X3062Y1509D02*
X3069Y1509D01*
X0Y1508D02*
X7Y1508D01*
X3062Y1508D02*
X3069Y1508D01*
X0Y1507D02*
X7Y1507D01*
X3062Y1507D02*
X3069Y1507D01*
X0Y1506D02*
X7Y1506D01*
X3062Y1506D02*
X3069Y1506D01*
X0Y1505D02*
X7Y1505D01*
X3062Y1505D02*
X3069Y1505D01*
X0Y1504D02*
X7Y1504D01*
X3062Y1504D02*
X3069Y1504D01*
X0Y1503D02*
X7Y1503D01*
X3062Y1503D02*
X3069Y1503D01*
X0Y1502D02*
X7Y1502D01*
X3062Y1502D02*
X3069Y1502D01*
X0Y1501D02*
X7Y1501D01*
X3062Y1501D02*
X3069Y1501D01*
X0Y1500D02*
X7Y1500D01*
X3062Y1500D02*
X3069Y1500D01*
X0Y1499D02*
X7Y1499D01*
X3062Y1499D02*
X3069Y1499D01*
X0Y1498D02*
X7Y1498D01*
X3062Y1498D02*
X3069Y1498D01*
X0Y1497D02*
X7Y1497D01*
X3062Y1497D02*
X3069Y1497D01*
X0Y1496D02*
X7Y1496D01*
X3062Y1496D02*
X3069Y1496D01*
X0Y1495D02*
X7Y1495D01*
X3062Y1495D02*
X3069Y1495D01*
X0Y1494D02*
X7Y1494D01*
X3062Y1494D02*
X3069Y1494D01*
X0Y1493D02*
X7Y1493D01*
X3062Y1493D02*
X3069Y1493D01*
X0Y1492D02*
X7Y1492D01*
X3062Y1492D02*
X3069Y1492D01*
X0Y1491D02*
X7Y1491D01*
X3062Y1491D02*
X3069Y1491D01*
X0Y1490D02*
X7Y1490D01*
X3062Y1490D02*
X3069Y1490D01*
X0Y1489D02*
X7Y1489D01*
X3062Y1489D02*
X3069Y1489D01*
X0Y1488D02*
X7Y1488D01*
X3062Y1488D02*
X3069Y1488D01*
X0Y1487D02*
X7Y1487D01*
X3062Y1487D02*
X3069Y1487D01*
X0Y1486D02*
X7Y1486D01*
X3062Y1486D02*
X3069Y1486D01*
X0Y1485D02*
X7Y1485D01*
X3062Y1485D02*
X3069Y1485D01*
X0Y1484D02*
X7Y1484D01*
X3062Y1484D02*
X3069Y1484D01*
X0Y1483D02*
X7Y1483D01*
X3062Y1483D02*
X3069Y1483D01*
X0Y1482D02*
X7Y1482D01*
X3062Y1482D02*
X3069Y1482D01*
X0Y1481D02*
X7Y1481D01*
X3062Y1481D02*
X3069Y1481D01*
X0Y1480D02*
X7Y1480D01*
X3062Y1480D02*
X3069Y1480D01*
X0Y1479D02*
X7Y1479D01*
X3062Y1479D02*
X3069Y1479D01*
X0Y1478D02*
X7Y1478D01*
X3062Y1478D02*
X3069Y1478D01*
X0Y1477D02*
X7Y1477D01*
X3062Y1477D02*
X3069Y1477D01*
X0Y1476D02*
X7Y1476D01*
X3062Y1476D02*
X3069Y1476D01*
X0Y1475D02*
X7Y1475D01*
X3062Y1475D02*
X3069Y1475D01*
X0Y1474D02*
X7Y1474D01*
X3062Y1474D02*
X3069Y1474D01*
X0Y1473D02*
X7Y1473D01*
X3062Y1473D02*
X3069Y1473D01*
X0Y1472D02*
X7Y1472D01*
X3062Y1472D02*
X3069Y1472D01*
X0Y1471D02*
X7Y1471D01*
X3062Y1471D02*
X3069Y1471D01*
X0Y1470D02*
X7Y1470D01*
X3062Y1470D02*
X3069Y1470D01*
X0Y1469D02*
X7Y1469D01*
X3062Y1469D02*
X3069Y1469D01*
X0Y1468D02*
X7Y1468D01*
X3062Y1468D02*
X3069Y1468D01*
X0Y1467D02*
X7Y1467D01*
X3062Y1467D02*
X3069Y1467D01*
X0Y1466D02*
X7Y1466D01*
X3062Y1466D02*
X3069Y1466D01*
X0Y1465D02*
X7Y1465D01*
X3062Y1465D02*
X3069Y1465D01*
X0Y1464D02*
X7Y1464D01*
X3062Y1464D02*
X3069Y1464D01*
X0Y1463D02*
X7Y1463D01*
X3062Y1463D02*
X3069Y1463D01*
X0Y1462D02*
X7Y1462D01*
X3062Y1462D02*
X3069Y1462D01*
X0Y1461D02*
X7Y1461D01*
X3062Y1461D02*
X3069Y1461D01*
X0Y1460D02*
X7Y1460D01*
X3062Y1460D02*
X3069Y1460D01*
X0Y1459D02*
X7Y1459D01*
X3062Y1459D02*
X3069Y1459D01*
X0Y1458D02*
X7Y1458D01*
X3062Y1458D02*
X3069Y1458D01*
X0Y1457D02*
X7Y1457D01*
X3062Y1457D02*
X3069Y1457D01*
X0Y1456D02*
X7Y1456D01*
X3062Y1456D02*
X3069Y1456D01*
X0Y1455D02*
X7Y1455D01*
X3062Y1455D02*
X3069Y1455D01*
X0Y1454D02*
X7Y1454D01*
X3062Y1454D02*
X3069Y1454D01*
X0Y1453D02*
X7Y1453D01*
X3062Y1453D02*
X3069Y1453D01*
X0Y1452D02*
X7Y1452D01*
X3062Y1452D02*
X3069Y1452D01*
X0Y1451D02*
X7Y1451D01*
X3062Y1451D02*
X3069Y1451D01*
X0Y1450D02*
X7Y1450D01*
X3062Y1450D02*
X3069Y1450D01*
X0Y1449D02*
X7Y1449D01*
X3062Y1449D02*
X3069Y1449D01*
X0Y1448D02*
X7Y1448D01*
X3062Y1448D02*
X3069Y1448D01*
X0Y1447D02*
X7Y1447D01*
X3062Y1447D02*
X3069Y1447D01*
X0Y1446D02*
X7Y1446D01*
X3062Y1446D02*
X3069Y1446D01*
X0Y1445D02*
X7Y1445D01*
X3062Y1445D02*
X3069Y1445D01*
X0Y1444D02*
X7Y1444D01*
X3062Y1444D02*
X3069Y1444D01*
X0Y1443D02*
X7Y1443D01*
X3062Y1443D02*
X3069Y1443D01*
X0Y1442D02*
X7Y1442D01*
X3062Y1442D02*
X3069Y1442D01*
X0Y1441D02*
X7Y1441D01*
X3062Y1441D02*
X3069Y1441D01*
X0Y1440D02*
X7Y1440D01*
X3062Y1440D02*
X3069Y1440D01*
X0Y1439D02*
X7Y1439D01*
X3062Y1439D02*
X3069Y1439D01*
X0Y1438D02*
X7Y1438D01*
X3062Y1438D02*
X3069Y1438D01*
X0Y1437D02*
X7Y1437D01*
X3062Y1437D02*
X3069Y1437D01*
X0Y1436D02*
X7Y1436D01*
X3062Y1436D02*
X3069Y1436D01*
X0Y1435D02*
X7Y1435D01*
X3062Y1435D02*
X3069Y1435D01*
X0Y1434D02*
X7Y1434D01*
X3062Y1434D02*
X3069Y1434D01*
X0Y1433D02*
X7Y1433D01*
X3062Y1433D02*
X3069Y1433D01*
X0Y1432D02*
X7Y1432D01*
X3062Y1432D02*
X3069Y1432D01*
X0Y1431D02*
X7Y1431D01*
X3062Y1431D02*
X3069Y1431D01*
X0Y1430D02*
X7Y1430D01*
X3062Y1430D02*
X3069Y1430D01*
X0Y1429D02*
X7Y1429D01*
X3062Y1429D02*
X3069Y1429D01*
X0Y1428D02*
X7Y1428D01*
X3062Y1428D02*
X3069Y1428D01*
X0Y1427D02*
X7Y1427D01*
X3062Y1427D02*
X3069Y1427D01*
X0Y1426D02*
X7Y1426D01*
X3062Y1426D02*
X3069Y1426D01*
X0Y1425D02*
X7Y1425D01*
X3062Y1425D02*
X3069Y1425D01*
X0Y1424D02*
X7Y1424D01*
X3062Y1424D02*
X3069Y1424D01*
X0Y1423D02*
X7Y1423D01*
X3062Y1423D02*
X3069Y1423D01*
X0Y1422D02*
X7Y1422D01*
X3062Y1422D02*
X3069Y1422D01*
X0Y1421D02*
X7Y1421D01*
X3062Y1421D02*
X3069Y1421D01*
X0Y1420D02*
X7Y1420D01*
X3062Y1420D02*
X3069Y1420D01*
X0Y1419D02*
X7Y1419D01*
X3062Y1419D02*
X3069Y1419D01*
X0Y1418D02*
X7Y1418D01*
X3062Y1418D02*
X3069Y1418D01*
X0Y1417D02*
X7Y1417D01*
X3062Y1417D02*
X3069Y1417D01*
X0Y1416D02*
X7Y1416D01*
X3062Y1416D02*
X3069Y1416D01*
X0Y1415D02*
X7Y1415D01*
X3062Y1415D02*
X3069Y1415D01*
X0Y1414D02*
X7Y1414D01*
X3062Y1414D02*
X3069Y1414D01*
X0Y1413D02*
X7Y1413D01*
X3062Y1413D02*
X3069Y1413D01*
X0Y1412D02*
X7Y1412D01*
X3062Y1412D02*
X3069Y1412D01*
X0Y1411D02*
X7Y1411D01*
X3062Y1411D02*
X3069Y1411D01*
X0Y1410D02*
X7Y1410D01*
X3062Y1410D02*
X3069Y1410D01*
X0Y1409D02*
X7Y1409D01*
X3062Y1409D02*
X3069Y1409D01*
X0Y1408D02*
X7Y1408D01*
X3062Y1408D02*
X3069Y1408D01*
X0Y1407D02*
X7Y1407D01*
X3062Y1407D02*
X3069Y1407D01*
X0Y1406D02*
X7Y1406D01*
X3062Y1406D02*
X3069Y1406D01*
X0Y1405D02*
X7Y1405D01*
X3062Y1405D02*
X3069Y1405D01*
X0Y1404D02*
X7Y1404D01*
X3062Y1404D02*
X3069Y1404D01*
X0Y1403D02*
X7Y1403D01*
X3062Y1403D02*
X3069Y1403D01*
X0Y1402D02*
X7Y1402D01*
X3062Y1402D02*
X3069Y1402D01*
X0Y1401D02*
X7Y1401D01*
X3062Y1401D02*
X3069Y1401D01*
X0Y1400D02*
X7Y1400D01*
X3062Y1400D02*
X3069Y1400D01*
X0Y1399D02*
X7Y1399D01*
X3062Y1399D02*
X3069Y1399D01*
X0Y1398D02*
X7Y1398D01*
X3062Y1398D02*
X3069Y1398D01*
X0Y1397D02*
X7Y1397D01*
X3062Y1397D02*
X3069Y1397D01*
X0Y1396D02*
X7Y1396D01*
X3062Y1396D02*
X3069Y1396D01*
X0Y1395D02*
X7Y1395D01*
X3062Y1395D02*
X3069Y1395D01*
X0Y1394D02*
X7Y1394D01*
X3062Y1394D02*
X3069Y1394D01*
X0Y1393D02*
X7Y1393D01*
X3062Y1393D02*
X3069Y1393D01*
X0Y1392D02*
X7Y1392D01*
X3062Y1392D02*
X3069Y1392D01*
X0Y1391D02*
X7Y1391D01*
X3062Y1391D02*
X3069Y1391D01*
X0Y1390D02*
X7Y1390D01*
X3062Y1390D02*
X3069Y1390D01*
X0Y1389D02*
X7Y1389D01*
X3062Y1389D02*
X3069Y1389D01*
X0Y1388D02*
X7Y1388D01*
X3062Y1388D02*
X3069Y1388D01*
X0Y1387D02*
X7Y1387D01*
X3062Y1387D02*
X3069Y1387D01*
X0Y1386D02*
X7Y1386D01*
X3062Y1386D02*
X3069Y1386D01*
X0Y1385D02*
X7Y1385D01*
X3062Y1385D02*
X3069Y1385D01*
X0Y1384D02*
X7Y1384D01*
X3062Y1384D02*
X3069Y1384D01*
X0Y1383D02*
X7Y1383D01*
X3062Y1383D02*
X3069Y1383D01*
X0Y1382D02*
X7Y1382D01*
X3062Y1382D02*
X3069Y1382D01*
X0Y1381D02*
X7Y1381D01*
X3062Y1381D02*
X3069Y1381D01*
X0Y1380D02*
X7Y1380D01*
X3062Y1380D02*
X3069Y1380D01*
X0Y1379D02*
X7Y1379D01*
X3062Y1379D02*
X3069Y1379D01*
X0Y1378D02*
X7Y1378D01*
X3062Y1378D02*
X3069Y1378D01*
X0Y1377D02*
X7Y1377D01*
X3062Y1377D02*
X3069Y1377D01*
X0Y1376D02*
X7Y1376D01*
X3062Y1376D02*
X3069Y1376D01*
X0Y1375D02*
X7Y1375D01*
X3062Y1375D02*
X3069Y1375D01*
X0Y1374D02*
X7Y1374D01*
X3062Y1374D02*
X3069Y1374D01*
X0Y1373D02*
X7Y1373D01*
X3062Y1373D02*
X3069Y1373D01*
X0Y1372D02*
X7Y1372D01*
X3062Y1372D02*
X3069Y1372D01*
X0Y1371D02*
X7Y1371D01*
X3062Y1371D02*
X3069Y1371D01*
X0Y1370D02*
X7Y1370D01*
X3062Y1370D02*
X3069Y1370D01*
X0Y1369D02*
X7Y1369D01*
X3062Y1369D02*
X3069Y1369D01*
X0Y1368D02*
X7Y1368D01*
X3062Y1368D02*
X3069Y1368D01*
X0Y1367D02*
X7Y1367D01*
X3062Y1367D02*
X3069Y1367D01*
X0Y1366D02*
X7Y1366D01*
X3062Y1366D02*
X3069Y1366D01*
X0Y1365D02*
X7Y1365D01*
X3062Y1365D02*
X3069Y1365D01*
X0Y1364D02*
X7Y1364D01*
X3062Y1364D02*
X3069Y1364D01*
X0Y1363D02*
X7Y1363D01*
X3062Y1363D02*
X3069Y1363D01*
X0Y1362D02*
X7Y1362D01*
X3062Y1362D02*
X3069Y1362D01*
X0Y1361D02*
X7Y1361D01*
X3062Y1361D02*
X3069Y1361D01*
X0Y1360D02*
X7Y1360D01*
X3062Y1360D02*
X3069Y1360D01*
X0Y1359D02*
X7Y1359D01*
X3062Y1359D02*
X3069Y1359D01*
X0Y1358D02*
X7Y1358D01*
X3062Y1358D02*
X3069Y1358D01*
X0Y1357D02*
X7Y1357D01*
X3062Y1357D02*
X3069Y1357D01*
X0Y1356D02*
X7Y1356D01*
X3062Y1356D02*
X3069Y1356D01*
X0Y1355D02*
X7Y1355D01*
X3062Y1355D02*
X3069Y1355D01*
X0Y1354D02*
X7Y1354D01*
X3062Y1354D02*
X3069Y1354D01*
X0Y1353D02*
X7Y1353D01*
X3062Y1353D02*
X3069Y1353D01*
X0Y1352D02*
X7Y1352D01*
X3062Y1352D02*
X3069Y1352D01*
X0Y1351D02*
X7Y1351D01*
X3062Y1351D02*
X3069Y1351D01*
X0Y1350D02*
X7Y1350D01*
X3062Y1350D02*
X3069Y1350D01*
X0Y1349D02*
X7Y1349D01*
X3062Y1349D02*
X3069Y1349D01*
X0Y1348D02*
X7Y1348D01*
X3062Y1348D02*
X3069Y1348D01*
X0Y1347D02*
X7Y1347D01*
X3062Y1347D02*
X3069Y1347D01*
X0Y1346D02*
X7Y1346D01*
X3062Y1346D02*
X3069Y1346D01*
X0Y1345D02*
X7Y1345D01*
X3062Y1345D02*
X3069Y1345D01*
X0Y1344D02*
X7Y1344D01*
X3062Y1344D02*
X3069Y1344D01*
X0Y1343D02*
X7Y1343D01*
X3062Y1343D02*
X3069Y1343D01*
X0Y1342D02*
X7Y1342D01*
X3062Y1342D02*
X3069Y1342D01*
X0Y1341D02*
X7Y1341D01*
X3062Y1341D02*
X3069Y1341D01*
X0Y1340D02*
X7Y1340D01*
X3062Y1340D02*
X3069Y1340D01*
X0Y1339D02*
X7Y1339D01*
X3062Y1339D02*
X3069Y1339D01*
X0Y1338D02*
X7Y1338D01*
X3062Y1338D02*
X3069Y1338D01*
X0Y1337D02*
X7Y1337D01*
X3062Y1337D02*
X3069Y1337D01*
X0Y1336D02*
X7Y1336D01*
X3062Y1336D02*
X3069Y1336D01*
X0Y1335D02*
X7Y1335D01*
X3062Y1335D02*
X3069Y1335D01*
X0Y1334D02*
X7Y1334D01*
X3062Y1334D02*
X3069Y1334D01*
X0Y1333D02*
X7Y1333D01*
X3062Y1333D02*
X3069Y1333D01*
X0Y1332D02*
X7Y1332D01*
X3062Y1332D02*
X3069Y1332D01*
X0Y1331D02*
X7Y1331D01*
X3062Y1331D02*
X3069Y1331D01*
X0Y1330D02*
X7Y1330D01*
X3062Y1330D02*
X3069Y1330D01*
X0Y1329D02*
X7Y1329D01*
X3062Y1329D02*
X3069Y1329D01*
X0Y1328D02*
X7Y1328D01*
X3062Y1328D02*
X3069Y1328D01*
X0Y1327D02*
X7Y1327D01*
X3062Y1327D02*
X3069Y1327D01*
X0Y1326D02*
X7Y1326D01*
X3062Y1326D02*
X3069Y1326D01*
X0Y1325D02*
X7Y1325D01*
X3062Y1325D02*
X3069Y1325D01*
X0Y1324D02*
X7Y1324D01*
X3062Y1324D02*
X3069Y1324D01*
X0Y1323D02*
X7Y1323D01*
X3062Y1323D02*
X3069Y1323D01*
X0Y1322D02*
X7Y1322D01*
X3062Y1322D02*
X3069Y1322D01*
X0Y1321D02*
X7Y1321D01*
X3062Y1321D02*
X3069Y1321D01*
X0Y1320D02*
X7Y1320D01*
X3062Y1320D02*
X3069Y1320D01*
X0Y1319D02*
X7Y1319D01*
X3062Y1319D02*
X3069Y1319D01*
X0Y1318D02*
X7Y1318D01*
X3062Y1318D02*
X3069Y1318D01*
X0Y1317D02*
X7Y1317D01*
X3062Y1317D02*
X3069Y1317D01*
X0Y1316D02*
X7Y1316D01*
X3062Y1316D02*
X3069Y1316D01*
X0Y1315D02*
X7Y1315D01*
X3062Y1315D02*
X3069Y1315D01*
X0Y1314D02*
X7Y1314D01*
X3062Y1314D02*
X3069Y1314D01*
X0Y1313D02*
X7Y1313D01*
X3062Y1313D02*
X3069Y1313D01*
X0Y1312D02*
X7Y1312D01*
X3062Y1312D02*
X3069Y1312D01*
X0Y1311D02*
X7Y1311D01*
X3062Y1311D02*
X3069Y1311D01*
X0Y1310D02*
X7Y1310D01*
X3062Y1310D02*
X3069Y1310D01*
X0Y1309D02*
X7Y1309D01*
X3062Y1309D02*
X3069Y1309D01*
X0Y1308D02*
X7Y1308D01*
X3062Y1308D02*
X3069Y1308D01*
X0Y1307D02*
X7Y1307D01*
X3062Y1307D02*
X3069Y1307D01*
X0Y1306D02*
X7Y1306D01*
X3062Y1306D02*
X3069Y1306D01*
X0Y1305D02*
X7Y1305D01*
X3062Y1305D02*
X3069Y1305D01*
X0Y1304D02*
X7Y1304D01*
X3062Y1304D02*
X3069Y1304D01*
X0Y1303D02*
X7Y1303D01*
X3062Y1303D02*
X3069Y1303D01*
X0Y1302D02*
X7Y1302D01*
X3062Y1302D02*
X3069Y1302D01*
X0Y1301D02*
X7Y1301D01*
X3062Y1301D02*
X3069Y1301D01*
X0Y1300D02*
X7Y1300D01*
X3062Y1300D02*
X3069Y1300D01*
X0Y1299D02*
X7Y1299D01*
X3062Y1299D02*
X3069Y1299D01*
X0Y1298D02*
X7Y1298D01*
X3062Y1298D02*
X3069Y1298D01*
X0Y1297D02*
X7Y1297D01*
X3062Y1297D02*
X3069Y1297D01*
X0Y1296D02*
X7Y1296D01*
X3062Y1296D02*
X3069Y1296D01*
X0Y1295D02*
X7Y1295D01*
X3062Y1295D02*
X3069Y1295D01*
X0Y1294D02*
X7Y1294D01*
X3062Y1294D02*
X3069Y1294D01*
X0Y1293D02*
X7Y1293D01*
X3062Y1293D02*
X3069Y1293D01*
X0Y1292D02*
X7Y1292D01*
X3062Y1292D02*
X3069Y1292D01*
X0Y1291D02*
X7Y1291D01*
X3062Y1291D02*
X3069Y1291D01*
X0Y1290D02*
X7Y1290D01*
X3062Y1290D02*
X3069Y1290D01*
X0Y1289D02*
X7Y1289D01*
X3062Y1289D02*
X3069Y1289D01*
X0Y1288D02*
X7Y1288D01*
X3062Y1288D02*
X3069Y1288D01*
X0Y1287D02*
X7Y1287D01*
X3062Y1287D02*
X3069Y1287D01*
X0Y1286D02*
X7Y1286D01*
X3062Y1286D02*
X3069Y1286D01*
X0Y1285D02*
X7Y1285D01*
X3062Y1285D02*
X3069Y1285D01*
X0Y1284D02*
X7Y1284D01*
X3062Y1284D02*
X3069Y1284D01*
X0Y1283D02*
X7Y1283D01*
X3062Y1283D02*
X3069Y1283D01*
X0Y1282D02*
X7Y1282D01*
X3062Y1282D02*
X3069Y1282D01*
X0Y1281D02*
X7Y1281D01*
X3062Y1281D02*
X3069Y1281D01*
X0Y1280D02*
X7Y1280D01*
X3062Y1280D02*
X3069Y1280D01*
X0Y1279D02*
X7Y1279D01*
X3062Y1279D02*
X3069Y1279D01*
X0Y1278D02*
X7Y1278D01*
X3062Y1278D02*
X3069Y1278D01*
X0Y1277D02*
X7Y1277D01*
X3062Y1277D02*
X3069Y1277D01*
X0Y1276D02*
X7Y1276D01*
X3062Y1276D02*
X3069Y1276D01*
X0Y1275D02*
X7Y1275D01*
X3062Y1275D02*
X3069Y1275D01*
X0Y1274D02*
X7Y1274D01*
X3062Y1274D02*
X3069Y1274D01*
X0Y1273D02*
X7Y1273D01*
X3062Y1273D02*
X3069Y1273D01*
X0Y1272D02*
X7Y1272D01*
X3062Y1272D02*
X3069Y1272D01*
X0Y1271D02*
X7Y1271D01*
X3062Y1271D02*
X3069Y1271D01*
X0Y1270D02*
X7Y1270D01*
X3062Y1270D02*
X3069Y1270D01*
X0Y1269D02*
X7Y1269D01*
X3062Y1269D02*
X3069Y1269D01*
X0Y1268D02*
X7Y1268D01*
X3062Y1268D02*
X3069Y1268D01*
X0Y1267D02*
X7Y1267D01*
X3062Y1267D02*
X3069Y1267D01*
X0Y1266D02*
X7Y1266D01*
X3062Y1266D02*
X3069Y1266D01*
X0Y1265D02*
X7Y1265D01*
X3062Y1265D02*
X3069Y1265D01*
X0Y1264D02*
X7Y1264D01*
X3062Y1264D02*
X3069Y1264D01*
X0Y1263D02*
X7Y1263D01*
X3062Y1263D02*
X3069Y1263D01*
X0Y1262D02*
X7Y1262D01*
X3062Y1262D02*
X3069Y1262D01*
X0Y1261D02*
X7Y1261D01*
X3062Y1261D02*
X3069Y1261D01*
X0Y1260D02*
X7Y1260D01*
X3062Y1260D02*
X3069Y1260D01*
X0Y1259D02*
X7Y1259D01*
X3062Y1259D02*
X3069Y1259D01*
X0Y1258D02*
X7Y1258D01*
X3062Y1258D02*
X3069Y1258D01*
X0Y1257D02*
X7Y1257D01*
X3062Y1257D02*
X3069Y1257D01*
X0Y1256D02*
X7Y1256D01*
X3062Y1256D02*
X3069Y1256D01*
X0Y1255D02*
X7Y1255D01*
X3062Y1255D02*
X3069Y1255D01*
X0Y1254D02*
X7Y1254D01*
X3062Y1254D02*
X3069Y1254D01*
X0Y1253D02*
X7Y1253D01*
X3062Y1253D02*
X3069Y1253D01*
X0Y1252D02*
X7Y1252D01*
X3062Y1252D02*
X3069Y1252D01*
X0Y1251D02*
X7Y1251D01*
X3062Y1251D02*
X3069Y1251D01*
X0Y1250D02*
X7Y1250D01*
X3062Y1250D02*
X3069Y1250D01*
X0Y1249D02*
X7Y1249D01*
X3062Y1249D02*
X3069Y1249D01*
X0Y1248D02*
X7Y1248D01*
X3062Y1248D02*
X3069Y1248D01*
X0Y1247D02*
X7Y1247D01*
X3062Y1247D02*
X3069Y1247D01*
X0Y1246D02*
X7Y1246D01*
X3062Y1246D02*
X3069Y1246D01*
X0Y1245D02*
X7Y1245D01*
X3062Y1245D02*
X3069Y1245D01*
X0Y1244D02*
X7Y1244D01*
X3062Y1244D02*
X3069Y1244D01*
X0Y1243D02*
X7Y1243D01*
X3062Y1243D02*
X3069Y1243D01*
X0Y1242D02*
X7Y1242D01*
X3062Y1242D02*
X3069Y1242D01*
X0Y1241D02*
X7Y1241D01*
X3062Y1241D02*
X3069Y1241D01*
X0Y1240D02*
X7Y1240D01*
X3062Y1240D02*
X3069Y1240D01*
X0Y1239D02*
X7Y1239D01*
X3062Y1239D02*
X3069Y1239D01*
X0Y1238D02*
X7Y1238D01*
X3062Y1238D02*
X3069Y1238D01*
X0Y1237D02*
X7Y1237D01*
X3062Y1237D02*
X3069Y1237D01*
X0Y1236D02*
X7Y1236D01*
X3062Y1236D02*
X3069Y1236D01*
X0Y1235D02*
X7Y1235D01*
X3062Y1235D02*
X3069Y1235D01*
X0Y1234D02*
X7Y1234D01*
X3062Y1234D02*
X3069Y1234D01*
X0Y1233D02*
X7Y1233D01*
X3062Y1233D02*
X3069Y1233D01*
X0Y1232D02*
X7Y1232D01*
X3062Y1232D02*
X3069Y1232D01*
X0Y1231D02*
X7Y1231D01*
X3062Y1231D02*
X3069Y1231D01*
X0Y1230D02*
X7Y1230D01*
X3062Y1230D02*
X3069Y1230D01*
X0Y1229D02*
X7Y1229D01*
X3062Y1229D02*
X3069Y1229D01*
X0Y1228D02*
X7Y1228D01*
X3062Y1228D02*
X3069Y1228D01*
X0Y1227D02*
X7Y1227D01*
X3062Y1227D02*
X3069Y1227D01*
X0Y1226D02*
X7Y1226D01*
X3062Y1226D02*
X3069Y1226D01*
X0Y1225D02*
X7Y1225D01*
X3062Y1225D02*
X3069Y1225D01*
X0Y1224D02*
X7Y1224D01*
X3062Y1224D02*
X3069Y1224D01*
X0Y1223D02*
X7Y1223D01*
X3062Y1223D02*
X3069Y1223D01*
X0Y1222D02*
X7Y1222D01*
X3062Y1222D02*
X3069Y1222D01*
X0Y1221D02*
X7Y1221D01*
X3062Y1221D02*
X3069Y1221D01*
X0Y1220D02*
X7Y1220D01*
X3062Y1220D02*
X3069Y1220D01*
X0Y1219D02*
X7Y1219D01*
X3062Y1219D02*
X3069Y1219D01*
X0Y1218D02*
X7Y1218D01*
X3062Y1218D02*
X3069Y1218D01*
X0Y1217D02*
X7Y1217D01*
X3062Y1217D02*
X3069Y1217D01*
X0Y1216D02*
X7Y1216D01*
X3062Y1216D02*
X3069Y1216D01*
X0Y1215D02*
X7Y1215D01*
X3062Y1215D02*
X3069Y1215D01*
X0Y1214D02*
X7Y1214D01*
X3062Y1214D02*
X3069Y1214D01*
X0Y1213D02*
X7Y1213D01*
X3062Y1213D02*
X3069Y1213D01*
X0Y1212D02*
X7Y1212D01*
X3062Y1212D02*
X3069Y1212D01*
X0Y1211D02*
X7Y1211D01*
X3062Y1211D02*
X3069Y1211D01*
X0Y1210D02*
X7Y1210D01*
X3062Y1210D02*
X3069Y1210D01*
X0Y1209D02*
X7Y1209D01*
X3062Y1209D02*
X3069Y1209D01*
X0Y1208D02*
X7Y1208D01*
X3062Y1208D02*
X3069Y1208D01*
X0Y1207D02*
X7Y1207D01*
X3062Y1207D02*
X3069Y1207D01*
X0Y1206D02*
X7Y1206D01*
X3062Y1206D02*
X3069Y1206D01*
X0Y1205D02*
X7Y1205D01*
X3062Y1205D02*
X3069Y1205D01*
X0Y1204D02*
X7Y1204D01*
X3062Y1204D02*
X3069Y1204D01*
X0Y1203D02*
X7Y1203D01*
X3062Y1203D02*
X3069Y1203D01*
X0Y1202D02*
X7Y1202D01*
X3062Y1202D02*
X3069Y1202D01*
X0Y1201D02*
X7Y1201D01*
X3062Y1201D02*
X3069Y1201D01*
X0Y1200D02*
X7Y1200D01*
X3062Y1200D02*
X3069Y1200D01*
X0Y1199D02*
X7Y1199D01*
X3062Y1199D02*
X3069Y1199D01*
X0Y1198D02*
X7Y1198D01*
X3062Y1198D02*
X3069Y1198D01*
X0Y1197D02*
X7Y1197D01*
X3062Y1197D02*
X3069Y1197D01*
X0Y1196D02*
X7Y1196D01*
X3062Y1196D02*
X3069Y1196D01*
X0Y1195D02*
X7Y1195D01*
X3062Y1195D02*
X3069Y1195D01*
X0Y1194D02*
X7Y1194D01*
X3062Y1194D02*
X3069Y1194D01*
X0Y1193D02*
X7Y1193D01*
X3062Y1193D02*
X3069Y1193D01*
X0Y1192D02*
X7Y1192D01*
X3062Y1192D02*
X3069Y1192D01*
X0Y1191D02*
X7Y1191D01*
X3062Y1191D02*
X3069Y1191D01*
X0Y1190D02*
X7Y1190D01*
X3062Y1190D02*
X3069Y1190D01*
X0Y1189D02*
X7Y1189D01*
X3062Y1189D02*
X3069Y1189D01*
X0Y1188D02*
X7Y1188D01*
X3062Y1188D02*
X3069Y1188D01*
X0Y1187D02*
X7Y1187D01*
X3062Y1187D02*
X3069Y1187D01*
X0Y1186D02*
X7Y1186D01*
X3062Y1186D02*
X3069Y1186D01*
X0Y1185D02*
X7Y1185D01*
X3062Y1185D02*
X3069Y1185D01*
X0Y1184D02*
X7Y1184D01*
X3062Y1184D02*
X3069Y1184D01*
X0Y1183D02*
X7Y1183D01*
X3062Y1183D02*
X3069Y1183D01*
X0Y1182D02*
X7Y1182D01*
X3062Y1182D02*
X3069Y1182D01*
X0Y1181D02*
X7Y1181D01*
X3062Y1181D02*
X3069Y1181D01*
X0Y1180D02*
X7Y1180D01*
X3062Y1180D02*
X3069Y1180D01*
X0Y1179D02*
X7Y1179D01*
X3062Y1179D02*
X3069Y1179D01*
X0Y1178D02*
X7Y1178D01*
X3062Y1178D02*
X3069Y1178D01*
X0Y1177D02*
X7Y1177D01*
X3062Y1177D02*
X3069Y1177D01*
X0Y1176D02*
X7Y1176D01*
X3062Y1176D02*
X3069Y1176D01*
X0Y1175D02*
X7Y1175D01*
X3062Y1175D02*
X3069Y1175D01*
X0Y1174D02*
X7Y1174D01*
X3062Y1174D02*
X3069Y1174D01*
X0Y1173D02*
X7Y1173D01*
X3062Y1173D02*
X3069Y1173D01*
X0Y1172D02*
X7Y1172D01*
X3062Y1172D02*
X3069Y1172D01*
X0Y1171D02*
X7Y1171D01*
X3062Y1171D02*
X3069Y1171D01*
X0Y1170D02*
X7Y1170D01*
X3062Y1170D02*
X3069Y1170D01*
X0Y1169D02*
X7Y1169D01*
X3062Y1169D02*
X3069Y1169D01*
X0Y1168D02*
X7Y1168D01*
X3062Y1168D02*
X3069Y1168D01*
X0Y1167D02*
X7Y1167D01*
X3062Y1167D02*
X3069Y1167D01*
X0Y1166D02*
X7Y1166D01*
X3062Y1166D02*
X3069Y1166D01*
X0Y1165D02*
X7Y1165D01*
X3062Y1165D02*
X3069Y1165D01*
X0Y1164D02*
X7Y1164D01*
X3062Y1164D02*
X3069Y1164D01*
X0Y1163D02*
X7Y1163D01*
X3062Y1163D02*
X3069Y1163D01*
X0Y1162D02*
X7Y1162D01*
X3062Y1162D02*
X3069Y1162D01*
X0Y1161D02*
X7Y1161D01*
X3062Y1161D02*
X3069Y1161D01*
X0Y1160D02*
X7Y1160D01*
X3062Y1160D02*
X3069Y1160D01*
X0Y1159D02*
X7Y1159D01*
X3062Y1159D02*
X3069Y1159D01*
X0Y1158D02*
X7Y1158D01*
X3062Y1158D02*
X3069Y1158D01*
X0Y1157D02*
X7Y1157D01*
X3062Y1157D02*
X3069Y1157D01*
X0Y1156D02*
X7Y1156D01*
X3062Y1156D02*
X3069Y1156D01*
X0Y1155D02*
X7Y1155D01*
X3062Y1155D02*
X3069Y1155D01*
X0Y1154D02*
X7Y1154D01*
X3062Y1154D02*
X3069Y1154D01*
X0Y1153D02*
X7Y1153D01*
X3062Y1153D02*
X3069Y1153D01*
X0Y1152D02*
X7Y1152D01*
X3062Y1152D02*
X3069Y1152D01*
X0Y1151D02*
X7Y1151D01*
X3062Y1151D02*
X3069Y1151D01*
X0Y1150D02*
X7Y1150D01*
X3062Y1150D02*
X3069Y1150D01*
X0Y1149D02*
X7Y1149D01*
X3062Y1149D02*
X3069Y1149D01*
X0Y1148D02*
X7Y1148D01*
X3062Y1148D02*
X3069Y1148D01*
X0Y1147D02*
X7Y1147D01*
X3062Y1147D02*
X3069Y1147D01*
X0Y1146D02*
X7Y1146D01*
X3062Y1146D02*
X3069Y1146D01*
X0Y1145D02*
X7Y1145D01*
X3062Y1145D02*
X3069Y1145D01*
X0Y1144D02*
X7Y1144D01*
X3062Y1144D02*
X3069Y1144D01*
X0Y1143D02*
X7Y1143D01*
X3062Y1143D02*
X3069Y1143D01*
X0Y1142D02*
X7Y1142D01*
X3062Y1142D02*
X3069Y1142D01*
X0Y1141D02*
X7Y1141D01*
X3062Y1141D02*
X3069Y1141D01*
X0Y1140D02*
X7Y1140D01*
X3062Y1140D02*
X3069Y1140D01*
X0Y1139D02*
X7Y1139D01*
X3062Y1139D02*
X3069Y1139D01*
X0Y1138D02*
X7Y1138D01*
X3062Y1138D02*
X3069Y1138D01*
X0Y1137D02*
X7Y1137D01*
X3062Y1137D02*
X3069Y1137D01*
X0Y1136D02*
X7Y1136D01*
X3062Y1136D02*
X3069Y1136D01*
X0Y1135D02*
X7Y1135D01*
X3062Y1135D02*
X3069Y1135D01*
X0Y1134D02*
X7Y1134D01*
X3062Y1134D02*
X3069Y1134D01*
X0Y1133D02*
X7Y1133D01*
X3062Y1133D02*
X3069Y1133D01*
X0Y1132D02*
X7Y1132D01*
X3062Y1132D02*
X3069Y1132D01*
X0Y1131D02*
X7Y1131D01*
X3062Y1131D02*
X3069Y1131D01*
X0Y1130D02*
X7Y1130D01*
X3062Y1130D02*
X3069Y1130D01*
X0Y1129D02*
X7Y1129D01*
X3062Y1129D02*
X3069Y1129D01*
X0Y1128D02*
X7Y1128D01*
X3062Y1128D02*
X3069Y1128D01*
X0Y1127D02*
X7Y1127D01*
X3062Y1127D02*
X3069Y1127D01*
X0Y1126D02*
X7Y1126D01*
X3062Y1126D02*
X3069Y1126D01*
X0Y1125D02*
X7Y1125D01*
X3062Y1125D02*
X3069Y1125D01*
X0Y1124D02*
X7Y1124D01*
X3062Y1124D02*
X3069Y1124D01*
X0Y1123D02*
X7Y1123D01*
X3062Y1123D02*
X3069Y1123D01*
X0Y1122D02*
X7Y1122D01*
X3062Y1122D02*
X3069Y1122D01*
X0Y1121D02*
X7Y1121D01*
X3062Y1121D02*
X3069Y1121D01*
X0Y1120D02*
X7Y1120D01*
X3062Y1120D02*
X3069Y1120D01*
X0Y1119D02*
X7Y1119D01*
X3062Y1119D02*
X3069Y1119D01*
X0Y1118D02*
X7Y1118D01*
X3062Y1118D02*
X3069Y1118D01*
X0Y1117D02*
X7Y1117D01*
X3062Y1117D02*
X3069Y1117D01*
X0Y1116D02*
X7Y1116D01*
X3062Y1116D02*
X3069Y1116D01*
X0Y1115D02*
X7Y1115D01*
X3062Y1115D02*
X3069Y1115D01*
X0Y1114D02*
X7Y1114D01*
X3062Y1114D02*
X3069Y1114D01*
X0Y1113D02*
X7Y1113D01*
X3062Y1113D02*
X3069Y1113D01*
X0Y1112D02*
X7Y1112D01*
X3062Y1112D02*
X3069Y1112D01*
X0Y1111D02*
X7Y1111D01*
X3062Y1111D02*
X3069Y1111D01*
X0Y1110D02*
X7Y1110D01*
X3062Y1110D02*
X3069Y1110D01*
X0Y1109D02*
X7Y1109D01*
X3062Y1109D02*
X3069Y1109D01*
X0Y1108D02*
X7Y1108D01*
X3062Y1108D02*
X3069Y1108D01*
X0Y1107D02*
X7Y1107D01*
X3062Y1107D02*
X3069Y1107D01*
X0Y1106D02*
X7Y1106D01*
X3062Y1106D02*
X3069Y1106D01*
X0Y1105D02*
X7Y1105D01*
X3062Y1105D02*
X3069Y1105D01*
X0Y1104D02*
X7Y1104D01*
X3062Y1104D02*
X3069Y1104D01*
X0Y1103D02*
X7Y1103D01*
X3062Y1103D02*
X3069Y1103D01*
X0Y1102D02*
X7Y1102D01*
X3062Y1102D02*
X3069Y1102D01*
X0Y1101D02*
X7Y1101D01*
X3062Y1101D02*
X3069Y1101D01*
X0Y1100D02*
X7Y1100D01*
X3062Y1100D02*
X3069Y1100D01*
X0Y1099D02*
X7Y1099D01*
X3062Y1099D02*
X3069Y1099D01*
X0Y1098D02*
X7Y1098D01*
X3062Y1098D02*
X3069Y1098D01*
X0Y1097D02*
X7Y1097D01*
X3062Y1097D02*
X3069Y1097D01*
X0Y1096D02*
X7Y1096D01*
X3062Y1096D02*
X3069Y1096D01*
X0Y1095D02*
X7Y1095D01*
X3062Y1095D02*
X3069Y1095D01*
X0Y1094D02*
X7Y1094D01*
X3062Y1094D02*
X3069Y1094D01*
X0Y1093D02*
X7Y1093D01*
X3062Y1093D02*
X3069Y1093D01*
X0Y1092D02*
X7Y1092D01*
X3062Y1092D02*
X3069Y1092D01*
X0Y1091D02*
X7Y1091D01*
X3062Y1091D02*
X3069Y1091D01*
X0Y1090D02*
X7Y1090D01*
X3062Y1090D02*
X3069Y1090D01*
X0Y1089D02*
X7Y1089D01*
X3062Y1089D02*
X3069Y1089D01*
X0Y1088D02*
X7Y1088D01*
X3062Y1088D02*
X3069Y1088D01*
X0Y1087D02*
X7Y1087D01*
X3062Y1087D02*
X3069Y1087D01*
X0Y1086D02*
X7Y1086D01*
X3062Y1086D02*
X3069Y1086D01*
X0Y1085D02*
X7Y1085D01*
X3062Y1085D02*
X3069Y1085D01*
X0Y1084D02*
X7Y1084D01*
X3062Y1084D02*
X3069Y1084D01*
X0Y1083D02*
X7Y1083D01*
X3062Y1083D02*
X3069Y1083D01*
X0Y1082D02*
X7Y1082D01*
X3062Y1082D02*
X3069Y1082D01*
X0Y1081D02*
X7Y1081D01*
X3062Y1081D02*
X3069Y1081D01*
X0Y1080D02*
X7Y1080D01*
X3062Y1080D02*
X3069Y1080D01*
X0Y1079D02*
X7Y1079D01*
X3062Y1079D02*
X3069Y1079D01*
X0Y1078D02*
X7Y1078D01*
X3062Y1078D02*
X3069Y1078D01*
X0Y1077D02*
X7Y1077D01*
X3062Y1077D02*
X3069Y1077D01*
X0Y1076D02*
X7Y1076D01*
X3062Y1076D02*
X3069Y1076D01*
X0Y1075D02*
X7Y1075D01*
X3062Y1075D02*
X3069Y1075D01*
X0Y1074D02*
X7Y1074D01*
X3062Y1074D02*
X3069Y1074D01*
X0Y1073D02*
X7Y1073D01*
X3062Y1073D02*
X3069Y1073D01*
X0Y1072D02*
X7Y1072D01*
X3062Y1072D02*
X3069Y1072D01*
X0Y1071D02*
X7Y1071D01*
X3062Y1071D02*
X3069Y1071D01*
X0Y1070D02*
X7Y1070D01*
X3062Y1070D02*
X3069Y1070D01*
X0Y1069D02*
X7Y1069D01*
X3062Y1069D02*
X3069Y1069D01*
X0Y1068D02*
X7Y1068D01*
X3062Y1068D02*
X3069Y1068D01*
X0Y1067D02*
X7Y1067D01*
X3062Y1067D02*
X3069Y1067D01*
X0Y1066D02*
X7Y1066D01*
X3062Y1066D02*
X3069Y1066D01*
X0Y1065D02*
X7Y1065D01*
X3062Y1065D02*
X3069Y1065D01*
X0Y1064D02*
X7Y1064D01*
X3062Y1064D02*
X3069Y1064D01*
X0Y1063D02*
X7Y1063D01*
X3062Y1063D02*
X3069Y1063D01*
X0Y1062D02*
X7Y1062D01*
X3062Y1062D02*
X3069Y1062D01*
X0Y1061D02*
X7Y1061D01*
X3062Y1061D02*
X3069Y1061D01*
X0Y1060D02*
X7Y1060D01*
X3062Y1060D02*
X3069Y1060D01*
X0Y1059D02*
X7Y1059D01*
X3062Y1059D02*
X3069Y1059D01*
X0Y1058D02*
X7Y1058D01*
X3062Y1058D02*
X3069Y1058D01*
X0Y1057D02*
X7Y1057D01*
X3062Y1057D02*
X3069Y1057D01*
X0Y1056D02*
X7Y1056D01*
X3062Y1056D02*
X3069Y1056D01*
X0Y1055D02*
X7Y1055D01*
X3062Y1055D02*
X3069Y1055D01*
X0Y1054D02*
X7Y1054D01*
X3062Y1054D02*
X3069Y1054D01*
X0Y1053D02*
X7Y1053D01*
X3062Y1053D02*
X3069Y1053D01*
X0Y1052D02*
X7Y1052D01*
X3062Y1052D02*
X3069Y1052D01*
X0Y1051D02*
X7Y1051D01*
X3062Y1051D02*
X3069Y1051D01*
X0Y1050D02*
X7Y1050D01*
X3062Y1050D02*
X3069Y1050D01*
X0Y1049D02*
X7Y1049D01*
X3062Y1049D02*
X3069Y1049D01*
X0Y1048D02*
X7Y1048D01*
X3062Y1048D02*
X3069Y1048D01*
X0Y1047D02*
X7Y1047D01*
X3062Y1047D02*
X3069Y1047D01*
X0Y1046D02*
X7Y1046D01*
X3062Y1046D02*
X3069Y1046D01*
X0Y1045D02*
X7Y1045D01*
X3062Y1045D02*
X3069Y1045D01*
X0Y1044D02*
X7Y1044D01*
X3062Y1044D02*
X3069Y1044D01*
X0Y1043D02*
X7Y1043D01*
X3062Y1043D02*
X3069Y1043D01*
X0Y1042D02*
X7Y1042D01*
X3062Y1042D02*
X3069Y1042D01*
X0Y1041D02*
X7Y1041D01*
X3062Y1041D02*
X3069Y1041D01*
X0Y1040D02*
X7Y1040D01*
X3062Y1040D02*
X3069Y1040D01*
X0Y1039D02*
X7Y1039D01*
X3062Y1039D02*
X3069Y1039D01*
X0Y1038D02*
X7Y1038D01*
X3062Y1038D02*
X3069Y1038D01*
X0Y1037D02*
X7Y1037D01*
X3062Y1037D02*
X3069Y1037D01*
X0Y1036D02*
X7Y1036D01*
X3062Y1036D02*
X3069Y1036D01*
X0Y1035D02*
X7Y1035D01*
X3062Y1035D02*
X3069Y1035D01*
X0Y1034D02*
X7Y1034D01*
X3062Y1034D02*
X3069Y1034D01*
X0Y1033D02*
X7Y1033D01*
X3062Y1033D02*
X3069Y1033D01*
X0Y1032D02*
X7Y1032D01*
X3062Y1032D02*
X3069Y1032D01*
X0Y1031D02*
X7Y1031D01*
X3062Y1031D02*
X3069Y1031D01*
X0Y1030D02*
X7Y1030D01*
X3062Y1030D02*
X3069Y1030D01*
X0Y1029D02*
X7Y1029D01*
X3062Y1029D02*
X3069Y1029D01*
X0Y1028D02*
X7Y1028D01*
X3062Y1028D02*
X3069Y1028D01*
X0Y1027D02*
X7Y1027D01*
X3062Y1027D02*
X3069Y1027D01*
X0Y1026D02*
X7Y1026D01*
X3062Y1026D02*
X3069Y1026D01*
X0Y1025D02*
X7Y1025D01*
X3062Y1025D02*
X3069Y1025D01*
X0Y1024D02*
X7Y1024D01*
X3062Y1024D02*
X3069Y1024D01*
X0Y1023D02*
X7Y1023D01*
X3062Y1023D02*
X3069Y1023D01*
X0Y1022D02*
X7Y1022D01*
X3062Y1022D02*
X3069Y1022D01*
X0Y1021D02*
X7Y1021D01*
X3062Y1021D02*
X3069Y1021D01*
X0Y1020D02*
X7Y1020D01*
X3062Y1020D02*
X3069Y1020D01*
X0Y1019D02*
X7Y1019D01*
X3062Y1019D02*
X3069Y1019D01*
X0Y1018D02*
X7Y1018D01*
X3062Y1018D02*
X3069Y1018D01*
X0Y1017D02*
X7Y1017D01*
X3062Y1017D02*
X3069Y1017D01*
X0Y1016D02*
X7Y1016D01*
X3062Y1016D02*
X3069Y1016D01*
X0Y1015D02*
X7Y1015D01*
X3062Y1015D02*
X3069Y1015D01*
X0Y1014D02*
X7Y1014D01*
X3062Y1014D02*
X3069Y1014D01*
X0Y1013D02*
X7Y1013D01*
X3062Y1013D02*
X3069Y1013D01*
X0Y1012D02*
X7Y1012D01*
X3062Y1012D02*
X3069Y1012D01*
X0Y1011D02*
X7Y1011D01*
X3062Y1011D02*
X3069Y1011D01*
X0Y1010D02*
X7Y1010D01*
X3062Y1010D02*
X3069Y1010D01*
X0Y1009D02*
X7Y1009D01*
X3062Y1009D02*
X3069Y1009D01*
X0Y1008D02*
X7Y1008D01*
X3062Y1008D02*
X3069Y1008D01*
X0Y1007D02*
X7Y1007D01*
X3062Y1007D02*
X3069Y1007D01*
X0Y1006D02*
X7Y1006D01*
X3062Y1006D02*
X3069Y1006D01*
X0Y1005D02*
X7Y1005D01*
X3062Y1005D02*
X3069Y1005D01*
X0Y1004D02*
X7Y1004D01*
X3062Y1004D02*
X3069Y1004D01*
X0Y1003D02*
X7Y1003D01*
X3062Y1003D02*
X3069Y1003D01*
X0Y1002D02*
X7Y1002D01*
X3062Y1002D02*
X3069Y1002D01*
X0Y1001D02*
X7Y1001D01*
X3062Y1001D02*
X3069Y1001D01*
X0Y1000D02*
X7Y1000D01*
X3062Y1000D02*
X3069Y1000D01*
X0Y999D02*
X7Y999D01*
X3062Y999D02*
X3069Y999D01*
X0Y998D02*
X7Y998D01*
X3062Y998D02*
X3069Y998D01*
X0Y997D02*
X7Y997D01*
X3062Y997D02*
X3069Y997D01*
X0Y996D02*
X7Y996D01*
X3062Y996D02*
X3069Y996D01*
X0Y995D02*
X7Y995D01*
X3062Y995D02*
X3069Y995D01*
X0Y994D02*
X7Y994D01*
X3062Y994D02*
X3069Y994D01*
X0Y993D02*
X7Y993D01*
X3062Y993D02*
X3069Y993D01*
X0Y992D02*
X7Y992D01*
X3062Y992D02*
X3069Y992D01*
X0Y991D02*
X7Y991D01*
X3062Y991D02*
X3069Y991D01*
X0Y990D02*
X7Y990D01*
X3062Y990D02*
X3069Y990D01*
X0Y989D02*
X7Y989D01*
X3062Y989D02*
X3069Y989D01*
X0Y988D02*
X7Y988D01*
X3062Y988D02*
X3069Y988D01*
X0Y987D02*
X7Y987D01*
X3062Y987D02*
X3069Y987D01*
X0Y986D02*
X7Y986D01*
X3062Y986D02*
X3069Y986D01*
X0Y985D02*
X7Y985D01*
X3062Y985D02*
X3069Y985D01*
X0Y984D02*
X7Y984D01*
X3062Y984D02*
X3069Y984D01*
X0Y983D02*
X7Y983D01*
X3062Y983D02*
X3069Y983D01*
X0Y982D02*
X7Y982D01*
X3062Y982D02*
X3069Y982D01*
X0Y981D02*
X7Y981D01*
X3062Y981D02*
X3069Y981D01*
X0Y980D02*
X7Y980D01*
X3062Y980D02*
X3069Y980D01*
X0Y979D02*
X7Y979D01*
X3062Y979D02*
X3069Y979D01*
X0Y978D02*
X7Y978D01*
X3062Y978D02*
X3069Y978D01*
X0Y977D02*
X7Y977D01*
X3062Y977D02*
X3069Y977D01*
X0Y976D02*
X7Y976D01*
X3062Y976D02*
X3069Y976D01*
X0Y975D02*
X7Y975D01*
X3062Y975D02*
X3069Y975D01*
X0Y974D02*
X7Y974D01*
X3062Y974D02*
X3069Y974D01*
X0Y973D02*
X7Y973D01*
X3062Y973D02*
X3069Y973D01*
X0Y972D02*
X7Y972D01*
X3062Y972D02*
X3069Y972D01*
X0Y971D02*
X7Y971D01*
X3062Y971D02*
X3069Y971D01*
X0Y970D02*
X7Y970D01*
X3062Y970D02*
X3069Y970D01*
X0Y969D02*
X7Y969D01*
X3062Y969D02*
X3069Y969D01*
X0Y968D02*
X7Y968D01*
X3062Y968D02*
X3069Y968D01*
X0Y967D02*
X7Y967D01*
X3062Y967D02*
X3069Y967D01*
X0Y966D02*
X7Y966D01*
X3062Y966D02*
X3069Y966D01*
X0Y965D02*
X7Y965D01*
X3062Y965D02*
X3069Y965D01*
X0Y964D02*
X7Y964D01*
X3062Y964D02*
X3069Y964D01*
X0Y963D02*
X7Y963D01*
X3062Y963D02*
X3069Y963D01*
X0Y962D02*
X7Y962D01*
X3062Y962D02*
X3069Y962D01*
X0Y961D02*
X7Y961D01*
X3062Y961D02*
X3069Y961D01*
X0Y960D02*
X7Y960D01*
X3062Y960D02*
X3069Y960D01*
X0Y959D02*
X7Y959D01*
X3062Y959D02*
X3069Y959D01*
X0Y958D02*
X7Y958D01*
X3062Y958D02*
X3069Y958D01*
X0Y957D02*
X7Y957D01*
X3062Y957D02*
X3069Y957D01*
X0Y956D02*
X7Y956D01*
X3062Y956D02*
X3069Y956D01*
X0Y955D02*
X7Y955D01*
X3062Y955D02*
X3069Y955D01*
X0Y954D02*
X7Y954D01*
X3062Y954D02*
X3069Y954D01*
X0Y953D02*
X7Y953D01*
X3062Y953D02*
X3069Y953D01*
X0Y952D02*
X7Y952D01*
X3062Y952D02*
X3069Y952D01*
X0Y951D02*
X7Y951D01*
X3062Y951D02*
X3069Y951D01*
X0Y950D02*
X7Y950D01*
X3062Y950D02*
X3069Y950D01*
X0Y949D02*
X7Y949D01*
X3062Y949D02*
X3069Y949D01*
X0Y948D02*
X7Y948D01*
X3062Y948D02*
X3069Y948D01*
X0Y947D02*
X7Y947D01*
X3062Y947D02*
X3069Y947D01*
X0Y946D02*
X7Y946D01*
X3062Y946D02*
X3069Y946D01*
X0Y945D02*
X7Y945D01*
X3062Y945D02*
X3069Y945D01*
X0Y944D02*
X7Y944D01*
X3062Y944D02*
X3069Y944D01*
X0Y943D02*
X7Y943D01*
X3062Y943D02*
X3069Y943D01*
X0Y942D02*
X7Y942D01*
X3062Y942D02*
X3069Y942D01*
X0Y941D02*
X7Y941D01*
X3062Y941D02*
X3069Y941D01*
X0Y940D02*
X7Y940D01*
X3062Y940D02*
X3069Y940D01*
X0Y939D02*
X7Y939D01*
X3062Y939D02*
X3069Y939D01*
X0Y938D02*
X7Y938D01*
X3062Y938D02*
X3069Y938D01*
X0Y937D02*
X7Y937D01*
X3062Y937D02*
X3069Y937D01*
X0Y936D02*
X7Y936D01*
X3062Y936D02*
X3069Y936D01*
X0Y935D02*
X7Y935D01*
X3062Y935D02*
X3069Y935D01*
X0Y934D02*
X7Y934D01*
X3062Y934D02*
X3069Y934D01*
X0Y933D02*
X7Y933D01*
X3062Y933D02*
X3069Y933D01*
X0Y932D02*
X7Y932D01*
X3062Y932D02*
X3069Y932D01*
X0Y931D02*
X7Y931D01*
X3062Y931D02*
X3069Y931D01*
X0Y930D02*
X7Y930D01*
X3062Y930D02*
X3069Y930D01*
X0Y929D02*
X7Y929D01*
X3062Y929D02*
X3069Y929D01*
X0Y928D02*
X7Y928D01*
X3062Y928D02*
X3069Y928D01*
X0Y927D02*
X7Y927D01*
X3062Y927D02*
X3069Y927D01*
X0Y926D02*
X7Y926D01*
X3062Y926D02*
X3069Y926D01*
X0Y925D02*
X7Y925D01*
X3062Y925D02*
X3069Y925D01*
X0Y924D02*
X7Y924D01*
X3062Y924D02*
X3069Y924D01*
X0Y923D02*
X7Y923D01*
X3062Y923D02*
X3069Y923D01*
X0Y922D02*
X7Y922D01*
X3062Y922D02*
X3069Y922D01*
X0Y921D02*
X7Y921D01*
X3062Y921D02*
X3069Y921D01*
X0Y920D02*
X7Y920D01*
X3062Y920D02*
X3069Y920D01*
X0Y919D02*
X7Y919D01*
X3062Y919D02*
X3069Y919D01*
X0Y918D02*
X7Y918D01*
X3062Y918D02*
X3069Y918D01*
X0Y917D02*
X7Y917D01*
X3062Y917D02*
X3069Y917D01*
X0Y916D02*
X7Y916D01*
X3062Y916D02*
X3069Y916D01*
X0Y915D02*
X7Y915D01*
X3062Y915D02*
X3069Y915D01*
X0Y914D02*
X7Y914D01*
X3062Y914D02*
X3069Y914D01*
X0Y913D02*
X7Y913D01*
X3062Y913D02*
X3069Y913D01*
X0Y912D02*
X7Y912D01*
X3062Y912D02*
X3069Y912D01*
X0Y911D02*
X7Y911D01*
X3062Y911D02*
X3069Y911D01*
X0Y910D02*
X7Y910D01*
X3062Y910D02*
X3069Y910D01*
X0Y909D02*
X7Y909D01*
X3062Y909D02*
X3069Y909D01*
X0Y908D02*
X7Y908D01*
X3062Y908D02*
X3069Y908D01*
X0Y907D02*
X7Y907D01*
X3062Y907D02*
X3069Y907D01*
X0Y906D02*
X7Y906D01*
X3062Y906D02*
X3069Y906D01*
X0Y905D02*
X7Y905D01*
X3062Y905D02*
X3069Y905D01*
X0Y904D02*
X7Y904D01*
X3062Y904D02*
X3069Y904D01*
X0Y903D02*
X7Y903D01*
X3062Y903D02*
X3069Y903D01*
X0Y902D02*
X7Y902D01*
X3062Y902D02*
X3069Y902D01*
X0Y901D02*
X7Y901D01*
X3062Y901D02*
X3069Y901D01*
X0Y900D02*
X7Y900D01*
X3062Y900D02*
X3069Y900D01*
X0Y899D02*
X7Y899D01*
X3062Y899D02*
X3069Y899D01*
X0Y898D02*
X7Y898D01*
X3062Y898D02*
X3069Y898D01*
X0Y897D02*
X7Y897D01*
X3062Y897D02*
X3069Y897D01*
X0Y896D02*
X7Y896D01*
X3062Y896D02*
X3069Y896D01*
X0Y895D02*
X7Y895D01*
X3062Y895D02*
X3069Y895D01*
X0Y894D02*
X7Y894D01*
X3062Y894D02*
X3069Y894D01*
X0Y893D02*
X7Y893D01*
X3062Y893D02*
X3069Y893D01*
X0Y892D02*
X7Y892D01*
X3062Y892D02*
X3069Y892D01*
X0Y891D02*
X7Y891D01*
X3062Y891D02*
X3069Y891D01*
X0Y890D02*
X7Y890D01*
X3062Y890D02*
X3069Y890D01*
X0Y889D02*
X7Y889D01*
X3062Y889D02*
X3069Y889D01*
X0Y888D02*
X7Y888D01*
X3062Y888D02*
X3069Y888D01*
X0Y887D02*
X7Y887D01*
X3062Y887D02*
X3069Y887D01*
X0Y886D02*
X7Y886D01*
X3062Y886D02*
X3069Y886D01*
X0Y885D02*
X7Y885D01*
X3062Y885D02*
X3069Y885D01*
X0Y884D02*
X7Y884D01*
X3062Y884D02*
X3069Y884D01*
X0Y883D02*
X7Y883D01*
X3062Y883D02*
X3069Y883D01*
X0Y882D02*
X7Y882D01*
X3062Y882D02*
X3069Y882D01*
X0Y881D02*
X7Y881D01*
X3062Y881D02*
X3069Y881D01*
X0Y880D02*
X7Y880D01*
X3062Y880D02*
X3069Y880D01*
X0Y879D02*
X7Y879D01*
X3062Y879D02*
X3069Y879D01*
X0Y878D02*
X7Y878D01*
X3062Y878D02*
X3069Y878D01*
X0Y877D02*
X7Y877D01*
X3062Y877D02*
X3069Y877D01*
X0Y876D02*
X7Y876D01*
X3062Y876D02*
X3069Y876D01*
X0Y875D02*
X7Y875D01*
X3062Y875D02*
X3069Y875D01*
X0Y874D02*
X7Y874D01*
X3062Y874D02*
X3069Y874D01*
X0Y873D02*
X7Y873D01*
X3062Y873D02*
X3069Y873D01*
X0Y872D02*
X7Y872D01*
X3062Y872D02*
X3069Y872D01*
X0Y871D02*
X7Y871D01*
X3062Y871D02*
X3069Y871D01*
X0Y870D02*
X7Y870D01*
X3062Y870D02*
X3069Y870D01*
X0Y869D02*
X7Y869D01*
X3062Y869D02*
X3069Y869D01*
X0Y868D02*
X7Y868D01*
X3062Y868D02*
X3069Y868D01*
X0Y867D02*
X7Y867D01*
X3062Y867D02*
X3069Y867D01*
X0Y866D02*
X7Y866D01*
X3062Y866D02*
X3069Y866D01*
X0Y865D02*
X7Y865D01*
X3062Y865D02*
X3069Y865D01*
X0Y864D02*
X7Y864D01*
X3062Y864D02*
X3069Y864D01*
X0Y863D02*
X7Y863D01*
X3062Y863D02*
X3069Y863D01*
X0Y862D02*
X7Y862D01*
X3062Y862D02*
X3069Y862D01*
X0Y861D02*
X7Y861D01*
X3062Y861D02*
X3069Y861D01*
X0Y860D02*
X7Y860D01*
X3062Y860D02*
X3069Y860D01*
X0Y859D02*
X7Y859D01*
X3062Y859D02*
X3069Y859D01*
X0Y858D02*
X7Y858D01*
X3062Y858D02*
X3069Y858D01*
X0Y857D02*
X7Y857D01*
X3062Y857D02*
X3069Y857D01*
X0Y856D02*
X7Y856D01*
X3062Y856D02*
X3069Y856D01*
X0Y855D02*
X7Y855D01*
X3062Y855D02*
X3069Y855D01*
X0Y854D02*
X7Y854D01*
X3062Y854D02*
X3069Y854D01*
X0Y853D02*
X7Y853D01*
X3062Y853D02*
X3069Y853D01*
X0Y852D02*
X7Y852D01*
X3062Y852D02*
X3069Y852D01*
X0Y851D02*
X7Y851D01*
X3062Y851D02*
X3069Y851D01*
X0Y850D02*
X7Y850D01*
X3062Y850D02*
X3069Y850D01*
X0Y849D02*
X7Y849D01*
X3062Y849D02*
X3069Y849D01*
X0Y848D02*
X7Y848D01*
X3062Y848D02*
X3069Y848D01*
X0Y847D02*
X7Y847D01*
X3062Y847D02*
X3069Y847D01*
X0Y846D02*
X7Y846D01*
X3062Y846D02*
X3069Y846D01*
X0Y845D02*
X7Y845D01*
X3062Y845D02*
X3069Y845D01*
X0Y844D02*
X7Y844D01*
X3062Y844D02*
X3069Y844D01*
X0Y843D02*
X7Y843D01*
X3062Y843D02*
X3069Y843D01*
X0Y842D02*
X7Y842D01*
X3062Y842D02*
X3069Y842D01*
X0Y841D02*
X7Y841D01*
X3062Y841D02*
X3069Y841D01*
X0Y840D02*
X7Y840D01*
X3062Y840D02*
X3069Y840D01*
X0Y839D02*
X7Y839D01*
X3062Y839D02*
X3069Y839D01*
X0Y838D02*
X7Y838D01*
X3062Y838D02*
X3069Y838D01*
X0Y837D02*
X7Y837D01*
X3062Y837D02*
X3069Y837D01*
X0Y836D02*
X7Y836D01*
X3062Y836D02*
X3069Y836D01*
X0Y835D02*
X7Y835D01*
X3062Y835D02*
X3069Y835D01*
X0Y834D02*
X7Y834D01*
X3062Y834D02*
X3069Y834D01*
X0Y833D02*
X7Y833D01*
X3062Y833D02*
X3069Y833D01*
X0Y832D02*
X7Y832D01*
X3062Y832D02*
X3069Y832D01*
X0Y831D02*
X7Y831D01*
X3062Y831D02*
X3069Y831D01*
X0Y830D02*
X7Y830D01*
X3062Y830D02*
X3069Y830D01*
X0Y829D02*
X7Y829D01*
X3062Y829D02*
X3069Y829D01*
X0Y828D02*
X7Y828D01*
X3062Y828D02*
X3069Y828D01*
X0Y827D02*
X7Y827D01*
X3062Y827D02*
X3069Y827D01*
X0Y826D02*
X7Y826D01*
X3062Y826D02*
X3069Y826D01*
X0Y825D02*
X7Y825D01*
X3062Y825D02*
X3069Y825D01*
X0Y824D02*
X7Y824D01*
X3062Y824D02*
X3069Y824D01*
X0Y823D02*
X7Y823D01*
X3062Y823D02*
X3069Y823D01*
X0Y822D02*
X7Y822D01*
X3062Y822D02*
X3069Y822D01*
X0Y821D02*
X7Y821D01*
X3062Y821D02*
X3069Y821D01*
X0Y820D02*
X7Y820D01*
X3062Y820D02*
X3069Y820D01*
X0Y819D02*
X7Y819D01*
X3062Y819D02*
X3069Y819D01*
X0Y818D02*
X7Y818D01*
X3062Y818D02*
X3069Y818D01*
X0Y817D02*
X7Y817D01*
X3062Y817D02*
X3069Y817D01*
X0Y816D02*
X7Y816D01*
X3062Y816D02*
X3069Y816D01*
X0Y815D02*
X7Y815D01*
X3062Y815D02*
X3069Y815D01*
X0Y814D02*
X7Y814D01*
X3062Y814D02*
X3069Y814D01*
X0Y813D02*
X7Y813D01*
X3062Y813D02*
X3069Y813D01*
X0Y812D02*
X7Y812D01*
X3062Y812D02*
X3069Y812D01*
X0Y811D02*
X7Y811D01*
X3062Y811D02*
X3069Y811D01*
X0Y810D02*
X7Y810D01*
X3062Y810D02*
X3069Y810D01*
X0Y809D02*
X7Y809D01*
X3062Y809D02*
X3069Y809D01*
X0Y808D02*
X7Y808D01*
X3062Y808D02*
X3069Y808D01*
X0Y807D02*
X7Y807D01*
X3062Y807D02*
X3069Y807D01*
X0Y806D02*
X7Y806D01*
X3062Y806D02*
X3069Y806D01*
X0Y805D02*
X7Y805D01*
X3062Y805D02*
X3069Y805D01*
X0Y804D02*
X7Y804D01*
X3062Y804D02*
X3069Y804D01*
X0Y803D02*
X7Y803D01*
X3062Y803D02*
X3069Y803D01*
X0Y802D02*
X7Y802D01*
X3062Y802D02*
X3069Y802D01*
X0Y801D02*
X7Y801D01*
X3062Y801D02*
X3069Y801D01*
X0Y800D02*
X7Y800D01*
X3062Y800D02*
X3069Y800D01*
X0Y799D02*
X7Y799D01*
X3062Y799D02*
X3069Y799D01*
X0Y798D02*
X7Y798D01*
X3062Y798D02*
X3069Y798D01*
X0Y797D02*
X7Y797D01*
X3062Y797D02*
X3069Y797D01*
X0Y796D02*
X7Y796D01*
X3062Y796D02*
X3069Y796D01*
X0Y795D02*
X7Y795D01*
X3062Y795D02*
X3069Y795D01*
X0Y794D02*
X7Y794D01*
X3062Y794D02*
X3069Y794D01*
X0Y793D02*
X7Y793D01*
X3062Y793D02*
X3069Y793D01*
X0Y792D02*
X7Y792D01*
X3062Y792D02*
X3069Y792D01*
X0Y791D02*
X7Y791D01*
X3062Y791D02*
X3069Y791D01*
X0Y790D02*
X7Y790D01*
X3062Y790D02*
X3069Y790D01*
X0Y789D02*
X7Y789D01*
X3062Y789D02*
X3069Y789D01*
X0Y788D02*
X7Y788D01*
X3062Y788D02*
X3069Y788D01*
X0Y787D02*
X7Y787D01*
X3062Y787D02*
X3069Y787D01*
X0Y786D02*
X7Y786D01*
X3062Y786D02*
X3069Y786D01*
X0Y785D02*
X7Y785D01*
X3062Y785D02*
X3069Y785D01*
X0Y784D02*
X7Y784D01*
X3062Y784D02*
X3069Y784D01*
X0Y783D02*
X7Y783D01*
X3062Y783D02*
X3069Y783D01*
X0Y782D02*
X7Y782D01*
X3062Y782D02*
X3069Y782D01*
X0Y781D02*
X7Y781D01*
X3062Y781D02*
X3069Y781D01*
X0Y780D02*
X7Y780D01*
X3062Y780D02*
X3069Y780D01*
X0Y779D02*
X7Y779D01*
X3062Y779D02*
X3069Y779D01*
X0Y778D02*
X7Y778D01*
X3062Y778D02*
X3069Y778D01*
X0Y777D02*
X7Y777D01*
X3062Y777D02*
X3069Y777D01*
X0Y776D02*
X7Y776D01*
X3062Y776D02*
X3069Y776D01*
X0Y775D02*
X7Y775D01*
X3062Y775D02*
X3069Y775D01*
X0Y774D02*
X7Y774D01*
X3062Y774D02*
X3069Y774D01*
X0Y773D02*
X7Y773D01*
X3062Y773D02*
X3069Y773D01*
X0Y772D02*
X7Y772D01*
X3062Y772D02*
X3069Y772D01*
X0Y771D02*
X7Y771D01*
X3062Y771D02*
X3069Y771D01*
X0Y770D02*
X7Y770D01*
X3062Y770D02*
X3069Y770D01*
X0Y769D02*
X7Y769D01*
X3062Y769D02*
X3069Y769D01*
X0Y768D02*
X7Y768D01*
X3062Y768D02*
X3069Y768D01*
X0Y767D02*
X7Y767D01*
X3062Y767D02*
X3069Y767D01*
X0Y766D02*
X7Y766D01*
X3062Y766D02*
X3069Y766D01*
X0Y765D02*
X7Y765D01*
X3062Y765D02*
X3069Y765D01*
X0Y764D02*
X7Y764D01*
X3062Y764D02*
X3069Y764D01*
X0Y763D02*
X7Y763D01*
X3062Y763D02*
X3069Y763D01*
X0Y762D02*
X7Y762D01*
X3062Y762D02*
X3069Y762D01*
X0Y761D02*
X7Y761D01*
X3062Y761D02*
X3069Y761D01*
X0Y760D02*
X7Y760D01*
X3062Y760D02*
X3069Y760D01*
X0Y759D02*
X7Y759D01*
X3062Y759D02*
X3069Y759D01*
X0Y758D02*
X7Y758D01*
X3062Y758D02*
X3069Y758D01*
X0Y757D02*
X7Y757D01*
X3062Y757D02*
X3069Y757D01*
X0Y756D02*
X7Y756D01*
X3062Y756D02*
X3069Y756D01*
X0Y755D02*
X7Y755D01*
X3062Y755D02*
X3069Y755D01*
X0Y754D02*
X7Y754D01*
X3062Y754D02*
X3069Y754D01*
X0Y753D02*
X7Y753D01*
X3062Y753D02*
X3069Y753D01*
X0Y752D02*
X7Y752D01*
X3062Y752D02*
X3069Y752D01*
X0Y751D02*
X7Y751D01*
X3062Y751D02*
X3069Y751D01*
X0Y750D02*
X7Y750D01*
X3062Y750D02*
X3069Y750D01*
X0Y749D02*
X7Y749D01*
X3062Y749D02*
X3069Y749D01*
X0Y748D02*
X7Y748D01*
X3062Y748D02*
X3069Y748D01*
X0Y747D02*
X7Y747D01*
X3062Y747D02*
X3069Y747D01*
X0Y746D02*
X7Y746D01*
X3062Y746D02*
X3069Y746D01*
X0Y745D02*
X7Y745D01*
X3062Y745D02*
X3069Y745D01*
X0Y744D02*
X7Y744D01*
X3062Y744D02*
X3069Y744D01*
X0Y743D02*
X7Y743D01*
X3062Y743D02*
X3069Y743D01*
X0Y742D02*
X7Y742D01*
X3062Y742D02*
X3069Y742D01*
X0Y741D02*
X7Y741D01*
X3062Y741D02*
X3069Y741D01*
X0Y740D02*
X7Y740D01*
X3062Y740D02*
X3069Y740D01*
X0Y739D02*
X7Y739D01*
X3062Y739D02*
X3069Y739D01*
X0Y738D02*
X7Y738D01*
X3062Y738D02*
X3069Y738D01*
X0Y737D02*
X7Y737D01*
X3062Y737D02*
X3069Y737D01*
X0Y736D02*
X7Y736D01*
X3062Y736D02*
X3069Y736D01*
X0Y735D02*
X7Y735D01*
X3062Y735D02*
X3069Y735D01*
X0Y734D02*
X7Y734D01*
X3062Y734D02*
X3069Y734D01*
X0Y733D02*
X7Y733D01*
X3062Y733D02*
X3069Y733D01*
X0Y732D02*
X7Y732D01*
X3062Y732D02*
X3069Y732D01*
X0Y731D02*
X7Y731D01*
X3062Y731D02*
X3069Y731D01*
X0Y730D02*
X7Y730D01*
X3062Y730D02*
X3069Y730D01*
X0Y729D02*
X7Y729D01*
X3062Y729D02*
X3069Y729D01*
X0Y728D02*
X7Y728D01*
X3062Y728D02*
X3069Y728D01*
X0Y727D02*
X7Y727D01*
X3062Y727D02*
X3069Y727D01*
X0Y726D02*
X7Y726D01*
X3062Y726D02*
X3069Y726D01*
X0Y725D02*
X7Y725D01*
X3062Y725D02*
X3069Y725D01*
X0Y724D02*
X7Y724D01*
X3062Y724D02*
X3069Y724D01*
X0Y723D02*
X7Y723D01*
X3062Y723D02*
X3069Y723D01*
X0Y722D02*
X7Y722D01*
X3062Y722D02*
X3069Y722D01*
X0Y721D02*
X7Y721D01*
X3062Y721D02*
X3069Y721D01*
X0Y720D02*
X7Y720D01*
X3062Y720D02*
X3069Y720D01*
X0Y719D02*
X7Y719D01*
X3062Y719D02*
X3069Y719D01*
X0Y718D02*
X7Y718D01*
X3062Y718D02*
X3069Y718D01*
X0Y717D02*
X7Y717D01*
X3062Y717D02*
X3069Y717D01*
X0Y716D02*
X7Y716D01*
X3062Y716D02*
X3069Y716D01*
X0Y715D02*
X7Y715D01*
X3062Y715D02*
X3069Y715D01*
X0Y714D02*
X7Y714D01*
X3062Y714D02*
X3069Y714D01*
X0Y713D02*
X7Y713D01*
X3062Y713D02*
X3069Y713D01*
X0Y712D02*
X7Y712D01*
X3062Y712D02*
X3069Y712D01*
X0Y711D02*
X7Y711D01*
X3062Y711D02*
X3069Y711D01*
X0Y710D02*
X7Y710D01*
X3062Y710D02*
X3069Y710D01*
X0Y709D02*
X7Y709D01*
X3062Y709D02*
X3069Y709D01*
X0Y708D02*
X7Y708D01*
X3062Y708D02*
X3069Y708D01*
X0Y707D02*
X7Y707D01*
X3062Y707D02*
X3069Y707D01*
X0Y706D02*
X7Y706D01*
X3062Y706D02*
X3069Y706D01*
X0Y705D02*
X7Y705D01*
X3062Y705D02*
X3069Y705D01*
X0Y704D02*
X7Y704D01*
X3062Y704D02*
X3069Y704D01*
X0Y703D02*
X7Y703D01*
X3062Y703D02*
X3069Y703D01*
X0Y702D02*
X7Y702D01*
X3062Y702D02*
X3069Y702D01*
X0Y701D02*
X7Y701D01*
X3062Y701D02*
X3069Y701D01*
X0Y700D02*
X7Y700D01*
X3062Y700D02*
X3069Y700D01*
X0Y699D02*
X7Y699D01*
X3062Y699D02*
X3069Y699D01*
X0Y698D02*
X7Y698D01*
X3062Y698D02*
X3069Y698D01*
X0Y697D02*
X7Y697D01*
X3062Y697D02*
X3069Y697D01*
X0Y696D02*
X7Y696D01*
X3062Y696D02*
X3069Y696D01*
X0Y695D02*
X7Y695D01*
X3062Y695D02*
X3069Y695D01*
X0Y694D02*
X7Y694D01*
X3062Y694D02*
X3069Y694D01*
X0Y693D02*
X7Y693D01*
X3062Y693D02*
X3069Y693D01*
X0Y692D02*
X7Y692D01*
X3062Y692D02*
X3069Y692D01*
X0Y691D02*
X7Y691D01*
X3062Y691D02*
X3069Y691D01*
X0Y690D02*
X7Y690D01*
X3062Y690D02*
X3069Y690D01*
X0Y689D02*
X7Y689D01*
X3062Y689D02*
X3069Y689D01*
X0Y688D02*
X7Y688D01*
X3062Y688D02*
X3069Y688D01*
X0Y687D02*
X7Y687D01*
X3062Y687D02*
X3069Y687D01*
X0Y686D02*
X7Y686D01*
X3062Y686D02*
X3069Y686D01*
X0Y685D02*
X7Y685D01*
X3062Y685D02*
X3069Y685D01*
X0Y684D02*
X7Y684D01*
X3062Y684D02*
X3069Y684D01*
X0Y683D02*
X7Y683D01*
X3062Y683D02*
X3069Y683D01*
X0Y682D02*
X7Y682D01*
X3062Y682D02*
X3069Y682D01*
X0Y681D02*
X7Y681D01*
X3062Y681D02*
X3069Y681D01*
X0Y680D02*
X7Y680D01*
X3062Y680D02*
X3069Y680D01*
X0Y679D02*
X7Y679D01*
X3062Y679D02*
X3069Y679D01*
X0Y678D02*
X7Y678D01*
X3062Y678D02*
X3069Y678D01*
X0Y677D02*
X7Y677D01*
X3062Y677D02*
X3069Y677D01*
X0Y676D02*
X7Y676D01*
X3062Y676D02*
X3069Y676D01*
X0Y675D02*
X7Y675D01*
X3062Y675D02*
X3069Y675D01*
X0Y674D02*
X7Y674D01*
X3062Y674D02*
X3069Y674D01*
X0Y673D02*
X7Y673D01*
X3062Y673D02*
X3069Y673D01*
X0Y672D02*
X7Y672D01*
X3062Y672D02*
X3069Y672D01*
X0Y671D02*
X7Y671D01*
X3062Y671D02*
X3069Y671D01*
X0Y670D02*
X7Y670D01*
X3062Y670D02*
X3069Y670D01*
X0Y669D02*
X7Y669D01*
X3062Y669D02*
X3069Y669D01*
X0Y668D02*
X7Y668D01*
X3062Y668D02*
X3069Y668D01*
X0Y667D02*
X7Y667D01*
X3062Y667D02*
X3069Y667D01*
X0Y666D02*
X7Y666D01*
X3062Y666D02*
X3069Y666D01*
X0Y665D02*
X7Y665D01*
X3062Y665D02*
X3069Y665D01*
X0Y664D02*
X7Y664D01*
X3062Y664D02*
X3069Y664D01*
X0Y663D02*
X7Y663D01*
X3062Y663D02*
X3069Y663D01*
X0Y662D02*
X7Y662D01*
X3062Y662D02*
X3069Y662D01*
X0Y661D02*
X7Y661D01*
X3062Y661D02*
X3069Y661D01*
X0Y660D02*
X7Y660D01*
X3062Y660D02*
X3069Y660D01*
X0Y659D02*
X7Y659D01*
X3062Y659D02*
X3069Y659D01*
X0Y658D02*
X7Y658D01*
X3062Y658D02*
X3069Y658D01*
X0Y657D02*
X7Y657D01*
X3062Y657D02*
X3069Y657D01*
X0Y656D02*
X7Y656D01*
X3062Y656D02*
X3069Y656D01*
X0Y655D02*
X7Y655D01*
X3062Y655D02*
X3069Y655D01*
X0Y654D02*
X7Y654D01*
X3062Y654D02*
X3069Y654D01*
X0Y653D02*
X7Y653D01*
X3062Y653D02*
X3069Y653D01*
X0Y652D02*
X7Y652D01*
X3062Y652D02*
X3069Y652D01*
X0Y651D02*
X7Y651D01*
X3062Y651D02*
X3069Y651D01*
X0Y650D02*
X7Y650D01*
X3062Y650D02*
X3069Y650D01*
X0Y649D02*
X7Y649D01*
X3062Y649D02*
X3069Y649D01*
X0Y648D02*
X7Y648D01*
X3062Y648D02*
X3069Y648D01*
X0Y647D02*
X7Y647D01*
X3062Y647D02*
X3069Y647D01*
X0Y646D02*
X7Y646D01*
X3062Y646D02*
X3069Y646D01*
X0Y645D02*
X7Y645D01*
X3062Y645D02*
X3069Y645D01*
X0Y644D02*
X7Y644D01*
X3062Y644D02*
X3069Y644D01*
X0Y643D02*
X7Y643D01*
X3062Y643D02*
X3069Y643D01*
X0Y642D02*
X7Y642D01*
X3062Y642D02*
X3069Y642D01*
X0Y641D02*
X7Y641D01*
X3062Y641D02*
X3069Y641D01*
X0Y640D02*
X7Y640D01*
X3062Y640D02*
X3069Y640D01*
X0Y639D02*
X7Y639D01*
X3062Y639D02*
X3069Y639D01*
X0Y638D02*
X7Y638D01*
X3062Y638D02*
X3069Y638D01*
X0Y637D02*
X7Y637D01*
X3062Y637D02*
X3069Y637D01*
X0Y636D02*
X7Y636D01*
X3062Y636D02*
X3069Y636D01*
X0Y635D02*
X7Y635D01*
X3062Y635D02*
X3069Y635D01*
X0Y634D02*
X7Y634D01*
X3062Y634D02*
X3069Y634D01*
X0Y633D02*
X7Y633D01*
X3062Y633D02*
X3069Y633D01*
X0Y632D02*
X7Y632D01*
X3062Y632D02*
X3069Y632D01*
X0Y631D02*
X7Y631D01*
X3062Y631D02*
X3069Y631D01*
X0Y630D02*
X7Y630D01*
X3062Y630D02*
X3069Y630D01*
X0Y629D02*
X7Y629D01*
X3062Y629D02*
X3069Y629D01*
X0Y628D02*
X7Y628D01*
X3062Y628D02*
X3069Y628D01*
X0Y627D02*
X7Y627D01*
X3062Y627D02*
X3069Y627D01*
X0Y626D02*
X7Y626D01*
X3062Y626D02*
X3069Y626D01*
X0Y625D02*
X7Y625D01*
X3062Y625D02*
X3069Y625D01*
X0Y624D02*
X7Y624D01*
X3062Y624D02*
X3069Y624D01*
X0Y623D02*
X7Y623D01*
X3062Y623D02*
X3069Y623D01*
X0Y622D02*
X7Y622D01*
X3062Y622D02*
X3069Y622D01*
X0Y621D02*
X7Y621D01*
X3062Y621D02*
X3069Y621D01*
X0Y620D02*
X7Y620D01*
X3062Y620D02*
X3069Y620D01*
X0Y619D02*
X7Y619D01*
X3062Y619D02*
X3069Y619D01*
X0Y618D02*
X7Y618D01*
X3062Y618D02*
X3069Y618D01*
X0Y617D02*
X7Y617D01*
X3062Y617D02*
X3069Y617D01*
X0Y616D02*
X7Y616D01*
X3062Y616D02*
X3069Y616D01*
X0Y615D02*
X7Y615D01*
X3062Y615D02*
X3069Y615D01*
X0Y614D02*
X7Y614D01*
X3062Y614D02*
X3069Y614D01*
X0Y613D02*
X7Y613D01*
X3062Y613D02*
X3069Y613D01*
X0Y612D02*
X7Y612D01*
X3062Y612D02*
X3069Y612D01*
X0Y611D02*
X7Y611D01*
X3062Y611D02*
X3069Y611D01*
X0Y610D02*
X7Y610D01*
X3062Y610D02*
X3069Y610D01*
X0Y609D02*
X7Y609D01*
X3062Y609D02*
X3069Y609D01*
X0Y608D02*
X7Y608D01*
X3062Y608D02*
X3069Y608D01*
X0Y607D02*
X7Y607D01*
X3062Y607D02*
X3069Y607D01*
X0Y606D02*
X7Y606D01*
X3062Y606D02*
X3069Y606D01*
X0Y605D02*
X7Y605D01*
X3062Y605D02*
X3069Y605D01*
X0Y604D02*
X7Y604D01*
X3062Y604D02*
X3069Y604D01*
X0Y603D02*
X7Y603D01*
X3062Y603D02*
X3069Y603D01*
X0Y602D02*
X7Y602D01*
X3062Y602D02*
X3069Y602D01*
X0Y601D02*
X7Y601D01*
X3062Y601D02*
X3069Y601D01*
X0Y600D02*
X7Y600D01*
X3062Y600D02*
X3069Y600D01*
X0Y599D02*
X7Y599D01*
X3062Y599D02*
X3069Y599D01*
X0Y598D02*
X7Y598D01*
X3062Y598D02*
X3069Y598D01*
X0Y597D02*
X7Y597D01*
X3062Y597D02*
X3069Y597D01*
X0Y596D02*
X7Y596D01*
X3062Y596D02*
X3069Y596D01*
X0Y595D02*
X7Y595D01*
X3062Y595D02*
X3069Y595D01*
X0Y594D02*
X7Y594D01*
X3062Y594D02*
X3069Y594D01*
X0Y593D02*
X7Y593D01*
X3062Y593D02*
X3069Y593D01*
X0Y592D02*
X7Y592D01*
X3062Y592D02*
X3069Y592D01*
X0Y591D02*
X7Y591D01*
X3062Y591D02*
X3069Y591D01*
X0Y590D02*
X7Y590D01*
X3062Y590D02*
X3069Y590D01*
X0Y589D02*
X7Y589D01*
X3062Y589D02*
X3069Y589D01*
X0Y588D02*
X7Y588D01*
X3062Y588D02*
X3069Y588D01*
X0Y587D02*
X7Y587D01*
X3062Y587D02*
X3069Y587D01*
X0Y586D02*
X7Y586D01*
X3062Y586D02*
X3069Y586D01*
X0Y585D02*
X7Y585D01*
X3062Y585D02*
X3069Y585D01*
X0Y584D02*
X7Y584D01*
X3062Y584D02*
X3069Y584D01*
X0Y583D02*
X7Y583D01*
X3062Y583D02*
X3069Y583D01*
X0Y582D02*
X7Y582D01*
X3062Y582D02*
X3069Y582D01*
X0Y581D02*
X7Y581D01*
X3062Y581D02*
X3069Y581D01*
X0Y580D02*
X7Y580D01*
X3062Y580D02*
X3069Y580D01*
X0Y579D02*
X7Y579D01*
X3062Y579D02*
X3069Y579D01*
X0Y578D02*
X7Y578D01*
X3062Y578D02*
X3069Y578D01*
X0Y577D02*
X7Y577D01*
X3062Y577D02*
X3069Y577D01*
X0Y576D02*
X7Y576D01*
X3062Y576D02*
X3069Y576D01*
X0Y575D02*
X7Y575D01*
X3062Y575D02*
X3069Y575D01*
X0Y574D02*
X7Y574D01*
X3062Y574D02*
X3069Y574D01*
X0Y573D02*
X7Y573D01*
X3062Y573D02*
X3069Y573D01*
X0Y572D02*
X7Y572D01*
X3062Y572D02*
X3069Y572D01*
X0Y571D02*
X7Y571D01*
X3062Y571D02*
X3069Y571D01*
X0Y570D02*
X7Y570D01*
X3062Y570D02*
X3069Y570D01*
X0Y569D02*
X7Y569D01*
X3062Y569D02*
X3069Y569D01*
X0Y568D02*
X7Y568D01*
X3062Y568D02*
X3069Y568D01*
X0Y567D02*
X7Y567D01*
X3062Y567D02*
X3069Y567D01*
X0Y566D02*
X7Y566D01*
X3062Y566D02*
X3069Y566D01*
X0Y565D02*
X7Y565D01*
X3062Y565D02*
X3069Y565D01*
X0Y564D02*
X7Y564D01*
X3062Y564D02*
X3069Y564D01*
X0Y563D02*
X7Y563D01*
X3062Y563D02*
X3069Y563D01*
X0Y562D02*
X7Y562D01*
X3062Y562D02*
X3069Y562D01*
X0Y561D02*
X7Y561D01*
X3062Y561D02*
X3069Y561D01*
X0Y560D02*
X7Y560D01*
X3062Y560D02*
X3069Y560D01*
X0Y559D02*
X7Y559D01*
X3062Y559D02*
X3069Y559D01*
X0Y558D02*
X7Y558D01*
X3062Y558D02*
X3069Y558D01*
X0Y557D02*
X7Y557D01*
X3062Y557D02*
X3069Y557D01*
X0Y556D02*
X7Y556D01*
X3062Y556D02*
X3069Y556D01*
X0Y555D02*
X7Y555D01*
X3062Y555D02*
X3069Y555D01*
X0Y554D02*
X7Y554D01*
X3062Y554D02*
X3069Y554D01*
X0Y553D02*
X7Y553D01*
X3062Y553D02*
X3069Y553D01*
X0Y552D02*
X7Y552D01*
X3062Y552D02*
X3069Y552D01*
X0Y551D02*
X7Y551D01*
X3062Y551D02*
X3069Y551D01*
X0Y550D02*
X7Y550D01*
X3062Y550D02*
X3069Y550D01*
X0Y549D02*
X7Y549D01*
X3062Y549D02*
X3069Y549D01*
X0Y548D02*
X7Y548D01*
X3062Y548D02*
X3069Y548D01*
X0Y547D02*
X7Y547D01*
X3062Y547D02*
X3069Y547D01*
X0Y546D02*
X7Y546D01*
X3062Y546D02*
X3069Y546D01*
X0Y545D02*
X7Y545D01*
X3062Y545D02*
X3069Y545D01*
X0Y544D02*
X7Y544D01*
X3062Y544D02*
X3069Y544D01*
X0Y543D02*
X7Y543D01*
X3062Y543D02*
X3069Y543D01*
X0Y542D02*
X7Y542D01*
X3062Y542D02*
X3069Y542D01*
X0Y541D02*
X7Y541D01*
X3062Y541D02*
X3069Y541D01*
X0Y540D02*
X7Y540D01*
X3062Y540D02*
X3069Y540D01*
X0Y539D02*
X7Y539D01*
X3062Y539D02*
X3069Y539D01*
X0Y538D02*
X7Y538D01*
X3062Y538D02*
X3069Y538D01*
X0Y537D02*
X7Y537D01*
X3062Y537D02*
X3069Y537D01*
X0Y536D02*
X7Y536D01*
X3062Y536D02*
X3069Y536D01*
X0Y535D02*
X7Y535D01*
X3062Y535D02*
X3069Y535D01*
X0Y534D02*
X7Y534D01*
X3062Y534D02*
X3069Y534D01*
X0Y533D02*
X7Y533D01*
X3062Y533D02*
X3069Y533D01*
X0Y532D02*
X7Y532D01*
X3062Y532D02*
X3069Y532D01*
X0Y531D02*
X7Y531D01*
X3062Y531D02*
X3069Y531D01*
X0Y530D02*
X7Y530D01*
X3062Y530D02*
X3069Y530D01*
X0Y529D02*
X7Y529D01*
X3062Y529D02*
X3069Y529D01*
X0Y528D02*
X7Y528D01*
X3062Y528D02*
X3069Y528D01*
X0Y527D02*
X7Y527D01*
X3062Y527D02*
X3069Y527D01*
X0Y526D02*
X7Y526D01*
X3062Y526D02*
X3069Y526D01*
X0Y525D02*
X7Y525D01*
X3062Y525D02*
X3069Y525D01*
X0Y524D02*
X7Y524D01*
X3062Y524D02*
X3069Y524D01*
X0Y523D02*
X7Y523D01*
X3062Y523D02*
X3069Y523D01*
X0Y522D02*
X7Y522D01*
X3062Y522D02*
X3069Y522D01*
X0Y521D02*
X7Y521D01*
X3062Y521D02*
X3069Y521D01*
X0Y520D02*
X7Y520D01*
X3062Y520D02*
X3069Y520D01*
X0Y519D02*
X7Y519D01*
X3062Y519D02*
X3069Y519D01*
X0Y518D02*
X7Y518D01*
X3062Y518D02*
X3069Y518D01*
X0Y517D02*
X7Y517D01*
X3062Y517D02*
X3069Y517D01*
X0Y516D02*
X7Y516D01*
X3062Y516D02*
X3069Y516D01*
X0Y515D02*
X7Y515D01*
X3062Y515D02*
X3069Y515D01*
X0Y514D02*
X7Y514D01*
X3062Y514D02*
X3069Y514D01*
X0Y513D02*
X7Y513D01*
X3062Y513D02*
X3069Y513D01*
X0Y512D02*
X7Y512D01*
X3062Y512D02*
X3069Y512D01*
X0Y511D02*
X7Y511D01*
X3062Y511D02*
X3069Y511D01*
X0Y510D02*
X7Y510D01*
X3062Y510D02*
X3069Y510D01*
X0Y509D02*
X7Y509D01*
X3062Y509D02*
X3069Y509D01*
X0Y508D02*
X7Y508D01*
X3062Y508D02*
X3069Y508D01*
X0Y507D02*
X7Y507D01*
X3062Y507D02*
X3069Y507D01*
X0Y506D02*
X7Y506D01*
X3062Y506D02*
X3069Y506D01*
X0Y505D02*
X7Y505D01*
X3062Y505D02*
X3069Y505D01*
X0Y504D02*
X7Y504D01*
X3062Y504D02*
X3069Y504D01*
X0Y503D02*
X7Y503D01*
X3062Y503D02*
X3069Y503D01*
X0Y502D02*
X7Y502D01*
X3062Y502D02*
X3069Y502D01*
X0Y501D02*
X7Y501D01*
X3062Y501D02*
X3069Y501D01*
X0Y500D02*
X7Y500D01*
X3062Y500D02*
X3069Y500D01*
X0Y499D02*
X7Y499D01*
X3062Y499D02*
X3069Y499D01*
X0Y498D02*
X7Y498D01*
X3062Y498D02*
X3069Y498D01*
X0Y497D02*
X7Y497D01*
X3062Y497D02*
X3069Y497D01*
X0Y496D02*
X7Y496D01*
X3062Y496D02*
X3069Y496D01*
X0Y495D02*
X7Y495D01*
X3062Y495D02*
X3069Y495D01*
X0Y494D02*
X7Y494D01*
X3062Y494D02*
X3069Y494D01*
X0Y493D02*
X7Y493D01*
X3062Y493D02*
X3069Y493D01*
X0Y492D02*
X7Y492D01*
X3062Y492D02*
X3069Y492D01*
X0Y491D02*
X7Y491D01*
X3062Y491D02*
X3069Y491D01*
X0Y490D02*
X7Y490D01*
X3062Y490D02*
X3069Y490D01*
X0Y489D02*
X7Y489D01*
X3062Y489D02*
X3069Y489D01*
X0Y488D02*
X7Y488D01*
X3062Y488D02*
X3069Y488D01*
X0Y487D02*
X7Y487D01*
X3062Y487D02*
X3069Y487D01*
X0Y486D02*
X7Y486D01*
X3062Y486D02*
X3069Y486D01*
X0Y485D02*
X7Y485D01*
X3062Y485D02*
X3069Y485D01*
X0Y484D02*
X7Y484D01*
X3062Y484D02*
X3069Y484D01*
X0Y483D02*
X7Y483D01*
X3062Y483D02*
X3069Y483D01*
X0Y482D02*
X7Y482D01*
X3062Y482D02*
X3069Y482D01*
X0Y481D02*
X7Y481D01*
X3062Y481D02*
X3069Y481D01*
X0Y480D02*
X7Y480D01*
X3062Y480D02*
X3069Y480D01*
X0Y479D02*
X7Y479D01*
X3062Y479D02*
X3069Y479D01*
X0Y478D02*
X7Y478D01*
X3062Y478D02*
X3069Y478D01*
X0Y477D02*
X7Y477D01*
X3062Y477D02*
X3069Y477D01*
X0Y476D02*
X7Y476D01*
X3062Y476D02*
X3069Y476D01*
X0Y475D02*
X7Y475D01*
X3062Y475D02*
X3069Y475D01*
X0Y474D02*
X7Y474D01*
X3062Y474D02*
X3069Y474D01*
X0Y473D02*
X7Y473D01*
X3062Y473D02*
X3069Y473D01*
X0Y472D02*
X7Y472D01*
X3062Y472D02*
X3069Y472D01*
X0Y471D02*
X7Y471D01*
X3062Y471D02*
X3069Y471D01*
X0Y470D02*
X7Y470D01*
X3062Y470D02*
X3069Y470D01*
X0Y469D02*
X7Y469D01*
X3062Y469D02*
X3069Y469D01*
X0Y468D02*
X7Y468D01*
X3062Y468D02*
X3069Y468D01*
X0Y467D02*
X7Y467D01*
X3062Y467D02*
X3069Y467D01*
X0Y466D02*
X7Y466D01*
X3062Y466D02*
X3069Y466D01*
X0Y465D02*
X7Y465D01*
X3062Y465D02*
X3069Y465D01*
X0Y464D02*
X7Y464D01*
X3062Y464D02*
X3069Y464D01*
X0Y463D02*
X7Y463D01*
X3062Y463D02*
X3069Y463D01*
X0Y462D02*
X7Y462D01*
X3062Y462D02*
X3069Y462D01*
X0Y461D02*
X7Y461D01*
X3062Y461D02*
X3069Y461D01*
X0Y460D02*
X7Y460D01*
X3062Y460D02*
X3069Y460D01*
X0Y459D02*
X7Y459D01*
X3062Y459D02*
X3069Y459D01*
X0Y458D02*
X7Y458D01*
X3062Y458D02*
X3069Y458D01*
X0Y457D02*
X7Y457D01*
X3062Y457D02*
X3069Y457D01*
X0Y456D02*
X7Y456D01*
X3062Y456D02*
X3069Y456D01*
X0Y455D02*
X7Y455D01*
X3062Y455D02*
X3069Y455D01*
X0Y454D02*
X7Y454D01*
X3062Y454D02*
X3069Y454D01*
X0Y453D02*
X7Y453D01*
X3062Y453D02*
X3069Y453D01*
X0Y452D02*
X7Y452D01*
X3062Y452D02*
X3069Y452D01*
X0Y451D02*
X7Y451D01*
X3062Y451D02*
X3069Y451D01*
X0Y450D02*
X7Y450D01*
X3062Y450D02*
X3069Y450D01*
X0Y449D02*
X7Y449D01*
X3062Y449D02*
X3069Y449D01*
X0Y448D02*
X7Y448D01*
X3062Y448D02*
X3069Y448D01*
X0Y447D02*
X7Y447D01*
X3062Y447D02*
X3069Y447D01*
X0Y446D02*
X7Y446D01*
X3062Y446D02*
X3069Y446D01*
X0Y445D02*
X7Y445D01*
X3062Y445D02*
X3069Y445D01*
X0Y444D02*
X7Y444D01*
X3062Y444D02*
X3069Y444D01*
X0Y443D02*
X7Y443D01*
X3062Y443D02*
X3069Y443D01*
X0Y442D02*
X7Y442D01*
X3062Y442D02*
X3069Y442D01*
X0Y441D02*
X7Y441D01*
X3062Y441D02*
X3069Y441D01*
X0Y440D02*
X7Y440D01*
X3062Y440D02*
X3069Y440D01*
X0Y439D02*
X7Y439D01*
X3062Y439D02*
X3069Y439D01*
X0Y438D02*
X7Y438D01*
X3062Y438D02*
X3069Y438D01*
X0Y437D02*
X7Y437D01*
X3062Y437D02*
X3069Y437D01*
X0Y436D02*
X7Y436D01*
X3062Y436D02*
X3069Y436D01*
X0Y435D02*
X7Y435D01*
X3062Y435D02*
X3069Y435D01*
X0Y434D02*
X7Y434D01*
X3062Y434D02*
X3069Y434D01*
X0Y433D02*
X7Y433D01*
X3062Y433D02*
X3069Y433D01*
X0Y432D02*
X7Y432D01*
X3062Y432D02*
X3069Y432D01*
X0Y431D02*
X7Y431D01*
X3062Y431D02*
X3069Y431D01*
X0Y430D02*
X7Y430D01*
X3062Y430D02*
X3069Y430D01*
X0Y429D02*
X7Y429D01*
X3062Y429D02*
X3069Y429D01*
X0Y428D02*
X7Y428D01*
X3062Y428D02*
X3069Y428D01*
X0Y427D02*
X7Y427D01*
X3062Y427D02*
X3069Y427D01*
X0Y426D02*
X7Y426D01*
X3062Y426D02*
X3069Y426D01*
X0Y425D02*
X7Y425D01*
X3062Y425D02*
X3069Y425D01*
X0Y424D02*
X7Y424D01*
X3062Y424D02*
X3069Y424D01*
X0Y423D02*
X7Y423D01*
X3062Y423D02*
X3069Y423D01*
X0Y422D02*
X7Y422D01*
X3062Y422D02*
X3069Y422D01*
X0Y421D02*
X7Y421D01*
X3062Y421D02*
X3069Y421D01*
X0Y420D02*
X7Y420D01*
X3062Y420D02*
X3069Y420D01*
X0Y419D02*
X7Y419D01*
X3062Y419D02*
X3069Y419D01*
X0Y418D02*
X7Y418D01*
X3062Y418D02*
X3069Y418D01*
X0Y417D02*
X7Y417D01*
X3062Y417D02*
X3069Y417D01*
X0Y416D02*
X7Y416D01*
X3062Y416D02*
X3069Y416D01*
X0Y415D02*
X7Y415D01*
X3062Y415D02*
X3069Y415D01*
X0Y414D02*
X7Y414D01*
X3062Y414D02*
X3069Y414D01*
X0Y413D02*
X7Y413D01*
X3062Y413D02*
X3069Y413D01*
X0Y412D02*
X7Y412D01*
X3062Y412D02*
X3069Y412D01*
X0Y411D02*
X7Y411D01*
X3062Y411D02*
X3069Y411D01*
X0Y410D02*
X7Y410D01*
X3062Y410D02*
X3069Y410D01*
X0Y409D02*
X7Y409D01*
X3062Y409D02*
X3069Y409D01*
X0Y408D02*
X7Y408D01*
X3062Y408D02*
X3069Y408D01*
X0Y407D02*
X7Y407D01*
X3062Y407D02*
X3069Y407D01*
X0Y406D02*
X7Y406D01*
X3062Y406D02*
X3069Y406D01*
X0Y405D02*
X7Y405D01*
X3062Y405D02*
X3069Y405D01*
X0Y404D02*
X7Y404D01*
X3062Y404D02*
X3069Y404D01*
X0Y403D02*
X7Y403D01*
X3062Y403D02*
X3069Y403D01*
X0Y402D02*
X7Y402D01*
X3062Y402D02*
X3069Y402D01*
X0Y401D02*
X7Y401D01*
X3062Y401D02*
X3069Y401D01*
X0Y400D02*
X7Y400D01*
X3062Y400D02*
X3069Y400D01*
X0Y399D02*
X7Y399D01*
X3062Y399D02*
X3069Y399D01*
X0Y398D02*
X7Y398D01*
X3062Y398D02*
X3069Y398D01*
X0Y397D02*
X7Y397D01*
X3062Y397D02*
X3069Y397D01*
X0Y396D02*
X7Y396D01*
X3062Y396D02*
X3069Y396D01*
X0Y395D02*
X7Y395D01*
X3062Y395D02*
X3069Y395D01*
X0Y394D02*
X7Y394D01*
X3062Y394D02*
X3069Y394D01*
X0Y393D02*
X7Y393D01*
X3062Y393D02*
X3069Y393D01*
X0Y392D02*
X7Y392D01*
X3062Y392D02*
X3069Y392D01*
X0Y391D02*
X7Y391D01*
X3062Y391D02*
X3069Y391D01*
X0Y390D02*
X7Y390D01*
X3062Y390D02*
X3069Y390D01*
X0Y389D02*
X7Y389D01*
X3062Y389D02*
X3069Y389D01*
X0Y388D02*
X7Y388D01*
X3062Y388D02*
X3069Y388D01*
X0Y387D02*
X7Y387D01*
X3062Y387D02*
X3069Y387D01*
X0Y386D02*
X7Y386D01*
X3062Y386D02*
X3069Y386D01*
X0Y385D02*
X7Y385D01*
X3062Y385D02*
X3069Y385D01*
X0Y384D02*
X7Y384D01*
X3062Y384D02*
X3069Y384D01*
X0Y383D02*
X7Y383D01*
X3062Y383D02*
X3069Y383D01*
X0Y382D02*
X7Y382D01*
X3062Y382D02*
X3069Y382D01*
X0Y381D02*
X7Y381D01*
X3062Y381D02*
X3069Y381D01*
X0Y380D02*
X7Y380D01*
X3062Y380D02*
X3069Y380D01*
X0Y379D02*
X7Y379D01*
X3062Y379D02*
X3069Y379D01*
X0Y378D02*
X7Y378D01*
X3062Y378D02*
X3069Y378D01*
X0Y377D02*
X7Y377D01*
X3062Y377D02*
X3069Y377D01*
X0Y376D02*
X7Y376D01*
X3062Y376D02*
X3069Y376D01*
X0Y375D02*
X7Y375D01*
X3062Y375D02*
X3069Y375D01*
X0Y374D02*
X7Y374D01*
X3062Y374D02*
X3069Y374D01*
X0Y373D02*
X7Y373D01*
X3062Y373D02*
X3069Y373D01*
X0Y372D02*
X7Y372D01*
X3062Y372D02*
X3069Y372D01*
X0Y371D02*
X7Y371D01*
X3062Y371D02*
X3069Y371D01*
X0Y370D02*
X8Y370D01*
X3061Y370D02*
X3069Y370D01*
X1Y369D02*
X8Y369D01*
X3061Y369D02*
X3068Y369D01*
X1Y368D02*
X8Y368D01*
X3061Y368D02*
X3068Y368D01*
X1Y367D02*
X8Y367D01*
X3061Y367D02*
X3068Y367D01*
X1Y366D02*
X8Y366D01*
X3061Y366D02*
X3068Y366D01*
X1Y365D02*
X8Y365D01*
X3061Y365D02*
X3068Y365D01*
X1Y364D02*
X8Y364D01*
X3061Y364D02*
X3068Y364D01*
X1Y363D02*
X8Y363D01*
X3061Y363D02*
X3068Y363D01*
X1Y362D02*
X8Y362D01*
X3061Y362D02*
X3068Y362D01*
X1Y361D02*
X8Y361D01*
X3061Y361D02*
X3068Y361D01*
X1Y360D02*
X8Y360D01*
X3061Y360D02*
X3068Y360D01*
X1Y359D02*
X8Y359D01*
X3061Y359D02*
X3068Y359D01*
X1Y358D02*
X8Y358D01*
X3061Y358D02*
X3068Y358D01*
X1Y357D02*
X8Y357D01*
X3061Y357D02*
X3068Y357D01*
X1Y356D02*
X8Y356D01*
X3061Y356D02*
X3068Y356D01*
X2Y355D02*
X9Y355D01*
X3060Y355D02*
X3067Y355D01*
X2Y354D02*
X9Y354D01*
X3060Y354D02*
X3067Y354D01*
X2Y353D02*
X9Y353D01*
X3060Y353D02*
X3067Y353D01*
X2Y352D02*
X9Y352D01*
X3060Y352D02*
X3067Y352D01*
X2Y351D02*
X9Y351D01*
X3060Y351D02*
X3067Y351D01*
X2Y350D02*
X9Y350D01*
X3060Y350D02*
X3067Y350D01*
X2Y349D02*
X9Y349D01*
X3060Y349D02*
X3067Y349D01*
X2Y348D02*
X9Y348D01*
X3060Y348D02*
X3067Y348D01*
X2Y347D02*
X9Y347D01*
X3060Y347D02*
X3067Y347D01*
X2Y346D02*
X9Y346D01*
X3060Y346D02*
X3067Y346D01*
X3Y345D02*
X10Y345D01*
X3059Y345D02*
X3066Y345D01*
X3Y344D02*
X10Y344D01*
X3059Y344D02*
X3066Y344D01*
X3Y343D02*
X10Y343D01*
X3059Y343D02*
X3066Y343D01*
X3Y342D02*
X10Y342D01*
X3059Y342D02*
X3066Y342D01*
X3Y341D02*
X10Y341D01*
X3059Y341D02*
X3066Y341D01*
X3Y340D02*
X10Y340D01*
X3059Y340D02*
X3066Y340D01*
X3Y339D02*
X10Y339D01*
X3059Y339D02*
X3066Y339D01*
X3Y338D02*
X10Y338D01*
X3059Y338D02*
X3066Y338D01*
X4Y337D02*
X11Y337D01*
X3058Y337D02*
X3065Y337D01*
X4Y336D02*
X11Y336D01*
X3058Y336D02*
X3065Y336D01*
X4Y335D02*
X11Y335D01*
X3058Y335D02*
X3065Y335D01*
X4Y334D02*
X11Y334D01*
X3058Y334D02*
X3065Y334D01*
X4Y333D02*
X11Y333D01*
X3058Y333D02*
X3065Y333D01*
X4Y332D02*
X11Y332D01*
X3058Y332D02*
X3065Y332D01*
X4Y331D02*
X11Y331D01*
X3058Y331D02*
X3065Y331D01*
X5Y330D02*
X12Y330D01*
X3057Y330D02*
X3064Y330D01*
X5Y329D02*
X12Y329D01*
X3057Y329D02*
X3064Y329D01*
X5Y328D02*
X12Y328D01*
X3057Y328D02*
X3064Y328D01*
X5Y327D02*
X12Y327D01*
X3057Y327D02*
X3064Y327D01*
X5Y326D02*
X12Y326D01*
X3057Y326D02*
X3064Y326D01*
X5Y325D02*
X12Y325D01*
X3057Y325D02*
X3064Y325D01*
X6Y324D02*
X13Y324D01*
X3056Y324D02*
X3063Y324D01*
X6Y323D02*
X13Y323D01*
X3056Y323D02*
X3063Y323D01*
X6Y322D02*
X13Y322D01*
X3056Y322D02*
X3063Y322D01*
X6Y321D02*
X13Y321D01*
X3056Y321D02*
X3063Y321D01*
X6Y320D02*
X13Y320D01*
X3056Y320D02*
X3063Y320D01*
X6Y319D02*
X14Y319D01*
X3055Y319D02*
X3063Y319D01*
X7Y318D02*
X14Y318D01*
X3055Y318D02*
X3062Y318D01*
X7Y317D02*
X14Y317D01*
X3055Y317D02*
X3062Y317D01*
X7Y316D02*
X14Y316D01*
X3055Y316D02*
X3062Y316D01*
X7Y315D02*
X14Y315D01*
X3055Y315D02*
X3062Y315D01*
X7Y314D02*
X14Y314D01*
X3054Y314D02*
X3062Y314D01*
X8Y313D02*
X15Y313D01*
X3054Y313D02*
X3061Y313D01*
X8Y312D02*
X15Y312D01*
X3054Y312D02*
X3061Y312D01*
X8Y311D02*
X15Y311D01*
X3054Y311D02*
X3061Y311D01*
X8Y310D02*
X15Y310D01*
X3054Y310D02*
X3061Y310D01*
X8Y309D02*
X16Y309D01*
X3053Y309D02*
X3061Y309D01*
X9Y308D02*
X16Y308D01*
X3053Y308D02*
X3060Y308D01*
X9Y307D02*
X16Y307D01*
X3053Y307D02*
X3060Y307D01*
X9Y306D02*
X16Y306D01*
X3053Y306D02*
X3060Y306D01*
X9Y305D02*
X16Y305D01*
X3053Y305D02*
X3060Y305D01*
X10Y304D02*
X17Y304D01*
X3052Y304D02*
X3059Y304D01*
X10Y303D02*
X17Y303D01*
X3052Y303D02*
X3059Y303D01*
X10Y302D02*
X17Y302D01*
X3052Y302D02*
X3059Y302D01*
X10Y301D02*
X17Y301D01*
X3052Y301D02*
X3059Y301D01*
X10Y300D02*
X18Y300D01*
X3051Y300D02*
X3059Y300D01*
X11Y299D02*
X18Y299D01*
X3051Y299D02*
X3058Y299D01*
X11Y298D02*
X18Y298D01*
X3051Y298D02*
X3058Y298D01*
X11Y297D02*
X18Y297D01*
X3051Y297D02*
X3058Y297D01*
X11Y296D02*
X19Y296D01*
X3050Y296D02*
X3058Y296D01*
X12Y295D02*
X19Y295D01*
X3050Y295D02*
X3057Y295D01*
X12Y294D02*
X19Y294D01*
X3050Y294D02*
X3057Y294D01*
X12Y293D02*
X19Y293D01*
X3050Y293D02*
X3057Y293D01*
X12Y292D02*
X20Y292D01*
X3049Y292D02*
X3057Y292D01*
X13Y291D02*
X20Y291D01*
X3049Y291D02*
X3056Y291D01*
X13Y290D02*
X20Y290D01*
X3049Y290D02*
X3056Y290D01*
X13Y289D02*
X20Y289D01*
X3049Y289D02*
X3056Y289D01*
X14Y288D02*
X21Y288D01*
X3048Y288D02*
X3055Y288D01*
X14Y287D02*
X21Y287D01*
X3048Y287D02*
X3055Y287D01*
X14Y286D02*
X21Y286D01*
X3048Y286D02*
X3055Y286D01*
X14Y285D02*
X21Y285D01*
X3047Y285D02*
X3055Y285D01*
X15Y284D02*
X22Y284D01*
X3047Y284D02*
X3054Y284D01*
X15Y283D02*
X22Y283D01*
X3047Y283D02*
X3054Y283D01*
X15Y282D02*
X22Y282D01*
X3047Y282D02*
X3054Y282D01*
X15Y281D02*
X23Y281D01*
X3046Y281D02*
X3054Y281D01*
X16Y280D02*
X23Y280D01*
X3046Y280D02*
X3053Y280D01*
X16Y279D02*
X23Y279D01*
X3046Y279D02*
X3053Y279D01*
X16Y278D02*
X24Y278D01*
X3045Y278D02*
X3053Y278D01*
X17Y277D02*
X24Y277D01*
X3045Y277D02*
X3052Y277D01*
X17Y276D02*
X24Y276D01*
X3045Y276D02*
X3052Y276D01*
X17Y275D02*
X25Y275D01*
X3044Y275D02*
X3052Y275D01*
X18Y274D02*
X25Y274D01*
X3044Y274D02*
X3051Y274D01*
X18Y273D02*
X25Y273D01*
X3044Y273D02*
X3051Y273D01*
X18Y272D02*
X26Y272D01*
X3043Y272D02*
X3051Y272D01*
X19Y271D02*
X26Y271D01*
X3043Y271D02*
X3050Y271D01*
X19Y270D02*
X26Y270D01*
X3043Y270D02*
X3050Y270D01*
X19Y269D02*
X27Y269D01*
X3042Y269D02*
X3050Y269D01*
X20Y268D02*
X27Y268D01*
X3042Y268D02*
X3049Y268D01*
X20Y267D02*
X27Y267D01*
X3042Y267D02*
X3049Y267D01*
X20Y266D02*
X28Y266D01*
X3041Y266D02*
X3049Y266D01*
X21Y265D02*
X28Y265D01*
X3041Y265D02*
X3048Y265D01*
X21Y264D02*
X28Y264D01*
X3041Y264D02*
X3048Y264D01*
X21Y263D02*
X29Y263D01*
X3040Y263D02*
X3048Y263D01*
X22Y262D02*
X29Y262D01*
X3040Y262D02*
X3047Y262D01*
X22Y261D02*
X29Y261D01*
X3040Y261D02*
X3047Y261D01*
X22Y260D02*
X30Y260D01*
X3039Y260D02*
X3047Y260D01*
X23Y259D02*
X30Y259D01*
X3039Y259D02*
X3046Y259D01*
X23Y258D02*
X30Y258D01*
X3039Y258D02*
X3046Y258D01*
X23Y257D02*
X31Y257D01*
X3038Y257D02*
X3046Y257D01*
X24Y256D02*
X31Y256D01*
X3038Y256D02*
X3045Y256D01*
X24Y255D02*
X31Y255D01*
X3038Y255D02*
X3045Y255D01*
X24Y254D02*
X32Y254D01*
X3037Y254D02*
X3045Y254D01*
X25Y253D02*
X32Y253D01*
X3037Y253D02*
X3044Y253D01*
X25Y252D02*
X33Y252D01*
X3036Y252D02*
X3044Y252D01*
X26Y251D02*
X33Y251D01*
X3036Y251D02*
X3043Y251D01*
X26Y250D02*
X33Y250D01*
X3036Y250D02*
X3043Y250D01*
X26Y249D02*
X34Y249D01*
X3035Y249D02*
X3043Y249D01*
X27Y248D02*
X34Y248D01*
X3035Y248D02*
X3042Y248D01*
X27Y247D02*
X35Y247D01*
X3034Y247D02*
X3042Y247D01*
X28Y246D02*
X35Y246D01*
X3034Y246D02*
X3041Y246D01*
X28Y245D02*
X35Y245D01*
X3034Y245D02*
X3041Y245D01*
X28Y244D02*
X36Y244D01*
X3033Y244D02*
X3041Y244D01*
X29Y243D02*
X36Y243D01*
X3033Y243D02*
X3040Y243D01*
X29Y242D02*
X37Y242D01*
X3032Y242D02*
X3040Y242D01*
X30Y241D02*
X37Y241D01*
X3032Y241D02*
X3039Y241D01*
X30Y240D02*
X37Y240D01*
X3032Y240D02*
X3039Y240D01*
X30Y239D02*
X38Y239D01*
X3031Y239D02*
X3039Y239D01*
X31Y238D02*
X38Y238D01*
X3031Y238D02*
X3038Y238D01*
X31Y237D02*
X39Y237D01*
X3030Y237D02*
X3038Y237D01*
X32Y236D02*
X39Y236D01*
X3030Y236D02*
X3037Y236D01*
X32Y235D02*
X40Y235D01*
X3029Y235D02*
X3037Y235D01*
X33Y234D02*
X40Y234D01*
X3029Y234D02*
X3036Y234D01*
X33Y233D02*
X41Y233D01*
X3028Y233D02*
X3036Y233D01*
X33Y232D02*
X41Y232D01*
X3028Y232D02*
X3036Y232D01*
X34Y231D02*
X42Y231D01*
X3027Y231D02*
X3035Y231D01*
X34Y230D02*
X42Y230D01*
X3027Y230D02*
X3035Y230D01*
X35Y229D02*
X42Y229D01*
X3027Y229D02*
X3034Y229D01*
X35Y228D02*
X43Y228D01*
X3026Y228D02*
X3034Y228D01*
X36Y227D02*
X43Y227D01*
X3026Y227D02*
X3033Y227D01*
X36Y226D02*
X44Y226D01*
X3025Y226D02*
X3033Y226D01*
X37Y225D02*
X44Y225D01*
X3025Y225D02*
X3032Y225D01*
X37Y224D02*
X45Y224D01*
X3024Y224D02*
X3032Y224D01*
X38Y223D02*
X45Y223D01*
X3024Y223D02*
X3031Y223D01*
X38Y222D02*
X46Y222D01*
X3023Y222D02*
X3031Y222D01*
X38Y221D02*
X46Y221D01*
X3023Y221D02*
X3031Y221D01*
X39Y220D02*
X47Y220D01*
X3022Y220D02*
X3030Y220D01*
X39Y219D02*
X47Y219D01*
X3022Y219D02*
X3030Y219D01*
X40Y218D02*
X48Y218D01*
X3021Y218D02*
X3029Y218D01*
X40Y217D02*
X48Y217D01*
X3021Y217D02*
X3029Y217D01*
X41Y216D02*
X49Y216D01*
X3020Y216D02*
X3028Y216D01*
X42Y215D02*
X49Y215D01*
X3020Y215D02*
X3027Y215D01*
X42Y214D02*
X50Y214D01*
X3019Y214D02*
X3027Y214D01*
X43Y213D02*
X50Y213D01*
X3019Y213D02*
X3026Y213D01*
X43Y212D02*
X51Y212D01*
X3018Y212D02*
X3026Y212D01*
X44Y211D02*
X51Y211D01*
X3018Y211D02*
X3025Y211D01*
X44Y210D02*
X52Y210D01*
X3017Y210D02*
X3025Y210D01*
X45Y209D02*
X52Y209D01*
X3017Y209D02*
X3024Y209D01*
X45Y208D02*
X53Y208D01*
X3016Y208D02*
X3024Y208D01*
X46Y207D02*
X54Y207D01*
X3015Y207D02*
X3023Y207D01*
X46Y206D02*
X54Y206D01*
X3015Y206D02*
X3023Y206D01*
X47Y205D02*
X55Y205D01*
X3014Y205D02*
X3022Y205D01*
X47Y204D02*
X55Y204D01*
X3014Y204D02*
X3022Y204D01*
X48Y203D02*
X56Y203D01*
X3013Y203D02*
X3021Y203D01*
X48Y202D02*
X56Y202D01*
X3013Y202D02*
X3021Y202D01*
X49Y201D02*
X57Y201D01*
X3012Y201D02*
X3020Y201D01*
X49Y200D02*
X58Y200D01*
X3011Y200D02*
X3020Y200D01*
X50Y199D02*
X58Y199D01*
X3011Y199D02*
X3019Y199D01*
X51Y198D02*
X59Y198D01*
X3010Y198D02*
X3018Y198D01*
X51Y197D02*
X59Y197D01*
X3010Y197D02*
X3018Y197D01*
X52Y196D02*
X60Y196D01*
X3009Y196D02*
X3017Y196D01*
X52Y195D02*
X60Y195D01*
X3009Y195D02*
X3017Y195D01*
X53Y194D02*
X61Y194D01*
X3008Y194D02*
X3016Y194D01*
X53Y193D02*
X62Y193D01*
X3007Y193D02*
X3016Y193D01*
X54Y192D02*
X62Y192D01*
X3007Y192D02*
X3015Y192D01*
X55Y191D02*
X63Y191D01*
X3006Y191D02*
X3014Y191D01*
X55Y190D02*
X63Y190D01*
X3006Y190D02*
X3014Y190D01*
X56Y189D02*
X64Y189D01*
X3005Y189D02*
X3013Y189D01*
X56Y188D02*
X65Y188D01*
X3004Y188D02*
X3013Y188D01*
X57Y187D02*
X65Y187D01*
X3004Y187D02*
X3012Y187D01*
X58Y186D02*
X66Y186D01*
X3003Y186D02*
X3011Y186D01*
X58Y185D02*
X67Y185D01*
X3002Y185D02*
X3011Y185D01*
X59Y184D02*
X67Y184D01*
X3002Y184D02*
X3010Y184D01*
X60Y183D02*
X68Y183D01*
X3001Y183D02*
X3009Y183D01*
X60Y182D02*
X69Y182D01*
X3000Y182D02*
X3009Y182D01*
X61Y181D02*
X69Y181D01*
X3000Y181D02*
X3008Y181D01*
X61Y180D02*
X70Y180D01*
X2999Y180D02*
X3008Y180D01*
X62Y179D02*
X70Y179D01*
X2999Y179D02*
X3007Y179D01*
X63Y178D02*
X71Y178D01*
X2998Y178D02*
X3006Y178D01*
X63Y177D02*
X72Y177D01*
X2997Y177D02*
X3006Y177D01*
X64Y176D02*
X72Y176D01*
X2997Y176D02*
X3005Y176D01*
X65Y175D02*
X73Y175D01*
X2996Y175D02*
X3004Y175D01*
X65Y174D02*
X74Y174D01*
X2995Y174D02*
X3004Y174D01*
X66Y173D02*
X75Y173D01*
X2994Y173D02*
X3003Y173D01*
X67Y172D02*
X75Y172D01*
X2994Y172D02*
X3002Y172D01*
X67Y171D02*
X76Y171D01*
X2993Y171D02*
X3002Y171D01*
X68Y170D02*
X77Y170D01*
X2992Y170D02*
X3001Y170D01*
X69Y169D02*
X77Y169D01*
X2992Y169D02*
X3000Y169D01*
X69Y168D02*
X78Y168D01*
X2991Y168D02*
X3000Y168D01*
X70Y167D02*
X79Y167D01*
X2990Y167D02*
X2999Y167D01*
X71Y166D02*
X80Y166D01*
X2989Y166D02*
X2998Y166D01*
X72Y165D02*
X80Y165D01*
X2989Y165D02*
X2997Y165D01*
X72Y164D02*
X81Y164D01*
X2988Y164D02*
X2997Y164D01*
X73Y163D02*
X82Y163D01*
X2987Y163D02*
X2996Y163D01*
X74Y162D02*
X82Y162D01*
X2987Y162D02*
X2995Y162D01*
X74Y161D02*
X83Y161D01*
X2986Y161D02*
X2995Y161D01*
X75Y160D02*
X84Y160D01*
X2985Y160D02*
X2994Y160D01*
X76Y159D02*
X85Y159D01*
X2984Y159D02*
X2993Y159D01*
X76Y158D02*
X86Y158D01*
X2983Y158D02*
X2993Y158D01*
X77Y157D02*
X86Y157D01*
X2983Y157D02*
X2992Y157D01*
X78Y156D02*
X87Y156D01*
X2982Y156D02*
X2991Y156D01*
X79Y155D02*
X88Y155D01*
X2981Y155D02*
X2990Y155D01*
X80Y154D02*
X89Y154D01*
X2980Y154D02*
X2989Y154D01*
X80Y153D02*
X89Y153D01*
X2980Y153D02*
X2989Y153D01*
X81Y152D02*
X90Y152D01*
X2979Y152D02*
X2988Y152D01*
X82Y151D02*
X91Y151D01*
X2978Y151D02*
X2987Y151D01*
X83Y150D02*
X92Y150D01*
X2977Y150D02*
X2986Y150D01*
X83Y149D02*
X93Y149D01*
X2976Y149D02*
X2986Y149D01*
X84Y148D02*
X93Y148D01*
X2976Y148D02*
X2985Y148D01*
X85Y147D02*
X94Y147D01*
X2975Y147D02*
X2984Y147D01*
X86Y146D02*
X95Y146D01*
X2974Y146D02*
X2983Y146D01*
X87Y145D02*
X96Y145D01*
X2973Y145D02*
X2982Y145D01*
X87Y144D02*
X97Y144D01*
X2972Y144D02*
X2982Y144D01*
X88Y143D02*
X98Y143D01*
X2971Y143D02*
X2981Y143D01*
X89Y142D02*
X99Y142D01*
X2970Y142D02*
X2980Y142D01*
X90Y141D02*
X99Y141D01*
X2970Y141D02*
X2979Y141D01*
X91Y140D02*
X100Y140D01*
X2969Y140D02*
X2978Y140D01*
X92Y139D02*
X101Y139D01*
X2968Y139D02*
X2977Y139D01*
X92Y138D02*
X102Y138D01*
X2967Y138D02*
X2977Y138D01*
X93Y137D02*
X103Y137D01*
X2966Y137D02*
X2976Y137D01*
X94Y136D02*
X104Y136D01*
X2965Y136D02*
X2975Y136D01*
X95Y135D02*
X105Y135D01*
X2964Y135D02*
X2974Y135D01*
X96Y134D02*
X105Y134D01*
X2964Y134D02*
X2973Y134D01*
X97Y133D02*
X106Y133D01*
X2963Y133D02*
X2972Y133D01*
X98Y132D02*
X107Y132D01*
X2962Y132D02*
X2971Y132D01*
X99Y131D02*
X108Y131D01*
X2961Y131D02*
X2970Y131D01*
X99Y130D02*
X109Y130D01*
X2960Y130D02*
X2970Y130D01*
X100Y129D02*
X110Y129D01*
X2959Y129D02*
X2969Y129D01*
X101Y128D02*
X111Y128D01*
X2958Y128D02*
X2968Y128D01*
X102Y127D02*
X112Y127D01*
X2957Y127D02*
X2967Y127D01*
X103Y126D02*
X113Y126D01*
X2956Y126D02*
X2966Y126D01*
X104Y125D02*
X114Y125D01*
X2955Y125D02*
X2965Y125D01*
X105Y124D02*
X115Y124D01*
X2954Y124D02*
X2964Y124D01*
X106Y123D02*
X116Y123D01*
X2953Y123D02*
X2963Y123D01*
X107Y122D02*
X117Y122D01*
X2952Y122D02*
X2962Y122D01*
X108Y121D02*
X118Y121D01*
X2951Y121D02*
X2961Y121D01*
X109Y120D02*
X119Y120D01*
X2950Y120D02*
X2960Y120D01*
X110Y119D02*
X120Y119D01*
X2949Y119D02*
X2959Y119D01*
X111Y118D02*
X121Y118D01*
X2948Y118D02*
X2958Y118D01*
X112Y117D02*
X122Y117D01*
X2947Y117D02*
X2957Y117D01*
X113Y116D02*
X123Y116D01*
X2946Y116D02*
X2956Y116D01*
X114Y115D02*
X124Y115D01*
X2945Y115D02*
X2955Y115D01*
X115Y114D02*
X125Y114D01*
X2944Y114D02*
X2954Y114D01*
X116Y113D02*
X126Y113D01*
X2943Y113D02*
X2953Y113D01*
X117Y112D02*
X127Y112D01*
X2942Y112D02*
X2952Y112D01*
X118Y111D02*
X128Y111D01*
X2941Y111D02*
X2951Y111D01*
X119Y110D02*
X129Y110D01*
X2940Y110D02*
X2950Y110D01*
X120Y109D02*
X130Y109D01*
X2939Y109D02*
X2949Y109D01*
X121Y108D02*
X131Y108D01*
X2938Y108D02*
X2948Y108D01*
X122Y107D02*
X133Y107D01*
X2936Y107D02*
X2947Y107D01*
X123Y106D02*
X134Y106D01*
X2935Y106D02*
X2946Y106D01*
X124Y105D02*
X135Y105D01*
X2934Y105D02*
X2945Y105D01*
X125Y104D02*
X136Y104D01*
X2933Y104D02*
X2944Y104D01*
X126Y103D02*
X137Y103D01*
X2932Y103D02*
X2943Y103D01*
X127Y102D02*
X138Y102D01*
X2931Y102D02*
X2942Y102D01*
X128Y101D02*
X139Y101D01*
X2930Y101D02*
X2941Y101D01*
X129Y100D02*
X141Y100D01*
X2928Y100D02*
X2940Y100D01*
X131Y99D02*
X142Y99D01*
X2927Y99D02*
X2938Y99D01*
X132Y98D02*
X143Y98D01*
X2926Y98D02*
X2937Y98D01*
X133Y97D02*
X144Y97D01*
X2925Y97D02*
X2936Y97D01*
X134Y96D02*
X145Y96D01*
X2924Y96D02*
X2935Y96D01*
X135Y95D02*
X147Y95D01*
X2922Y95D02*
X2934Y95D01*
X136Y94D02*
X148Y94D01*
X2921Y94D02*
X2933Y94D01*
X138Y93D02*
X149Y93D01*
X2920Y93D02*
X2931Y93D01*
X139Y92D02*
X150Y92D01*
X2919Y92D02*
X2930Y92D01*
X140Y91D02*
X152Y91D01*
X2917Y91D02*
X2929Y91D01*
X141Y90D02*
X153Y90D01*
X2916Y90D02*
X2928Y90D01*
X142Y89D02*
X154Y89D01*
X2915Y89D02*
X2927Y89D01*
X144Y88D02*
X155Y88D01*
X2914Y88D02*
X2925Y88D01*
X145Y87D02*
X157Y87D01*
X2912Y87D02*
X2924Y87D01*
X146Y86D02*
X158Y86D01*
X2911Y86D02*
X2923Y86D01*
X147Y85D02*
X159Y85D01*
X2910Y85D02*
X2922Y85D01*
X149Y84D02*
X161Y84D01*
X2908Y84D02*
X2920Y84D01*
X150Y83D02*
X162Y83D01*
X2907Y83D02*
X2919Y83D01*
X151Y82D02*
X163Y82D01*
X2906Y82D02*
X2918Y82D01*
X152Y81D02*
X165Y81D01*
X2904Y81D02*
X2917Y81D01*
X154Y80D02*
X166Y80D01*
X2903Y80D02*
X2915Y80D01*
X155Y79D02*
X168Y79D01*
X2901Y79D02*
X2914Y79D01*
X156Y78D02*
X169Y78D01*
X2900Y78D02*
X2913Y78D01*
X158Y77D02*
X170Y77D01*
X2899Y77D02*
X2911Y77D01*
X159Y76D02*
X172Y76D01*
X2897Y76D02*
X2910Y76D01*
X161Y75D02*
X173Y75D01*
X2896Y75D02*
X2908Y75D01*
X162Y74D02*
X175Y74D01*
X2894Y74D02*
X2907Y74D01*
X163Y73D02*
X176Y73D01*
X2893Y73D02*
X2906Y73D01*
X165Y72D02*
X178Y72D01*
X2891Y72D02*
X2904Y72D01*
X166Y71D02*
X179Y71D01*
X2890Y71D02*
X2903Y71D01*
X168Y70D02*
X181Y70D01*
X2888Y70D02*
X2901Y70D01*
X169Y69D02*
X182Y69D01*
X2887Y69D02*
X2900Y69D01*
X170Y68D02*
X184Y68D01*
X2885Y68D02*
X2899Y68D01*
X172Y67D02*
X185Y67D01*
X2884Y67D02*
X2897Y67D01*
X173Y66D02*
X187Y66D01*
X2882Y66D02*
X2896Y66D01*
X175Y65D02*
X189Y65D01*
X2880Y65D02*
X2894Y65D01*
X177Y64D02*
X190Y64D01*
X2879Y64D02*
X2892Y64D01*
X178Y63D02*
X192Y63D01*
X2877Y63D02*
X2891Y63D01*
X180Y62D02*
X194Y62D01*
X2875Y62D02*
X2889Y62D01*
X181Y61D02*
X195Y61D01*
X2874Y61D02*
X2888Y61D01*
X183Y60D02*
X197Y60D01*
X2872Y60D02*
X2886Y60D01*
X184Y59D02*
X199Y59D01*
X2870Y59D02*
X2885Y59D01*
X186Y58D02*
X201Y58D01*
X2868Y58D02*
X2883Y58D01*
X188Y57D02*
X202Y57D01*
X2867Y57D02*
X2881Y57D01*
X189Y56D02*
X204Y56D01*
X2865Y56D02*
X2880Y56D01*
X191Y55D02*
X206Y55D01*
X2863Y55D02*
X2878Y55D01*
X193Y54D02*
X208Y54D01*
X2861Y54D02*
X2876Y54D01*
X194Y53D02*
X210Y53D01*
X2859Y53D02*
X2875Y53D01*
X196Y52D02*
X212Y52D01*
X2857Y52D02*
X2873Y52D01*
X198Y51D02*
X214Y51D01*
X2855Y51D02*
X2871Y51D01*
X200Y50D02*
X216Y50D01*
X2853Y50D02*
X2869Y50D01*
X201Y49D02*
X217Y49D01*
X2852Y49D02*
X2868Y49D01*
X203Y48D02*
X219Y48D01*
X2850Y48D02*
X2866Y48D01*
X205Y47D02*
X221Y47D01*
X2848Y47D02*
X2864Y47D01*
X207Y46D02*
X224Y46D01*
X2845Y46D02*
X2862Y46D01*
X209Y45D02*
X226Y45D01*
X2843Y45D02*
X2860Y45D01*
X211Y44D02*
X228Y44D01*
X2841Y44D02*
X2858Y44D01*
X213Y43D02*
X230Y43D01*
X2839Y43D02*
X2856Y43D01*
X215Y42D02*
X232Y42D01*
X2837Y42D02*
X2854Y42D01*
X217Y41D02*
X235Y41D01*
X2834Y41D02*
X2852Y41D01*
X219Y40D02*
X237Y40D01*
X2832Y40D02*
X2850Y40D01*
X221Y39D02*
X239Y39D01*
X2830Y39D02*
X2848Y39D01*
X223Y38D02*
X242Y38D01*
X2827Y38D02*
X2846Y38D01*
X225Y37D02*
X244Y37D01*
X2825Y37D02*
X2844Y37D01*
X228Y36D02*
X247Y36D01*
X2822Y36D02*
X2841Y36D01*
X230Y35D02*
X249Y35D01*
X2820Y35D02*
X2839Y35D01*
X232Y34D02*
X252Y34D01*
X2817Y34D02*
X2837Y34D01*
X234Y33D02*
X254Y33D01*
X2815Y33D02*
X2835Y33D01*
X236Y32D02*
X257Y32D01*
X2812Y32D02*
X2833Y32D01*
X239Y31D02*
X260Y31D01*
X2809Y31D02*
X2830Y31D01*
X242Y30D02*
X263Y30D01*
X2806Y30D02*
X2827Y30D01*
X244Y29D02*
X266Y29D01*
X2803Y29D02*
X2825Y29D01*
X247Y28D02*
X269Y28D01*
X2800Y28D02*
X2822Y28D01*
X249Y27D02*
X272Y27D01*
X2797Y27D02*
X2820Y27D01*
X252Y26D02*
X275Y26D01*
X2794Y26D02*
X2817Y26D01*
X254Y25D02*
X278Y25D01*
X2791Y25D02*
X2815Y25D01*
X257Y24D02*
X282Y24D01*
X2787Y24D02*
X2812Y24D01*
X260Y23D02*
X285Y23D01*
X2784Y23D02*
X2809Y23D01*
X263Y22D02*
X289Y22D01*
X2780Y22D02*
X2806Y22D01*
X266Y21D02*
X293Y21D01*
X2776Y21D02*
X2803Y21D01*
X269Y20D02*
X297Y20D01*
X2772Y20D02*
X2800Y20D01*
X272Y19D02*
X301Y19D01*
X2768Y19D02*
X2797Y19D01*
X275Y18D02*
X306Y18D01*
X2763Y18D02*
X2794Y18D01*
X279Y17D02*
X310Y17D01*
X2759Y17D02*
X2790Y17D01*
X282Y16D02*
X316Y16D01*
X2753Y16D02*
X2787Y16D01*
X286Y15D02*
X321Y15D01*
X2748Y15D02*
X2783Y15D01*
X289Y14D02*
X327Y14D01*
X2742Y14D02*
X2780Y14D01*
X293Y13D02*
X334Y13D01*
X2735Y13D02*
X2776Y13D01*
X297Y12D02*
X342Y12D01*
X2727Y12D02*
X2772Y12D01*
X302Y11D02*
X352Y11D01*
X2717Y11D02*
X2767Y11D01*
X306Y10D02*
X366Y10D01*
X2703Y10D02*
X2763Y10D01*
X311Y9D02*
X2758Y9D01*
X316Y8D02*
X2753Y8D01*
X322Y7D02*
X2747Y7D01*
X328Y6D02*
X2741Y6D01*
X335Y5D02*
X2734Y5D01*
X343Y4D02*
X2726Y4D01*
X353Y3D02*
X2716Y3D01*
X367Y2D02*
X2702Y2D01*
D02*
G04 End of Silk0*
M02*