; NON-PLATED HOLES START AT T1
; THROUGH (PLATED) HOLES START AT T100
M48
INCH
T100C0.015748
T101C0.052000
T102C0.047244
T103C0.040000
T104C0.038000
%
T100
X010440Y015199
X010200Y031039
X020520Y003919
X027960Y027199
X021720Y033919
T101
X023588Y000783
X026588Y000783
T102
X006529Y008754
X012580Y018186
X007217Y006422
X007217Y013523
X019614Y002786
X008542Y004386
X012588Y001783
X021438Y015559
X019606Y017152
X022751Y006426
X006545Y011187
X021438Y004386
X014990Y001441
X010378Y017152
X017392Y018162
X010374Y002793
X008542Y015559
X014990Y018504
X023435Y008758
X022763Y013527
X023435Y011187
X017392Y001783
T103
X014588Y022783
X006588Y028783
X020214Y008579
X010588Y022783
X012588Y028783
X028588Y004783
X030588Y004783
X011588Y022783
X008588Y022783
X020214Y010579
X016588Y028783
X013588Y028783
X007588Y028783
X029588Y004783
X019214Y009579
X015588Y028783
X015588Y022783
X027588Y004783
X019588Y028783
X018588Y028783
X009588Y028783
X019214Y008579
X004588Y028783
X005588Y028783
X026588Y004783
X014588Y028783
X012588Y022783
X019214Y010579
X013588Y022783
X031588Y004783
X017588Y028783
X011588Y028783
X020214Y009579
X010588Y028783
X008588Y028783
X009588Y022783
T104
X031588Y028783
X003588Y010783
X013588Y037783
X022588Y026783
X022588Y029783
X024588Y036783
X002588Y036783
X012588Y037783
X002881Y010076
X022588Y025783
X032588Y028783
X003588Y036783
X022588Y023783
X022588Y024783
X022588Y028783
X022588Y027783
X022588Y022783
X023588Y036783
T00
M30
