G04 MADE WITH FRITZING*
G04 WWW.FRITZING.ORG*
G04 DOUBLE SIDED*
G04 HOLES PLATED*
G04 CONTOUR ON CENTER OF CONTOUR VECTOR*
%ASAXBY*%
%FSLAX23Y23*%
%MOIN*%
%OFA0B0*%
%SFA1.0B1.0*%
%ADD10C,0.092000*%
%ADD11C,0.071244*%
%ADD12C,0.064000*%
%ADD13C,0.078000*%
%ADD14C,0.074000*%
%ADD15C,0.039370*%
%ADD16R,0.092000X0.092000*%
%ADD17R,0.064000X0.064000*%
%ADD18R,0.078000X0.078000*%
%ADD19C,0.024000*%
%ADD20C,0.020000*%
%LNCOPPER1*%
G90*
G70*
G54D10*
X2359Y78D03*
X2659Y78D03*
G54D11*
X1499Y1850D03*
X722Y1352D03*
X655Y1119D03*
X1038Y1715D03*
X653Y875D03*
G54D12*
X2021Y858D03*
X1921Y858D03*
X2021Y958D03*
X1921Y958D03*
X2021Y1058D03*
G54D11*
X722Y642D03*
G54D12*
X1921Y1058D03*
G54D11*
X854Y1556D03*
X1258Y1819D03*
X1037Y279D03*
X2344Y876D03*
X2344Y1119D03*
X2276Y1353D03*
X2144Y1556D03*
X1961Y1715D03*
X1739Y1816D03*
X1259Y178D03*
X1499Y144D03*
X1739Y178D03*
X1961Y279D03*
X2144Y439D03*
X2275Y643D03*
X854Y439D03*
G54D13*
X359Y1078D03*
X288Y1008D03*
G54D14*
X459Y2878D03*
X559Y2878D03*
X659Y2878D03*
X759Y2878D03*
X859Y2878D03*
X959Y2878D03*
X1059Y2878D03*
X1159Y2878D03*
X1259Y2878D03*
X1359Y2878D03*
X1459Y2878D03*
X1559Y2878D03*
X1659Y2878D03*
X1759Y2878D03*
X1859Y2878D03*
X1959Y2878D03*
X859Y2278D03*
X959Y2278D03*
X1059Y2278D03*
X1159Y2278D03*
X1259Y2278D03*
X1359Y2278D03*
X1459Y2278D03*
X1559Y2278D03*
G54D13*
X2259Y2978D03*
X2259Y2878D03*
X2259Y2778D03*
X2259Y2678D03*
X2259Y2578D03*
X2259Y2478D03*
X2259Y2378D03*
X2259Y2278D03*
X359Y3678D03*
X259Y3678D03*
X1359Y3778D03*
X1259Y3778D03*
X2459Y3678D03*
X2359Y3678D03*
X3259Y2878D03*
X3159Y2878D03*
G54D14*
X3159Y478D03*
X3059Y478D03*
X2959Y478D03*
X2859Y478D03*
X2759Y478D03*
X2659Y478D03*
G54D15*
X2052Y392D03*
X2796Y2720D03*
X2172Y3392D03*
X1020Y3104D03*
X1044Y1520D03*
G54D16*
X2359Y78D03*
G54D17*
X2021Y858D03*
G54D18*
X2259Y2978D03*
X359Y3678D03*
X1359Y3778D03*
X2459Y3678D03*
X3259Y2878D03*
G54D19*
X1257Y213D02*
X1160Y2247D01*
D02*
X1733Y213D02*
X1364Y2248D01*
D02*
X1496Y179D02*
X1284Y2240D01*
X1284Y2240D02*
X1276Y2252D01*
D02*
X1899Y980D02*
X1572Y1304D01*
X1572Y1304D02*
X1572Y1904D01*
X1572Y1904D02*
X1524Y1904D01*
X1524Y1904D02*
X1464Y2248D01*
D02*
X2327Y906D02*
X1574Y2251D01*
D02*
X1069Y1700D02*
X1140Y1664D01*
X1140Y1664D02*
X1140Y152D01*
X1140Y152D02*
X1212Y80D01*
X1212Y80D02*
X1548Y80D01*
X1548Y80D02*
X2292Y176D01*
X2292Y176D02*
X2733Y461D01*
D02*
X1025Y1524D02*
X888Y1550D01*
D02*
X782Y2899D02*
X1006Y3092D01*
D02*
X2176Y3373D02*
X2253Y3008D01*
D02*
X2784Y2735D02*
X2628Y2936D01*
X2628Y2936D02*
X2289Y2975D01*
D02*
X2047Y410D02*
X1930Y828D01*
D02*
X2681Y108D02*
X2940Y453D01*
D02*
X359Y3648D02*
X372Y2744D01*
X372Y2744D02*
X836Y2300D01*
D02*
X2443Y3704D02*
X2412Y3752D01*
X2412Y3752D02*
X1389Y3778D01*
D02*
X2232Y2893D02*
X2196Y2912D01*
X2196Y2912D02*
X2124Y3008D01*
X2124Y3008D02*
X2124Y3440D01*
X2124Y3440D02*
X2434Y3661D01*
D02*
X3254Y2849D02*
X3252Y2840D01*
X3252Y2840D02*
X2892Y2648D01*
X2892Y2648D02*
X2724Y2648D01*
X2724Y2648D02*
X2286Y2865D01*
G54D20*
X400Y1078D02*
X359Y1037D01*
X318Y1078D01*
X359Y1119D01*
X400Y1078D01*
D02*
G04 End of Copper1*
M02*