G04 MADE WITH FRITZING*
G04 WWW.FRITZING.ORG*
G04 DOUBLE SIDED*
G04 HOLES PLATED*
G04 CONTOUR ON CENTER OF CONTOUR VECTOR*
%ASAXBY*%
%FSLAX23Y23*%
%MOIN*%
%OFA0B0*%
%SFA1.0B1.0*%
%ADD10C,0.092000*%
%ADD11C,0.071244*%
%ADD12C,0.064000*%
%ADD13C,0.078000*%
%ADD14C,0.074000*%
%ADD15C,0.039370*%
%ADD16R,0.092000X0.092000*%
%ADD17R,0.064000X0.064000*%
%ADD18R,0.078000X0.078000*%
%ADD19R,0.070866X0.106299*%
%ADD20C,0.024000*%
%ADD21C,0.020000*%
%LNCOPPER0*%
G90*
G70*
G54D10*
X2359Y78D03*
X2659Y78D03*
G54D11*
X1499Y1850D03*
X722Y1352D03*
X655Y1119D03*
X1038Y1715D03*
X653Y875D03*
G54D12*
X2021Y858D03*
X1921Y858D03*
X2021Y958D03*
X1921Y958D03*
X2021Y1058D03*
G54D11*
X722Y642D03*
G54D12*
X1921Y1058D03*
G54D11*
X854Y1556D03*
X1258Y1819D03*
X1037Y279D03*
X2344Y876D03*
X2344Y1119D03*
X2276Y1353D03*
X2144Y1556D03*
X1961Y1715D03*
X1739Y1816D03*
X1259Y178D03*
X1499Y144D03*
X1739Y178D03*
X1961Y279D03*
X2144Y439D03*
X2275Y643D03*
X854Y439D03*
G54D13*
X359Y1078D03*
X288Y1008D03*
G54D14*
X459Y2878D03*
X559Y2878D03*
X659Y2878D03*
X759Y2878D03*
X859Y2878D03*
X959Y2878D03*
X1059Y2878D03*
X1159Y2878D03*
X1259Y2878D03*
X1359Y2878D03*
X1459Y2878D03*
X1559Y2878D03*
X1659Y2878D03*
X1759Y2878D03*
X1859Y2878D03*
X1959Y2878D03*
X859Y2278D03*
X959Y2278D03*
X1059Y2278D03*
X1159Y2278D03*
X1259Y2278D03*
X1359Y2278D03*
X1459Y2278D03*
X1559Y2278D03*
G54D13*
X2259Y2978D03*
X2259Y2878D03*
X2259Y2778D03*
X2259Y2678D03*
X2259Y2578D03*
X2259Y2478D03*
X2259Y2378D03*
X2259Y2278D03*
X359Y3678D03*
X259Y3678D03*
X1359Y3778D03*
X1259Y3778D03*
X2459Y3678D03*
X2359Y3678D03*
X3259Y2878D03*
X3159Y2878D03*
G54D14*
X3159Y478D03*
X3059Y478D03*
X2959Y478D03*
X2859Y478D03*
X2759Y478D03*
X2659Y478D03*
G54D15*
X1044Y1520D03*
X1020Y3104D03*
X2172Y3392D03*
X2796Y2720D03*
X2052Y392D03*
G54D16*
X2359Y78D03*
G54D17*
X2021Y858D03*
G54D18*
X2259Y2978D03*
X359Y3678D03*
G54D19*
X259Y3378D03*
X86Y3378D03*
G54D18*
X1359Y3778D03*
G54D19*
X1059Y3478D03*
X1232Y3478D03*
G54D18*
X2459Y3678D03*
G54D19*
X1959Y3478D03*
X2132Y3478D03*
G54D18*
X3259Y2878D03*
G54D19*
X3059Y2678D03*
X2886Y2678D03*
G54D20*
X861Y3877D02*
X1329Y3784D01*
D02*
X387Y3689D02*
X861Y3877D01*
D02*
X347Y732D02*
X294Y978D01*
D02*
X455Y2847D02*
X252Y1040D01*
X252Y1040D02*
X266Y1028D01*
D02*
X1036Y314D02*
X972Y1760D01*
X972Y1760D02*
X984Y1760D01*
X984Y1760D02*
X1054Y2248D01*
D02*
X259Y3648D02*
X259Y3426D01*
D02*
X543Y2905D02*
X287Y3331D01*
D02*
X1969Y1749D02*
X2196Y2648D01*
X2196Y2648D02*
X2232Y2665D01*
D02*
X1755Y1847D02*
X2196Y2744D01*
X2196Y2744D02*
X2232Y2764D01*
D02*
X1089Y3519D02*
X1260Y3752D01*
X1260Y3752D02*
X1260Y3748D01*
D02*
X676Y2904D02*
X1029Y3434D01*
D02*
X2864Y509D02*
X2868Y536D01*
X2868Y536D02*
X1068Y536D01*
X1068Y536D02*
X1044Y1501D01*
D02*
X3145Y2851D02*
X3083Y2726D01*
D02*
X880Y2902D02*
X996Y3032D01*
X996Y3032D02*
X2340Y3056D01*
X2340Y3056D02*
X3036Y2720D01*
X3036Y2720D02*
X3059Y2678D01*
D02*
X2331Y3668D02*
X1980Y3536D01*
X1980Y3536D02*
X1976Y3526D01*
D02*
X1038Y3111D02*
X1929Y3466D01*
D02*
X2154Y3431D02*
X2164Y3409D01*
D02*
X2856Y2692D02*
X2813Y2712D01*
D02*
X1262Y3489D02*
X1980Y3752D01*
X1980Y3752D02*
X2532Y3752D01*
X2532Y3752D02*
X2532Y3584D01*
X2532Y3584D02*
X2162Y3486D01*
D02*
X98Y3426D02*
X180Y3752D01*
X180Y3752D02*
X756Y3920D01*
X756Y3920D02*
X948Y3920D01*
X948Y3920D02*
X1428Y3848D01*
X1428Y3848D02*
X1428Y3656D01*
X1428Y3656D02*
X1262Y3505D01*
D02*
X960Y2309D02*
X972Y2816D01*
X972Y2816D02*
X2028Y2816D01*
X2028Y2816D02*
X2234Y2961D01*
D02*
X679Y898D02*
X924Y1112D01*
X924Y1112D02*
X948Y2240D01*
X948Y2240D02*
X950Y2248D01*
D02*
X241Y527D02*
X324Y536D01*
X324Y536D02*
X660Y824D01*
X660Y824D02*
X658Y841D01*
D02*
X2356Y115D02*
X2340Y368D01*
X2340Y368D02*
X2071Y390D01*
D02*
X3036Y457D02*
X2964Y392D01*
X2964Y392D02*
X2340Y368D01*
D02*
X389Y1082D02*
X620Y1114D01*
D02*
X834Y2259D02*
X660Y2120D01*
X660Y2120D02*
X655Y1154D01*
D02*
X2949Y508D02*
X2916Y608D01*
X2916Y608D02*
X2076Y1112D01*
X2076Y1112D02*
X1956Y1112D01*
X1956Y1112D02*
X1938Y1084D01*
G54D21*
X400Y1078D02*
X359Y1037D01*
X318Y1078D01*
X359Y1119D01*
X400Y1078D01*
D02*
G36*
X339Y748D02*
X428Y659D01*
X378Y609D01*
X289Y698D01*
X339Y748D01*
G37*
D02*
G36*
X183Y592D02*
X273Y503D01*
X222Y453D01*
X133Y542D01*
X183Y592D01*
G37*
D02*
G04 End of Copper0*
M02*