G04 MADE WITH FRITZING*
G04 WWW.FRITZING.ORG*
G04 DOUBLE SIDED*
G04 HOLES PLATED*
G04 CONTOUR ON CENTER OF CONTOUR VECTOR*
%ASAXBY*%
%FSLAX23Y23*%
%MOIN*%
%OFA0B0*%
%SFA1.0B1.0*%
%ADD10C,0.102000*%
%ADD11C,0.081244*%
%ADD12C,0.074000*%
%ADD13C,0.088000*%
%ADD14C,0.084000*%
%ADD15C,0.049370*%
%ADD16R,0.102000X0.102000*%
%ADD17R,0.074000X0.074000*%
%ADD18R,0.088000X0.088000*%
%ADD19R,0.080866X0.116299*%
%ADD20C,0.030000*%
%ADD21C,0.010000*%
%LNMASK0*%
G90*
G70*
G54D10*
X2359Y78D03*
X2659Y78D03*
G54D11*
X1499Y1850D03*
X722Y1352D03*
X655Y1119D03*
X1038Y1715D03*
X653Y875D03*
G54D12*
X2021Y858D03*
X1921Y858D03*
X2021Y958D03*
X1921Y958D03*
X2021Y1058D03*
G54D11*
X722Y642D03*
G54D12*
X1921Y1058D03*
G54D11*
X854Y1556D03*
X1258Y1819D03*
X1037Y279D03*
X2344Y876D03*
X2344Y1119D03*
X2276Y1353D03*
X2144Y1556D03*
X1961Y1715D03*
X1739Y1816D03*
X1259Y178D03*
X1499Y144D03*
X1739Y178D03*
X1961Y279D03*
X2144Y439D03*
X2275Y643D03*
X854Y439D03*
G54D13*
X359Y1078D03*
X288Y1008D03*
G54D14*
X459Y2878D03*
X559Y2878D03*
X659Y2878D03*
X759Y2878D03*
X859Y2878D03*
X959Y2878D03*
X1059Y2878D03*
X1159Y2878D03*
X1259Y2878D03*
X1359Y2878D03*
X1459Y2878D03*
X1559Y2878D03*
X1659Y2878D03*
X1759Y2878D03*
X1859Y2878D03*
X1959Y2878D03*
X859Y2278D03*
X959Y2278D03*
X1059Y2278D03*
X1159Y2278D03*
X1259Y2278D03*
X1359Y2278D03*
X1459Y2278D03*
X1559Y2278D03*
G54D13*
X2259Y2978D03*
X2259Y2878D03*
X2259Y2778D03*
X2259Y2678D03*
X2259Y2578D03*
X2259Y2478D03*
X2259Y2378D03*
X2259Y2278D03*
X359Y3678D03*
X259Y3678D03*
X1359Y3778D03*
X1259Y3778D03*
X2459Y3678D03*
X2359Y3678D03*
X3259Y2878D03*
X3159Y2878D03*
G54D14*
X3159Y478D03*
X3059Y478D03*
X2959Y478D03*
X2859Y478D03*
X2759Y478D03*
X2659Y478D03*
G54D15*
X1044Y1520D03*
X1020Y3104D03*
X2172Y3392D03*
X2796Y2720D03*
X2052Y392D03*
G54D16*
X2359Y78D03*
G54D17*
X2021Y858D03*
G54D18*
X2259Y2978D03*
X359Y3678D03*
G54D19*
X259Y3378D03*
X86Y3378D03*
G54D18*
X1359Y3778D03*
G54D19*
X1059Y3478D03*
X1232Y3478D03*
G54D18*
X2459Y3678D03*
G54D19*
X1959Y3478D03*
X2132Y3478D03*
G54D18*
X3259Y2878D03*
G54D19*
X3059Y2678D03*
X2886Y2678D03*
G54D20*
G36*
X400Y1078D02*
X359Y1037D01*
X318Y1078D01*
X359Y1119D01*
X400Y1078D01*
G37*
D02*
G54D21*
G36*
X339Y748D02*
X428Y659D01*
X378Y609D01*
X289Y698D01*
X339Y748D01*
G37*
D02*
G36*
X183Y592D02*
X273Y503D01*
X222Y453D01*
X133Y542D01*
X183Y592D01*
G37*
D02*
G04 End of Mask0*
M02*