G04 MADE WITH FRITZING*
G04 WWW.FRITZING.ORG*
G04 DOUBLE SIDED*
G04 HOLES PLATED*
G04 CONTOUR ON CENTER OF CONTOUR VECTOR*
%ASAXBY*%
%FSLAX23Y23*%
%MOIN*%
%OFA0B0*%
%SFA1.0B1.0*%
%ADD10C,0.062992*%
%ADD11C,0.075000*%
%ADD12C,0.092000*%
%ADD13C,0.078000*%
%ADD14C,0.074000*%
%ADD15C,0.070000*%
%ADD16C,0.039370*%
%ADD17R,0.062992X0.062992*%
%ADD18R,0.092000X0.092000*%
%ADD19R,0.078000X0.078000*%
%ADD20R,0.070000X0.069972*%
%ADD21C,0.024000*%
%ADD22C,0.020000*%
%LNCOPPER0*%
G90*
G70*
G54D10*
X1366Y355D03*
X1366Y453D03*
X1766Y355D03*
X1766Y453D03*
G54D11*
X810Y432D03*
X1066Y432D03*
X810Y255D03*
X1066Y255D03*
G54D12*
X266Y255D03*
X266Y555D03*
G54D13*
X2966Y2255D03*
X2866Y2255D03*
X2066Y3055D03*
X1966Y3055D03*
X1066Y3055D03*
X966Y3055D03*
X266Y2955D03*
X166Y2955D03*
X366Y1255D03*
X296Y1184D03*
G54D14*
X166Y2555D03*
X266Y2555D03*
X366Y2555D03*
X466Y2555D03*
X566Y2555D03*
X666Y2555D03*
X766Y2555D03*
X866Y2555D03*
X966Y2555D03*
X1066Y2555D03*
X1166Y2555D03*
X1266Y2555D03*
X1366Y2555D03*
X1466Y2555D03*
X1566Y2555D03*
X1666Y2555D03*
X566Y1955D03*
X666Y1955D03*
X766Y1955D03*
X866Y1955D03*
X966Y1955D03*
X1066Y1955D03*
X1166Y1955D03*
X1266Y1955D03*
G54D13*
X1966Y2755D03*
X1966Y2655D03*
X1966Y2555D03*
X1966Y2455D03*
X1966Y2355D03*
X1966Y2255D03*
X1966Y2155D03*
X1966Y2055D03*
G54D14*
X2866Y155D03*
X2766Y155D03*
X2666Y155D03*
X2566Y155D03*
X2466Y155D03*
X2366Y155D03*
G54D15*
X2066Y1655D03*
X1966Y1655D03*
X1866Y1655D03*
X1766Y1655D03*
X1666Y1655D03*
X1566Y1655D03*
X1466Y1655D03*
X1366Y1655D03*
X1266Y1655D03*
X1166Y1655D03*
X1066Y1655D03*
X966Y1655D03*
X866Y1655D03*
X766Y1655D03*
X666Y1655D03*
X2066Y1055D03*
X1966Y1055D03*
X1866Y1055D03*
X1766Y1055D03*
X1666Y1055D03*
X1566Y1055D03*
X1466Y1055D03*
X1366Y1055D03*
X1266Y1055D03*
X1166Y1055D03*
X1066Y1055D03*
X966Y1055D03*
X866Y1055D03*
X766Y1055D03*
X666Y1055D03*
G54D14*
X566Y562D03*
X566Y455D03*
X566Y348D03*
X2166Y348D03*
X2166Y455D03*
X2166Y562D03*
G54D16*
X636Y2728D03*
X1740Y592D03*
X564Y1528D03*
X828Y1792D03*
X1524Y760D03*
X2124Y1576D03*
X2172Y1792D03*
X900Y2656D03*
X1716Y160D03*
X636Y2200D03*
X1908Y856D03*
X1788Y1840D03*
X1932Y2896D03*
X2484Y2104D03*
X60Y2656D03*
X516Y3088D03*
X732Y2200D03*
X2052Y856D03*
G54D17*
X1366Y355D03*
X1766Y355D03*
G54D18*
X266Y255D03*
G54D19*
X2966Y2255D03*
X2066Y3055D03*
X1066Y3055D03*
X266Y2955D03*
X1966Y2755D03*
G54D20*
X2066Y1655D03*
G54D21*
X966Y1684D02*
X966Y1924D01*
D02*
X540Y437D02*
X297Y275D01*
D02*
X871Y1924D02*
X900Y1720D01*
X900Y1720D02*
X612Y1720D01*
X612Y1720D02*
X612Y1600D01*
X612Y1600D02*
X1044Y1600D01*
X1044Y1600D02*
X1055Y1628D01*
D02*
X2194Y442D02*
X2748Y184D01*
X2748Y184D02*
X2750Y181D01*
D02*
X560Y2524D02*
X276Y1216D01*
X276Y1216D02*
X280Y1210D01*
D02*
X388Y2577D02*
X540Y2728D01*
X540Y2728D02*
X617Y2728D01*
D02*
X1744Y573D02*
X1761Y479D01*
D02*
X564Y1547D02*
X564Y1768D01*
X564Y1768D02*
X809Y1790D01*
D02*
X2060Y1626D02*
X1956Y1120D01*
X1956Y1120D02*
X2124Y1120D01*
X2124Y1120D02*
X2124Y1000D01*
X2124Y1000D02*
X1524Y976D01*
X1524Y976D02*
X1524Y779D01*
D02*
X2125Y1557D02*
X2172Y928D01*
X2172Y928D02*
X1572Y904D01*
X1572Y904D02*
X1572Y712D01*
X1572Y712D02*
X1476Y712D01*
X1476Y712D02*
X1375Y1027D01*
D02*
X2153Y1788D02*
X1668Y1696D01*
X1668Y1696D02*
X1667Y1684D01*
D02*
X1068Y283D02*
X1068Y280D01*
X1068Y280D02*
X612Y688D01*
X612Y688D02*
X612Y1120D01*
X612Y1120D02*
X1343Y1638D01*
D02*
X180Y2583D02*
X180Y2584D01*
X180Y2584D02*
X492Y2776D01*
X492Y2776D02*
X684Y2776D01*
X684Y2776D02*
X883Y2665D01*
D02*
X1721Y178D02*
X1760Y329D01*
D02*
X1390Y342D02*
X1699Y169D01*
D02*
X1094Y425D02*
X1340Y361D01*
D02*
X239Y529D02*
X180Y472D01*
X180Y472D02*
X180Y184D01*
X180Y184D02*
X444Y184D01*
X444Y184D02*
X787Y416D01*
D02*
X362Y1225D02*
X271Y591D01*
D02*
X575Y1985D02*
X631Y2181D01*
D02*
X1905Y837D02*
X1836Y424D01*
X1836Y424D02*
X1785Y374D01*
D02*
X2651Y128D02*
X2628Y88D01*
X2628Y88D02*
X2292Y88D01*
X2292Y88D02*
X1790Y342D01*
D02*
X1943Y2636D02*
X1908Y2608D01*
X1908Y2608D02*
X1791Y1858D01*
D02*
X2049Y3030D02*
X2004Y2968D01*
X2004Y2968D02*
X1860Y2968D01*
X1860Y2968D02*
X1860Y2728D01*
X1860Y2728D02*
X1941Y2672D01*
D02*
X1096Y3051D02*
X1860Y2968D01*
D02*
X296Y2956D02*
X1044Y2992D01*
X1044Y2992D02*
X1056Y3026D01*
D02*
X2945Y2276D02*
X2604Y2608D01*
X2604Y2608D02*
X1980Y2608D01*
X1980Y2608D02*
X1975Y2626D01*
D02*
X1959Y2784D02*
X1936Y2877D01*
D02*
X2503Y2105D02*
X3036Y2152D01*
X3036Y2152D02*
X3036Y2320D01*
X3036Y2320D02*
X2652Y2656D01*
X2652Y2656D02*
X1996Y2750D01*
D02*
X63Y2675D02*
X108Y3016D01*
X108Y3016D02*
X497Y3084D01*
D02*
X674Y1985D02*
X727Y2181D01*
D02*
X2071Y856D02*
X2220Y856D01*
X2220Y856D02*
X2480Y2085D01*
D02*
X2172Y592D02*
X2220Y856D01*
G54D22*
X407Y1255D02*
X366Y1214D01*
X325Y1255D01*
X366Y1296D01*
X407Y1255D01*
D02*
G04 End of Copper0*
M02*