G04 MADE WITH FRITZING*
G04 WWW.FRITZING.ORG*
G04 DOUBLE SIDED*
G04 HOLES PLATED*
G04 CONTOUR ON CENTER OF CONTOUR VECTOR*
%ASAXBY*%
%FSLAX23Y23*%
%MOIN*%
%OFA0B0*%
%SFA1.0B1.0*%
%ADD10C,0.008*%
%LNCONTOUR*%
G90*
G70*
G54D10*
X372Y3268D02*
X373Y3268D01*
X374Y3268D01*
X375Y3268D01*
X376Y3268D01*
X377Y3268D01*
X378Y3268D01*
X379Y3268D01*
X380Y3268D01*
X381Y3268D01*
X382Y3268D01*
X383Y3268D01*
X384Y3268D01*
X385Y3268D01*
X386Y3268D01*
X387Y3268D01*
X388Y3268D01*
X389Y3268D01*
X390Y3268D01*
X391Y3268D01*
X392Y3268D01*
X393Y3268D01*
X394Y3268D01*
X395Y3268D01*
X396Y3268D01*
X397Y3268D01*
X398Y3268D01*
X399Y3268D01*
X400Y3268D01*
X401Y3268D01*
X402Y3268D01*
X403Y3268D01*
X404Y3268D01*
X405Y3268D01*
X406Y3268D01*
X407Y3268D01*
X408Y3268D01*
X409Y3268D01*
X410Y3268D01*
X411Y3268D01*
X412Y3268D01*
X413Y3268D01*
X414Y3268D01*
X415Y3268D01*
X416Y3268D01*
X417Y3268D01*
X418Y3268D01*
X419Y3268D01*
X420Y3268D01*
X421Y3268D01*
X422Y3268D01*
X423Y3268D01*
X424Y3268D01*
X425Y3268D01*
X426Y3268D01*
X427Y3268D01*
X428Y3268D01*
X429Y3268D01*
X430Y3268D01*
X431Y3268D01*
X432Y3268D01*
X433Y3268D01*
X434Y3268D01*
X435Y3268D01*
X436Y3268D01*
X437Y3268D01*
X438Y3268D01*
X439Y3268D01*
X440Y3268D01*
X441Y3268D01*
X442Y3268D01*
X443Y3268D01*
X444Y3268D01*
X445Y3268D01*
X446Y3268D01*
X447Y3268D01*
X448Y3268D01*
X449Y3268D01*
X450Y3268D01*
X451Y3268D01*
X452Y3268D01*
X453Y3268D01*
X454Y3268D01*
X455Y3268D01*
X456Y3268D01*
X457Y3268D01*
X458Y3268D01*
X459Y3268D01*
X460Y3268D01*
X461Y3268D01*
X462Y3268D01*
X463Y3268D01*
X464Y3268D01*
X465Y3268D01*
X466Y3268D01*
X467Y3268D01*
X468Y3268D01*
X469Y3268D01*
X470Y3268D01*
X471Y3268D01*
X472Y3268D01*
X473Y3268D01*
X474Y3268D01*
X475Y3268D01*
X476Y3268D01*
X477Y3268D01*
X478Y3268D01*
X479Y3268D01*
X480Y3268D01*
X481Y3268D01*
X482Y3268D01*
X483Y3268D01*
X484Y3268D01*
X485Y3268D01*
X486Y3268D01*
X487Y3268D01*
X488Y3268D01*
X489Y3268D01*
X490Y3268D01*
X491Y3268D01*
X492Y3268D01*
X493Y3268D01*
X494Y3268D01*
X495Y3268D01*
X496Y3268D01*
X497Y3268D01*
X498Y3268D01*
X499Y3268D01*
X500Y3268D01*
X501Y3268D01*
X502Y3268D01*
X503Y3268D01*
X504Y3268D01*
X505Y3268D01*
X506Y3268D01*
X507Y3268D01*
X508Y3268D01*
X509Y3268D01*
X510Y3268D01*
X511Y3268D01*
X512Y3268D01*
X513Y3268D01*
X514Y3268D01*
X515Y3268D01*
X516Y3268D01*
X517Y3268D01*
X518Y3268D01*
X519Y3268D01*
X520Y3268D01*
X521Y3268D01*
X522Y3268D01*
X523Y3268D01*
X524Y3268D01*
X525Y3268D01*
X526Y3268D01*
X527Y3268D01*
X528Y3268D01*
X529Y3268D01*
X530Y3268D01*
X531Y3268D01*
X532Y3268D01*
X533Y3268D01*
X534Y3268D01*
X535Y3268D01*
X536Y3268D01*
X537Y3268D01*
X538Y3268D01*
X539Y3268D01*
X540Y3268D01*
X541Y3268D01*
X542Y3268D01*
X543Y3268D01*
X544Y3268D01*
X545Y3268D01*
X546Y3268D01*
X547Y3268D01*
X548Y3268D01*
X549Y3268D01*
X550Y3268D01*
X551Y3268D01*
X552Y3268D01*
X553Y3268D01*
X554Y3268D01*
X555Y3268D01*
X556Y3268D01*
X557Y3268D01*
X558Y3268D01*
X559Y3268D01*
X560Y3268D01*
X561Y3268D01*
X562Y3268D01*
X563Y3268D01*
X564Y3268D01*
X565Y3268D01*
X566Y3268D01*
X567Y3268D01*
X568Y3268D01*
X569Y3268D01*
X570Y3268D01*
X571Y3268D01*
X572Y3268D01*
X573Y3268D01*
X574Y3268D01*
X575Y3268D01*
X576Y3268D01*
X577Y3268D01*
X578Y3268D01*
X579Y3268D01*
X580Y3268D01*
X581Y3268D01*
X582Y3268D01*
X583Y3268D01*
X584Y3268D01*
X585Y3268D01*
X586Y3268D01*
X587Y3268D01*
X588Y3268D01*
X589Y3268D01*
X590Y3268D01*
X591Y3268D01*
X592Y3268D01*
X593Y3268D01*
X594Y3268D01*
X595Y3268D01*
X596Y3268D01*
X597Y3268D01*
X598Y3268D01*
X599Y3268D01*
X600Y3268D01*
X601Y3268D01*
X602Y3268D01*
X603Y3268D01*
X604Y3268D01*
X605Y3268D01*
X606Y3268D01*
X607Y3268D01*
X608Y3268D01*
X609Y3268D01*
X610Y3268D01*
X611Y3268D01*
X612Y3268D01*
X613Y3268D01*
X614Y3268D01*
X615Y3268D01*
X616Y3268D01*
X617Y3268D01*
X618Y3268D01*
X619Y3268D01*
X620Y3268D01*
X621Y3268D01*
X622Y3268D01*
X623Y3268D01*
X624Y3268D01*
X625Y3268D01*
X626Y3268D01*
X627Y3268D01*
X628Y3268D01*
X629Y3268D01*
X630Y3268D01*
X631Y3268D01*
X632Y3268D01*
X633Y3268D01*
X634Y3268D01*
X635Y3268D01*
X636Y3268D01*
X637Y3268D01*
X638Y3268D01*
X639Y3268D01*
X640Y3268D01*
X641Y3268D01*
X642Y3268D01*
X643Y3268D01*
X644Y3268D01*
X645Y3268D01*
X646Y3268D01*
X647Y3268D01*
X648Y3268D01*
X649Y3268D01*
X650Y3268D01*
X651Y3268D01*
X652Y3268D01*
X653Y3268D01*
X654Y3268D01*
X655Y3268D01*
X656Y3268D01*
X657Y3268D01*
X658Y3268D01*
X659Y3268D01*
X660Y3268D01*
X661Y3268D01*
X662Y3268D01*
X663Y3268D01*
X664Y3268D01*
X665Y3268D01*
X666Y3268D01*
X667Y3268D01*
X668Y3268D01*
X669Y3268D01*
X670Y3268D01*
X671Y3268D01*
X672Y3268D01*
X673Y3268D01*
X674Y3268D01*
X675Y3268D01*
X676Y3268D01*
X677Y3268D01*
X678Y3268D01*
X679Y3268D01*
X680Y3268D01*
X681Y3268D01*
X682Y3268D01*
X683Y3268D01*
X684Y3268D01*
X685Y3268D01*
X686Y3268D01*
X687Y3268D01*
X688Y3268D01*
X689Y3268D01*
X690Y3268D01*
X691Y3268D01*
X692Y3268D01*
X693Y3268D01*
X694Y3268D01*
X695Y3268D01*
X696Y3268D01*
X697Y3268D01*
X698Y3268D01*
X699Y3268D01*
X700Y3268D01*
X701Y3268D01*
X702Y3268D01*
X703Y3268D01*
X704Y3268D01*
X705Y3268D01*
X706Y3268D01*
X707Y3268D01*
X708Y3268D01*
X709Y3268D01*
X710Y3268D01*
X711Y3268D01*
X712Y3268D01*
X713Y3268D01*
X714Y3268D01*
X715Y3268D01*
X716Y3268D01*
X717Y3268D01*
X718Y3268D01*
X719Y3268D01*
X720Y3268D01*
X721Y3268D01*
X722Y3268D01*
X723Y3268D01*
X724Y3268D01*
X725Y3268D01*
X726Y3268D01*
X727Y3268D01*
X728Y3268D01*
X729Y3268D01*
X730Y3268D01*
X731Y3268D01*
X732Y3268D01*
X733Y3268D01*
X734Y3268D01*
X735Y3268D01*
X736Y3268D01*
X737Y3268D01*
X738Y3268D01*
X739Y3268D01*
X740Y3268D01*
X741Y3268D01*
X742Y3268D01*
X743Y3268D01*
X744Y3268D01*
X745Y3268D01*
X746Y3268D01*
X747Y3268D01*
X748Y3268D01*
X749Y3268D01*
X750Y3268D01*
X751Y3268D01*
X752Y3268D01*
X753Y3268D01*
X754Y3268D01*
X755Y3268D01*
X756Y3268D01*
X757Y3268D01*
X758Y3268D01*
X759Y3268D01*
X760Y3268D01*
X761Y3268D01*
X762Y3268D01*
X763Y3268D01*
X764Y3268D01*
X765Y3268D01*
X766Y3268D01*
X767Y3268D01*
X768Y3268D01*
X769Y3268D01*
X770Y3268D01*
X771Y3268D01*
X772Y3268D01*
X773Y3268D01*
X774Y3268D01*
X775Y3268D01*
X776Y3268D01*
X777Y3268D01*
X778Y3268D01*
X779Y3268D01*
X780Y3268D01*
X781Y3268D01*
X782Y3268D01*
X783Y3268D01*
X784Y3268D01*
X785Y3268D01*
X786Y3268D01*
X787Y3268D01*
X788Y3268D01*
X789Y3268D01*
X790Y3268D01*
X791Y3268D01*
X792Y3268D01*
X793Y3268D01*
X794Y3268D01*
X795Y3268D01*
X796Y3268D01*
X797Y3268D01*
X798Y3268D01*
X799Y3268D01*
X800Y3268D01*
X801Y3268D01*
X802Y3268D01*
X803Y3268D01*
X804Y3268D01*
X805Y3268D01*
X806Y3268D01*
X807Y3268D01*
X808Y3268D01*
X809Y3268D01*
X810Y3268D01*
X811Y3268D01*
X812Y3268D01*
X813Y3268D01*
X814Y3268D01*
X815Y3268D01*
X816Y3268D01*
X817Y3268D01*
X818Y3268D01*
X819Y3268D01*
X820Y3268D01*
X821Y3268D01*
X822Y3268D01*
X823Y3268D01*
X824Y3268D01*
X825Y3268D01*
X826Y3268D01*
X827Y3268D01*
X828Y3268D01*
X829Y3268D01*
X830Y3268D01*
X831Y3268D01*
X832Y3268D01*
X833Y3268D01*
X834Y3268D01*
X835Y3268D01*
X836Y3268D01*
X837Y3268D01*
X838Y3268D01*
X839Y3268D01*
X840Y3268D01*
X841Y3268D01*
X842Y3268D01*
X843Y3268D01*
X844Y3268D01*
X845Y3268D01*
X846Y3268D01*
X847Y3268D01*
X848Y3268D01*
X849Y3268D01*
X850Y3268D01*
X851Y3268D01*
X852Y3268D01*
X853Y3268D01*
X854Y3268D01*
X855Y3268D01*
X856Y3268D01*
X857Y3268D01*
X858Y3268D01*
X859Y3268D01*
X860Y3268D01*
X861Y3268D01*
X862Y3268D01*
X863Y3268D01*
X864Y3268D01*
X865Y3268D01*
X866Y3268D01*
X867Y3268D01*
X868Y3268D01*
X869Y3268D01*
X870Y3268D01*
X871Y3268D01*
X872Y3268D01*
X873Y3268D01*
X874Y3268D01*
X875Y3268D01*
X876Y3268D01*
X877Y3268D01*
X878Y3268D01*
X879Y3268D01*
X880Y3268D01*
X881Y3268D01*
X882Y3268D01*
X883Y3268D01*
X884Y3268D01*
X885Y3268D01*
X886Y3268D01*
X887Y3268D01*
X888Y3268D01*
X889Y3268D01*
X890Y3268D01*
X891Y3268D01*
X892Y3268D01*
X893Y3268D01*
X894Y3268D01*
X895Y3268D01*
X896Y3268D01*
X897Y3268D01*
X898Y3268D01*
X899Y3268D01*
X900Y3268D01*
X901Y3268D01*
X902Y3268D01*
X903Y3268D01*
X904Y3268D01*
X905Y3268D01*
X906Y3268D01*
X907Y3268D01*
X908Y3268D01*
X909Y3268D01*
X910Y3268D01*
X911Y3268D01*
X912Y3268D01*
X913Y3268D01*
X914Y3268D01*
X915Y3268D01*
X916Y3268D01*
X917Y3268D01*
X918Y3268D01*
X919Y3268D01*
X920Y3268D01*
X921Y3268D01*
X922Y3268D01*
X923Y3268D01*
X924Y3268D01*
X925Y3268D01*
X926Y3268D01*
X927Y3268D01*
X928Y3268D01*
X929Y3268D01*
X930Y3268D01*
X931Y3268D01*
X932Y3268D01*
X933Y3268D01*
X934Y3268D01*
X935Y3268D01*
X936Y3268D01*
X937Y3268D01*
X938Y3268D01*
X939Y3268D01*
X940Y3268D01*
X941Y3268D01*
X942Y3268D01*
X943Y3268D01*
X944Y3268D01*
X945Y3268D01*
X946Y3268D01*
X947Y3268D01*
X948Y3268D01*
X949Y3268D01*
X950Y3268D01*
X951Y3268D01*
X952Y3268D01*
X953Y3268D01*
X954Y3268D01*
X955Y3268D01*
X956Y3268D01*
X957Y3268D01*
X958Y3268D01*
X959Y3268D01*
X960Y3268D01*
X961Y3268D01*
X962Y3268D01*
X963Y3268D01*
X964Y3268D01*
X965Y3268D01*
X966Y3268D01*
X967Y3268D01*
X968Y3268D01*
X969Y3268D01*
X970Y3268D01*
X971Y3268D01*
X972Y3268D01*
X973Y3268D01*
X974Y3268D01*
X975Y3268D01*
X976Y3268D01*
X977Y3268D01*
X978Y3268D01*
X979Y3268D01*
X980Y3268D01*
X981Y3268D01*
X982Y3268D01*
X983Y3268D01*
X984Y3268D01*
X985Y3268D01*
X986Y3268D01*
X987Y3268D01*
X988Y3268D01*
X989Y3268D01*
X990Y3268D01*
X991Y3268D01*
X992Y3268D01*
X993Y3268D01*
X994Y3268D01*
X995Y3268D01*
X996Y3268D01*
X997Y3268D01*
X998Y3268D01*
X999Y3268D01*
X1000Y3268D01*
X1001Y3268D01*
X1002Y3268D01*
X1003Y3268D01*
X1004Y3268D01*
X1005Y3268D01*
X1006Y3268D01*
X1007Y3268D01*
X1008Y3268D01*
X1009Y3268D01*
X1010Y3268D01*
X1011Y3268D01*
X1012Y3268D01*
X1013Y3268D01*
X1014Y3268D01*
X1015Y3268D01*
X1016Y3268D01*
X1017Y3268D01*
X1018Y3268D01*
X1019Y3268D01*
X1020Y3268D01*
X1021Y3268D01*
X1022Y3268D01*
X1023Y3268D01*
X1024Y3268D01*
X1025Y3268D01*
X1026Y3268D01*
X1027Y3268D01*
X1028Y3268D01*
X1029Y3268D01*
X1030Y3268D01*
X1031Y3268D01*
X1032Y3268D01*
X1033Y3268D01*
X1034Y3268D01*
X1035Y3268D01*
X1036Y3268D01*
X1037Y3268D01*
X1038Y3268D01*
X1039Y3268D01*
X1040Y3268D01*
X1041Y3268D01*
X1042Y3268D01*
X1043Y3268D01*
X1044Y3268D01*
X1045Y3268D01*
X1046Y3268D01*
X1047Y3268D01*
X1048Y3268D01*
X1049Y3268D01*
X1050Y3268D01*
X1051Y3268D01*
X1052Y3268D01*
X1053Y3268D01*
X1054Y3268D01*
X1055Y3268D01*
X1056Y3268D01*
X1057Y3268D01*
X1058Y3268D01*
X1059Y3268D01*
X1060Y3268D01*
X1061Y3268D01*
X1062Y3268D01*
X1063Y3268D01*
X1064Y3268D01*
X1065Y3268D01*
X1066Y3268D01*
X1067Y3268D01*
X1068Y3268D01*
X1069Y3268D01*
X1070Y3268D01*
X1071Y3268D01*
X1072Y3268D01*
X1073Y3268D01*
X1074Y3268D01*
X1075Y3268D01*
X1076Y3268D01*
X1077Y3268D01*
X1078Y3268D01*
X1079Y3268D01*
X1080Y3268D01*
X1081Y3268D01*
X1082Y3268D01*
X1083Y3268D01*
X1084Y3268D01*
X1085Y3268D01*
X1086Y3268D01*
X1087Y3268D01*
X1088Y3268D01*
X1089Y3268D01*
X1090Y3268D01*
X1091Y3268D01*
X1092Y3268D01*
X1093Y3268D01*
X1094Y3268D01*
X1095Y3268D01*
X1096Y3268D01*
X1097Y3268D01*
X1098Y3268D01*
X1099Y3268D01*
X1100Y3268D01*
X1101Y3268D01*
X1102Y3268D01*
X1103Y3268D01*
X1104Y3268D01*
X1105Y3268D01*
X1106Y3268D01*
X1107Y3268D01*
X1108Y3268D01*
X1109Y3268D01*
X1110Y3268D01*
X1111Y3268D01*
X1112Y3268D01*
X1113Y3268D01*
X1114Y3268D01*
X1115Y3268D01*
X1116Y3268D01*
X1117Y3268D01*
X1118Y3268D01*
X1119Y3268D01*
X1120Y3268D01*
X1121Y3268D01*
X1122Y3268D01*
X1123Y3268D01*
X1124Y3268D01*
X1125Y3268D01*
X1126Y3268D01*
X1127Y3268D01*
X1128Y3268D01*
X1129Y3268D01*
X1130Y3268D01*
X1131Y3268D01*
X1132Y3268D01*
X1133Y3268D01*
X1134Y3268D01*
X1135Y3268D01*
X1136Y3268D01*
X1137Y3268D01*
X1138Y3268D01*
X1139Y3268D01*
X1140Y3268D01*
X1141Y3268D01*
X1142Y3268D01*
X1143Y3268D01*
X1144Y3268D01*
X1145Y3268D01*
X1146Y3268D01*
X1147Y3268D01*
X1148Y3268D01*
X1149Y3268D01*
X1150Y3268D01*
X1151Y3268D01*
X1152Y3268D01*
X1153Y3268D01*
X1154Y3268D01*
X1155Y3268D01*
X1156Y3268D01*
X1157Y3268D01*
X1158Y3268D01*
X1159Y3268D01*
X1160Y3268D01*
X1161Y3268D01*
X1162Y3268D01*
X1163Y3268D01*
X1164Y3268D01*
X1165Y3268D01*
X1166Y3268D01*
X1167Y3268D01*
X1168Y3268D01*
X1169Y3268D01*
X1170Y3268D01*
X1171Y3268D01*
X1172Y3268D01*
X1173Y3268D01*
X1174Y3268D01*
X1175Y3268D01*
X1176Y3268D01*
X1177Y3268D01*
X1178Y3268D01*
X1179Y3268D01*
X1180Y3268D01*
X1181Y3268D01*
X1182Y3268D01*
X1183Y3268D01*
X1184Y3268D01*
X1185Y3268D01*
X1186Y3268D01*
X1187Y3268D01*
X1188Y3268D01*
X1189Y3268D01*
X1190Y3268D01*
X1191Y3268D01*
X1192Y3268D01*
X1193Y3268D01*
X1194Y3268D01*
X1195Y3268D01*
X1196Y3268D01*
X1197Y3268D01*
X1198Y3268D01*
X1199Y3268D01*
X1200Y3268D01*
X1201Y3268D01*
X1202Y3268D01*
X1203Y3268D01*
X1204Y3268D01*
X1205Y3268D01*
X1206Y3268D01*
X1207Y3268D01*
X1208Y3268D01*
X1209Y3268D01*
X1210Y3268D01*
X1211Y3268D01*
X1212Y3268D01*
X1213Y3268D01*
X1214Y3268D01*
X1215Y3268D01*
X1216Y3268D01*
X1217Y3268D01*
X1218Y3268D01*
X1219Y3268D01*
X1220Y3268D01*
X1221Y3268D01*
X1222Y3268D01*
X1223Y3268D01*
X1224Y3268D01*
X1225Y3268D01*
X1226Y3268D01*
X1227Y3268D01*
X1228Y3268D01*
X1229Y3268D01*
X1230Y3268D01*
X1231Y3268D01*
X1232Y3268D01*
X1233Y3268D01*
X1234Y3268D01*
X1235Y3268D01*
X1236Y3268D01*
X1237Y3268D01*
X1238Y3268D01*
X1239Y3268D01*
X1240Y3268D01*
X1241Y3268D01*
X1242Y3268D01*
X1243Y3268D01*
X1244Y3268D01*
X1245Y3268D01*
X1246Y3268D01*
X1247Y3268D01*
X1248Y3268D01*
X1249Y3268D01*
X1250Y3268D01*
X1251Y3268D01*
X1252Y3268D01*
X1253Y3268D01*
X1254Y3268D01*
X1255Y3268D01*
X1256Y3268D01*
X1257Y3268D01*
X1258Y3268D01*
X1259Y3268D01*
X1260Y3268D01*
X1261Y3268D01*
X1262Y3268D01*
X1263Y3268D01*
X1264Y3268D01*
X1265Y3268D01*
X1266Y3268D01*
X1267Y3268D01*
X1268Y3268D01*
X1269Y3268D01*
X1270Y3268D01*
X1271Y3268D01*
X1272Y3268D01*
X1273Y3268D01*
X1274Y3268D01*
X1275Y3268D01*
X1276Y3268D01*
X1277Y3268D01*
X1278Y3268D01*
X1279Y3268D01*
X1280Y3268D01*
X1281Y3268D01*
X1282Y3268D01*
X1283Y3268D01*
X1284Y3268D01*
X1285Y3268D01*
X1286Y3268D01*
X1287Y3268D01*
X1288Y3268D01*
X1289Y3268D01*
X1290Y3268D01*
X1291Y3268D01*
X1292Y3268D01*
X1293Y3268D01*
X1294Y3268D01*
X1295Y3268D01*
X1296Y3268D01*
X1297Y3268D01*
X1298Y3268D01*
X1299Y3268D01*
X1300Y3268D01*
X1301Y3268D01*
X1302Y3268D01*
X1303Y3268D01*
X1304Y3268D01*
X1305Y3268D01*
X1306Y3268D01*
X1307Y3268D01*
X1308Y3268D01*
X1309Y3268D01*
X1310Y3268D01*
X1311Y3268D01*
X1312Y3268D01*
X1313Y3268D01*
X1314Y3268D01*
X1315Y3268D01*
X1316Y3268D01*
X1317Y3268D01*
X1318Y3268D01*
X1319Y3268D01*
X1320Y3268D01*
X1321Y3268D01*
X1322Y3268D01*
X1323Y3268D01*
X1324Y3268D01*
X1325Y3268D01*
X1326Y3268D01*
X1327Y3268D01*
X1328Y3268D01*
X1329Y3268D01*
X1330Y3268D01*
X1331Y3268D01*
X1332Y3268D01*
X1333Y3268D01*
X1334Y3268D01*
X1335Y3268D01*
X1336Y3268D01*
X1337Y3268D01*
X1338Y3268D01*
X1339Y3268D01*
X1340Y3268D01*
X1341Y3268D01*
X1342Y3268D01*
X1343Y3268D01*
X1344Y3268D01*
X1345Y3268D01*
X1346Y3268D01*
X1347Y3268D01*
X1348Y3268D01*
X1349Y3268D01*
X1350Y3268D01*
X1351Y3268D01*
X1352Y3268D01*
X1353Y3268D01*
X1354Y3268D01*
X1355Y3268D01*
X1356Y3268D01*
X1357Y3268D01*
X1358Y3268D01*
X1359Y3268D01*
X1360Y3268D01*
X1361Y3268D01*
X1362Y3268D01*
X1363Y3268D01*
X1364Y3268D01*
X1365Y3268D01*
X1366Y3268D01*
X1367Y3268D01*
X1368Y3268D01*
X1369Y3268D01*
X1370Y3268D01*
X1371Y3268D01*
X1372Y3268D01*
X1373Y3268D01*
X1374Y3268D01*
X1375Y3268D01*
X1376Y3268D01*
X1377Y3268D01*
X1378Y3268D01*
X1379Y3268D01*
X1380Y3268D01*
X1381Y3268D01*
X1382Y3268D01*
X1383Y3268D01*
X1384Y3268D01*
X1385Y3268D01*
X1386Y3268D01*
X1387Y3268D01*
X1388Y3268D01*
X1389Y3268D01*
X1390Y3268D01*
X1391Y3268D01*
X1392Y3268D01*
X1393Y3268D01*
X1394Y3268D01*
X1395Y3268D01*
X1396Y3268D01*
X1397Y3268D01*
X1398Y3268D01*
X1399Y3268D01*
X1400Y3268D01*
X1401Y3268D01*
X1402Y3268D01*
X1403Y3268D01*
X1404Y3268D01*
X1405Y3268D01*
X1406Y3268D01*
X1407Y3268D01*
X1408Y3268D01*
X1409Y3268D01*
X1410Y3268D01*
X1411Y3268D01*
X1412Y3268D01*
X1413Y3268D01*
X1414Y3268D01*
X1415Y3268D01*
X1416Y3268D01*
X1417Y3268D01*
X1418Y3268D01*
X1419Y3268D01*
X1420Y3268D01*
X1421Y3268D01*
X1422Y3268D01*
X1423Y3268D01*
X1424Y3268D01*
X1425Y3268D01*
X1426Y3268D01*
X1427Y3268D01*
X1428Y3268D01*
X1429Y3268D01*
X1430Y3268D01*
X1431Y3268D01*
X1432Y3268D01*
X1433Y3268D01*
X1434Y3268D01*
X1435Y3268D01*
X1436Y3268D01*
X1437Y3268D01*
X1438Y3268D01*
X1439Y3268D01*
X1440Y3268D01*
X1441Y3268D01*
X1442Y3268D01*
X1443Y3268D01*
X1444Y3268D01*
X1445Y3268D01*
X1446Y3268D01*
X1447Y3268D01*
X1448Y3268D01*
X1449Y3268D01*
X1450Y3268D01*
X1451Y3268D01*
X1452Y3268D01*
X1453Y3268D01*
X1454Y3268D01*
X1455Y3268D01*
X1456Y3268D01*
X1457Y3268D01*
X1458Y3268D01*
X1459Y3268D01*
X1460Y3268D01*
X1461Y3268D01*
X1462Y3268D01*
X1463Y3268D01*
X1464Y3268D01*
X1465Y3268D01*
X1466Y3268D01*
X1467Y3268D01*
X1468Y3268D01*
X1469Y3268D01*
X1470Y3268D01*
X1471Y3268D01*
X1472Y3268D01*
X1473Y3268D01*
X1474Y3268D01*
X1475Y3268D01*
X1476Y3268D01*
X1477Y3268D01*
X1478Y3268D01*
X1479Y3268D01*
X1480Y3268D01*
X1481Y3268D01*
X1482Y3268D01*
X1483Y3268D01*
X1484Y3268D01*
X1485Y3268D01*
X1486Y3268D01*
X1487Y3268D01*
X1488Y3268D01*
X1489Y3268D01*
X1490Y3268D01*
X1491Y3268D01*
X1492Y3268D01*
X1493Y3268D01*
X1494Y3268D01*
X1495Y3268D01*
X1496Y3268D01*
X1497Y3268D01*
X1498Y3268D01*
X1499Y3268D01*
X1500Y3268D01*
X1501Y3268D01*
X1502Y3268D01*
X1503Y3268D01*
X1504Y3268D01*
X1505Y3268D01*
X1506Y3268D01*
X1507Y3268D01*
X1508Y3268D01*
X1509Y3268D01*
X1510Y3268D01*
X1511Y3268D01*
X1512Y3268D01*
X1513Y3268D01*
X1514Y3268D01*
X1515Y3268D01*
X1516Y3268D01*
X1517Y3268D01*
X1518Y3268D01*
X1519Y3268D01*
X1520Y3268D01*
X1521Y3268D01*
X1522Y3268D01*
X1523Y3268D01*
X1524Y3268D01*
X1525Y3268D01*
X1526Y3268D01*
X1527Y3268D01*
X1528Y3268D01*
X1529Y3268D01*
X1530Y3268D01*
X1531Y3268D01*
X1532Y3268D01*
X1533Y3268D01*
X1534Y3268D01*
X1535Y3268D01*
X1536Y3268D01*
X1537Y3268D01*
X1538Y3268D01*
X1539Y3268D01*
X1540Y3268D01*
X1541Y3268D01*
X1542Y3268D01*
X1543Y3268D01*
X1544Y3268D01*
X1545Y3268D01*
X1546Y3268D01*
X1547Y3268D01*
X1548Y3268D01*
X1549Y3268D01*
X1550Y3268D01*
X1551Y3268D01*
X1552Y3268D01*
X1553Y3268D01*
X1554Y3268D01*
X1555Y3268D01*
X1556Y3268D01*
X1557Y3268D01*
X1558Y3268D01*
X1559Y3268D01*
X1560Y3268D01*
X1561Y3268D01*
X1562Y3268D01*
X1563Y3268D01*
X1564Y3268D01*
X1565Y3268D01*
X1566Y3268D01*
X1567Y3268D01*
X1568Y3268D01*
X1569Y3268D01*
X1570Y3268D01*
X1571Y3268D01*
X1572Y3268D01*
X1573Y3268D01*
X1574Y3268D01*
X1575Y3268D01*
X1576Y3268D01*
X1577Y3268D01*
X1578Y3268D01*
X1579Y3268D01*
X1580Y3268D01*
X1581Y3268D01*
X1582Y3268D01*
X1583Y3268D01*
X1584Y3268D01*
X1585Y3268D01*
X1586Y3268D01*
X1587Y3268D01*
X1588Y3268D01*
X1589Y3268D01*
X1590Y3268D01*
X1591Y3268D01*
X1592Y3268D01*
X1593Y3268D01*
X1594Y3268D01*
X1595Y3268D01*
X1596Y3268D01*
X1597Y3268D01*
X1598Y3268D01*
X1599Y3268D01*
X1600Y3268D01*
X1601Y3268D01*
X1602Y3268D01*
X1603Y3268D01*
X1604Y3268D01*
X1605Y3268D01*
X1606Y3268D01*
X1607Y3268D01*
X1608Y3268D01*
X1609Y3268D01*
X1610Y3268D01*
X1611Y3268D01*
X1612Y3268D01*
X1613Y3268D01*
X1614Y3268D01*
X1615Y3268D01*
X1616Y3268D01*
X1617Y3268D01*
X1618Y3268D01*
X1619Y3268D01*
X1620Y3268D01*
X1621Y3268D01*
X1622Y3268D01*
X1623Y3268D01*
X1624Y3268D01*
X1625Y3268D01*
X1626Y3268D01*
X1627Y3268D01*
X1628Y3268D01*
X1629Y3268D01*
X1630Y3268D01*
X1631Y3268D01*
X1632Y3268D01*
X1633Y3268D01*
X1634Y3268D01*
X1635Y3268D01*
X1636Y3268D01*
X1637Y3268D01*
X1638Y3268D01*
X1639Y3268D01*
X1640Y3268D01*
X1641Y3268D01*
X1642Y3268D01*
X1643Y3268D01*
X1644Y3268D01*
X1645Y3268D01*
X1646Y3268D01*
X1647Y3268D01*
X1648Y3268D01*
X1649Y3268D01*
X1650Y3268D01*
X1651Y3268D01*
X1652Y3268D01*
X1653Y3268D01*
X1654Y3268D01*
X1655Y3268D01*
X1656Y3268D01*
X1657Y3268D01*
X1658Y3268D01*
X1659Y3268D01*
X1660Y3268D01*
X1661Y3268D01*
X1662Y3268D01*
X1663Y3268D01*
X1664Y3268D01*
X1665Y3268D01*
X1666Y3268D01*
X1667Y3268D01*
X1668Y3268D01*
X1669Y3268D01*
X1670Y3268D01*
X1671Y3268D01*
X1672Y3268D01*
X1673Y3268D01*
X1674Y3268D01*
X1675Y3268D01*
X1676Y3268D01*
X1677Y3268D01*
X1678Y3268D01*
X1679Y3268D01*
X1680Y3268D01*
X1681Y3268D01*
X1682Y3268D01*
X1683Y3268D01*
X1684Y3268D01*
X1685Y3268D01*
X1686Y3268D01*
X1687Y3268D01*
X1688Y3268D01*
X1689Y3268D01*
X1690Y3268D01*
X1691Y3268D01*
X1692Y3268D01*
X1693Y3268D01*
X1694Y3268D01*
X1695Y3268D01*
X1696Y3268D01*
X1697Y3268D01*
X1698Y3268D01*
X1699Y3268D01*
X1700Y3268D01*
X1701Y3268D01*
X1702Y3268D01*
X1703Y3268D01*
X1704Y3268D01*
X1705Y3268D01*
X1706Y3268D01*
X1707Y3268D01*
X1708Y3268D01*
X1709Y3268D01*
X1710Y3268D01*
X1711Y3268D01*
X1712Y3268D01*
X1713Y3268D01*
X1714Y3268D01*
X1715Y3268D01*
X1716Y3268D01*
X1717Y3268D01*
X1718Y3268D01*
X1719Y3268D01*
X1720Y3268D01*
X1721Y3268D01*
X1722Y3268D01*
X1723Y3268D01*
X1724Y3268D01*
X1725Y3268D01*
X1726Y3268D01*
X1727Y3268D01*
X1728Y3268D01*
X1729Y3268D01*
X1730Y3268D01*
X1731Y3268D01*
X1732Y3268D01*
X1733Y3268D01*
X1734Y3268D01*
X1735Y3268D01*
X1736Y3268D01*
X1737Y3268D01*
X1738Y3268D01*
X1739Y3268D01*
X1740Y3268D01*
X1741Y3268D01*
X1742Y3268D01*
X1743Y3268D01*
X1744Y3268D01*
X1745Y3268D01*
X1746Y3268D01*
X1747Y3268D01*
X1748Y3268D01*
X1749Y3268D01*
X1750Y3268D01*
X1751Y3268D01*
X1752Y3268D01*
X1753Y3268D01*
X1754Y3268D01*
X1755Y3268D01*
X1756Y3268D01*
X1757Y3268D01*
X1758Y3268D01*
X1759Y3268D01*
X1760Y3268D01*
X1761Y3268D01*
X1762Y3268D01*
X1763Y3268D01*
X1764Y3268D01*
X1765Y3268D01*
X1766Y3268D01*
X1767Y3268D01*
X1768Y3268D01*
X1769Y3268D01*
X1770Y3268D01*
X1771Y3268D01*
X1772Y3268D01*
X1773Y3268D01*
X1774Y3268D01*
X1775Y3268D01*
X1776Y3268D01*
X1777Y3268D01*
X1778Y3268D01*
X1779Y3268D01*
X1780Y3268D01*
X1781Y3268D01*
X1782Y3268D01*
X1783Y3268D01*
X1784Y3268D01*
X1785Y3268D01*
X1786Y3268D01*
X1787Y3268D01*
X1788Y3268D01*
X1789Y3268D01*
X1790Y3268D01*
X1791Y3268D01*
X1792Y3268D01*
X1793Y3268D01*
X1794Y3268D01*
X1795Y3268D01*
X1796Y3268D01*
X1797Y3268D01*
X1798Y3268D01*
X1799Y3268D01*
X1800Y3268D01*
X1801Y3268D01*
X1802Y3268D01*
X1803Y3268D01*
X1804Y3268D01*
X1805Y3268D01*
X1806Y3268D01*
X1807Y3268D01*
X1808Y3268D01*
X1809Y3268D01*
X1810Y3268D01*
X1811Y3268D01*
X1812Y3268D01*
X1813Y3268D01*
X1814Y3268D01*
X1815Y3268D01*
X1816Y3268D01*
X1817Y3268D01*
X1818Y3268D01*
X1819Y3268D01*
X1820Y3268D01*
X1821Y3268D01*
X1822Y3268D01*
X1823Y3268D01*
X1824Y3268D01*
X1825Y3268D01*
X1826Y3268D01*
X1827Y3268D01*
X1828Y3268D01*
X1829Y3268D01*
X1830Y3268D01*
X1831Y3268D01*
X1832Y3268D01*
X1833Y3268D01*
X1834Y3268D01*
X1835Y3268D01*
X1836Y3268D01*
X1837Y3268D01*
X1838Y3268D01*
X1839Y3268D01*
X1840Y3268D01*
X1841Y3268D01*
X1842Y3268D01*
X1843Y3268D01*
X1844Y3268D01*
X1845Y3268D01*
X1846Y3268D01*
X1847Y3268D01*
X1848Y3268D01*
X1849Y3268D01*
X1850Y3268D01*
X1851Y3268D01*
X1852Y3268D01*
X1853Y3268D01*
X1854Y3268D01*
X1855Y3268D01*
X1856Y3268D01*
X1857Y3268D01*
X1858Y3268D01*
X1859Y3268D01*
X1860Y3268D01*
X1861Y3268D01*
X1862Y3268D01*
X1863Y3268D01*
X1864Y3268D01*
X1865Y3268D01*
X1866Y3268D01*
X1867Y3268D01*
X1868Y3268D01*
X1869Y3268D01*
X1870Y3268D01*
X1871Y3268D01*
X1872Y3268D01*
X1873Y3268D01*
X1874Y3268D01*
X1875Y3268D01*
X1876Y3268D01*
X1877Y3268D01*
X1878Y3268D01*
X1879Y3268D01*
X1880Y3268D01*
X1881Y3268D01*
X1882Y3268D01*
X1883Y3268D01*
X1884Y3268D01*
X1885Y3268D01*
X1886Y3268D01*
X1887Y3268D01*
X1888Y3268D01*
X1889Y3268D01*
X1890Y3268D01*
X1891Y3268D01*
X1892Y3268D01*
X1893Y3268D01*
X1894Y3268D01*
X1895Y3268D01*
X1896Y3268D01*
X1897Y3268D01*
X1898Y3268D01*
X1899Y3268D01*
X1900Y3268D01*
X1901Y3268D01*
X1902Y3268D01*
X1903Y3268D01*
X1904Y3268D01*
X1905Y3268D01*
X1906Y3268D01*
X1907Y3268D01*
X1908Y3268D01*
X1909Y3268D01*
X1910Y3268D01*
X1911Y3268D01*
X1912Y3268D01*
X1913Y3268D01*
X1914Y3268D01*
X1915Y3268D01*
X1916Y3268D01*
X1917Y3268D01*
X1918Y3268D01*
X1919Y3268D01*
X1920Y3268D01*
X1921Y3268D01*
X1922Y3268D01*
X1923Y3268D01*
X1924Y3268D01*
X1925Y3268D01*
X1926Y3268D01*
X1927Y3268D01*
X1928Y3268D01*
X1929Y3268D01*
X1930Y3268D01*
X1931Y3268D01*
X1932Y3268D01*
X1933Y3268D01*
X1934Y3268D01*
X1935Y3268D01*
X1936Y3268D01*
X1937Y3268D01*
X1938Y3268D01*
X1939Y3268D01*
X1940Y3268D01*
X1941Y3268D01*
X1942Y3268D01*
X1943Y3268D01*
X1944Y3268D01*
X1945Y3268D01*
X1946Y3268D01*
X1947Y3268D01*
X1948Y3268D01*
X1949Y3268D01*
X1950Y3268D01*
X1951Y3268D01*
X1952Y3268D01*
X1953Y3268D01*
X1954Y3268D01*
X1955Y3268D01*
X1956Y3268D01*
X1957Y3268D01*
X1958Y3268D01*
X1959Y3268D01*
X1960Y3268D01*
X1961Y3268D01*
X1962Y3268D01*
X1963Y3268D01*
X1964Y3268D01*
X1965Y3268D01*
X1966Y3268D01*
X1967Y3268D01*
X1968Y3268D01*
X1969Y3268D01*
X1970Y3268D01*
X1971Y3268D01*
X1972Y3268D01*
X1973Y3268D01*
X1974Y3268D01*
X1975Y3268D01*
X1976Y3268D01*
X1977Y3268D01*
X1978Y3268D01*
X1979Y3268D01*
X1980Y3268D01*
X1981Y3268D01*
X1982Y3268D01*
X1983Y3268D01*
X1984Y3268D01*
X1985Y3268D01*
X1986Y3268D01*
X1987Y3268D01*
X1988Y3268D01*
X1989Y3268D01*
X1990Y3268D01*
X1991Y3268D01*
X1992Y3268D01*
X1993Y3268D01*
X1994Y3268D01*
X1995Y3268D01*
X1996Y3268D01*
X1997Y3268D01*
X1998Y3268D01*
X1999Y3268D01*
X2000Y3268D01*
X2001Y3268D01*
X2002Y3268D01*
X2003Y3268D01*
X2004Y3268D01*
X2005Y3268D01*
X2006Y3268D01*
X2007Y3268D01*
X2008Y3268D01*
X2009Y3268D01*
X2010Y3268D01*
X2011Y3268D01*
X2012Y3268D01*
X2013Y3268D01*
X2014Y3268D01*
X2015Y3268D01*
X2016Y3268D01*
X2017Y3268D01*
X2018Y3268D01*
X2019Y3268D01*
X2020Y3268D01*
X2021Y3268D01*
X2022Y3268D01*
X2023Y3268D01*
X2024Y3268D01*
X2025Y3268D01*
X2026Y3268D01*
X2027Y3268D01*
X2028Y3268D01*
X2029Y3268D01*
X2030Y3268D01*
X2031Y3268D01*
X2032Y3268D01*
X2033Y3268D01*
X2034Y3268D01*
X2035Y3268D01*
X2036Y3268D01*
X2037Y3268D01*
X2038Y3268D01*
X2039Y3268D01*
X2040Y3268D01*
X2041Y3268D01*
X2042Y3268D01*
X2043Y3268D01*
X2044Y3268D01*
X2045Y3268D01*
X2046Y3268D01*
X2047Y3268D01*
X2048Y3268D01*
X2049Y3268D01*
X2050Y3268D01*
X2051Y3268D01*
X2052Y3268D01*
X2053Y3268D01*
X2054Y3268D01*
X2055Y3268D01*
X2056Y3268D01*
X2057Y3268D01*
X2058Y3268D01*
X2059Y3268D01*
X2060Y3268D01*
X2061Y3268D01*
X2062Y3268D01*
X2063Y3268D01*
X2064Y3268D01*
X2065Y3268D01*
X2066Y3268D01*
X2067Y3268D01*
X2068Y3268D01*
X2069Y3268D01*
X2070Y3268D01*
X2071Y3268D01*
X2072Y3268D01*
X2073Y3268D01*
X2074Y3268D01*
X2075Y3268D01*
X2076Y3268D01*
X2077Y3268D01*
X2078Y3268D01*
X2079Y3268D01*
X2080Y3268D01*
X2081Y3268D01*
X2082Y3268D01*
X2083Y3268D01*
X2084Y3268D01*
X2085Y3268D01*
X2086Y3268D01*
X2087Y3268D01*
X2088Y3268D01*
X2089Y3268D01*
X2090Y3268D01*
X2091Y3268D01*
X2092Y3268D01*
X2093Y3268D01*
X2094Y3268D01*
X2095Y3268D01*
X2096Y3268D01*
X2097Y3268D01*
X2098Y3268D01*
X2099Y3268D01*
X2100Y3268D01*
X2101Y3268D01*
X2102Y3268D01*
X2103Y3268D01*
X2104Y3268D01*
X2105Y3268D01*
X2106Y3268D01*
X2107Y3268D01*
X2108Y3268D01*
X2109Y3268D01*
X2110Y3268D01*
X2111Y3268D01*
X2112Y3268D01*
X2113Y3268D01*
X2114Y3268D01*
X2115Y3268D01*
X2116Y3268D01*
X2117Y3268D01*
X2118Y3268D01*
X2119Y3268D01*
X2120Y3268D01*
X2121Y3268D01*
X2122Y3268D01*
X2123Y3268D01*
X2124Y3268D01*
X2125Y3268D01*
X2126Y3268D01*
X2127Y3268D01*
X2128Y3268D01*
X2129Y3268D01*
X2130Y3268D01*
X2131Y3268D01*
X2132Y3268D01*
X2133Y3268D01*
X2134Y3268D01*
X2135Y3268D01*
X2136Y3268D01*
X2137Y3268D01*
X2138Y3268D01*
X2139Y3268D01*
X2140Y3268D01*
X2141Y3268D01*
X2142Y3268D01*
X2143Y3268D01*
X2144Y3268D01*
X2145Y3268D01*
X2146Y3268D01*
X2147Y3268D01*
X2148Y3268D01*
X2149Y3268D01*
X2150Y3268D01*
X2151Y3268D01*
X2152Y3268D01*
X2153Y3268D01*
X2154Y3268D01*
X2155Y3268D01*
X2156Y3268D01*
X2157Y3268D01*
X2158Y3268D01*
X2159Y3268D01*
X2160Y3268D01*
X2161Y3268D01*
X2162Y3268D01*
X2163Y3268D01*
X2164Y3268D01*
X2165Y3268D01*
X2166Y3268D01*
X2167Y3268D01*
X2168Y3268D01*
X2169Y3268D01*
X2170Y3268D01*
X2171Y3268D01*
X2172Y3268D01*
X2173Y3268D01*
X2174Y3268D01*
X2175Y3268D01*
X2176Y3268D01*
X2177Y3268D01*
X2178Y3268D01*
X2179Y3268D01*
X2180Y3268D01*
X2181Y3268D01*
X2182Y3268D01*
X2183Y3268D01*
X2184Y3268D01*
X2185Y3268D01*
X2186Y3268D01*
X2187Y3268D01*
X2188Y3268D01*
X2189Y3268D01*
X2190Y3268D01*
X2191Y3268D01*
X2192Y3268D01*
X2193Y3268D01*
X2194Y3268D01*
X2195Y3268D01*
X2196Y3268D01*
X2197Y3268D01*
X2198Y3268D01*
X2199Y3268D01*
X2200Y3268D01*
X2201Y3268D01*
X2202Y3268D01*
X2203Y3268D01*
X2204Y3268D01*
X2205Y3268D01*
X2206Y3268D01*
X2207Y3268D01*
X2208Y3268D01*
X2209Y3268D01*
X2210Y3268D01*
X2211Y3268D01*
X2212Y3268D01*
X2213Y3268D01*
X2214Y3268D01*
X2215Y3268D01*
X2216Y3268D01*
X2217Y3268D01*
X2218Y3268D01*
X2219Y3268D01*
X2220Y3268D01*
X2221Y3268D01*
X2222Y3268D01*
X2223Y3268D01*
X2224Y3268D01*
X2225Y3268D01*
X2226Y3268D01*
X2227Y3268D01*
X2228Y3268D01*
X2229Y3268D01*
X2230Y3268D01*
X2231Y3268D01*
X2232Y3268D01*
X2233Y3268D01*
X2234Y3268D01*
X2235Y3268D01*
X2236Y3268D01*
X2237Y3268D01*
X2238Y3268D01*
X2239Y3268D01*
X2240Y3268D01*
X2241Y3268D01*
X2242Y3268D01*
X2243Y3268D01*
X2244Y3268D01*
X2245Y3268D01*
X2246Y3268D01*
X2247Y3268D01*
X2248Y3268D01*
X2249Y3268D01*
X2250Y3268D01*
X2251Y3268D01*
X2252Y3268D01*
X2253Y3268D01*
X2254Y3268D01*
X2255Y3268D01*
X2256Y3268D01*
X2257Y3268D01*
X2258Y3268D01*
X2259Y3268D01*
X2260Y3268D01*
X2261Y3268D01*
X2262Y3268D01*
X2263Y3268D01*
X2264Y3268D01*
X2265Y3268D01*
X2266Y3268D01*
X2267Y3268D01*
X2268Y3268D01*
X2269Y3268D01*
X2270Y3268D01*
X2271Y3268D01*
X2272Y3268D01*
X2273Y3268D01*
X2274Y3268D01*
X2275Y3268D01*
X2276Y3268D01*
X2277Y3268D01*
X2278Y3268D01*
X2279Y3268D01*
X2280Y3268D01*
X2281Y3268D01*
X2282Y3268D01*
X2283Y3268D01*
X2284Y3268D01*
X2285Y3268D01*
X2286Y3268D01*
X2287Y3268D01*
X2288Y3268D01*
X2289Y3268D01*
X2290Y3268D01*
X2291Y3268D01*
X2292Y3268D01*
X2293Y3268D01*
X2294Y3268D01*
X2295Y3268D01*
X2296Y3268D01*
X2297Y3268D01*
X2298Y3268D01*
X2299Y3268D01*
X2300Y3268D01*
X2301Y3268D01*
X2302Y3268D01*
X2303Y3268D01*
X2304Y3268D01*
X2305Y3268D01*
X2306Y3268D01*
X2307Y3268D01*
X2308Y3268D01*
X2309Y3268D01*
X2310Y3268D01*
X2311Y3268D01*
X2312Y3268D01*
X2313Y3268D01*
X2314Y3268D01*
X2315Y3268D01*
X2316Y3268D01*
X2317Y3268D01*
X2318Y3268D01*
X2319Y3268D01*
X2320Y3268D01*
X2321Y3268D01*
X2322Y3268D01*
X2323Y3268D01*
X2324Y3268D01*
X2325Y3268D01*
X2326Y3268D01*
X2327Y3268D01*
X2328Y3268D01*
X2329Y3268D01*
X2330Y3268D01*
X2331Y3268D01*
X2332Y3268D01*
X2333Y3268D01*
X2334Y3268D01*
X2335Y3268D01*
X2336Y3268D01*
X2337Y3268D01*
X2338Y3268D01*
X2339Y3268D01*
X2340Y3268D01*
X2341Y3268D01*
X2342Y3268D01*
X2343Y3268D01*
X2344Y3268D01*
X2345Y3268D01*
X2346Y3268D01*
X2347Y3268D01*
X2348Y3268D01*
X2349Y3268D01*
X2350Y3268D01*
X2351Y3268D01*
X2352Y3268D01*
X2353Y3268D01*
X2354Y3268D01*
X2355Y3268D01*
X2356Y3268D01*
X2357Y3268D01*
X2358Y3268D01*
X2359Y3268D01*
X2360Y3268D01*
X2361Y3268D01*
X2362Y3268D01*
X2363Y3268D01*
X2364Y3268D01*
X2365Y3268D01*
X2366Y3268D01*
X2367Y3268D01*
X2368Y3268D01*
X2369Y3268D01*
X2370Y3268D01*
X2371Y3268D01*
X2372Y3268D01*
X2373Y3268D01*
X2374Y3268D01*
X2375Y3268D01*
X2376Y3268D01*
X2377Y3268D01*
X2378Y3268D01*
X2379Y3268D01*
X2380Y3268D01*
X2381Y3268D01*
X2382Y3268D01*
X2383Y3268D01*
X2384Y3268D01*
X2385Y3268D01*
X2386Y3268D01*
X2387Y3268D01*
X2388Y3268D01*
X2389Y3268D01*
X2390Y3268D01*
X2391Y3268D01*
X2392Y3268D01*
X2393Y3268D01*
X2394Y3268D01*
X2395Y3268D01*
X2396Y3268D01*
X2397Y3268D01*
X2398Y3268D01*
X2399Y3268D01*
X2400Y3268D01*
X2401Y3268D01*
X2402Y3268D01*
X2403Y3268D01*
X2404Y3268D01*
X2405Y3268D01*
X2406Y3268D01*
X2407Y3268D01*
X2408Y3268D01*
X2409Y3268D01*
X2410Y3268D01*
X2411Y3268D01*
X2412Y3268D01*
X2413Y3268D01*
X2414Y3268D01*
X2415Y3268D01*
X2416Y3268D01*
X2417Y3268D01*
X2418Y3268D01*
X2419Y3268D01*
X2420Y3268D01*
X2421Y3268D01*
X2422Y3268D01*
X2423Y3268D01*
X2424Y3268D01*
X2425Y3268D01*
X2426Y3268D01*
X2427Y3268D01*
X2428Y3268D01*
X2429Y3268D01*
X2430Y3268D01*
X2431Y3268D01*
X2432Y3268D01*
X2433Y3268D01*
X2434Y3268D01*
X2435Y3268D01*
X2436Y3268D01*
X2437Y3268D01*
X2438Y3268D01*
X2439Y3268D01*
X2440Y3268D01*
X2441Y3268D01*
X2442Y3268D01*
X2443Y3268D01*
X2444Y3268D01*
X2445Y3268D01*
X2446Y3268D01*
X2447Y3268D01*
X2448Y3268D01*
X2449Y3268D01*
X2450Y3268D01*
X2451Y3268D01*
X2452Y3268D01*
X2453Y3268D01*
X2454Y3268D01*
X2455Y3268D01*
X2456Y3268D01*
X2457Y3268D01*
X2458Y3268D01*
X2459Y3268D01*
X2460Y3268D01*
X2461Y3268D01*
X2462Y3268D01*
X2463Y3268D01*
X2464Y3268D01*
X2465Y3268D01*
X2466Y3268D01*
X2467Y3268D01*
X2468Y3268D01*
X2469Y3268D01*
X2470Y3268D01*
X2471Y3268D01*
X2472Y3268D01*
X2473Y3268D01*
X2474Y3268D01*
X2475Y3268D01*
X2476Y3268D01*
X2477Y3268D01*
X2478Y3268D01*
X2479Y3268D01*
X2480Y3268D01*
X2481Y3268D01*
X2482Y3268D01*
X2483Y3268D01*
X2484Y3268D01*
X2485Y3268D01*
X2486Y3268D01*
X2487Y3268D01*
X2488Y3268D01*
X2489Y3268D01*
X2490Y3268D01*
X2491Y3268D01*
X2492Y3268D01*
X2493Y3268D01*
X2494Y3268D01*
X2495Y3268D01*
X2496Y3268D01*
X2497Y3268D01*
X2498Y3268D01*
X2499Y3268D01*
X2500Y3268D01*
X2501Y3268D01*
X2502Y3268D01*
X2503Y3268D01*
X2504Y3268D01*
X2505Y3268D01*
X2506Y3268D01*
X2507Y3268D01*
X2508Y3268D01*
X2509Y3268D01*
X2510Y3268D01*
X2511Y3268D01*
X2512Y3268D01*
X2513Y3268D01*
X2514Y3268D01*
X2515Y3268D01*
X2516Y3268D01*
X2517Y3268D01*
X2518Y3268D01*
X2519Y3268D01*
X2520Y3268D01*
X2521Y3268D01*
X2522Y3268D01*
X2523Y3268D01*
X2524Y3268D01*
X2525Y3268D01*
X2526Y3268D01*
X2527Y3268D01*
X2528Y3268D01*
X2529Y3268D01*
X2530Y3268D01*
X2531Y3268D01*
X2532Y3268D01*
X2533Y3268D01*
X2534Y3268D01*
X2535Y3268D01*
X2536Y3268D01*
X2537Y3268D01*
X2538Y3268D01*
X2539Y3268D01*
X2540Y3268D01*
X2541Y3268D01*
X2542Y3268D01*
X2543Y3268D01*
X2544Y3268D01*
X2545Y3268D01*
X2546Y3268D01*
X2547Y3268D01*
X2548Y3268D01*
X2549Y3268D01*
X2550Y3268D01*
X2551Y3268D01*
X2552Y3268D01*
X2553Y3268D01*
X2554Y3268D01*
X2555Y3268D01*
X2556Y3268D01*
X2557Y3268D01*
X2558Y3268D01*
X2559Y3268D01*
X2560Y3268D01*
X2561Y3268D01*
X2562Y3268D01*
X2563Y3268D01*
X2564Y3268D01*
X2565Y3268D01*
X2566Y3268D01*
X2567Y3268D01*
X2568Y3268D01*
X2569Y3268D01*
X2570Y3268D01*
X2571Y3268D01*
X2572Y3268D01*
X2573Y3268D01*
X2574Y3268D01*
X2575Y3268D01*
X2576Y3268D01*
X2577Y3268D01*
X2578Y3268D01*
X2579Y3268D01*
X2580Y3268D01*
X2581Y3268D01*
X2582Y3268D01*
X2583Y3268D01*
X2584Y3268D01*
X2585Y3268D01*
X2586Y3268D01*
X2587Y3268D01*
X2588Y3268D01*
X2589Y3268D01*
X2590Y3268D01*
X2591Y3268D01*
X2592Y3268D01*
X2593Y3268D01*
X2594Y3268D01*
X2595Y3268D01*
X2596Y3268D01*
X2597Y3268D01*
X2598Y3268D01*
X2599Y3268D01*
X2600Y3268D01*
X2601Y3268D01*
X2602Y3268D01*
X2603Y3268D01*
X2604Y3268D01*
X2605Y3268D01*
X2606Y3268D01*
X2607Y3268D01*
X2608Y3268D01*
X2609Y3268D01*
X2610Y3268D01*
X2611Y3268D01*
X2612Y3268D01*
X2613Y3268D01*
X2614Y3268D01*
X2615Y3268D01*
X2616Y3268D01*
X2617Y3268D01*
X2618Y3268D01*
X2619Y3268D01*
X2620Y3268D01*
X2621Y3268D01*
X2622Y3268D01*
X2623Y3268D01*
X2624Y3268D01*
X2625Y3268D01*
X2626Y3268D01*
X2627Y3268D01*
X2628Y3268D01*
X2629Y3268D01*
X2630Y3268D01*
X2631Y3268D01*
X2632Y3268D01*
X2633Y3268D01*
X2634Y3268D01*
X2635Y3268D01*
X2636Y3268D01*
X2637Y3268D01*
X2638Y3268D01*
X2639Y3268D01*
X2640Y3268D01*
X2641Y3268D01*
X2642Y3268D01*
X2643Y3268D01*
X2644Y3268D01*
X2645Y3268D01*
X2646Y3268D01*
X2647Y3268D01*
X2648Y3268D01*
X2649Y3268D01*
X2650Y3268D01*
X2651Y3268D01*
X2652Y3268D01*
X2653Y3268D01*
X2654Y3268D01*
X2655Y3268D01*
X2656Y3268D01*
X2657Y3268D01*
X2658Y3268D01*
X2659Y3268D01*
X2660Y3268D01*
X2661Y3268D01*
X2662Y3268D01*
X2663Y3268D01*
X2664Y3268D01*
X2665Y3268D01*
X2666Y3268D01*
X2667Y3268D01*
X2668Y3268D01*
X2669Y3268D01*
X2670Y3268D01*
X2671Y3268D01*
X2672Y3268D01*
X2673Y3268D01*
X2674Y3268D01*
X2675Y3268D01*
X2676Y3268D01*
X2677Y3268D01*
X2678Y3268D01*
X2679Y3268D01*
X2680Y3268D01*
X2681Y3268D01*
X2682Y3268D01*
X2683Y3268D01*
X2684Y3268D01*
X2685Y3268D01*
X2686Y3268D01*
X2687Y3268D01*
X2688Y3268D01*
X2689Y3268D01*
X2690Y3268D01*
X2691Y3268D01*
X2692Y3268D01*
X2693Y3268D01*
X2694Y3268D01*
X2695Y3268D01*
X2696Y3268D01*
X2697Y3268D01*
X2698Y3268D01*
X2699Y3268D01*
X2700Y3268D01*
X2701Y3268D01*
X2702Y3268D01*
X2703Y3268D01*
X2704Y3268D01*
X2705Y3268D01*
X2706Y3268D01*
X2707Y3268D01*
X2708Y3268D01*
X2709Y3268D01*
X2710Y3268D01*
X2711Y3268D01*
X2712Y3268D01*
X2713Y3268D01*
X2714Y3268D01*
X2715Y3268D01*
X2716Y3268D01*
X2717Y3268D01*
X2718Y3268D01*
X2719Y3268D01*
X2720Y3268D01*
X2721Y3268D01*
X2722Y3268D01*
X2723Y3268D01*
X2724Y3268D01*
X2725Y3268D01*
X2726Y3268D01*
X2727Y3268D01*
X2728Y3268D01*
X2729Y3268D01*
X2730Y3268D01*
X2731Y3268D01*
X2732Y3268D01*
X2733Y3268D01*
X2734Y3268D01*
X2735Y3268D01*
X2736Y3268D01*
X2737Y3268D01*
X2738Y3267D01*
X2739Y3267D01*
X2740Y3267D01*
X2741Y3267D01*
X2742Y3267D01*
X2743Y3267D01*
X2744Y3267D01*
X2745Y3267D01*
X2746Y3267D01*
X2747Y3267D01*
X2748Y3267D01*
X2749Y3267D01*
X2750Y3267D01*
X2751Y3267D01*
X2752Y3266D01*
X2753Y3266D01*
X2754Y3266D01*
X2755Y3266D01*
X2756Y3266D01*
X2757Y3266D01*
X2758Y3266D01*
X2759Y3266D01*
X2760Y3266D01*
X2761Y3266D01*
X2762Y3265D01*
X2763Y3265D01*
X2764Y3265D01*
X2765Y3265D01*
X2766Y3265D01*
X2767Y3265D01*
X2768Y3265D01*
X2769Y3265D01*
X2770Y3264D01*
X2771Y3264D01*
X2772Y3264D01*
X2773Y3264D01*
X2774Y3264D01*
X2775Y3264D01*
X2776Y3264D01*
X2777Y3263D01*
X2778Y3263D01*
X2779Y3263D01*
X2780Y3263D01*
X2781Y3263D01*
X2782Y3263D01*
X2783Y3262D01*
X2784Y3262D01*
X2785Y3262D01*
X2786Y3262D01*
X2787Y3262D01*
X2788Y3262D01*
X2789Y3261D01*
X2790Y3261D01*
X2791Y3261D01*
X2792Y3261D01*
X2793Y3261D01*
X2794Y3260D01*
X2795Y3260D01*
X2796Y3260D01*
X2797Y3260D01*
X2798Y3260D01*
X2799Y3259D01*
X2800Y3259D01*
X2801Y3259D01*
X2802Y3259D01*
X2803Y3259D01*
X2804Y3258D01*
X2805Y3258D01*
X2806Y3258D01*
X2807Y3258D01*
X2808Y3257D01*
X2809Y3257D01*
X2810Y3257D01*
X2811Y3257D01*
X2812Y3256D01*
X2813Y3256D01*
X2814Y3256D01*
X2815Y3256D01*
X2816Y3255D01*
X2817Y3255D01*
X2818Y3255D01*
X2819Y3255D01*
X2820Y3254D01*
X2821Y3254D01*
X2822Y3254D01*
X2823Y3254D01*
X2824Y3253D01*
X2825Y3253D01*
X2826Y3253D01*
X2827Y3252D01*
X2828Y3252D01*
X2829Y3252D01*
X2830Y3251D01*
X2831Y3251D01*
X2832Y3251D01*
X2833Y3251D01*
X2834Y3250D01*
X2835Y3250D01*
X2836Y3250D01*
X2837Y3249D01*
X2838Y3249D01*
X2839Y3249D01*
X2840Y3248D01*
X2841Y3248D01*
X2842Y3248D01*
X2843Y3247D01*
X2844Y3247D01*
X2845Y3247D01*
X2846Y3246D01*
X2847Y3246D01*
X2848Y3246D01*
X2849Y3245D01*
X2850Y3245D01*
X2851Y3244D01*
X2852Y3244D01*
X2853Y3244D01*
X2854Y3243D01*
X2855Y3243D01*
X2856Y3243D01*
X2857Y3242D01*
X2858Y3242D01*
X2859Y3241D01*
X2860Y3241D01*
X2861Y3241D01*
X2862Y3240D01*
X2863Y3240D01*
X2864Y3239D01*
X2865Y3239D01*
X2866Y3239D01*
X2867Y3238D01*
X2868Y3238D01*
X2869Y3237D01*
X2870Y3237D01*
X2871Y3237D01*
X2872Y3236D01*
X2873Y3236D01*
X2874Y3235D01*
X2875Y3235D01*
X2876Y3234D01*
X2877Y3234D01*
X2878Y3233D01*
X2879Y3233D01*
X2880Y3232D01*
X2881Y3232D01*
X2882Y3232D01*
X2883Y3231D01*
X2884Y3231D01*
X2885Y3230D01*
X2886Y3230D01*
X2887Y3229D01*
X2888Y3229D01*
X2889Y3228D01*
X2890Y3228D01*
X2891Y3227D01*
X2892Y3227D01*
X2893Y3226D01*
X2894Y3226D01*
X2895Y3225D01*
X2896Y3225D01*
X2897Y3224D01*
X2898Y3224D01*
X2899Y3223D01*
X2900Y3223D01*
X2901Y3222D01*
X2902Y3222D01*
X2903Y3221D01*
X2904Y3220D01*
X2905Y3220D01*
X2906Y3219D01*
X2907Y3219D01*
X2908Y3218D01*
X2909Y3218D01*
X2910Y3217D01*
X2911Y3216D01*
X2912Y3216D01*
X2913Y3215D01*
X2914Y3215D01*
X2915Y3214D01*
X2916Y3214D01*
X2917Y3213D01*
X2918Y3212D01*
X2919Y3212D01*
X2920Y3211D01*
X2921Y3211D01*
X2922Y3210D01*
X2923Y3209D01*
X2924Y3209D01*
X2925Y3208D01*
X2926Y3207D01*
X2927Y3207D01*
X2928Y3206D01*
X2929Y3206D01*
X2930Y3205D01*
X2931Y3204D01*
X2932Y3204D01*
X2933Y3203D01*
X2934Y3202D01*
X2935Y3202D01*
X2936Y3201D01*
X2937Y3200D01*
X2938Y3200D01*
X2939Y3199D01*
X2940Y3198D01*
X2941Y3197D01*
X2942Y3197D01*
X2943Y3196D01*
X2944Y3195D01*
X2945Y3195D01*
X2946Y3194D01*
X2947Y3193D01*
X2948Y3192D01*
X2949Y3192D01*
X2950Y3191D01*
X2951Y3190D01*
X2952Y3190D01*
X2953Y3189D01*
X2954Y3188D01*
X2955Y3187D01*
X2956Y3186D01*
X2957Y3186D01*
X2958Y3185D01*
X2959Y3184D01*
X2960Y3183D01*
X2961Y3182D01*
X2962Y3182D01*
X2963Y3181D01*
X2964Y3180D01*
X2965Y3179D01*
X2966Y3179D01*
X2967Y3178D01*
X2968Y3177D01*
X2969Y3176D01*
X2970Y3175D01*
X2971Y3174D01*
X2972Y3173D01*
X2973Y3172D01*
X2974Y3172D01*
X2975Y3171D01*
X2976Y3170D01*
X2977Y3169D01*
X2978Y3168D01*
X2979Y3167D01*
X2980Y3166D01*
X2981Y3166D01*
X2982Y3165D01*
X2983Y3164D01*
X2984Y3163D01*
X2985Y3162D01*
X2986Y3161D01*
X2987Y3160D01*
X2988Y3159D01*
X2989Y3158D01*
X2990Y3157D01*
X2991Y3156D01*
X2992Y3155D01*
X2993Y3154D01*
X2994Y3153D01*
X2995Y3152D01*
X2996Y3151D01*
X2997Y3150D01*
X2998Y3149D01*
X2999Y3148D01*
X3000Y3147D01*
X3001Y3146D01*
X3002Y3145D01*
X3003Y3144D01*
X3003Y3143D01*
X3004Y3142D01*
X3005Y3141D01*
X3006Y3140D01*
X3007Y3139D01*
X3008Y3138D01*
X3009Y3137D01*
X3010Y3136D01*
X3011Y3135D01*
X3012Y3134D01*
X3012Y3133D01*
X3013Y3132D01*
X3014Y3131D01*
X3015Y3130D01*
X3016Y3129D01*
X3017Y3128D01*
X3018Y3127D01*
X3018Y3126D01*
X3019Y3125D01*
X3020Y3124D01*
X3021Y3123D01*
X3022Y3122D01*
X3022Y3121D01*
X3023Y3120D01*
X3024Y3119D01*
X3025Y3118D01*
X3026Y3117D01*
X3026Y3116D01*
X3027Y3115D01*
X3028Y3114D01*
X3029Y3113D01*
X3029Y3112D01*
X3030Y3111D01*
X3031Y3110D01*
X3032Y3109D01*
X3032Y3108D01*
X3033Y3107D01*
X3034Y3106D01*
X3035Y3105D01*
X3035Y3104D01*
X3036Y3103D01*
X3037Y3102D01*
X3037Y3101D01*
X3038Y3100D01*
X3039Y3099D01*
X3039Y3098D01*
X3040Y3097D01*
X3041Y3096D01*
X3042Y3095D01*
X3042Y3094D01*
X3043Y3093D01*
X3044Y3092D01*
X3044Y3091D01*
X3045Y3090D01*
X3045Y3089D01*
X3046Y3088D01*
X3047Y3087D01*
X3047Y3086D01*
X3048Y3085D01*
X3049Y3084D01*
X3049Y3083D01*
X3050Y3082D01*
X3050Y3081D01*
X3051Y3080D01*
X3052Y3079D01*
X3052Y3078D01*
X3053Y3077D01*
X3054Y3076D01*
X3054Y3075D01*
X3055Y3074D01*
X3055Y3073D01*
X3056Y3072D01*
X3056Y3071D01*
X3057Y3070D01*
X3058Y3069D01*
X3058Y3068D01*
X3059Y3067D01*
X3059Y3066D01*
X3060Y3065D01*
X3060Y3064D01*
X3061Y3063D01*
X3061Y3062D01*
X3062Y3061D01*
X3063Y3060D01*
X3063Y3059D01*
X3064Y3058D01*
X3064Y3057D01*
X3065Y3056D01*
X3065Y3055D01*
X3066Y3054D01*
X3066Y3053D01*
X3067Y3052D01*
X3067Y3051D01*
X3068Y3050D01*
X3068Y3049D01*
X3069Y3048D01*
X3069Y3047D01*
X3070Y3046D01*
X3070Y3045D01*
X3071Y3044D01*
X3071Y3043D01*
X3072Y3042D01*
X3072Y3040D01*
X3073Y3039D01*
X3073Y3038D01*
X3074Y3037D01*
X3074Y3036D01*
X3075Y3035D01*
X3075Y3034D01*
X3076Y3033D01*
X3076Y3031D01*
X3077Y3030D01*
X3077Y3029D01*
X3078Y3028D01*
X3078Y3027D01*
X3079Y3026D01*
X3079Y3024D01*
X3080Y3023D01*
X3080Y3022D01*
X3081Y3021D01*
X3081Y3019D01*
X3082Y3018D01*
X3082Y3017D01*
X3083Y3016D01*
X3083Y3014D01*
X3084Y3013D01*
X3084Y3011D01*
X3085Y3010D01*
X3085Y3009D01*
X3086Y3008D01*
X3086Y3006D01*
X3087Y3005D01*
X3087Y3003D01*
X3088Y3002D01*
X3088Y3000D01*
X3089Y2999D01*
X3089Y2997D01*
X3090Y2996D01*
X3090Y2994D01*
X3091Y2993D01*
X3091Y2991D01*
X3092Y2990D01*
X3092Y2987D01*
X3093Y2986D01*
X3093Y2984D01*
X3094Y2983D01*
X3094Y2981D01*
X3095Y2980D01*
X3095Y2977D01*
X3096Y2976D01*
X3096Y2973D01*
X3097Y2972D01*
X3097Y2969D01*
X3098Y2968D01*
X3098Y2965D01*
X3099Y2964D01*
X3099Y2960D01*
X3100Y2959D01*
X3100Y2956D01*
X3101Y2955D01*
X3101Y2951D01*
X3102Y2950D01*
X3102Y2946D01*
X3103Y2945D01*
X3103Y2940D01*
X3104Y2939D01*
X3104Y2934D01*
X3105Y2933D01*
X3105Y2927D01*
X3106Y2926D01*
X3106Y2918D01*
X3107Y2917D01*
X3107Y2908D01*
X3108Y2907D01*
X3108Y2894D01*
X3109Y2893D01*
X3109Y377D01*
X3108Y376D01*
X3108Y363D01*
X3107Y362D01*
X3107Y353D01*
X3106Y352D01*
X3106Y344D01*
X3105Y343D01*
X3105Y337D01*
X3104Y336D01*
X3104Y331D01*
X3103Y330D01*
X3103Y325D01*
X3102Y324D01*
X3102Y320D01*
X3101Y319D01*
X3101Y315D01*
X3100Y314D01*
X3100Y311D01*
X3099Y310D01*
X3099Y306D01*
X3098Y305D01*
X3098Y302D01*
X3097Y301D01*
X3097Y298D01*
X3096Y297D01*
X3096Y294D01*
X3095Y293D01*
X3095Y290D01*
X3094Y289D01*
X3094Y287D01*
X3093Y286D01*
X3093Y284D01*
X3092Y283D01*
X3092Y280D01*
X3091Y279D01*
X3091Y277D01*
X3090Y276D01*
X3090Y274D01*
X3089Y273D01*
X3089Y271D01*
X3088Y270D01*
X3088Y268D01*
X3087Y267D01*
X3087Y265D01*
X3086Y264D01*
X3086Y262D01*
X3085Y261D01*
X3085Y260D01*
X3084Y259D01*
X3084Y257D01*
X3083Y256D01*
X3083Y254D01*
X3082Y253D01*
X3082Y252D01*
X3081Y251D01*
X3081Y249D01*
X3080Y248D01*
X3080Y247D01*
X3079Y246D01*
X3079Y244D01*
X3078Y243D01*
X3078Y242D01*
X3077Y241D01*
X3077Y240D01*
X3076Y239D01*
X3076Y237D01*
X3075Y236D01*
X3075Y235D01*
X3074Y234D01*
X3074Y233D01*
X3073Y232D01*
X3073Y231D01*
X3072Y230D01*
X3072Y228D01*
X3071Y227D01*
X3071Y226D01*
X3070Y225D01*
X3070Y224D01*
X3069Y223D01*
X3069Y222D01*
X3068Y221D01*
X3068Y220D01*
X3067Y219D01*
X3067Y218D01*
X3066Y217D01*
X3066Y216D01*
X3065Y215D01*
X3065Y214D01*
X3064Y213D01*
X3064Y212D01*
X3063Y211D01*
X3063Y210D01*
X3062Y209D01*
X3061Y208D01*
X3061Y207D01*
X3060Y206D01*
X3060Y205D01*
X3059Y204D01*
X3059Y203D01*
X3058Y202D01*
X3058Y201D01*
X3057Y200D01*
X3056Y199D01*
X3056Y198D01*
X3055Y197D01*
X3055Y196D01*
X3054Y195D01*
X3054Y194D01*
X3053Y193D01*
X3052Y192D01*
X3052Y191D01*
X3051Y190D01*
X3050Y189D01*
X3050Y188D01*
X3049Y187D01*
X3049Y186D01*
X3048Y185D01*
X3047Y184D01*
X3047Y183D01*
X3046Y182D01*
X3045Y181D01*
X3045Y180D01*
X3044Y179D01*
X3044Y178D01*
X3043Y177D01*
X3042Y176D01*
X3042Y175D01*
X3041Y174D01*
X3040Y173D01*
X3039Y172D01*
X3039Y171D01*
X3038Y170D01*
X3037Y169D01*
X3037Y168D01*
X3036Y167D01*
X3035Y166D01*
X3035Y165D01*
X3034Y164D01*
X3033Y163D01*
X3032Y162D01*
X3032Y161D01*
X3031Y160D01*
X3030Y159D01*
X3029Y158D01*
X3029Y157D01*
X3028Y156D01*
X3027Y155D01*
X3026Y154D01*
X3026Y153D01*
X3025Y152D01*
X3024Y151D01*
X3023Y150D01*
X3022Y149D01*
X3022Y148D01*
X3021Y147D01*
X3020Y146D01*
X3019Y145D01*
X3018Y144D01*
X3018Y143D01*
X3017Y142D01*
X3016Y141D01*
X3015Y140D01*
X3014Y139D01*
X3013Y138D01*
X3012Y137D01*
X3012Y136D01*
X3011Y135D01*
X3010Y134D01*
X3009Y133D01*
X3008Y132D01*
X3007Y131D01*
X3006Y130D01*
X3005Y129D01*
X3004Y128D01*
X3003Y127D01*
X3003Y126D01*
X3002Y125D01*
X3001Y124D01*
X3000Y123D01*
X2999Y122D01*
X2998Y121D01*
X2997Y120D01*
X2996Y119D01*
X2995Y118D01*
X2994Y117D01*
X2993Y116D01*
X2992Y115D01*
X2991Y114D01*
X2990Y113D01*
X2989Y112D01*
X2988Y111D01*
X2987Y110D01*
X2986Y109D01*
X2985Y108D01*
X2984Y107D01*
X2983Y106D01*
X2982Y105D01*
X2981Y104D01*
X2980Y104D01*
X2979Y103D01*
X2978Y102D01*
X2977Y101D01*
X2976Y100D01*
X2975Y99D01*
X2974Y98D01*
X2973Y98D01*
X2972Y97D01*
X2971Y96D01*
X2970Y95D01*
X2969Y94D01*
X2968Y93D01*
X2967Y92D01*
X2966Y91D01*
X2965Y91D01*
X2964Y90D01*
X2963Y89D01*
X2962Y88D01*
X2961Y88D01*
X2960Y87D01*
X2959Y86D01*
X2958Y85D01*
X2957Y84D01*
X2956Y84D01*
X2955Y83D01*
X2954Y82D01*
X2953Y81D01*
X2952Y80D01*
X2951Y80D01*
X2950Y79D01*
X2949Y78D01*
X2948Y78D01*
X2947Y77D01*
X2946Y76D01*
X2945Y75D01*
X2944Y75D01*
X2943Y74D01*
X2942Y73D01*
X2941Y73D01*
X2940Y72D01*
X2939Y71D01*
X2938Y70D01*
X2937Y70D01*
X2936Y69D01*
X2935Y68D01*
X2934Y68D01*
X2933Y67D01*
X2932Y66D01*
X2931Y66D01*
X2930Y65D01*
X2929Y64D01*
X2928Y64D01*
X2927Y63D01*
X2926Y63D01*
X2925Y62D01*
X2924Y61D01*
X2923Y61D01*
X2922Y60D01*
X2921Y59D01*
X2920Y59D01*
X2919Y58D01*
X2918Y58D01*
X2917Y57D01*
X2916Y56D01*
X2915Y56D01*
X2914Y55D01*
X2913Y55D01*
X2912Y54D01*
X2911Y54D01*
X2910Y53D01*
X2909Y52D01*
X2908Y52D01*
X2907Y51D01*
X2906Y51D01*
X2905Y50D01*
X2904Y50D01*
X2903Y49D01*
X2902Y48D01*
X2901Y48D01*
X2900Y47D01*
X2899Y47D01*
X2898Y46D01*
X2897Y46D01*
X2896Y45D01*
X2895Y45D01*
X2894Y44D01*
X2893Y44D01*
X2892Y43D01*
X2891Y43D01*
X2890Y42D01*
X2889Y42D01*
X2888Y41D01*
X2887Y41D01*
X2886Y40D01*
X2885Y40D01*
X2884Y39D01*
X2883Y39D01*
X2882Y38D01*
X2881Y38D01*
X2880Y38D01*
X2879Y37D01*
X2878Y37D01*
X2877Y36D01*
X2876Y36D01*
X2875Y35D01*
X2874Y35D01*
X2873Y34D01*
X2872Y34D01*
X2871Y33D01*
X2870Y33D01*
X2869Y33D01*
X2868Y32D01*
X2867Y32D01*
X2866Y31D01*
X2865Y31D01*
X2864Y31D01*
X2863Y30D01*
X2862Y30D01*
X2861Y29D01*
X2860Y29D01*
X2859Y29D01*
X2858Y28D01*
X2857Y28D01*
X2856Y27D01*
X2855Y27D01*
X2854Y27D01*
X2853Y26D01*
X2852Y26D01*
X2851Y26D01*
X2850Y25D01*
X2849Y25D01*
X2848Y24D01*
X2847Y24D01*
X2846Y24D01*
X2845Y23D01*
X2844Y23D01*
X2843Y23D01*
X2842Y22D01*
X2841Y22D01*
X2840Y22D01*
X2839Y21D01*
X2838Y21D01*
X2837Y21D01*
X2836Y20D01*
X2835Y20D01*
X2834Y20D01*
X2833Y19D01*
X2832Y19D01*
X2831Y19D01*
X2830Y19D01*
X2829Y18D01*
X2828Y18D01*
X2827Y18D01*
X2826Y17D01*
X2825Y17D01*
X2824Y17D01*
X2823Y17D01*
X2822Y16D01*
X2821Y16D01*
X2820Y16D01*
X2819Y15D01*
X2818Y15D01*
X2817Y15D01*
X2816Y15D01*
X2815Y14D01*
X2814Y14D01*
X2813Y14D01*
X2812Y14D01*
X2811Y13D01*
X2810Y13D01*
X2809Y13D01*
X2808Y13D01*
X2807Y12D01*
X2806Y12D01*
X2805Y12D01*
X2804Y12D01*
X2803Y11D01*
X2802Y11D01*
X2801Y11D01*
X2800Y11D01*
X2799Y11D01*
X2798Y10D01*
X2797Y10D01*
X2796Y10D01*
X2795Y10D01*
X2794Y10D01*
X2793Y9D01*
X2792Y9D01*
X2791Y9D01*
X2790Y9D01*
X2789Y9D01*
X2788Y8D01*
X2787Y8D01*
X2786Y8D01*
X2785Y8D01*
X2784Y8D01*
X2783Y8D01*
X2782Y7D01*
X2781Y7D01*
X2780Y7D01*
X2779Y7D01*
X2778Y7D01*
X2777Y7D01*
X2776Y6D01*
X2775Y6D01*
X2774Y6D01*
X2773Y6D01*
X2772Y6D01*
X2771Y6D01*
X2770Y6D01*
X2769Y5D01*
X2768Y5D01*
X2767Y5D01*
X2766Y5D01*
X2765Y5D01*
X2764Y5D01*
X2763Y5D01*
X2762Y5D01*
X2761Y4D01*
X2760Y4D01*
X2759Y4D01*
X2758Y4D01*
X2757Y4D01*
X2756Y4D01*
X2755Y4D01*
X2754Y4D01*
X2753Y4D01*
X2752Y4D01*
X2751Y3D01*
X2750Y3D01*
X2749Y3D01*
X2748Y3D01*
X2747Y3D01*
X2746Y3D01*
X2745Y3D01*
X2744Y3D01*
X2743Y3D01*
X2742Y3D01*
X2741Y3D01*
X2740Y3D01*
X2739Y3D01*
X2738Y3D01*
X2737Y2D01*
X2736Y2D01*
X2735Y2D01*
X2734Y2D01*
X2733Y2D01*
X2732Y2D01*
X2731Y2D01*
X2730Y2D01*
X2729Y2D01*
X2728Y2D01*
X2727Y2D01*
X2726Y2D01*
X2725Y2D01*
X2724Y2D01*
X2723Y2D01*
X2722Y2D01*
X2721Y2D01*
X2720Y2D01*
X2719Y2D01*
X2718Y2D01*
X2717Y2D01*
X2716Y2D01*
X2715Y2D01*
X2714Y2D01*
X2713Y2D01*
X2712Y2D01*
X2711Y2D01*
X2710Y2D01*
X2709Y2D01*
X2708Y2D01*
X2707Y2D01*
X2706Y2D01*
X2705Y2D01*
X2704Y2D01*
X2703Y2D01*
X2702Y2D01*
X2701Y2D01*
X2700Y2D01*
X2699Y2D01*
X2698Y2D01*
X2697Y2D01*
X2696Y2D01*
X2695Y2D01*
X2694Y2D01*
X2693Y2D01*
X2692Y2D01*
X2691Y2D01*
X2690Y2D01*
X2689Y2D01*
X2688Y2D01*
X2687Y2D01*
X2686Y2D01*
X2685Y2D01*
X2684Y2D01*
X2683Y2D01*
X2682Y2D01*
X2681Y2D01*
X2680Y2D01*
X2679Y2D01*
X2678Y2D01*
X2677Y2D01*
X2676Y2D01*
X2675Y2D01*
X2674Y2D01*
X2673Y2D01*
X2672Y2D01*
X2671Y2D01*
X2670Y2D01*
X2669Y2D01*
X2668Y2D01*
X2667Y2D01*
X2666Y2D01*
X2665Y2D01*
X2664Y2D01*
X2663Y2D01*
X2662Y2D01*
X2661Y2D01*
X2660Y2D01*
X2659Y2D01*
X2658Y2D01*
X2657Y2D01*
X2656Y2D01*
X2655Y2D01*
X2654Y2D01*
X2653Y2D01*
X2652Y2D01*
X2651Y2D01*
X2650Y2D01*
X2649Y2D01*
X2648Y2D01*
X2647Y2D01*
X2646Y2D01*
X2645Y2D01*
X2644Y2D01*
X2643Y2D01*
X2642Y2D01*
X2641Y2D01*
X2640Y2D01*
X2639Y2D01*
X2638Y2D01*
X2637Y2D01*
X2636Y2D01*
X2635Y2D01*
X2634Y2D01*
X2633Y2D01*
X2632Y2D01*
X2631Y2D01*
X2630Y2D01*
X2629Y2D01*
X2628Y2D01*
X2627Y2D01*
X2626Y2D01*
X2625Y2D01*
X2624Y2D01*
X2623Y2D01*
X2622Y2D01*
X2621Y2D01*
X2620Y2D01*
X2619Y2D01*
X2618Y2D01*
X2617Y2D01*
X2616Y2D01*
X2615Y2D01*
X2614Y2D01*
X2613Y2D01*
X2612Y2D01*
X2611Y2D01*
X2610Y2D01*
X2609Y2D01*
X2608Y2D01*
X2607Y2D01*
X2606Y2D01*
X2605Y2D01*
X2604Y2D01*
X2603Y2D01*
X2602Y2D01*
X2601Y2D01*
X2600Y2D01*
X2599Y2D01*
X2598Y2D01*
X2597Y2D01*
X2596Y2D01*
X2595Y2D01*
X2594Y2D01*
X2593Y2D01*
X2592Y2D01*
X2591Y2D01*
X2590Y2D01*
X2589Y2D01*
X2588Y2D01*
X2587Y2D01*
X2586Y2D01*
X2585Y2D01*
X2584Y2D01*
X2583Y2D01*
X2582Y2D01*
X2581Y2D01*
X2580Y2D01*
X2579Y2D01*
X2578Y2D01*
X2577Y2D01*
X2576Y2D01*
X2575Y2D01*
X2574Y2D01*
X2573Y2D01*
X2572Y2D01*
X2571Y2D01*
X2570Y2D01*
X2569Y2D01*
X2568Y2D01*
X2567Y2D01*
X2566Y2D01*
X2565Y2D01*
X2564Y2D01*
X2563Y2D01*
X2562Y2D01*
X2561Y2D01*
X2560Y2D01*
X2559Y2D01*
X2558Y2D01*
X2557Y2D01*
X2556Y2D01*
X2555Y2D01*
X2554Y2D01*
X2553Y2D01*
X2552Y2D01*
X2551Y2D01*
X2550Y2D01*
X2549Y2D01*
X2548Y2D01*
X2547Y2D01*
X2546Y2D01*
X2545Y2D01*
X2544Y2D01*
X2543Y2D01*
X2542Y2D01*
X2541Y2D01*
X2540Y2D01*
X2539Y2D01*
X2538Y2D01*
X2537Y2D01*
X2536Y2D01*
X2535Y2D01*
X2534Y2D01*
X2533Y2D01*
X2532Y2D01*
X2531Y2D01*
X2530Y2D01*
X2529Y2D01*
X2528Y2D01*
X2527Y2D01*
X2526Y2D01*
X2525Y2D01*
X2524Y2D01*
X2523Y2D01*
X2522Y2D01*
X2521Y2D01*
X2520Y2D01*
X2519Y2D01*
X2518Y2D01*
X2517Y2D01*
X2516Y2D01*
X2515Y2D01*
X2514Y2D01*
X2513Y2D01*
X2512Y2D01*
X2511Y2D01*
X2510Y2D01*
X2509Y2D01*
X2508Y2D01*
X2507Y2D01*
X2506Y2D01*
X2505Y2D01*
X2504Y2D01*
X2503Y2D01*
X2502Y2D01*
X2501Y2D01*
X2500Y2D01*
X2499Y2D01*
X2498Y2D01*
X2497Y2D01*
X2496Y2D01*
X2495Y2D01*
X2494Y2D01*
X2493Y2D01*
X2492Y2D01*
X2491Y2D01*
X2490Y2D01*
X2489Y2D01*
X2488Y2D01*
X2487Y2D01*
X2486Y2D01*
X2485Y2D01*
X2484Y2D01*
X2483Y2D01*
X2482Y2D01*
X2481Y2D01*
X2480Y2D01*
X2479Y2D01*
X2478Y2D01*
X2477Y2D01*
X2476Y2D01*
X2475Y2D01*
X2474Y2D01*
X2473Y2D01*
X2472Y2D01*
X2471Y2D01*
X2470Y2D01*
X2469Y2D01*
X2468Y2D01*
X2467Y2D01*
X2466Y2D01*
X2465Y2D01*
X2464Y2D01*
X2463Y2D01*
X2462Y2D01*
X2461Y2D01*
X2460Y2D01*
X2459Y2D01*
X2458Y2D01*
X2457Y2D01*
X2456Y2D01*
X2455Y2D01*
X2454Y2D01*
X2453Y2D01*
X2452Y2D01*
X2451Y2D01*
X2450Y2D01*
X2449Y2D01*
X2448Y2D01*
X2447Y2D01*
X2446Y2D01*
X2445Y2D01*
X2444Y2D01*
X2443Y2D01*
X2442Y2D01*
X2441Y2D01*
X2440Y2D01*
X2439Y2D01*
X2438Y2D01*
X2437Y2D01*
X2436Y2D01*
X2435Y2D01*
X2434Y2D01*
X2433Y2D01*
X2432Y2D01*
X2431Y2D01*
X2430Y2D01*
X2429Y2D01*
X2428Y2D01*
X2427Y2D01*
X2426Y2D01*
X2425Y2D01*
X2424Y2D01*
X2423Y2D01*
X2422Y2D01*
X2421Y2D01*
X2420Y2D01*
X2419Y2D01*
X2418Y2D01*
X2417Y2D01*
X2416Y2D01*
X2415Y2D01*
X2414Y2D01*
X2413Y2D01*
X2412Y2D01*
X2411Y2D01*
X2410Y2D01*
X2409Y2D01*
X2408Y2D01*
X2407Y2D01*
X2406Y2D01*
X2405Y2D01*
X2404Y2D01*
X2403Y2D01*
X2402Y2D01*
X2401Y2D01*
X2400Y2D01*
X2399Y2D01*
X2398Y2D01*
X2397Y2D01*
X2396Y2D01*
X2395Y2D01*
X2394Y2D01*
X2393Y2D01*
X2392Y2D01*
X2391Y2D01*
X2390Y2D01*
X2389Y2D01*
X2388Y2D01*
X2387Y2D01*
X2386Y2D01*
X2385Y2D01*
X2384Y2D01*
X2383Y2D01*
X2382Y2D01*
X2381Y2D01*
X2380Y2D01*
X2379Y2D01*
X2378Y2D01*
X2377Y2D01*
X2376Y2D01*
X2375Y2D01*
X2374Y2D01*
X2373Y2D01*
X2372Y2D01*
X2371Y2D01*
X2370Y2D01*
X2369Y2D01*
X2368Y2D01*
X2367Y2D01*
X2366Y2D01*
X2365Y2D01*
X2364Y2D01*
X2363Y2D01*
X2362Y2D01*
X2361Y2D01*
X2360Y2D01*
X2359Y2D01*
X2358Y2D01*
X2357Y2D01*
X2356Y2D01*
X2355Y2D01*
X2354Y2D01*
X2353Y2D01*
X2352Y2D01*
X2351Y2D01*
X2350Y2D01*
X2349Y2D01*
X2348Y2D01*
X2347Y2D01*
X2346Y2D01*
X2345Y2D01*
X2344Y2D01*
X2343Y2D01*
X2342Y2D01*
X2341Y2D01*
X2340Y2D01*
X2339Y2D01*
X2338Y2D01*
X2337Y2D01*
X2336Y2D01*
X2335Y2D01*
X2334Y2D01*
X2333Y2D01*
X2332Y2D01*
X2331Y2D01*
X2330Y2D01*
X2329Y2D01*
X2328Y2D01*
X2327Y2D01*
X2326Y2D01*
X2325Y2D01*
X2324Y2D01*
X2323Y2D01*
X2322Y2D01*
X2321Y2D01*
X2320Y2D01*
X2319Y2D01*
X2318Y2D01*
X2317Y2D01*
X2316Y2D01*
X2315Y2D01*
X2314Y2D01*
X2313Y2D01*
X2312Y2D01*
X2311Y2D01*
X2310Y2D01*
X2309Y2D01*
X2308Y2D01*
X2307Y2D01*
X2306Y2D01*
X2305Y2D01*
X2304Y2D01*
X2303Y2D01*
X2302Y2D01*
X2301Y2D01*
X2300Y2D01*
X2299Y2D01*
X2298Y2D01*
X2297Y2D01*
X2296Y2D01*
X2295Y2D01*
X2294Y2D01*
X2293Y2D01*
X2292Y2D01*
X2291Y2D01*
X2290Y2D01*
X2289Y2D01*
X2288Y2D01*
X2287Y2D01*
X2286Y2D01*
X2285Y2D01*
X2284Y2D01*
X2283Y2D01*
X2282Y2D01*
X2281Y2D01*
X2280Y2D01*
X2279Y2D01*
X2278Y2D01*
X2277Y2D01*
X2276Y2D01*
X2275Y2D01*
X2274Y2D01*
X2273Y2D01*
X2272Y2D01*
X2271Y2D01*
X2270Y2D01*
X2269Y2D01*
X2268Y2D01*
X2267Y2D01*
X2266Y2D01*
X2265Y2D01*
X2264Y2D01*
X2263Y2D01*
X2262Y2D01*
X2261Y2D01*
X2260Y2D01*
X2259Y2D01*
X2258Y2D01*
X2257Y2D01*
X2256Y2D01*
X2255Y2D01*
X2254Y2D01*
X2253Y2D01*
X2252Y2D01*
X2251Y2D01*
X2250Y2D01*
X2249Y2D01*
X2248Y2D01*
X2247Y2D01*
X2246Y2D01*
X2245Y2D01*
X2244Y2D01*
X2243Y2D01*
X2242Y2D01*
X2241Y2D01*
X2240Y2D01*
X2239Y2D01*
X2238Y2D01*
X2237Y2D01*
X2236Y2D01*
X2235Y2D01*
X2234Y2D01*
X2233Y2D01*
X2232Y2D01*
X2231Y2D01*
X2230Y2D01*
X2229Y2D01*
X2228Y2D01*
X2227Y2D01*
X2226Y2D01*
X2225Y2D01*
X2224Y2D01*
X2223Y2D01*
X2222Y2D01*
X2221Y2D01*
X2220Y2D01*
X2219Y2D01*
X2218Y2D01*
X2217Y2D01*
X2216Y2D01*
X2215Y2D01*
X2214Y2D01*
X2213Y2D01*
X2212Y2D01*
X2211Y2D01*
X2210Y2D01*
X2209Y2D01*
X2208Y2D01*
X2207Y2D01*
X2206Y2D01*
X2205Y2D01*
X2204Y2D01*
X2203Y2D01*
X2202Y2D01*
X2201Y2D01*
X2200Y2D01*
X2199Y2D01*
X2198Y2D01*
X2197Y2D01*
X2196Y2D01*
X2195Y2D01*
X2194Y2D01*
X2193Y2D01*
X2192Y2D01*
X2191Y2D01*
X2190Y2D01*
X2189Y2D01*
X2188Y2D01*
X2187Y2D01*
X2186Y2D01*
X2185Y2D01*
X2184Y2D01*
X2183Y2D01*
X2182Y2D01*
X2181Y2D01*
X2180Y2D01*
X2179Y2D01*
X2178Y2D01*
X2177Y2D01*
X2176Y2D01*
X2175Y2D01*
X2174Y2D01*
X2173Y2D01*
X2172Y2D01*
X2171Y2D01*
X2170Y2D01*
X2169Y2D01*
X2168Y2D01*
X2167Y2D01*
X2166Y2D01*
X2165Y2D01*
X2164Y2D01*
X2163Y2D01*
X2162Y2D01*
X2161Y2D01*
X2160Y2D01*
X2159Y2D01*
X2158Y2D01*
X2157Y2D01*
X2156Y2D01*
X2155Y2D01*
X2154Y2D01*
X2153Y2D01*
X2152Y2D01*
X2151Y2D01*
X2150Y2D01*
X2149Y2D01*
X2148Y2D01*
X2147Y2D01*
X2146Y2D01*
X2145Y2D01*
X2144Y2D01*
X2143Y2D01*
X2142Y2D01*
X2141Y2D01*
X2140Y2D01*
X2139Y2D01*
X2138Y2D01*
X2137Y2D01*
X2136Y2D01*
X2135Y2D01*
X2134Y2D01*
X2133Y2D01*
X2132Y2D01*
X2131Y2D01*
X2130Y2D01*
X2129Y2D01*
X2128Y2D01*
X2127Y2D01*
X2126Y2D01*
X2125Y2D01*
X2124Y2D01*
X2123Y2D01*
X2122Y2D01*
X2121Y2D01*
X2120Y2D01*
X2119Y2D01*
X2118Y2D01*
X2117Y2D01*
X2116Y2D01*
X2115Y2D01*
X2114Y2D01*
X2113Y2D01*
X2112Y2D01*
X2111Y2D01*
X2110Y2D01*
X2109Y2D01*
X2108Y2D01*
X2107Y2D01*
X2106Y2D01*
X2105Y2D01*
X2104Y2D01*
X2103Y2D01*
X2102Y2D01*
X2101Y2D01*
X2100Y2D01*
X2099Y2D01*
X2098Y2D01*
X2097Y2D01*
X2096Y2D01*
X2095Y2D01*
X2094Y2D01*
X2093Y2D01*
X2092Y2D01*
X2091Y2D01*
X2090Y2D01*
X2089Y2D01*
X2088Y2D01*
X2087Y2D01*
X2086Y2D01*
X2085Y2D01*
X2084Y2D01*
X2083Y2D01*
X2082Y2D01*
X2081Y2D01*
X2080Y2D01*
X2079Y2D01*
X2078Y2D01*
X2077Y2D01*
X2076Y2D01*
X2075Y2D01*
X2074Y2D01*
X2073Y2D01*
X2072Y2D01*
X2071Y2D01*
X2070Y2D01*
X2069Y2D01*
X2068Y2D01*
X2067Y2D01*
X2066Y2D01*
X2065Y2D01*
X2064Y2D01*
X2063Y2D01*
X2062Y2D01*
X2061Y2D01*
X2060Y2D01*
X2059Y2D01*
X2058Y2D01*
X2057Y2D01*
X2056Y2D01*
X2055Y2D01*
X2054Y2D01*
X2053Y2D01*
X2052Y2D01*
X2051Y2D01*
X2050Y2D01*
X2049Y2D01*
X2048Y2D01*
X2047Y2D01*
X2046Y2D01*
X2045Y2D01*
X2044Y2D01*
X2043Y2D01*
X2042Y2D01*
X2041Y2D01*
X2040Y2D01*
X2039Y2D01*
X2038Y2D01*
X2037Y2D01*
X2036Y2D01*
X2035Y2D01*
X2034Y2D01*
X2033Y2D01*
X2032Y2D01*
X2031Y2D01*
X2030Y2D01*
X2029Y2D01*
X2028Y2D01*
X2027Y2D01*
X2026Y2D01*
X2025Y2D01*
X2024Y2D01*
X2023Y2D01*
X2022Y2D01*
X2021Y2D01*
X2020Y2D01*
X2019Y2D01*
X2018Y2D01*
X2017Y2D01*
X2016Y2D01*
X2015Y2D01*
X2014Y2D01*
X2013Y2D01*
X2012Y2D01*
X2011Y2D01*
X2010Y2D01*
X2009Y2D01*
X2008Y2D01*
X2007Y2D01*
X2006Y2D01*
X2005Y2D01*
X2004Y2D01*
X2003Y2D01*
X2002Y2D01*
X2001Y2D01*
X2000Y2D01*
X1999Y2D01*
X1998Y2D01*
X1997Y2D01*
X1996Y2D01*
X1995Y2D01*
X1994Y2D01*
X1993Y2D01*
X1992Y2D01*
X1991Y2D01*
X1990Y2D01*
X1989Y2D01*
X1988Y2D01*
X1987Y2D01*
X1986Y2D01*
X1985Y2D01*
X1984Y2D01*
X1983Y2D01*
X1982Y2D01*
X1981Y2D01*
X1980Y2D01*
X1979Y2D01*
X1978Y2D01*
X1977Y2D01*
X1976Y2D01*
X1975Y2D01*
X1974Y2D01*
X1973Y2D01*
X1972Y2D01*
X1971Y2D01*
X1970Y2D01*
X1969Y2D01*
X1968Y2D01*
X1967Y2D01*
X1966Y2D01*
X1965Y2D01*
X1964Y2D01*
X1963Y2D01*
X1962Y2D01*
X1961Y2D01*
X1960Y2D01*
X1959Y2D01*
X1958Y2D01*
X1957Y2D01*
X1956Y2D01*
X1955Y2D01*
X1954Y2D01*
X1953Y2D01*
X1952Y2D01*
X1951Y2D01*
X1950Y2D01*
X1949Y2D01*
X1948Y2D01*
X1947Y2D01*
X1946Y2D01*
X1945Y2D01*
X1944Y2D01*
X1943Y2D01*
X1942Y2D01*
X1941Y2D01*
X1940Y2D01*
X1939Y2D01*
X1938Y2D01*
X1937Y2D01*
X1936Y2D01*
X1935Y2D01*
X1934Y2D01*
X1933Y2D01*
X1932Y2D01*
X1931Y2D01*
X1930Y2D01*
X1929Y2D01*
X1928Y2D01*
X1927Y2D01*
X1926Y2D01*
X1925Y2D01*
X1924Y2D01*
X1923Y2D01*
X1922Y2D01*
X1921Y2D01*
X1920Y2D01*
X1919Y2D01*
X1918Y2D01*
X1917Y2D01*
X1916Y2D01*
X1915Y2D01*
X1914Y2D01*
X1913Y2D01*
X1912Y2D01*
X1911Y2D01*
X1910Y2D01*
X1909Y2D01*
X1908Y2D01*
X1907Y2D01*
X1906Y2D01*
X1905Y2D01*
X1904Y2D01*
X1903Y2D01*
X1902Y2D01*
X1901Y2D01*
X1900Y2D01*
X1899Y2D01*
X1898Y2D01*
X1897Y2D01*
X1896Y2D01*
X1895Y2D01*
X1894Y2D01*
X1893Y2D01*
X1892Y2D01*
X1891Y2D01*
X1890Y2D01*
X1889Y2D01*
X1888Y2D01*
X1887Y2D01*
X1886Y2D01*
X1885Y2D01*
X1884Y2D01*
X1883Y2D01*
X1882Y2D01*
X1881Y2D01*
X1880Y2D01*
X1879Y2D01*
X1878Y2D01*
X1877Y2D01*
X1876Y2D01*
X1875Y2D01*
X1874Y2D01*
X1873Y2D01*
X1872Y2D01*
X1871Y2D01*
X1870Y2D01*
X1869Y2D01*
X1868Y2D01*
X1867Y2D01*
X1866Y2D01*
X1865Y2D01*
X1864Y2D01*
X1863Y2D01*
X1862Y2D01*
X1861Y2D01*
X1860Y2D01*
X1859Y2D01*
X1858Y2D01*
X1857Y2D01*
X1856Y2D01*
X1855Y2D01*
X1854Y2D01*
X1853Y2D01*
X1852Y2D01*
X1851Y2D01*
X1850Y2D01*
X1849Y2D01*
X1848Y2D01*
X1847Y2D01*
X1846Y2D01*
X1845Y2D01*
X1844Y2D01*
X1843Y2D01*
X1842Y2D01*
X1841Y2D01*
X1840Y2D01*
X1839Y2D01*
X1838Y2D01*
X1837Y2D01*
X1836Y2D01*
X1835Y2D01*
X1834Y2D01*
X1833Y2D01*
X1832Y2D01*
X1831Y2D01*
X1830Y2D01*
X1829Y2D01*
X1828Y2D01*
X1827Y2D01*
X1826Y2D01*
X1825Y2D01*
X1824Y2D01*
X1823Y2D01*
X1822Y2D01*
X1821Y2D01*
X1820Y2D01*
X1819Y2D01*
X1818Y2D01*
X1817Y2D01*
X1816Y2D01*
X1815Y2D01*
X1814Y2D01*
X1813Y2D01*
X1812Y2D01*
X1811Y2D01*
X1810Y2D01*
X1809Y2D01*
X1808Y2D01*
X1807Y2D01*
X1806Y2D01*
X1805Y2D01*
X1804Y2D01*
X1803Y2D01*
X1802Y2D01*
X1801Y2D01*
X1800Y2D01*
X1799Y2D01*
X1798Y2D01*
X1797Y2D01*
X1796Y2D01*
X1795Y2D01*
X1794Y2D01*
X1793Y2D01*
X1792Y2D01*
X1791Y2D01*
X1790Y2D01*
X1789Y2D01*
X1788Y2D01*
X1787Y2D01*
X1786Y2D01*
X1785Y2D01*
X1784Y2D01*
X1783Y2D01*
X1782Y2D01*
X1781Y2D01*
X1780Y2D01*
X1779Y2D01*
X1778Y2D01*
X1777Y2D01*
X1776Y2D01*
X1775Y2D01*
X1774Y2D01*
X1773Y2D01*
X1772Y2D01*
X1771Y2D01*
X1770Y2D01*
X1769Y2D01*
X1768Y2D01*
X1767Y2D01*
X1766Y2D01*
X1765Y2D01*
X1764Y2D01*
X1763Y2D01*
X1762Y2D01*
X1761Y2D01*
X1760Y2D01*
X1759Y2D01*
X1758Y2D01*
X1757Y2D01*
X1756Y2D01*
X1755Y2D01*
X1754Y2D01*
X1753Y2D01*
X1752Y2D01*
X1751Y2D01*
X1750Y2D01*
X1749Y2D01*
X1748Y2D01*
X1747Y2D01*
X1746Y2D01*
X1745Y2D01*
X1744Y2D01*
X1743Y2D01*
X1742Y2D01*
X1741Y2D01*
X1740Y2D01*
X1739Y2D01*
X1738Y2D01*
X1737Y2D01*
X1736Y2D01*
X1735Y2D01*
X1734Y2D01*
X1733Y2D01*
X1732Y2D01*
X1731Y2D01*
X1730Y2D01*
X1729Y2D01*
X1728Y2D01*
X1727Y2D01*
X1726Y2D01*
X1725Y2D01*
X1724Y2D01*
X1723Y2D01*
X1722Y2D01*
X1721Y2D01*
X1720Y2D01*
X1719Y2D01*
X1718Y2D01*
X1717Y2D01*
X1716Y2D01*
X1715Y2D01*
X1714Y2D01*
X1713Y2D01*
X1712Y2D01*
X1711Y2D01*
X1710Y2D01*
X1709Y2D01*
X1708Y2D01*
X1707Y2D01*
X1706Y2D01*
X1705Y2D01*
X1704Y2D01*
X1703Y2D01*
X1702Y2D01*
X1701Y2D01*
X1700Y2D01*
X1699Y2D01*
X1698Y2D01*
X1697Y2D01*
X1696Y2D01*
X1695Y2D01*
X1694Y2D01*
X1693Y2D01*
X1692Y2D01*
X1691Y2D01*
X1690Y2D01*
X1689Y2D01*
X1688Y2D01*
X1687Y2D01*
X1686Y2D01*
X1685Y2D01*
X1684Y2D01*
X1683Y2D01*
X1682Y2D01*
X1681Y2D01*
X1680Y2D01*
X1679Y2D01*
X1678Y2D01*
X1677Y2D01*
X1676Y2D01*
X1675Y2D01*
X1674Y2D01*
X1673Y2D01*
X1672Y2D01*
X1671Y2D01*
X1670Y2D01*
X1669Y2D01*
X1668Y2D01*
X1667Y2D01*
X1666Y2D01*
X1665Y2D01*
X1664Y2D01*
X1663Y2D01*
X1662Y2D01*
X1661Y2D01*
X1660Y2D01*
X1659Y2D01*
X1658Y2D01*
X1657Y2D01*
X1656Y2D01*
X1655Y2D01*
X1654Y2D01*
X1653Y2D01*
X1652Y2D01*
X1651Y2D01*
X1650Y2D01*
X1649Y2D01*
X1648Y2D01*
X1647Y2D01*
X1646Y2D01*
X1645Y2D01*
X1644Y2D01*
X1643Y2D01*
X1642Y2D01*
X1641Y2D01*
X1640Y2D01*
X1639Y2D01*
X1638Y2D01*
X1637Y2D01*
X1636Y2D01*
X1635Y2D01*
X1634Y2D01*
X1633Y2D01*
X1632Y2D01*
X1631Y2D01*
X1630Y2D01*
X1629Y2D01*
X1628Y2D01*
X1627Y2D01*
X1626Y2D01*
X1625Y2D01*
X1624Y2D01*
X1623Y2D01*
X1622Y2D01*
X1621Y2D01*
X1620Y2D01*
X1619Y2D01*
X1618Y2D01*
X1617Y2D01*
X1616Y2D01*
X1615Y2D01*
X1614Y2D01*
X1613Y2D01*
X1612Y2D01*
X1611Y2D01*
X1610Y2D01*
X1609Y2D01*
X1608Y2D01*
X1607Y2D01*
X1606Y2D01*
X1605Y2D01*
X1604Y2D01*
X1603Y2D01*
X1602Y2D01*
X1601Y2D01*
X1600Y2D01*
X1599Y2D01*
X1598Y2D01*
X1597Y2D01*
X1596Y2D01*
X1595Y2D01*
X1594Y2D01*
X1593Y2D01*
X1592Y2D01*
X1591Y2D01*
X1590Y2D01*
X1589Y2D01*
X1588Y2D01*
X1587Y2D01*
X1586Y2D01*
X1585Y2D01*
X1584Y2D01*
X1583Y2D01*
X1582Y2D01*
X1581Y2D01*
X1580Y2D01*
X1579Y2D01*
X1578Y2D01*
X1577Y2D01*
X1576Y2D01*
X1575Y2D01*
X1574Y2D01*
X1573Y2D01*
X1572Y2D01*
X1571Y2D01*
X1570Y2D01*
X1569Y2D01*
X1568Y2D01*
X1567Y2D01*
X1566Y2D01*
X1565Y2D01*
X1564Y2D01*
X1563Y2D01*
X1562Y2D01*
X1561Y2D01*
X1560Y2D01*
X1559Y2D01*
X1558Y2D01*
X1557Y2D01*
X1556Y2D01*
X1555Y2D01*
X1554Y2D01*
X1553Y2D01*
X1552Y2D01*
X1551Y2D01*
X1550Y2D01*
X1549Y2D01*
X1548Y2D01*
X1547Y2D01*
X1546Y2D01*
X1545Y2D01*
X1544Y2D01*
X1543Y2D01*
X1542Y2D01*
X1541Y2D01*
X1540Y2D01*
X1539Y2D01*
X1538Y2D01*
X1537Y2D01*
X1536Y2D01*
X1535Y2D01*
X1534Y2D01*
X1533Y2D01*
X1532Y2D01*
X1531Y2D01*
X1530Y2D01*
X1529Y2D01*
X1528Y2D01*
X1527Y2D01*
X1526Y2D01*
X1525Y2D01*
X1524Y2D01*
X1523Y2D01*
X1522Y2D01*
X1521Y2D01*
X1520Y2D01*
X1519Y2D01*
X1518Y2D01*
X1517Y2D01*
X1516Y2D01*
X1515Y2D01*
X1514Y2D01*
X1513Y2D01*
X1512Y2D01*
X1511Y2D01*
X1510Y2D01*
X1509Y2D01*
X1508Y2D01*
X1507Y2D01*
X1506Y2D01*
X1505Y2D01*
X1504Y2D01*
X1503Y2D01*
X1502Y2D01*
X1501Y2D01*
X1500Y2D01*
X1499Y2D01*
X1498Y2D01*
X1497Y2D01*
X1496Y2D01*
X1495Y2D01*
X1494Y2D01*
X1493Y2D01*
X1492Y2D01*
X1491Y2D01*
X1490Y2D01*
X1489Y2D01*
X1488Y2D01*
X1487Y2D01*
X1486Y2D01*
X1485Y2D01*
X1484Y2D01*
X1483Y2D01*
X1482Y2D01*
X1481Y2D01*
X1480Y2D01*
X1479Y2D01*
X1478Y2D01*
X1477Y2D01*
X1476Y2D01*
X1475Y2D01*
X1474Y2D01*
X1473Y2D01*
X1472Y2D01*
X1471Y2D01*
X1470Y2D01*
X1469Y2D01*
X1468Y2D01*
X1467Y2D01*
X1466Y2D01*
X1465Y2D01*
X1464Y2D01*
X1463Y2D01*
X1462Y2D01*
X1461Y2D01*
X1460Y2D01*
X1459Y2D01*
X1458Y2D01*
X1457Y2D01*
X1456Y2D01*
X1455Y2D01*
X1454Y2D01*
X1453Y2D01*
X1452Y2D01*
X1451Y2D01*
X1450Y2D01*
X1449Y2D01*
X1448Y2D01*
X1447Y2D01*
X1446Y2D01*
X1445Y2D01*
X1444Y2D01*
X1443Y2D01*
X1442Y2D01*
X1441Y2D01*
X1440Y2D01*
X1439Y2D01*
X1438Y2D01*
X1437Y2D01*
X1436Y2D01*
X1435Y2D01*
X1434Y2D01*
X1433Y2D01*
X1432Y2D01*
X1431Y2D01*
X1430Y2D01*
X1429Y2D01*
X1428Y2D01*
X1427Y2D01*
X1426Y2D01*
X1425Y2D01*
X1424Y2D01*
X1423Y2D01*
X1422Y2D01*
X1421Y2D01*
X1420Y2D01*
X1419Y2D01*
X1418Y2D01*
X1417Y2D01*
X1416Y2D01*
X1415Y2D01*
X1414Y2D01*
X1413Y2D01*
X1412Y2D01*
X1411Y2D01*
X1410Y2D01*
X1409Y2D01*
X1408Y2D01*
X1407Y2D01*
X1406Y2D01*
X1405Y2D01*
X1404Y2D01*
X1403Y2D01*
X1402Y2D01*
X1401Y2D01*
X1400Y2D01*
X1399Y2D01*
X1398Y2D01*
X1397Y2D01*
X1396Y2D01*
X1395Y2D01*
X1394Y2D01*
X1393Y2D01*
X1392Y2D01*
X1391Y2D01*
X1390Y2D01*
X1389Y2D01*
X1388Y2D01*
X1387Y2D01*
X1386Y2D01*
X1385Y2D01*
X1384Y2D01*
X1383Y2D01*
X1382Y2D01*
X1381Y2D01*
X1380Y2D01*
X1379Y2D01*
X1378Y2D01*
X1377Y2D01*
X1376Y2D01*
X1375Y2D01*
X1374Y2D01*
X1373Y2D01*
X1372Y2D01*
X1371Y2D01*
X1370Y2D01*
X1369Y2D01*
X1368Y2D01*
X1367Y2D01*
X1366Y2D01*
X1365Y2D01*
X1364Y2D01*
X1363Y2D01*
X1362Y2D01*
X1361Y2D01*
X1360Y2D01*
X1359Y2D01*
X1358Y2D01*
X1357Y2D01*
X1356Y2D01*
X1355Y2D01*
X1354Y2D01*
X1353Y2D01*
X1352Y2D01*
X1351Y2D01*
X1350Y2D01*
X1349Y2D01*
X1348Y2D01*
X1347Y2D01*
X1346Y2D01*
X1345Y2D01*
X1344Y2D01*
X1343Y2D01*
X1342Y2D01*
X1341Y2D01*
X1340Y2D01*
X1339Y2D01*
X1338Y2D01*
X1337Y2D01*
X1336Y2D01*
X1335Y2D01*
X1334Y2D01*
X1333Y2D01*
X1332Y2D01*
X1331Y2D01*
X1330Y2D01*
X1329Y2D01*
X1328Y2D01*
X1327Y2D01*
X1326Y2D01*
X1325Y2D01*
X1324Y2D01*
X1323Y2D01*
X1322Y2D01*
X1321Y2D01*
X1320Y2D01*
X1319Y2D01*
X1318Y2D01*
X1317Y2D01*
X1316Y2D01*
X1315Y2D01*
X1314Y2D01*
X1313Y2D01*
X1312Y2D01*
X1311Y2D01*
X1310Y2D01*
X1309Y2D01*
X1308Y2D01*
X1307Y2D01*
X1306Y2D01*
X1305Y2D01*
X1304Y2D01*
X1303Y2D01*
X1302Y2D01*
X1301Y2D01*
X1300Y2D01*
X1299Y2D01*
X1298Y2D01*
X1297Y2D01*
X1296Y2D01*
X1295Y2D01*
X1294Y2D01*
X1293Y2D01*
X1292Y2D01*
X1291Y2D01*
X1290Y2D01*
X1289Y2D01*
X1288Y2D01*
X1287Y2D01*
X1286Y2D01*
X1285Y2D01*
X1284Y2D01*
X1283Y2D01*
X1282Y2D01*
X1281Y2D01*
X1280Y2D01*
X1279Y2D01*
X1278Y2D01*
X1277Y2D01*
X1276Y2D01*
X1275Y2D01*
X1274Y2D01*
X1273Y2D01*
X1272Y2D01*
X1271Y2D01*
X1270Y2D01*
X1269Y2D01*
X1268Y2D01*
X1267Y2D01*
X1266Y2D01*
X1265Y2D01*
X1264Y2D01*
X1263Y2D01*
X1262Y2D01*
X1261Y2D01*
X1260Y2D01*
X1259Y2D01*
X1258Y2D01*
X1257Y2D01*
X1256Y2D01*
X1255Y2D01*
X1254Y2D01*
X1253Y2D01*
X1252Y2D01*
X1251Y2D01*
X1250Y2D01*
X1249Y2D01*
X1248Y2D01*
X1247Y2D01*
X1246Y2D01*
X1245Y2D01*
X1244Y2D01*
X1243Y2D01*
X1242Y2D01*
X1241Y2D01*
X1240Y2D01*
X1239Y2D01*
X1238Y2D01*
X1237Y2D01*
X1236Y2D01*
X1235Y2D01*
X1234Y2D01*
X1233Y2D01*
X1232Y2D01*
X1231Y2D01*
X1230Y2D01*
X1229Y2D01*
X1228Y2D01*
X1227Y2D01*
X1226Y2D01*
X1225Y2D01*
X1224Y2D01*
X1223Y2D01*
X1222Y2D01*
X1221Y2D01*
X1220Y2D01*
X1219Y2D01*
X1218Y2D01*
X1217Y2D01*
X1216Y2D01*
X1215Y2D01*
X1214Y2D01*
X1213Y2D01*
X1212Y2D01*
X1211Y2D01*
X1210Y2D01*
X1209Y2D01*
X1208Y2D01*
X1207Y2D01*
X1206Y2D01*
X1205Y2D01*
X1204Y2D01*
X1203Y2D01*
X1202Y2D01*
X1201Y2D01*
X1200Y2D01*
X1199Y2D01*
X1198Y2D01*
X1197Y2D01*
X1196Y2D01*
X1195Y2D01*
X1194Y2D01*
X1193Y2D01*
X1192Y2D01*
X1191Y2D01*
X1190Y2D01*
X1189Y2D01*
X1188Y2D01*
X1187Y2D01*
X1186Y2D01*
X1185Y2D01*
X1184Y2D01*
X1183Y2D01*
X1182Y2D01*
X1181Y2D01*
X1180Y2D01*
X1179Y2D01*
X1178Y2D01*
X1177Y2D01*
X1176Y2D01*
X1175Y2D01*
X1174Y2D01*
X1173Y2D01*
X1172Y2D01*
X1171Y2D01*
X1170Y2D01*
X1169Y2D01*
X1168Y2D01*
X1167Y2D01*
X1166Y2D01*
X1165Y2D01*
X1164Y2D01*
X1163Y2D01*
X1162Y2D01*
X1161Y2D01*
X1160Y2D01*
X1159Y2D01*
X1158Y2D01*
X1157Y2D01*
X1156Y2D01*
X1155Y2D01*
X1154Y2D01*
X1153Y2D01*
X1152Y2D01*
X1151Y2D01*
X1150Y2D01*
X1149Y2D01*
X1148Y2D01*
X1147Y2D01*
X1146Y2D01*
X1145Y2D01*
X1144Y2D01*
X1143Y2D01*
X1142Y2D01*
X1141Y2D01*
X1140Y2D01*
X1139Y2D01*
X1138Y2D01*
X1137Y2D01*
X1136Y2D01*
X1135Y2D01*
X1134Y2D01*
X1133Y2D01*
X1132Y2D01*
X1131Y2D01*
X1130Y2D01*
X1129Y2D01*
X1128Y2D01*
X1127Y2D01*
X1126Y2D01*
X1125Y2D01*
X1124Y2D01*
X1123Y2D01*
X1122Y2D01*
X1121Y2D01*
X1120Y2D01*
X1119Y2D01*
X1118Y2D01*
X1117Y2D01*
X1116Y2D01*
X1115Y2D01*
X1114Y2D01*
X1113Y2D01*
X1112Y2D01*
X1111Y2D01*
X1110Y2D01*
X1109Y2D01*
X1108Y2D01*
X1107Y2D01*
X1106Y2D01*
X1105Y2D01*
X1104Y2D01*
X1103Y2D01*
X1102Y2D01*
X1101Y2D01*
X1100Y2D01*
X1099Y2D01*
X1098Y2D01*
X1097Y2D01*
X1096Y2D01*
X1095Y2D01*
X1094Y2D01*
X1093Y2D01*
X1092Y2D01*
X1091Y2D01*
X1090Y2D01*
X1089Y2D01*
X1088Y2D01*
X1087Y2D01*
X1086Y2D01*
X1085Y2D01*
X1084Y2D01*
X1083Y2D01*
X1082Y2D01*
X1081Y2D01*
X1080Y2D01*
X1079Y2D01*
X1078Y2D01*
X1077Y2D01*
X1076Y2D01*
X1075Y2D01*
X1074Y2D01*
X1073Y2D01*
X1072Y2D01*
X1071Y2D01*
X1070Y2D01*
X1069Y2D01*
X1068Y2D01*
X1067Y2D01*
X1066Y2D01*
X1065Y2D01*
X1064Y2D01*
X1063Y2D01*
X1062Y2D01*
X1061Y2D01*
X1060Y2D01*
X1059Y2D01*
X1058Y2D01*
X1057Y2D01*
X1056Y2D01*
X1055Y2D01*
X1054Y2D01*
X1053Y2D01*
X1052Y2D01*
X1051Y2D01*
X1050Y2D01*
X1049Y2D01*
X1048Y2D01*
X1047Y2D01*
X1046Y2D01*
X1045Y2D01*
X1044Y2D01*
X1043Y2D01*
X1042Y2D01*
X1041Y2D01*
X1040Y2D01*
X1039Y2D01*
X1038Y2D01*
X1037Y2D01*
X1036Y2D01*
X1035Y2D01*
X1034Y2D01*
X1033Y2D01*
X1032Y2D01*
X1031Y2D01*
X1030Y2D01*
X1029Y2D01*
X1028Y2D01*
X1027Y2D01*
X1026Y2D01*
X1025Y2D01*
X1024Y2D01*
X1023Y2D01*
X1022Y2D01*
X1021Y2D01*
X1020Y2D01*
X1019Y2D01*
X1018Y2D01*
X1017Y2D01*
X1016Y2D01*
X1015Y2D01*
X1014Y2D01*
X1013Y2D01*
X1012Y2D01*
X1011Y2D01*
X1010Y2D01*
X1009Y2D01*
X1008Y2D01*
X1007Y2D01*
X1006Y2D01*
X1005Y2D01*
X1004Y2D01*
X1003Y2D01*
X1002Y2D01*
X1001Y2D01*
X1000Y2D01*
X999Y2D01*
X998Y2D01*
X997Y2D01*
X996Y2D01*
X995Y2D01*
X994Y2D01*
X993Y2D01*
X992Y2D01*
X991Y2D01*
X990Y2D01*
X989Y2D01*
X988Y2D01*
X987Y2D01*
X986Y2D01*
X985Y2D01*
X984Y2D01*
X983Y2D01*
X982Y2D01*
X981Y2D01*
X980Y2D01*
X979Y2D01*
X978Y2D01*
X977Y2D01*
X976Y2D01*
X975Y2D01*
X974Y2D01*
X973Y2D01*
X972Y2D01*
X971Y2D01*
X970Y2D01*
X969Y2D01*
X968Y2D01*
X967Y2D01*
X966Y2D01*
X965Y2D01*
X964Y2D01*
X963Y2D01*
X962Y2D01*
X961Y2D01*
X960Y2D01*
X959Y2D01*
X958Y2D01*
X957Y2D01*
X956Y2D01*
X955Y2D01*
X954Y2D01*
X953Y2D01*
X952Y2D01*
X951Y2D01*
X950Y2D01*
X949Y2D01*
X948Y2D01*
X947Y2D01*
X946Y2D01*
X945Y2D01*
X944Y2D01*
X943Y2D01*
X942Y2D01*
X941Y2D01*
X940Y2D01*
X939Y2D01*
X938Y2D01*
X937Y2D01*
X936Y2D01*
X935Y2D01*
X934Y2D01*
X933Y2D01*
X932Y2D01*
X931Y2D01*
X930Y2D01*
X929Y2D01*
X928Y2D01*
X927Y2D01*
X926Y2D01*
X925Y2D01*
X924Y2D01*
X923Y2D01*
X922Y2D01*
X921Y2D01*
X920Y2D01*
X919Y2D01*
X918Y2D01*
X917Y2D01*
X916Y2D01*
X915Y2D01*
X914Y2D01*
X913Y2D01*
X912Y2D01*
X911Y2D01*
X910Y2D01*
X909Y2D01*
X908Y2D01*
X907Y2D01*
X906Y2D01*
X905Y2D01*
X904Y2D01*
X903Y2D01*
X902Y2D01*
X901Y2D01*
X900Y2D01*
X899Y2D01*
X898Y2D01*
X897Y2D01*
X896Y2D01*
X895Y2D01*
X894Y2D01*
X893Y2D01*
X892Y2D01*
X891Y2D01*
X890Y2D01*
X889Y2D01*
X888Y2D01*
X887Y2D01*
X886Y2D01*
X885Y2D01*
X884Y2D01*
X883Y2D01*
X882Y2D01*
X881Y2D01*
X880Y2D01*
X879Y2D01*
X878Y2D01*
X877Y2D01*
X876Y2D01*
X875Y2D01*
X874Y2D01*
X873Y2D01*
X872Y2D01*
X871Y2D01*
X870Y2D01*
X869Y2D01*
X868Y2D01*
X867Y2D01*
X866Y2D01*
X865Y2D01*
X864Y2D01*
X863Y2D01*
X862Y2D01*
X861Y2D01*
X860Y2D01*
X859Y2D01*
X858Y2D01*
X857Y2D01*
X856Y2D01*
X855Y2D01*
X854Y2D01*
X853Y2D01*
X852Y2D01*
X851Y2D01*
X850Y2D01*
X849Y2D01*
X848Y2D01*
X847Y2D01*
X846Y2D01*
X845Y2D01*
X844Y2D01*
X843Y2D01*
X842Y2D01*
X841Y2D01*
X840Y2D01*
X839Y2D01*
X838Y2D01*
X837Y2D01*
X836Y2D01*
X835Y2D01*
X834Y2D01*
X833Y2D01*
X832Y2D01*
X831Y2D01*
X830Y2D01*
X829Y2D01*
X828Y2D01*
X827Y2D01*
X826Y2D01*
X825Y2D01*
X824Y2D01*
X823Y2D01*
X822Y2D01*
X821Y2D01*
X820Y2D01*
X819Y2D01*
X818Y2D01*
X817Y2D01*
X816Y2D01*
X815Y2D01*
X814Y2D01*
X813Y2D01*
X812Y2D01*
X811Y2D01*
X810Y2D01*
X809Y2D01*
X808Y2D01*
X807Y2D01*
X806Y2D01*
X805Y2D01*
X804Y2D01*
X803Y2D01*
X802Y2D01*
X801Y2D01*
X800Y2D01*
X799Y2D01*
X798Y2D01*
X797Y2D01*
X796Y2D01*
X795Y2D01*
X794Y2D01*
X793Y2D01*
X792Y2D01*
X791Y2D01*
X790Y2D01*
X789Y2D01*
X788Y2D01*
X787Y2D01*
X786Y2D01*
X785Y2D01*
X784Y2D01*
X783Y2D01*
X782Y2D01*
X781Y2D01*
X780Y2D01*
X779Y2D01*
X778Y2D01*
X777Y2D01*
X776Y2D01*
X775Y2D01*
X774Y2D01*
X773Y2D01*
X772Y2D01*
X771Y2D01*
X770Y2D01*
X769Y2D01*
X768Y2D01*
X767Y2D01*
X766Y2D01*
X765Y2D01*
X764Y2D01*
X763Y2D01*
X762Y2D01*
X761Y2D01*
X760Y2D01*
X759Y2D01*
X758Y2D01*
X757Y2D01*
X756Y2D01*
X755Y2D01*
X754Y2D01*
X753Y2D01*
X752Y2D01*
X751Y2D01*
X750Y2D01*
X749Y2D01*
X748Y2D01*
X747Y2D01*
X746Y2D01*
X745Y2D01*
X744Y2D01*
X743Y2D01*
X742Y2D01*
X741Y2D01*
X740Y2D01*
X739Y2D01*
X738Y2D01*
X737Y2D01*
X736Y2D01*
X735Y2D01*
X734Y2D01*
X733Y2D01*
X732Y2D01*
X731Y2D01*
X730Y2D01*
X729Y2D01*
X728Y2D01*
X727Y2D01*
X726Y2D01*
X725Y2D01*
X724Y2D01*
X723Y2D01*
X722Y2D01*
X721Y2D01*
X720Y2D01*
X719Y2D01*
X718Y2D01*
X717Y2D01*
X716Y2D01*
X715Y2D01*
X714Y2D01*
X713Y2D01*
X712Y2D01*
X711Y2D01*
X710Y2D01*
X709Y2D01*
X708Y2D01*
X707Y2D01*
X706Y2D01*
X705Y2D01*
X704Y2D01*
X703Y2D01*
X702Y2D01*
X701Y2D01*
X700Y2D01*
X699Y2D01*
X698Y2D01*
X697Y2D01*
X696Y2D01*
X695Y2D01*
X694Y2D01*
X693Y2D01*
X692Y2D01*
X691Y2D01*
X690Y2D01*
X689Y2D01*
X688Y2D01*
X687Y2D01*
X686Y2D01*
X685Y2D01*
X684Y2D01*
X683Y2D01*
X682Y2D01*
X681Y2D01*
X680Y2D01*
X679Y2D01*
X678Y2D01*
X677Y2D01*
X676Y2D01*
X675Y2D01*
X674Y2D01*
X673Y2D01*
X672Y2D01*
X671Y2D01*
X670Y2D01*
X669Y2D01*
X668Y2D01*
X667Y2D01*
X666Y2D01*
X665Y2D01*
X664Y2D01*
X663Y2D01*
X662Y2D01*
X661Y2D01*
X660Y2D01*
X659Y2D01*
X658Y2D01*
X657Y2D01*
X656Y2D01*
X655Y2D01*
X654Y2D01*
X653Y2D01*
X652Y2D01*
X651Y2D01*
X650Y2D01*
X649Y2D01*
X648Y2D01*
X647Y2D01*
X646Y2D01*
X645Y2D01*
X644Y2D01*
X643Y2D01*
X642Y2D01*
X641Y2D01*
X640Y2D01*
X639Y2D01*
X638Y2D01*
X637Y2D01*
X636Y2D01*
X635Y2D01*
X634Y2D01*
X633Y2D01*
X632Y2D01*
X631Y2D01*
X630Y2D01*
X629Y2D01*
X628Y2D01*
X627Y2D01*
X626Y2D01*
X625Y2D01*
X624Y2D01*
X623Y2D01*
X622Y2D01*
X621Y2D01*
X620Y2D01*
X619Y2D01*
X618Y2D01*
X617Y2D01*
X616Y2D01*
X615Y2D01*
X614Y2D01*
X613Y2D01*
X612Y2D01*
X611Y2D01*
X610Y2D01*
X609Y2D01*
X608Y2D01*
X607Y2D01*
X606Y2D01*
X605Y2D01*
X604Y2D01*
X603Y2D01*
X602Y2D01*
X601Y2D01*
X600Y2D01*
X599Y2D01*
X598Y2D01*
X597Y2D01*
X596Y2D01*
X595Y2D01*
X594Y2D01*
X593Y2D01*
X592Y2D01*
X591Y2D01*
X590Y2D01*
X589Y2D01*
X588Y2D01*
X587Y2D01*
X586Y2D01*
X585Y2D01*
X584Y2D01*
X583Y2D01*
X582Y2D01*
X581Y2D01*
X580Y2D01*
X579Y2D01*
X578Y2D01*
X577Y2D01*
X576Y2D01*
X575Y2D01*
X574Y2D01*
X573Y2D01*
X572Y2D01*
X571Y2D01*
X570Y2D01*
X569Y2D01*
X568Y2D01*
X567Y2D01*
X566Y2D01*
X565Y2D01*
X564Y2D01*
X563Y2D01*
X562Y2D01*
X561Y2D01*
X560Y2D01*
X559Y2D01*
X558Y2D01*
X557Y2D01*
X556Y2D01*
X555Y2D01*
X554Y2D01*
X553Y2D01*
X552Y2D01*
X551Y2D01*
X550Y2D01*
X549Y2D01*
X548Y2D01*
X547Y2D01*
X546Y2D01*
X545Y2D01*
X544Y2D01*
X543Y2D01*
X542Y2D01*
X541Y2D01*
X540Y2D01*
X539Y2D01*
X538Y2D01*
X537Y2D01*
X536Y2D01*
X535Y2D01*
X534Y2D01*
X533Y2D01*
X532Y2D01*
X531Y2D01*
X530Y2D01*
X529Y2D01*
X528Y2D01*
X527Y2D01*
X526Y2D01*
X525Y2D01*
X524Y2D01*
X523Y2D01*
X522Y2D01*
X521Y2D01*
X520Y2D01*
X519Y2D01*
X518Y2D01*
X517Y2D01*
X516Y2D01*
X515Y2D01*
X514Y2D01*
X513Y2D01*
X512Y2D01*
X511Y2D01*
X510Y2D01*
X509Y2D01*
X508Y2D01*
X507Y2D01*
X506Y2D01*
X505Y2D01*
X504Y2D01*
X503Y2D01*
X502Y2D01*
X501Y2D01*
X500Y2D01*
X499Y2D01*
X498Y2D01*
X497Y2D01*
X496Y2D01*
X495Y2D01*
X494Y2D01*
X493Y2D01*
X492Y2D01*
X491Y2D01*
X490Y2D01*
X489Y2D01*
X488Y2D01*
X487Y2D01*
X486Y2D01*
X485Y2D01*
X484Y2D01*
X483Y2D01*
X482Y2D01*
X481Y2D01*
X480Y2D01*
X479Y2D01*
X478Y2D01*
X477Y2D01*
X476Y2D01*
X475Y2D01*
X474Y2D01*
X473Y2D01*
X472Y2D01*
X471Y2D01*
X470Y2D01*
X469Y2D01*
X468Y2D01*
X467Y2D01*
X466Y2D01*
X465Y2D01*
X464Y2D01*
X463Y2D01*
X462Y2D01*
X461Y2D01*
X460Y2D01*
X459Y2D01*
X458Y2D01*
X457Y2D01*
X456Y2D01*
X455Y2D01*
X454Y2D01*
X453Y2D01*
X452Y2D01*
X451Y2D01*
X450Y2D01*
X449Y2D01*
X448Y2D01*
X447Y2D01*
X446Y2D01*
X445Y2D01*
X444Y2D01*
X443Y2D01*
X442Y2D01*
X441Y2D01*
X440Y2D01*
X439Y2D01*
X438Y2D01*
X437Y2D01*
X436Y2D01*
X435Y2D01*
X434Y2D01*
X433Y2D01*
X432Y2D01*
X431Y2D01*
X430Y2D01*
X429Y2D01*
X428Y2D01*
X427Y2D01*
X426Y2D01*
X425Y2D01*
X424Y2D01*
X423Y2D01*
X422Y2D01*
X421Y2D01*
X420Y2D01*
X419Y2D01*
X418Y2D01*
X417Y2D01*
X416Y2D01*
X415Y2D01*
X414Y2D01*
X413Y2D01*
X412Y2D01*
X411Y2D01*
X410Y2D01*
X409Y2D01*
X408Y2D01*
X407Y2D01*
X406Y2D01*
X405Y2D01*
X404Y2D01*
X403Y2D01*
X402Y2D01*
X401Y2D01*
X400Y2D01*
X399Y2D01*
X398Y2D01*
X397Y2D01*
X396Y2D01*
X395Y2D01*
X394Y2D01*
X393Y2D01*
X392Y2D01*
X391Y2D01*
X390Y2D01*
X389Y2D01*
X388Y2D01*
X387Y2D01*
X386Y2D01*
X385Y2D01*
X384Y2D01*
X383Y2D01*
X382Y2D01*
X381Y2D01*
X380Y2D01*
X379Y2D01*
X378Y2D01*
X377Y2D01*
X376Y2D01*
X375Y2D01*
X374Y2D01*
X373Y2D01*
X372Y2D01*
X371Y3D01*
X370Y3D01*
X369Y3D01*
X368Y3D01*
X367Y3D01*
X366Y3D01*
X365Y3D01*
X364Y3D01*
X363Y3D01*
X362Y3D01*
X361Y3D01*
X360Y3D01*
X359Y3D01*
X358Y3D01*
X357Y4D01*
X356Y4D01*
X355Y4D01*
X354Y4D01*
X353Y4D01*
X352Y4D01*
X351Y4D01*
X350Y4D01*
X349Y4D01*
X348Y4D01*
X347Y5D01*
X346Y5D01*
X345Y5D01*
X344Y5D01*
X343Y5D01*
X342Y5D01*
X341Y5D01*
X340Y5D01*
X339Y6D01*
X338Y6D01*
X337Y6D01*
X336Y6D01*
X335Y6D01*
X334Y6D01*
X333Y6D01*
X332Y7D01*
X331Y7D01*
X330Y7D01*
X329Y7D01*
X328Y7D01*
X327Y7D01*
X326Y8D01*
X325Y8D01*
X324Y8D01*
X323Y8D01*
X322Y8D01*
X321Y8D01*
X320Y9D01*
X319Y9D01*
X318Y9D01*
X317Y9D01*
X316Y9D01*
X315Y10D01*
X314Y10D01*
X313Y10D01*
X312Y10D01*
X311Y10D01*
X310Y11D01*
X309Y11D01*
X308Y11D01*
X307Y11D01*
X306Y11D01*
X305Y12D01*
X304Y12D01*
X303Y12D01*
X302Y12D01*
X301Y13D01*
X300Y13D01*
X299Y13D01*
X298Y13D01*
X297Y14D01*
X296Y14D01*
X295Y14D01*
X294Y14D01*
X293Y15D01*
X292Y15D01*
X291Y15D01*
X290Y15D01*
X289Y16D01*
X288Y16D01*
X287Y16D01*
X286Y17D01*
X285Y17D01*
X284Y17D01*
X283Y17D01*
X282Y18D01*
X281Y18D01*
X280Y18D01*
X279Y19D01*
X278Y19D01*
X277Y19D01*
X276Y19D01*
X275Y20D01*
X274Y20D01*
X273Y20D01*
X272Y21D01*
X271Y21D01*
X270Y21D01*
X269Y22D01*
X268Y22D01*
X267Y22D01*
X266Y23D01*
X265Y23D01*
X264Y23D01*
X263Y24D01*
X262Y24D01*
X261Y24D01*
X260Y25D01*
X259Y25D01*
X258Y26D01*
X257Y26D01*
X256Y26D01*
X255Y27D01*
X254Y27D01*
X253Y27D01*
X252Y28D01*
X251Y28D01*
X250Y29D01*
X249Y29D01*
X248Y29D01*
X247Y30D01*
X246Y30D01*
X245Y31D01*
X244Y31D01*
X243Y31D01*
X242Y32D01*
X241Y32D01*
X240Y33D01*
X239Y33D01*
X238Y33D01*
X237Y34D01*
X236Y34D01*
X235Y35D01*
X234Y35D01*
X233Y36D01*
X232Y36D01*
X231Y37D01*
X230Y37D01*
X229Y38D01*
X228Y38D01*
X227Y38D01*
X226Y39D01*
X225Y39D01*
X224Y40D01*
X223Y40D01*
X222Y41D01*
X221Y41D01*
X220Y42D01*
X219Y42D01*
X218Y43D01*
X217Y43D01*
X216Y44D01*
X215Y44D01*
X214Y45D01*
X213Y45D01*
X212Y46D01*
X211Y46D01*
X210Y47D01*
X209Y47D01*
X208Y48D01*
X207Y48D01*
X206Y49D01*
X205Y50D01*
X204Y50D01*
X203Y51D01*
X202Y51D01*
X201Y52D01*
X200Y52D01*
X199Y53D01*
X198Y54D01*
X197Y54D01*
X196Y55D01*
X195Y55D01*
X194Y56D01*
X193Y56D01*
X192Y57D01*
X191Y58D01*
X190Y58D01*
X189Y59D01*
X188Y59D01*
X187Y60D01*
X186Y61D01*
X185Y61D01*
X184Y62D01*
X183Y63D01*
X182Y63D01*
X181Y64D01*
X180Y64D01*
X179Y65D01*
X178Y66D01*
X177Y66D01*
X176Y67D01*
X175Y68D01*
X174Y68D01*
X173Y69D01*
X172Y70D01*
X171Y70D01*
X170Y71D01*
X169Y72D01*
X168Y73D01*
X167Y73D01*
X166Y74D01*
X165Y75D01*
X164Y75D01*
X163Y76D01*
X162Y77D01*
X161Y78D01*
X160Y78D01*
X159Y79D01*
X158Y80D01*
X157Y80D01*
X156Y81D01*
X155Y82D01*
X154Y83D01*
X153Y84D01*
X152Y84D01*
X151Y85D01*
X150Y86D01*
X149Y87D01*
X148Y88D01*
X147Y88D01*
X146Y89D01*
X145Y90D01*
X144Y91D01*
X143Y91D01*
X142Y92D01*
X141Y93D01*
X140Y94D01*
X139Y95D01*
X138Y96D01*
X137Y97D01*
X136Y98D01*
X135Y98D01*
X134Y99D01*
X133Y100D01*
X132Y101D01*
X131Y102D01*
X130Y103D01*
X129Y104D01*
X128Y104D01*
X127Y105D01*
X126Y106D01*
X125Y107D01*
X124Y108D01*
X123Y109D01*
X122Y110D01*
X121Y111D01*
X120Y112D01*
X119Y113D01*
X118Y114D01*
X117Y115D01*
X116Y116D01*
X115Y117D01*
X114Y118D01*
X113Y119D01*
X112Y120D01*
X111Y121D01*
X110Y122D01*
X109Y123D01*
X108Y124D01*
X107Y125D01*
X106Y126D01*
X105Y127D01*
X105Y128D01*
X104Y129D01*
X103Y130D01*
X102Y131D01*
X101Y132D01*
X100Y133D01*
X99Y134D01*
X98Y135D01*
X97Y136D01*
X97Y137D01*
X96Y138D01*
X95Y139D01*
X94Y140D01*
X93Y141D01*
X92Y142D01*
X91Y143D01*
X91Y144D01*
X90Y145D01*
X89Y146D01*
X88Y147D01*
X87Y148D01*
X87Y149D01*
X86Y150D01*
X85Y151D01*
X84Y152D01*
X83Y153D01*
X83Y154D01*
X82Y155D01*
X81Y156D01*
X80Y157D01*
X80Y158D01*
X79Y159D01*
X78Y160D01*
X77Y161D01*
X77Y162D01*
X76Y163D01*
X75Y164D01*
X74Y165D01*
X74Y166D01*
X73Y167D01*
X72Y168D01*
X72Y169D01*
X71Y170D01*
X70Y171D01*
X70Y172D01*
X69Y173D01*
X68Y174D01*
X67Y175D01*
X67Y176D01*
X66Y177D01*
X65Y178D01*
X65Y179D01*
X64Y180D01*
X64Y181D01*
X63Y182D01*
X62Y183D01*
X62Y184D01*
X61Y185D01*
X60Y186D01*
X60Y187D01*
X59Y188D01*
X58Y189D01*
X58Y190D01*
X57Y191D01*
X57Y192D01*
X56Y193D01*
X55Y194D01*
X55Y195D01*
X54Y196D01*
X54Y197D01*
X53Y198D01*
X53Y199D01*
X52Y200D01*
X51Y201D01*
X51Y202D01*
X50Y203D01*
X50Y204D01*
X49Y205D01*
X49Y206D01*
X48Y207D01*
X47Y208D01*
X47Y209D01*
X46Y210D01*
X46Y211D01*
X45Y212D01*
X45Y213D01*
X44Y214D01*
X44Y215D01*
X43Y216D01*
X43Y217D01*
X42Y218D01*
X42Y219D01*
X41Y220D01*
X41Y221D01*
X40Y222D01*
X40Y223D01*
X39Y224D01*
X39Y225D01*
X38Y226D01*
X38Y227D01*
X37Y228D01*
X37Y230D01*
X36Y231D01*
X36Y232D01*
X35Y233D01*
X35Y234D01*
X34Y235D01*
X34Y236D01*
X33Y237D01*
X33Y239D01*
X32Y240D01*
X32Y241D01*
X31Y242D01*
X31Y243D01*
X30Y244D01*
X30Y246D01*
X29Y247D01*
X29Y248D01*
X28Y249D01*
X28Y251D01*
X27Y252D01*
X27Y253D01*
X26Y254D01*
X26Y256D01*
X25Y257D01*
X25Y259D01*
X24Y260D01*
X24Y261D01*
X23Y262D01*
X23Y264D01*
X22Y265D01*
X22Y267D01*
X21Y268D01*
X21Y270D01*
X20Y271D01*
X20Y273D01*
X19Y274D01*
X19Y276D01*
X18Y277D01*
X18Y279D01*
X17Y280D01*
X17Y283D01*
X16Y284D01*
X16Y286D01*
X15Y287D01*
X15Y289D01*
X14Y290D01*
X14Y293D01*
X13Y294D01*
X13Y297D01*
X12Y298D01*
X12Y301D01*
X11Y302D01*
X11Y305D01*
X10Y306D01*
X10Y310D01*
X9Y311D01*
X9Y314D01*
X8Y315D01*
X8Y319D01*
X7Y320D01*
X7Y324D01*
X6Y325D01*
X6Y330D01*
X5Y331D01*
X5Y336D01*
X4Y337D01*
X4Y343D01*
X3Y344D01*
X3Y352D01*
X2Y353D01*
X2Y362D01*
X1Y363D01*
X1Y376D01*
X0Y377D01*
X0Y2893D01*
X1Y2894D01*
X1Y2907D01*
X2Y2908D01*
X2Y2917D01*
X3Y2918D01*
X3Y2926D01*
X4Y2927D01*
X4Y2933D01*
X5Y2934D01*
X5Y2939D01*
X6Y2940D01*
X6Y2945D01*
X7Y2946D01*
X7Y2950D01*
X8Y2951D01*
X8Y2955D01*
X9Y2956D01*
X9Y2959D01*
X10Y2960D01*
X10Y2964D01*
X11Y2965D01*
X11Y2968D01*
X12Y2969D01*
X12Y2972D01*
X13Y2973D01*
X13Y2976D01*
X14Y2977D01*
X14Y2980D01*
X15Y2981D01*
X15Y2983D01*
X16Y2984D01*
X16Y2986D01*
X17Y2987D01*
X17Y2990D01*
X18Y2991D01*
X18Y2993D01*
X19Y2994D01*
X19Y2996D01*
X20Y2997D01*
X20Y2999D01*
X21Y3000D01*
X21Y3002D01*
X22Y3003D01*
X22Y3005D01*
X23Y3006D01*
X23Y3008D01*
X24Y3009D01*
X24Y3010D01*
X25Y3011D01*
X25Y3013D01*
X26Y3014D01*
X26Y3016D01*
X27Y3017D01*
X27Y3018D01*
X28Y3019D01*
X28Y3021D01*
X29Y3022D01*
X29Y3023D01*
X30Y3024D01*
X30Y3026D01*
X31Y3027D01*
X31Y3028D01*
X32Y3029D01*
X32Y3030D01*
X33Y3031D01*
X33Y3033D01*
X34Y3034D01*
X34Y3035D01*
X35Y3036D01*
X35Y3037D01*
X36Y3038D01*
X36Y3039D01*
X37Y3040D01*
X37Y3042D01*
X38Y3043D01*
X38Y3044D01*
X39Y3045D01*
X39Y3046D01*
X40Y3047D01*
X40Y3048D01*
X41Y3049D01*
X41Y3050D01*
X42Y3051D01*
X42Y3052D01*
X43Y3053D01*
X43Y3054D01*
X44Y3055D01*
X44Y3056D01*
X45Y3057D01*
X45Y3058D01*
X46Y3059D01*
X46Y3060D01*
X47Y3061D01*
X47Y3062D01*
X48Y3063D01*
X49Y3064D01*
X49Y3065D01*
X50Y3066D01*
X50Y3067D01*
X51Y3068D01*
X51Y3069D01*
X52Y3070D01*
X53Y3071D01*
X53Y3072D01*
X54Y3073D01*
X54Y3074D01*
X55Y3075D01*
X55Y3076D01*
X56Y3077D01*
X57Y3078D01*
X57Y3079D01*
X58Y3080D01*
X58Y3081D01*
X59Y3082D01*
X60Y3083D01*
X60Y3084D01*
X61Y3085D01*
X62Y3086D01*
X62Y3087D01*
X63Y3088D01*
X64Y3089D01*
X64Y3090D01*
X65Y3091D01*
X65Y3092D01*
X66Y3093D01*
X67Y3094D01*
X67Y3095D01*
X68Y3096D01*
X69Y3097D01*
X70Y3098D01*
X70Y3099D01*
X71Y3100D01*
X72Y3101D01*
X72Y3102D01*
X73Y3103D01*
X74Y3104D01*
X74Y3105D01*
X75Y3106D01*
X76Y3107D01*
X77Y3108D01*
X77Y3109D01*
X78Y3110D01*
X79Y3111D01*
X80Y3112D01*
X80Y3113D01*
X81Y3114D01*
X82Y3115D01*
X83Y3116D01*
X83Y3117D01*
X84Y3118D01*
X85Y3119D01*
X86Y3120D01*
X87Y3121D01*
X87Y3122D01*
X88Y3123D01*
X89Y3124D01*
X90Y3125D01*
X91Y3126D01*
X91Y3127D01*
X92Y3128D01*
X93Y3129D01*
X94Y3130D01*
X95Y3131D01*
X96Y3132D01*
X97Y3133D01*
X97Y3134D01*
X98Y3135D01*
X99Y3136D01*
X100Y3137D01*
X101Y3138D01*
X102Y3139D01*
X103Y3140D01*
X104Y3141D01*
X105Y3142D01*
X105Y3143D01*
X106Y3144D01*
X107Y3145D01*
X108Y3146D01*
X109Y3147D01*
X110Y3148D01*
X111Y3149D01*
X112Y3150D01*
X113Y3151D01*
X114Y3152D01*
X115Y3153D01*
X116Y3154D01*
X117Y3155D01*
X118Y3156D01*
X119Y3157D01*
X120Y3158D01*
X121Y3159D01*
X122Y3160D01*
X123Y3161D01*
X124Y3162D01*
X125Y3163D01*
X126Y3164D01*
X127Y3165D01*
X128Y3166D01*
X129Y3166D01*
X130Y3167D01*
X131Y3168D01*
X132Y3169D01*
X133Y3170D01*
X134Y3171D01*
X135Y3172D01*
X136Y3172D01*
X137Y3173D01*
X138Y3174D01*
X139Y3175D01*
X140Y3176D01*
X141Y3177D01*
X142Y3178D01*
X143Y3179D01*
X144Y3179D01*
X145Y3180D01*
X146Y3181D01*
X147Y3182D01*
X148Y3182D01*
X149Y3183D01*
X150Y3184D01*
X151Y3185D01*
X152Y3186D01*
X153Y3186D01*
X154Y3187D01*
X155Y3188D01*
X156Y3189D01*
X157Y3190D01*
X158Y3190D01*
X159Y3191D01*
X160Y3192D01*
X161Y3192D01*
X162Y3193D01*
X163Y3194D01*
X164Y3195D01*
X165Y3195D01*
X166Y3196D01*
X167Y3197D01*
X168Y3197D01*
X169Y3198D01*
X170Y3199D01*
X171Y3200D01*
X172Y3200D01*
X173Y3201D01*
X174Y3202D01*
X175Y3202D01*
X176Y3203D01*
X177Y3204D01*
X178Y3204D01*
X179Y3205D01*
X180Y3206D01*
X181Y3206D01*
X182Y3207D01*
X183Y3207D01*
X184Y3208D01*
X185Y3209D01*
X186Y3209D01*
X187Y3210D01*
X188Y3211D01*
X189Y3211D01*
X190Y3212D01*
X191Y3212D01*
X192Y3213D01*
X193Y3214D01*
X194Y3214D01*
X195Y3215D01*
X196Y3215D01*
X197Y3216D01*
X198Y3216D01*
X199Y3217D01*
X200Y3218D01*
X201Y3218D01*
X202Y3219D01*
X203Y3219D01*
X204Y3220D01*
X205Y3220D01*
X206Y3221D01*
X207Y3222D01*
X208Y3222D01*
X209Y3223D01*
X210Y3223D01*
X211Y3224D01*
X212Y3224D01*
X213Y3225D01*
X214Y3225D01*
X215Y3226D01*
X216Y3226D01*
X217Y3227D01*
X218Y3227D01*
X219Y3228D01*
X220Y3228D01*
X221Y3229D01*
X222Y3229D01*
X223Y3230D01*
X224Y3230D01*
X225Y3231D01*
X226Y3231D01*
X227Y3232D01*
X228Y3232D01*
X229Y3232D01*
X230Y3233D01*
X231Y3233D01*
X232Y3234D01*
X233Y3234D01*
X234Y3235D01*
X235Y3235D01*
X236Y3236D01*
X237Y3236D01*
X238Y3237D01*
X239Y3237D01*
X240Y3237D01*
X241Y3238D01*
X242Y3238D01*
X243Y3239D01*
X244Y3239D01*
X245Y3239D01*
X246Y3240D01*
X247Y3240D01*
X248Y3241D01*
X249Y3241D01*
X250Y3241D01*
X251Y3242D01*
X252Y3242D01*
X253Y3243D01*
X254Y3243D01*
X255Y3243D01*
X256Y3244D01*
X257Y3244D01*
X258Y3244D01*
X259Y3245D01*
X260Y3245D01*
X261Y3246D01*
X262Y3246D01*
X263Y3246D01*
X264Y3247D01*
X265Y3247D01*
X266Y3247D01*
X267Y3248D01*
X268Y3248D01*
X269Y3248D01*
X270Y3249D01*
X271Y3249D01*
X272Y3249D01*
X273Y3250D01*
X274Y3250D01*
X275Y3250D01*
X276Y3251D01*
X277Y3251D01*
X278Y3251D01*
X279Y3251D01*
X280Y3252D01*
X281Y3252D01*
X282Y3252D01*
X283Y3253D01*
X284Y3253D01*
X285Y3253D01*
X286Y3254D01*
X287Y3254D01*
X288Y3254D01*
X289Y3254D01*
X290Y3255D01*
X291Y3255D01*
X292Y3255D01*
X293Y3255D01*
X294Y3256D01*
X295Y3256D01*
X296Y3256D01*
X297Y3256D01*
X298Y3257D01*
X299Y3257D01*
X300Y3257D01*
X301Y3257D01*
X302Y3258D01*
X303Y3258D01*
X304Y3258D01*
X305Y3258D01*
X306Y3259D01*
X307Y3259D01*
X308Y3259D01*
X309Y3259D01*
X310Y3259D01*
X311Y3260D01*
X312Y3260D01*
X313Y3260D01*
X314Y3260D01*
X315Y3260D01*
X316Y3261D01*
X317Y3261D01*
X318Y3261D01*
X319Y3261D01*
X320Y3261D01*
X321Y3262D01*
X322Y3262D01*
X323Y3262D01*
X324Y3262D01*
X325Y3262D01*
X326Y3262D01*
X327Y3263D01*
X328Y3263D01*
X329Y3263D01*
X330Y3263D01*
X331Y3263D01*
X332Y3263D01*
X333Y3264D01*
X334Y3264D01*
X335Y3264D01*
X336Y3264D01*
X337Y3264D01*
X338Y3264D01*
X339Y3264D01*
X340Y3265D01*
X341Y3265D01*
X342Y3265D01*
X343Y3265D01*
X344Y3265D01*
X345Y3265D01*
X346Y3265D01*
X347Y3265D01*
X348Y3266D01*
X349Y3266D01*
X350Y3266D01*
X351Y3266D01*
X352Y3266D01*
X353Y3266D01*
X354Y3266D01*
X355Y3266D01*
X356Y3266D01*
X357Y3266D01*
X358Y3267D01*
X359Y3267D01*
X360Y3267D01*
X361Y3267D01*
X362Y3267D01*
X363Y3267D01*
X364Y3267D01*
X365Y3267D01*
X366Y3267D01*
X367Y3267D01*
X368Y3267D01*
X369Y3267D01*
X370Y3267D01*
X371Y3267D01*
X372Y3268D01*
D02*
G04 End of contour*
M02*