G04 MADE WITH FRITZING*
G04 WWW.FRITZING.ORG*
G04 DOUBLE SIDED*
G04 HOLES PLATED*
G04 CONTOUR ON CENTER OF CONTOUR VECTOR*
%ASAXBY*%
%FSLAX23Y23*%
%MOIN*%
%OFA0B0*%
%SFA1.0B1.0*%
%ADD10C,0.062992*%
%ADD11C,0.075000*%
%ADD12C,0.078000*%
%ADD13C,0.074000*%
%ADD14C,0.070000*%
%ADD15C,0.092000*%
%ADD16C,0.039370*%
%ADD17R,0.062992X0.062992*%
%ADD18R,0.070866X0.125984*%
%ADD19R,0.078000X0.078000*%
%ADD20R,0.070000X0.069972*%
%ADD21R,0.092000X0.092000*%
%ADD22C,0.024000*%
%ADD23C,0.020000*%
%LNCOPPER1*%
G90*
G70*
G54D10*
X1366Y355D03*
X1366Y453D03*
X1766Y355D03*
X1766Y453D03*
G54D11*
X810Y432D03*
X1066Y432D03*
X810Y255D03*
X1066Y255D03*
G54D12*
X2966Y2255D03*
X2866Y2255D03*
X2066Y3055D03*
X1966Y3055D03*
X1066Y3055D03*
X966Y3055D03*
X266Y2955D03*
X166Y2955D03*
X366Y1255D03*
X296Y1184D03*
G54D13*
X166Y2555D03*
X266Y2555D03*
X366Y2555D03*
X466Y2555D03*
X566Y2555D03*
X666Y2555D03*
X766Y2555D03*
X866Y2555D03*
X966Y2555D03*
X1066Y2555D03*
X1166Y2555D03*
X1266Y2555D03*
X1366Y2555D03*
X1466Y2555D03*
X1566Y2555D03*
X1666Y2555D03*
X566Y1955D03*
X666Y1955D03*
X766Y1955D03*
X866Y1955D03*
X966Y1955D03*
X1066Y1955D03*
X1166Y1955D03*
X1266Y1955D03*
G54D12*
X1966Y2755D03*
X1966Y2655D03*
X1966Y2555D03*
X1966Y2455D03*
X1966Y2355D03*
X1966Y2255D03*
X1966Y2155D03*
X1966Y2055D03*
G54D13*
X2866Y155D03*
X2766Y155D03*
X2666Y155D03*
X2566Y155D03*
X2466Y155D03*
X2366Y155D03*
G54D14*
X2066Y1655D03*
X1966Y1655D03*
X1866Y1655D03*
X1766Y1655D03*
X1666Y1655D03*
X1566Y1655D03*
X1466Y1655D03*
X1366Y1655D03*
X1266Y1655D03*
X1166Y1655D03*
X1066Y1655D03*
X966Y1655D03*
X866Y1655D03*
X766Y1655D03*
X666Y1655D03*
X2066Y1055D03*
X1966Y1055D03*
X1866Y1055D03*
X1766Y1055D03*
X1666Y1055D03*
X1566Y1055D03*
X1466Y1055D03*
X1366Y1055D03*
X1266Y1055D03*
X1166Y1055D03*
X1066Y1055D03*
X966Y1055D03*
X866Y1055D03*
X766Y1055D03*
X666Y1055D03*
G54D13*
X566Y562D03*
X566Y455D03*
X566Y348D03*
X566Y562D03*
X566Y455D03*
X566Y348D03*
G54D15*
X266Y255D03*
X266Y555D03*
G54D13*
X2166Y348D03*
X2166Y455D03*
X2166Y562D03*
X2166Y348D03*
X2166Y455D03*
X2166Y562D03*
G54D16*
X1524Y760D03*
X828Y1792D03*
X564Y1528D03*
X636Y2728D03*
X1740Y592D03*
X2052Y856D03*
X732Y2200D03*
X516Y3088D03*
X60Y2656D03*
X2484Y2104D03*
X1932Y2896D03*
X1788Y1840D03*
X1908Y856D03*
X636Y2200D03*
X1716Y160D03*
X900Y2656D03*
X2124Y1576D03*
X2172Y1792D03*
G54D17*
X1366Y355D03*
X1766Y355D03*
G54D18*
X1487Y655D03*
X1266Y655D03*
X1887Y655D03*
X1666Y655D03*
G54D19*
X2966Y2255D03*
X2066Y3055D03*
X1066Y3055D03*
X266Y2955D03*
G54D18*
X2787Y2055D03*
X2566Y2055D03*
G54D19*
X1966Y2755D03*
G54D18*
X1787Y2955D03*
X1566Y2955D03*
X787Y2855D03*
X566Y2855D03*
X287Y2755D03*
X66Y2755D03*
X1646Y155D03*
X1866Y155D03*
X1246Y155D03*
X1466Y155D03*
G54D20*
X2066Y1655D03*
G54D21*
X266Y255D03*
G54D22*
X1295Y597D02*
X1354Y477D01*
D02*
X2448Y180D02*
X2412Y232D01*
X2412Y232D02*
X1896Y159D01*
D02*
X1276Y160D02*
X1404Y184D01*
X1404Y184D02*
X1404Y256D01*
X1404Y256D02*
X1716Y256D01*
X1716Y256D02*
X1836Y175D01*
D02*
X1565Y1626D02*
X1548Y1120D01*
X1548Y1120D02*
X2124Y1120D01*
X2124Y1120D02*
X2124Y784D01*
X2124Y784D02*
X1956Y640D01*
X1956Y640D02*
X1956Y544D01*
X1956Y544D02*
X1716Y520D01*
X1716Y520D02*
X1644Y304D01*
X1644Y304D02*
X1356Y304D01*
X1356Y304D02*
X1356Y256D01*
X1356Y256D02*
X1188Y256D01*
X1188Y256D02*
X1188Y64D01*
X1188Y64D02*
X1428Y88D01*
X1428Y88D02*
X1436Y102D01*
D02*
X882Y1679D02*
X1049Y1929D01*
D02*
X182Y2929D02*
X257Y2804D01*
D02*
X445Y2578D02*
X317Y2721D01*
D02*
X304Y1155D02*
X347Y1016D01*
D02*
X946Y3032D02*
X817Y2888D01*
D02*
X651Y2740D02*
X757Y2829D01*
D02*
X1696Y629D02*
X1726Y604D01*
D02*
X1945Y1635D02*
X1932Y1624D01*
X1932Y1624D02*
X1932Y1168D01*
X1932Y1168D02*
X2172Y1168D01*
X2172Y1168D02*
X2172Y712D01*
X2172Y712D02*
X2004Y472D01*
X2004Y472D02*
X1793Y455D01*
D02*
X1154Y1628D02*
X1140Y1600D01*
X1140Y1600D02*
X612Y1600D01*
X612Y1600D02*
X612Y1840D01*
X612Y1840D02*
X741Y1936D01*
D02*
X1156Y1984D02*
X1140Y2032D01*
X1140Y2032D02*
X540Y2032D01*
X540Y2032D02*
X492Y2008D01*
X492Y2008D02*
X492Y1888D01*
X492Y1888D02*
X564Y1840D01*
X564Y1840D02*
X564Y1547D01*
D02*
X820Y1774D02*
X778Y1681D01*
D02*
X1250Y1981D02*
X1188Y2080D01*
X1188Y2080D02*
X444Y2080D01*
X444Y2080D02*
X444Y1840D01*
X444Y1840D02*
X516Y1792D01*
X516Y1792D02*
X516Y1480D01*
X516Y1480D02*
X972Y1480D01*
X972Y1480D02*
X967Y1084D01*
D02*
X1518Y742D02*
X1507Y712D01*
D02*
X1941Y2438D02*
X1908Y2416D01*
X1908Y2416D02*
X1908Y1720D01*
X1908Y1720D02*
X2124Y1720D01*
X2124Y1720D02*
X2124Y1595D01*
D02*
X2559Y185D02*
X2176Y1773D01*
D02*
X1943Y2535D02*
X1860Y2464D01*
X1860Y2464D02*
X1860Y2128D01*
X1860Y2128D02*
X396Y2128D01*
X396Y2128D02*
X396Y1768D01*
X396Y1768D02*
X468Y1720D01*
X468Y1720D02*
X468Y1408D01*
X468Y1408D02*
X612Y1000D01*
X612Y1000D02*
X1476Y1000D01*
X1476Y1000D02*
X1471Y1026D01*
D02*
X1940Y3040D02*
X1817Y2971D01*
D02*
X253Y2583D02*
X132Y2848D01*
X132Y2848D02*
X108Y2848D01*
X108Y2848D02*
X108Y3016D01*
X108Y3016D02*
X468Y3016D01*
X468Y3016D02*
X468Y2704D01*
X468Y2704D02*
X588Y2680D01*
X588Y2680D02*
X684Y2680D01*
X684Y2680D02*
X852Y2728D01*
X852Y2728D02*
X852Y2848D01*
X852Y2848D02*
X1764Y2872D01*
X1764Y2872D02*
X1771Y2897D01*
D02*
X2855Y2227D02*
X2810Y2112D01*
D02*
X919Y2659D02*
X1908Y2824D01*
X1908Y2824D02*
X2028Y2824D01*
X2028Y2824D02*
X2757Y2085D01*
D02*
X1676Y157D02*
X1697Y158D01*
D02*
X617Y2200D02*
X348Y2200D01*
X348Y2200D02*
X366Y1285D01*
D02*
X1958Y1027D02*
X1913Y874D01*
D02*
X1786Y1821D02*
X1770Y1684D01*
D02*
X1951Y2896D02*
X2124Y2896D01*
X2124Y2896D02*
X2124Y3136D01*
X2124Y3136D02*
X1740Y3136D01*
X1740Y3136D02*
X1596Y2986D01*
D02*
X2536Y2072D02*
X2500Y2094D01*
D02*
X596Y2877D02*
X948Y3136D01*
X948Y3136D02*
X1140Y3136D01*
X1140Y3136D02*
X1536Y2967D01*
D02*
X63Y2697D02*
X61Y2675D01*
D02*
X520Y3069D02*
X554Y2912D01*
D02*
X719Y2213D02*
X684Y2248D01*
X684Y2248D02*
X516Y2248D01*
X516Y2248D02*
X108Y2488D01*
X108Y2488D02*
X65Y2637D01*
D02*
X2064Y1026D02*
X2053Y875D01*
D02*
X213Y839D02*
X300Y2248D01*
X300Y2248D02*
X516Y2248D01*
D02*
X547Y372D02*
X246Y753D01*
G54D23*
X407Y1255D02*
X366Y1214D01*
X325Y1255D01*
X366Y1296D01*
X407Y1255D01*
D02*
G36*
X386Y885D02*
X297Y974D01*
X347Y1024D01*
X436Y935D01*
X386Y885D01*
G37*
D02*
G36*
X230Y729D02*
X141Y818D01*
X191Y868D01*
X280Y779D01*
X230Y729D01*
G37*
D02*
G04 End of Copper1*
M02*