; NON-PLATED HOLES START AT T1
; THROUGH (PLATED) HOLES START AT T100
M48
INCH
T100C0.036000
T101C0.031497
T102C0.035000
T103C0.015748
T104C0.038000
T105C0.052000
T106C0.040000
%
T100
X013662Y016546
X019662Y016546
X014662Y016546
X018662Y016546
X011662Y016546
X017662Y010546
X010662Y016546
X008662Y016546
X008662Y010546
X013662Y010546
X015662Y016546
X016662Y016546
X020662Y016546
X006662Y010546
X009662Y010546
X014662Y010546
X018662Y010546
X019662Y010546
X016662Y010546
X006662Y016546
X012662Y016546
X017662Y016546
X010662Y010546
X012662Y010546
X007662Y016546
X007662Y010546
X011662Y010546
X009662Y016546
X015662Y010546
X020662Y010546
T101
X013662Y004530
X017662Y004530
X013662Y003546
X017662Y003546
T102
X010662Y002546
X008103Y004318
X010662Y004318
X008103Y002546
T103
X021720Y017917
X006360Y027277
X019080Y008557
X005160Y030877
X017880Y018397
X021240Y015757
X005640Y015277
X006360Y021997
X024840Y021037
X009000Y026557
X000599Y026557
X007320Y021997
X017160Y001597
X008280Y017917
X015240Y007597
X019320Y028957
X020520Y008557
X017400Y005917
T104
X029662Y022546
X019662Y023546
X009662Y030546
X010662Y030546
X019662Y022546
X001662Y029546
X028662Y022546
X019662Y024546
X002955Y011839
X003662Y012546
X019662Y020546
X019662Y021546
X019662Y030546
X019662Y025546
X002662Y029546
X020662Y030546
X019662Y027546
X019662Y026546
T105
X002662Y005546
X002662Y002546
T106
X021662Y003476
X023662Y001546
X025662Y001546
X005662Y004546
X004662Y025546
X001662Y025546
X009662Y019546
X016662Y025546
X003662Y025546
X026662Y001546
X009662Y025546
X028662Y001546
X006662Y025546
X012662Y019546
X027662Y001546
X005662Y019546
X005662Y005616
X013662Y025546
X010662Y025546
X021662Y004546
X012662Y025546
X005662Y003476
X015662Y025546
X002662Y025546
X007662Y025546
X024662Y001546
X007662Y019546
X021662Y005616
X011662Y019546
X011662Y025546
X008662Y019546
X014662Y025546
X008662Y025546
X010662Y019546
X006662Y019546
X005662Y025546
T00
M30
